<svg width="1440" height="612" viewBox="0 0 1440 612" fill="none" xmlns="http://www.w3.org/2000/svg">
<path d="M150.898 212.868C63.2523 180.038 14.4067 101.277 0.939573 66H-24.1748V539H656.825C641.902 528.921 593.493 504.011 519.242 485.005C444.991 465.998 382.023 408.331 359.82 381.873C326.699 339.217 238.543 245.697 150.898 212.868Z" fill="#C5FAFB" fill-opacity="0.4"/>
<rect x="1058.83" width="300" height="30" rx="15" fill="#8BE2E2"/>
<rect x="1140.83" y="30" width="121" height="21" rx="10.5" fill="#8BE2E2"/>
<rect x="1048.83" y="51" width="367" height="30" rx="15" fill="#8BE2E2"/>
<path d="M1267.5 387.083C1183.11 418.35 1079.03 374.055 1037.54 348C1023.03 357.678 987.87 393.672 963.312 460.225C938.754 526.778 1002.57 539.694 1037.54 537.833H1433.83C1427.69 512.522 1413.73 453.301 1407.03 418.908C1398.66 375.917 1372.99 348 1267.5 387.083Z" fill="#8EE7E8"/>
<path d="M1314.02 395.325C1232.97 412.612 1098.93 409.731 1059.08 395.325C1045.14 400.676 1037.9 404.112 1013.25 440.212C989.221 475.415 980.837 531.294 1006.55 531.294L1464.83 538C1458.93 524.005 1454.47 431.937 1448.04 412.921C1440 389.151 1415.34 373.715 1314.02 395.325Z" fill="#AAE9EA"/>
<path fill-rule="evenodd" clip-rule="evenodd" d="M1332.18 341.989C1330.18 342.071 1325.24 340.734 1323.23 341.062C1318.76 341.79 1301.36 349.522 1300.74 349.679C1299.8 349.919 1294.21 352.432 1290.93 353.842C1283.22 357.151 1252.92 364.257 1244.98 366.206C1245.35 368.937 1243.86 383.29 1245.56 383.407C1251.15 383.792 1260.2 382.745 1265.89 381.788C1270.5 381.014 1275.14 379.768 1279.65 378.216C1284.78 376.454 1288.61 375.79 1293.74 374.071C1298.79 372.38 1296.19 380.544 1294.52 383.061C1292.65 385.884 1289.14 389.184 1287.13 391.909C1295.34 395.47 1303.65 400.998 1308.93 408.585C1310.21 410.411 1312.72 411.103 1314.84 408.725C1315.93 407.498 1326.74 397.429 1328.4 395.609C1339.5 383.456 1353.9 351.771 1339.42 340.668C1338.42 342.267 1333.9 341.918 1332.18 341.989Z" fill="#69DADB"/>
<path fill-rule="evenodd" clip-rule="evenodd" d="M1269.8 237.638C1268.86 238.27 1265.36 238.259 1265.97 236.364C1266.59 234.452 1269.49 236.908 1269.8 237.638ZM1320.82 207.771C1320.56 207.913 1319.81 206.512 1320.07 206.051C1320.89 204.598 1322.27 206.521 1322.64 207.034C1323.11 207.682 1324.42 209.52 1322.68 210.118C1321.69 210.458 1321.07 208.337 1320.82 207.771ZM1256.38 268.323C1257.17 269.477 1256.33 273.573 1254.59 272.895C1253.14 272.326 1254.81 266.023 1256.38 268.323ZM1320.63 177.06C1321.1 179.35 1316.26 179.572 1315.3 178.378C1313.35 175.934 1319.53 175.273 1320.63 177.06ZM1298 206.517C1296.39 207.608 1293.06 207.193 1291.1 207.616C1289.77 207.901 1286.65 209.46 1285.61 208.536C1284.7 207.734 1290.71 206.213 1291.23 206.09C1293.61 205.528 1295.9 205.23 1298 206.517ZM1173.76 284.224C1171.91 284.217 1170.01 284.768 1168.47 286.057C1167.7 286.7 1166.39 288.507 1165.43 287.153C1163.86 284.952 1172.57 282.233 1173.94 281.821C1173.88 282.622 1173.82 283.423 1173.76 284.224ZM1307.29 312.391C1307.2 310.134 1308.24 307.958 1308.61 305.676C1309.55 308.191 1311.79 309.316 1313.75 310.742C1311.6 311.291 1309.44 311.841 1307.29 312.391ZM1172.53 469.244C1170.93 467.924 1169.34 466.613 1167.67 465.385C1165.81 464.01 1165.38 464.102 1166.08 461.549C1168.98 463.043 1171.89 464.536 1174.79 466.029C1174.14 467.16 1173.43 468.312 1172.53 469.244ZM1225.8 239.36C1226.23 236.02 1234.13 229.552 1235.96 234.721C1236.6 236.526 1233.59 236.459 1232.13 237.079C1230.68 237.695 1227.2 240.393 1225.8 239.36ZM1244.19 267.251C1244.07 266.58 1243.3 264.423 1243.82 263.792C1244.33 263.178 1247.91 263.228 1248.54 263.17C1251.69 262.879 1254.85 262.744 1258 262.586C1257.17 263.24 1256.23 263.53 1255.41 264.174C1254.43 264.938 1254 265.905 1252.9 266.422C1250.54 267.534 1246.68 267.078 1244.19 267.251ZM1212.82 223.679C1212.04 222.922 1203.82 233.581 1202.94 235.034C1202.46 235.824 1200.26 240.317 1199.23 237.008C1198.64 235.124 1201.77 230.841 1202.74 229.422C1205.22 225.816 1208.07 222.385 1211.56 219.878C1212.24 219.391 1217.4 215.738 1216.66 219.454C1216.4 220.734 1213.69 222.547 1212.82 223.679ZM1290.95 350.249C1289.7 352.673 1288.27 354.906 1286.81 357.191C1286.15 358.206 1285.36 360.135 1284.27 360.676C1283.38 361.119 1282.34 360.088 1281.4 359.591C1277.96 357.772 1274.61 356.765 1270.8 356.047C1271.33 354.451 1278.76 353.724 1280.38 353.202C1282 352.679 1283.55 352.218 1285.21 351.816C1286.77 351.438 1289.45 350.075 1290.95 350.249ZM1241.53 350.755C1238.01 351.639 1233.99 351.431 1230.47 351.183C1226.43 350.898 1222.59 350.292 1218.79 348.783C1219.95 347.949 1224.84 349.718 1222.25 345.623C1220.93 343.533 1216.86 343.674 1214.76 342.425C1216.09 339.496 1222.81 345.364 1224.09 341.629C1225.32 338.03 1217.79 335.02 1215.86 333.708C1216.63 331.665 1231.31 336.042 1233.32 336.498C1234.58 336.783 1236.98 336.58 1238.02 337.253C1238.64 337.653 1239.88 339.5 1240.11 340.135C1240.6 341.461 1240.26 343.789 1240.4 345.277C1240.58 347.161 1240.87 349.027 1241.53 350.755ZM1154.15 478.058C1154.29 472.773 1150.91 473.204 1147.18 471.878C1144.2 470.817 1141.18 469.426 1138.58 467.656C1132.09 463.23 1126.11 459.062 1120.6 453.297C1122.74 452.767 1125.66 454.903 1127.49 455.806C1129.94 457.019 1132.32 458.442 1134.85 459.492C1139.59 461.457 1144.44 463.709 1149.48 464.672C1151.76 465.109 1153.96 465.894 1156.35 466.022C1157.44 466.08 1159.1 465.522 1160.11 465.88C1161.06 466.218 1160.81 467.112 1161.55 467.83C1162.31 468.566 1163.79 468.823 1164.71 469.381C1165.92 470.114 1167.1 470.877 1168.35 471.54C1169.71 472.263 1170.28 472.76 1171.19 473.801C1172.19 474.94 1171.74 475.5 1173.57 475.82C1172.19 478.266 1170.81 480.711 1169.43 483.156C1168.97 483.982 1168.5 484.807 1168.04 485.632C1167.72 485.473 1167.41 485.314 1167.1 485.155C1166.21 485.042 1164.86 484.103 1164.1 483.634C1160.9 481.679 1157.53 479.844 1154.15 478.058ZM1333.63 313.672C1348.91 324.381 1337.6 352.612 1327.41 364.97C1326 366.682 1324.7 368.482 1323.32 370.216C1321.8 372.107 1320.14 373.29 1318.47 374.913C1317.13 376.204 1317.18 377.893 1316.04 379.282C1314.12 381.604 1313.13 379.739 1311.76 377.987C1305.94 370.558 1297.06 365.99 1288.62 362.645C1290.07 360.43 1291.46 358.165 1292.84 355.902C1294.02 353.966 1295.28 350.157 1296.95 348.687C1298.18 347.6 1300.85 347.182 1302.41 346.691C1305 345.874 1307.53 344.93 1310.04 343.782C1314.44 341.773 1319.49 339.785 1323.45 336.79C1324.59 335.927 1328.02 334.02 1328.36 332.66C1329.02 330.066 1326.15 330.624 1324.55 331.161C1314.98 334.358 1306.03 339.607 1296.4 342.748C1291.44 344.364 1286.41 345.768 1281.44 347.427C1277.16 348.857 1272.82 350.566 1268.46 351.604C1262.7 352.976 1256.59 353.841 1250.79 353.752C1249.63 353.735 1247.44 354.078 1246.34 353.591C1245.37 353.162 1245.93 353.908 1245.41 352.87C1245.03 352.123 1245.25 350.536 1245.16 349.615C1244.85 346.183 1244.37 342.78 1243.66 339.445C1251.46 337.316 1259.59 336.394 1267.42 334.52C1275.3 332.635 1283.4 329.284 1290.88 325.798C1294.07 324.315 1297.36 322.031 1300.75 321.405C1302.19 321.138 1303.68 320.973 1305.04 320.401C1305.81 320.803 1306.23 320.67 1306.29 320.002C1306.34 319.601 1306.54 319.29 1306.89 319.068C1307.67 318.635 1308.6 318.41 1309.43 318.152C1313.59 316.849 1317.83 315.993 1322.06 315.192C1324.07 314.812 1326.11 314.389 1328.12 314.174C1329.2 314.059 1330.21 314.011 1331.27 314.19C1332.54 314.404 1332.79 315.212 1333.63 313.672ZM1151 323.159C1149.61 324.298 1147.83 324.528 1146.4 325.734C1144.14 327.631 1143.51 330.923 1143.32 333.763C1142.94 339.383 1146.35 343.096 1150.21 345.981C1152.06 347.36 1154.09 348.474 1156.24 349.257C1158.14 349.95 1160.76 349.961 1162.47 351.051C1165.31 352.848 1162.34 353.488 1160.6 354.005C1158.41 354.655 1156.22 355.044 1153.98 355.002C1144 354.81 1134.24 351.283 1127.06 344.025C1123.55 340.484 1120.47 335.542 1121.09 329.886C1121.65 324.716 1125.44 320.161 1129.61 317.719C1134.13 315.08 1139.01 313.921 1143.84 313.58C1145.25 313.481 1146.61 313.509 1148.01 313.537C1149.84 313.574 1150.58 313.03 1151.27 314.817C1151.79 316.145 1151.95 317.82 1152.27 319.235C1152.87 321.886 1153.49 322.21 1151 323.159ZM1169.49 362.394L1170.09 362.67C1168.2 364.322 1165.23 363.984 1163 364.437C1160.11 365.025 1157.19 365.008 1154.29 364.955C1149.17 364.862 1143.79 364.454 1138.97 362.82C1128.18 359.156 1116.5 352.916 1111.41 341.434C1105.93 329.058 1112.54 317.359 1123.46 310.9C1128.37 307.989 1133.72 306.877 1139.1 305.788C1141.81 305.239 1144.4 305.258 1147.12 305.116C1148.53 305.043 1149.46 304.434 1150.31 305.595C1150.94 306.47 1150.74 309.746 1150.86 310.9C1142.39 309.583 1134.11 309.499 1126.31 315.287C1117.03 322.172 1117.4 335.336 1122.92 343.827C1128.34 352.154 1136.99 357.425 1146.41 359.018C1150.69 359.742 1154.51 360.02 1158.89 359.549C1161.07 359.314 1162.78 359.3 1164.93 358.587C1166.46 358.082 1166.17 357.938 1167.24 358.86C1168.14 359.643 1168.83 361.356 1169.49 362.394ZM1291.83 436.775C1292.92 438.187 1294.17 439.435 1295.44 440.643C1295.9 441.076 1297.64 442.213 1297.9 442.899C1298.34 444.032 1298.19 443.198 1297.69 444.369C1297.17 445.591 1296.14 446.36 1295.3 447.276C1294.78 447.841 1293.31 450.589 1292.84 450.711C1292.02 450.924 1291.39 449.892 1290.44 450.039C1289.14 450.238 1288.06 451.813 1287.44 452.949C1285.81 455.986 1285.7 459.658 1284.24 462.787C1281.64 468.341 1277.62 473.471 1273.4 477.62C1271.11 479.868 1268.91 482.377 1266.09 483.716C1263.86 484.771 1261.4 486.799 1258.98 485.496C1266.56 475.48 1278.64 460.992 1275.22 447.057C1278.42 447.343 1281.1 443.686 1283.35 441.512C1285.81 439.12 1288.23 437.303 1289.85 434.125C1290.66 434.967 1291.23 435.74 1291.83 436.775ZM1330.07 303.229C1325.88 306.974 1320.36 308.126 1315.35 306.654C1314.12 306.291 1312.85 305.922 1311.78 305.185C1311.52 304.987 1311.26 304.788 1311.01 304.59C1310.11 304.184 1310.07 303.691 1310.88 303.111C1310.92 302.136 1311.9 301.038 1310.85 300.158C1310.07 299.493 1309.17 300.181 1308.23 300.522C1308.19 299.554 1308.2 299.038 1308.37 298.012C1310.64 298.206 1314.89 298.753 1313.94 294.918C1313.48 293.077 1311.73 292.353 1311.04 290.779C1310.75 290.128 1310.51 288.074 1310.69 287.397C1311.7 283.792 1315.37 282.039 1318.41 281.274C1320.5 280.747 1321.07 280.824 1322.45 282.341C1323.84 283.883 1325.22 285.44 1326.64 286.954C1325.34 287.201 1324.44 286.216 1323.29 285.906C1323.34 286.538 1323.39 287.171 1323.44 287.804C1322.98 287.875 1322.68 288.132 1322.53 288.575C1322.54 289.687 1323.54 290.554 1324.18 291.218C1322.53 292.304 1323.03 294.621 1325.06 294.102C1327.17 293.564 1326.58 290.929 1325.78 289.556C1326.87 289.823 1327.23 288.928 1327.9 288.977C1328.57 289.026 1329.25 289.696 1329.97 290.454C1331.14 291.701 1333.12 293.281 1333.46 295.192C1333.98 298.031 1331.93 301.347 1330.07 303.229ZM1159.09 334.788C1161.87 335.72 1166.09 336.484 1168.22 338.587C1166.01 338.885 1159.65 336.909 1161.17 341.304C1162.04 343.826 1166.22 344.331 1168.17 345.892C1165.11 347.033 1161.6 345.777 1158.71 344.956C1155.01 343.91 1150.74 342.058 1148.08 339.114C1145.92 336.731 1146.11 332.76 1148.64 330.349C1149.93 329.117 1151.52 328.199 1153.06 327.471C1153.77 327.138 1154.79 326.605 1155.55 326.511C1156.51 326.393 1157.24 327.309 1157.35 325.976C1159.27 326.96 1161.19 327.945 1163.11 328.929C1162.06 329.285 1159.46 329.309 1158.62 330.185C1157.4 331.465 1158.43 333.72 1159.09 334.788ZM1268.22 186.541C1272.08 183.645 1276.58 181.332 1280.96 179.722C1282.05 179.323 1286.52 177.433 1286.75 179.652C1286.9 181.119 1283.13 181.875 1282.11 182.305C1277.78 184.148 1273.56 186.438 1269.41 188.774C1268.41 189.34 1265.34 191.798 1264.39 190.695C1263.23 189.35 1267.15 187.39 1268.22 186.541ZM1275.18 439.585C1277.4 438.212 1279.31 436.547 1281.2 434.653C1282.79 433.059 1284.08 430.926 1285.8 429.557C1287.03 431.464 1287.16 431.377 1285.48 433.33C1284.31 434.693 1283.03 435.947 1281.79 437.236C1279.6 439.505 1277.55 442.616 1274.78 444.054C1274.63 443.676 1273.38 441.293 1273.49 440.87C1273.55 440.633 1274.98 439.752 1275.18 439.585ZM1217.6 272.119C1217.27 272.954 1216.92 275.513 1216.25 276.083C1215.37 274.141 1215.3 269.6 1218.16 268.96C1218.86 268.803 1220.82 269.237 1220.69 270.219C1220.62 270.744 1218.3 271.562 1217.6 272.119ZM1247.62 271.754C1247.41 271.466 1247.19 271.178 1246.97 270.891C1248.08 270.743 1249.21 270.19 1250.27 270.52C1249.79 271.369 1249.32 272.218 1248.84 273.068C1248.43 272.63 1248.03 272.192 1247.62 271.754ZM1214.95 367.874C1212.07 372.215 1209.8 376.766 1209.02 382.043C1208.35 386.606 1210.25 392.195 1211.92 396.152C1216.04 405.944 1223.98 411.747 1231.13 418.56C1234.76 422.016 1238.75 424.95 1242.68 428.003C1246.11 430.67 1249.49 433.633 1253.24 435.781C1256.42 437.602 1259.95 439.089 1263.04 441.145C1264.7 442.251 1269.27 446.953 1270.54 443.323C1272.33 444.569 1272.39 444.293 1272.48 446.072C1272.55 447.36 1271.63 449.951 1271.29 451.315C1270.38 454.95 1268.67 458.703 1267.01 462.057C1263.98 468.2 1260.21 473.986 1256.9 480.021C1255.44 482.69 1253.91 485.68 1256.22 488.154C1258.15 490.228 1260.65 490.978 1263.42 490.384C1266.02 489.828 1269.31 488.375 1271.66 486.978C1273.06 486.149 1273 485.367 1273.92 484.349C1274.94 483.218 1276.55 482.552 1277.74 481.591C1283.07 477.279 1286.87 472.15 1289.13 465.486C1289.94 463.104 1290.21 458.171 1292.24 456.56C1293.28 455.737 1293.48 456.562 1294.63 456.22C1296.06 455.797 1297.43 453.367 1298.4 452.279C1300.47 449.961 1302.57 447.605 1302.79 444.258C1303.03 440.641 1300.62 438.309 1298.26 436.368C1295.62 434.18 1292.38 432.397 1289.94 429.98C1289.34 429.392 1288.37 428.19 1288.05 427.361C1287.57 426.074 1288.22 424.554 1287.48 423.329C1287.26 422.957 1286.45 422.877 1286.12 422.57C1285.39 421.898 1284.87 421.016 1284.25 420.239C1283.14 418.851 1281.88 417.676 1280.7 416.374C1278.01 413.411 1275.05 411.212 1271.96 408.747C1268.97 406.354 1266.55 404.731 1262.93 403.475C1261.06 402.823 1254.6 400.337 1255.23 397.637C1260.2 400.298 1264.9 401.708 1270.43 402.571C1274.66 403.232 1279.42 404.854 1283.79 404.246C1288.59 403.577 1293.61 401.439 1298.15 399.502C1300.3 398.58 1302.56 398.542 1304.66 397.199C1306.93 395.742 1308.92 393.749 1310.68 391.604C1311.18 391.001 1312.27 388.726 1312.84 388.364C1313.67 387.831 1315.72 388.379 1316.75 387.962C1319.25 386.948 1319.88 384.586 1320.74 382.191C1321.66 379.592 1321.98 378.873 1323.87 377.149C1326.18 375.038 1327.97 372.277 1330.01 369.837C1333.59 365.548 1335.91 360.781 1338.43 355.727C1341.31 349.935 1342.99 343.766 1343.86 337.371C1345.14 327.971 1341.99 307.23 1330.61 308.138C1334.85 303.779 1337.76 298.281 1334.82 292.371C1333.28 289.279 1330.68 286.56 1328.22 284.359C1327.09 283.353 1325.91 282.404 1324.75 281.448C1324.21 281.244 1323.77 280.899 1323.43 280.412C1322.85 279.897 1322.88 279.383 1323.53 278.87C1323.8 276.409 1323.88 274.365 1322.77 272.059C1322.42 271.329 1321.83 270.249 1321.01 270.046C1320.65 269.987 1320.29 270.038 1319.94 270.199C1319.25 270.813 1318.81 270.608 1318.63 269.584C1317.57 268.763 1317.54 267.495 1315.93 268.082C1315.56 268.511 1315.21 268.946 1314.86 269.388C1314.49 270.065 1314.03 270.158 1313.47 269.671C1311.91 270.155 1312 268.958 1310.73 270.943C1309.96 272.144 1309.43 273.589 1309.21 274.999C1307.88 275.12 1307.54 269.613 1306.83 268.336C1305.14 265.328 1302.46 263.863 1299.45 262.689C1293.59 260.408 1287 259.684 1280.71 259.311C1268.68 258.599 1256.46 258.52 1244.33 259.976C1246.25 254.575 1249.97 250.567 1254.98 248.384C1259.6 246.371 1264.06 245.845 1268.78 244.727C1273.16 243.69 1277.13 241.538 1275.36 236.281C1273.37 230.391 1268.38 231.581 1263.55 232.077C1263.97 230.742 1267.08 228.983 1268.19 228.217C1270.67 226.512 1273.28 225.268 1275.89 223.93C1277.14 223.289 1278.12 222.432 1279.36 221.794C1281.2 220.845 1283.14 219.881 1285.09 219.062C1289.74 217.114 1294.75 215.787 1299.64 215.468C1303.87 215.192 1307.75 216.466 1311.8 217.254C1316.43 218.151 1320.91 219.089 1325.6 217.04C1327.79 216.08 1330.28 214.817 1330.49 212.05C1330.69 209.476 1329.52 207.495 1328.22 205.572C1325.35 201.325 1320.34 198.262 1315.72 196.597C1310.71 194.791 1305.89 195.307 1300.69 194.784C1305.57 191.428 1311.7 190.392 1317.11 188.744C1318.25 188.398 1319.42 188.09 1320.55 187.712C1321.75 187.309 1322.25 186.577 1323.28 186.008C1325.63 184.711 1328.04 184.19 1329.15 181.089C1331.25 175.222 1323.72 172.666 1319.93 173.059C1314.65 173.606 1309.55 174.587 1304.33 176.128C1304.95 171.866 1300.76 169.814 1297.57 169.673C1293.54 169.493 1289.41 170.834 1285.52 172.118C1282.44 173.133 1279.43 174.151 1276.49 175.62C1273.41 177.165 1269.67 178.756 1266.99 181.02C1264.47 183.143 1261.89 184.485 1259.25 186.477C1257.04 188.134 1254.91 189.912 1252.71 191.573C1246.79 196.044 1241.21 201.094 1235.8 206.048C1231.53 188.827 1204.56 216.636 1199.37 223.452C1194.66 229.646 1189.27 236.766 1186.91 244.451C1185.91 247.706 1185.15 251.102 1184.56 254.445C1183.68 259.377 1184.55 264.225 1185.46 268.973C1180.69 270.008 1175.98 270.755 1171.46 272.979C1167.16 275.096 1162.58 276.979 1158.39 279.324C1155.21 281.106 1150.84 284.075 1149.77 288.083C1148.62 292.437 1149.53 297.059 1149.92 301.33C1137.67 299.926 1125.84 301.204 1115.37 310.066C1105.13 318.738 1104.27 333.567 1109.52 344.716C1115.31 356.999 1127.63 364.851 1139.72 368.321C1145.13 369.878 1150.57 371.221 1156.37 370.988C1159.24 370.872 1162.31 370.808 1165.17 370.228C1166.6 369.939 1168.09 369.516 1169.48 369.056C1170.11 368.848 1170.76 368.629 1171.37 368.343C1173.11 367.527 1172.5 367.255 1173.93 368.171C1175.09 368.915 1176.26 370.859 1177.23 371.916C1178.35 373.125 1179.38 374.424 1180.58 375.533C1182.67 377.455 1184.74 379.301 1186.93 381.055C1191.07 384.374 1195.7 387.363 1200.46 389.613C1199.14 391.925 1196.59 394.077 1194.77 395.909C1192.79 397.891 1191.01 400.177 1189.19 402.598C1185.55 407.448 1182.26 411.718 1179.25 417.038C1176.13 422.56 1174.13 428.693 1171.41 434.464C1168.92 439.771 1166.74 445.666 1164.81 451.192C1164.35 452.507 1164.16 453.478 1163.99 454.82C1163.81 456.192 1163.68 456.529 1163.3 457.901C1163.12 458.52 1163.05 460.997 1162.65 461.4C1161.95 462.123 1161.68 461.429 1160.53 461.077C1158.14 460.341 1155.5 460.398 1153.08 459.612C1151.07 458.956 1149 458.318 1147.05 457.929C1142.33 456.987 1137.86 455.339 1133.53 453.154C1131.28 452.017 1129.03 451.016 1126.76 450.056C1124.5 449.101 1121.01 448.237 1118.92 450.068C1118.49 449.002 1118.95 448.408 1117.63 448.601C1116.78 448.725 1115.96 450.266 1115.72 451.015C1115.1 452.996 1116.27 454.946 1117.27 456.315C1119.84 459.842 1122.93 462.891 1126.22 465.553C1130.17 468.753 1134.11 471.208 1138.4 473.852C1141.81 475.959 1146.21 478.832 1150.54 477.595C1150.42 482.764 1153.28 484.634 1157.09 486.994C1159.88 488.719 1163.08 490.248 1166.43 490.197C1170.2 490.14 1171.87 486.317 1173.68 482.937C1174.77 480.894 1178.46 475.193 1175.93 473.589C1177.04 472.454 1177.21 470.933 1178.14 469.772C1179.12 468.543 1179.24 469.195 1180.59 468.394C1181.64 467.78 1182.49 465.769 1183.18 464.743C1184.34 463.028 1185.48 461.304 1186.63 459.586C1189.87 454.748 1193.05 449.991 1196.52 445.418C1202.98 436.911 1210.16 429.292 1216.74 421.045C1218.06 419.392 1219.38 417.76 1220.82 416.135C1221.11 415.799 1222.81 414.3 1222.78 413.754C1222.73 412.798 1219.21 410.03 1218.63 409.358C1214.81 404.946 1211.55 399.384 1209.33 393.786C1208.4 391.46 1208.41 387.491 1207.13 385.526C1206.26 384.208 1204.19 383.662 1202.76 382.991C1199.2 381.332 1195.4 379.496 1192.19 377.377C1187.28 374.135 1182.7 369.709 1178.62 365.302C1176.49 363.004 1174.15 360.54 1172.31 357.962C1170.91 355.998 1169.7 353.734 1168.07 351.877C1169.23 351.118 1171.15 350.477 1171.73 349.073C1172.46 347.3 1171.34 344.785 1170.32 343.566C1175.05 340.962 1172.23 336.912 1169.88 333.867C1177.54 327.776 1160.14 323.793 1157.29 322.237C1155.98 321.522 1156.83 322.815 1155.93 320.818C1155.53 319.94 1155.48 318.649 1155.31 317.687C1154.93 315.587 1154.63 313.47 1154.38 311.339C1153.86 306.837 1153.61 302.279 1153.61 297.705C1156.17 297.576 1158.7 297.816 1161.19 298.256C1158.62 296.466 1153.74 295.6 1153.11 291.748C1152.53 288.178 1156.44 285.351 1158.99 284.06C1165.93 280.553 1173 277.85 1180.23 275.482C1179.12 277.974 1175.85 279.335 1173.54 279.938C1170.68 280.684 1167.63 281.513 1164.91 282.871C1162.53 284.054 1159.91 286.38 1162.37 288.796C1164.36 290.753 1168.03 291.249 1170.62 291.84C1176.32 293.141 1182.28 292.92 1188.17 292.754C1194.5 292.575 1200.85 292.798 1207.18 292.483C1218.61 291.914 1230.15 290.141 1241.6 288.992C1247.55 288.394 1253.71 286.819 1259.56 285.233C1265.99 283.488 1272.32 282.064 1278.64 279.701C1282.15 278.39 1285.52 276.925 1289.06 275.788C1291.29 275.075 1295.27 274.016 1295.11 271.014C1294.79 264.919 1282.62 266.238 1278.6 265.545C1278.03 268.476 1289.98 268.192 1290.89 271.074C1291.6 273.34 1288.13 272.44 1286.88 272.663C1284.86 273.023 1282.83 274.011 1280.73 274.261C1276.41 274.773 1271.33 275.442 1268.07 272.009C1268.21 271.088 1267.89 270.6 1267.1 270.547C1266.7 270.45 1266.33 270.289 1265.99 270.064C1265.36 269.611 1264.77 268.895 1264.23 268.323C1262.62 266.633 1262.3 264.102 1260.25 262.823C1267.37 262.773 1274.63 263.349 1281.71 263.796C1288.06 264.196 1295.3 265.573 1300.25 269.776C1300.88 270.314 1301.7 270.846 1302.13 271.601C1302.99 273.083 1302.65 272.884 1301.83 274.228C1301.02 275.571 1299.37 276.818 1298.21 277.818C1297.54 278.387 1294.02 280.06 1295.62 281.127C1296.54 281.742 1298.63 280.031 1299.44 279.513C1301.47 278.212 1302.36 277.182 1302.83 280.024C1303.04 281.298 1302.64 282.592 1302.48 283.839C1302.02 287.308 1303.08 291.226 1303.23 294.753C1303.4 298.77 1303.32 302.778 1303.11 306.82C1303.02 308.488 1303.26 311.29 1302.68 312.891C1302.14 314.387 1303.27 313.397 1301.44 314.426C1300.64 314.876 1299.67 314.909 1298.87 315.284C1294.07 317.523 1289.08 319.721 1283.99 321.828C1277.48 324.523 1270.85 327.674 1264.12 329.448C1258.1 331.036 1251.85 332.193 1245.75 333.793C1243.98 334.26 1242.33 334.938 1240.52 334.635C1238.34 334.271 1236.1 333.299 1233.94 332.751C1230.28 331.817 1226.75 330.714 1223.02 330.036C1220.25 329.533 1215.23 328.484 1212.48 329.588C1207.25 331.686 1213.99 336.691 1215.67 337.977C1214.8 339.03 1213.39 338.1 1212.44 339.444C1211.3 341.054 1212.43 343.15 1213.05 344.531C1213.21 344.899 1214.04 345.173 1214.1 345.572C1214.12 345.708 1213.55 347.027 1213.54 347.436C1213.5 348.924 1214.39 349.996 1215.31 350.84C1220.07 355.213 1227.18 355.516 1233.1 356.822C1231.41 357.724 1229.72 357.723 1228.02 358.412C1226.42 359.059 1225.09 360.147 1223.67 361.097C1222.18 362.092 1220.48 362.621 1219.02 363.738C1217.49 364.91 1216.33 366.506 1214.95 367.874Z" fill="black"/>
<path fill-rule="evenodd" clip-rule="evenodd" d="M1396.27 222.072C1397.31 222.152 1397.79 222.681 1398.47 224.331C1398.75 225.008 1399.71 227.594 1399.02 228.055C1398.37 228.488 1396.62 222.952 1396.27 222.072ZM1401.77 222.906C1399.34 217.847 1395.9 213.538 1391.48 212.882C1390.39 212.72 1389.52 213.5 1388.47 213.706C1387.84 213.83 1386.48 213.066 1385.96 213.734C1384.08 216.197 1388.16 218.259 1388.94 219.047C1391.38 221.49 1392.46 224.543 1393.85 228.24C1394.91 231.05 1396.34 236.088 1398.27 237.794C1400.33 239.609 1401.85 235.973 1402.46 233.327C1403.24 229.987 1403.17 225.784 1401.77 222.906Z" fill="black"/>
<path fill-rule="evenodd" clip-rule="evenodd" d="M1353.76 256.882C1354.99 259.763 1352.5 259.263 1351.69 257.162C1350.49 254.069 1352.87 254.537 1353.76 256.882ZM1338.17 248.665C1340.97 249.379 1342.91 249.446 1344.77 252.68C1346.17 255.129 1347.04 258.015 1348.18 260.725C1350.08 265.268 1354.7 267.76 1355.28 260.132C1355.71 254.567 1352.45 249.254 1349.17 246.902C1347.45 245.667 1345.37 244.78 1343.4 244.792C1341.93 244.801 1338.1 245.616 1338.17 248.665Z" fill="black"/>
<path fill-rule="evenodd" clip-rule="evenodd" d="M1391.8 316.887C1392.31 317.406 1394.02 319.843 1392.74 320.075C1391.61 320.28 1391.38 317.874 1391.8 316.887ZM1393.37 303.376C1393.06 302.161 1390.13 295.455 1389.02 297.116C1388.16 298.42 1389.46 302.031 1389.54 303.605C1389.88 309.465 1387.45 315.414 1388.18 321.132C1388.98 327.517 1393.25 324.006 1394.59 319.963C1396.18 315.177 1395.13 307.771 1393.37 303.376Z" fill="black"/>
<path fill-rule="evenodd" clip-rule="evenodd" d="M1394.07 269.448C1393.11 268.704 1392.84 268.11 1392.82 266.792C1393.47 267.164 1393.72 268.228 1394.07 269.448ZM1395.42 275.133C1398.57 273.286 1395.93 264.647 1394.46 262.126C1393.29 260.119 1391.59 258.308 1390.07 257.123C1389.76 256.884 1386.91 254.808 1386.57 255.068C1385.26 256.064 1386.36 258.054 1386.77 258.789C1388.09 261.104 1388.99 263.193 1389.84 266.242C1390.75 269.504 1392.24 277.775 1395.42 275.133Z" fill="black"/>
<path fill-rule="evenodd" clip-rule="evenodd" d="M1187.72 262.484C1195.17 262.741 1202.59 263.504 1210.12 262.955C1213.8 262.686 1217.47 262.138 1221.17 261.901C1223.05 261.78 1224.9 261.549 1226.76 261.092C1228.41 260.689 1229.29 260.131 1227.33 259.601C1226.01 259.247 1224.02 259.826 1222.63 259.923C1220.49 260.071 1218.36 260.05 1216.22 260.366C1212.45 260.922 1208.9 261.759 1205.1 261.808C1201.74 261.852 1198.33 261.989 1194.99 261.852C1193.56 261.793 1188.15 260.635 1187.72 262.484Z" fill="black"/>
<path fill-rule="evenodd" clip-rule="evenodd" d="M1191.83 279.317C1190.94 283.076 1199.06 284.376 1200.9 284.665C1202.85 284.97 1204.84 285.025 1206.81 285.087C1207.5 285.109 1211.57 285.744 1212.09 284.971C1213.11 283.446 1210.45 283.052 1209.76 282.949C1207.52 282.612 1205.27 282.345 1203.04 281.941C1201.03 281.577 1198.97 281.405 1196.97 280.961C1195.36 280.601 1193.44 279.287 1191.83 279.317Z" fill="black"/>
<path fill-rule="evenodd" clip-rule="evenodd" d="M1414.56 326.816C1414.33 324.807 1416.06 325.742 1415.97 326.927C1415.88 328.049 1414.76 327.058 1414.56 326.816ZM1416.09 321.112C1414.73 319.055 1413.5 318.331 1412.79 321.719C1412.31 324.047 1411.87 329.851 1413.07 331.752C1414.64 334.247 1416.55 331.471 1417.06 329.003C1417.58 326.473 1416.85 323.325 1416.09 321.112Z" fill="black"/>
<path fill-rule="evenodd" clip-rule="evenodd" d="M1426.13 379.657C1428.1 377.723 1428.83 374.383 1428.49 371.475C1428.21 369.03 1427.25 365.504 1425.19 368.659C1423.85 370.715 1421.62 383.898 1426.13 379.657Z" fill="black"/>
<path fill-rule="evenodd" clip-rule="evenodd" d="M1389.61 373.798C1391.41 372.882 1392.3 370.258 1392.52 367.978C1392.65 366.56 1392.41 362.198 1391.03 361.51C1389.11 360.55 1389.52 365.47 1389.38 366.633C1389.16 368.454 1387.66 372.88 1389.61 373.798Z" fill="black"/>
<path fill-rule="evenodd" clip-rule="evenodd" d="M1373.67 308.567C1374.53 306.761 1375.23 304.879 1374.89 302.665C1374.67 301.255 1373.34 297.612 1371.98 298.828C1370.41 300.235 1370.31 311.031 1373.67 308.567Z" fill="black"/>
<path fill-rule="evenodd" clip-rule="evenodd" d="M1374.08 261.648C1372.48 262.971 1372.61 264.57 1373.11 266.594C1373.46 267.967 1374.4 272.818 1375.5 273.034C1377.06 273.343 1377.65 269.034 1377.56 267.623C1377.36 264.719 1375.49 263.316 1374.08 261.648Z" fill="black"/>
<path fill-rule="evenodd" clip-rule="evenodd" d="M1366.64 421.777C1366.03 422.792 1364.62 425.079 1366.31 425.792C1368.08 426.538 1369.44 423.561 1369.88 422.351C1370.06 421.844 1371.19 418.578 1370.71 418.113C1369.68 417.124 1367.6 420.911 1366.64 421.777Z" fill="black"/>
<path fill-rule="evenodd" clip-rule="evenodd" d="M1411.08 265.69C1411.35 268.016 1413.51 274.929 1414.81 269.031C1415.21 267.231 1414.77 265.803 1413.86 264.614C1412.53 262.891 1412.09 263.848 1411.08 265.69Z" fill="black"/>
<path fill-rule="evenodd" clip-rule="evenodd" d="M1197.97 294.952C1197.76 292.804 1195.63 293.141 1194.23 292.842C1193.32 292.647 1189.04 291.009 1188.39 291.872C1187.04 293.646 1196.82 294.905 1197.97 294.952Z" fill="black"/>
<path fill-rule="evenodd" clip-rule="evenodd" d="M1402.2 401.078C1400.46 402.087 1401.25 404.278 1400.74 405.929C1400.52 406.637 1399.22 408.165 1399.98 408.67C1401.97 409.998 1403.08 402.34 1402.2 401.078Z" fill="black"/>
<path fill-rule="evenodd" clip-rule="evenodd" d="M1372.07 341.298C1370.73 341.677 1369.23 347.009 1370.78 347.461C1373.09 348.136 1372.55 342.335 1372.07 341.298Z" fill="black"/>
<path fill-rule="evenodd" clip-rule="evenodd" d="M1355.71 405.439C1356.56 404.885 1359.22 401.091 1357.03 400.608C1355.5 400.268 1354.83 404.727 1355.71 405.439Z" fill="black"/>
<path fill-rule="evenodd" clip-rule="evenodd" d="M1405.09 379.536C1406.12 379.234 1408.6 376.371 1406.83 375.841C1405.14 375.337 1404.42 378.567 1405.09 379.536Z" fill="black"/>
<path fill-rule="evenodd" clip-rule="evenodd" d="M1375.56 396.73C1374.57 397.37 1374.28 398.493 1374.74 399.614C1376 398.86 1376.18 398.285 1375.56 396.73Z" fill="black"/>
<path fill-rule="evenodd" clip-rule="evenodd" d="M1178.36 229.455C1177.86 229.607 1177.35 229.759 1176.86 229.91C1177.36 229.757 1177.86 229.606 1178.36 229.455Z" fill="black"/>
<path fill-rule="evenodd" clip-rule="evenodd" d="M1211.88 353.605C1212.63 353.383 1213.38 353.162 1214.13 352.94C1213.38 353.161 1212.63 353.383 1211.88 353.605Z" fill="black"/>
<path fill-rule="evenodd" clip-rule="evenodd" d="M1284.29 175.069C1284.41 175.981 1284.53 176.893 1284.65 177.801C1284.54 176.889 1284.41 175.978 1284.29 175.069Z" fill="black"/>
<path fill-rule="evenodd" clip-rule="evenodd" d="M1083.15 398.989C1083.41 399.766 1083.76 399.661 1084.22 398.674C1083.86 398.779 1083.51 398.884 1083.15 398.989Z" fill="black"/>
<path fill-rule="evenodd" clip-rule="evenodd" d="M1120.54 471.584C1120.16 471.699 1119.78 471.814 1119.41 471.927C1119.79 471.812 1120.16 471.698 1120.54 471.584Z" fill="black"/>
<path fill-rule="evenodd" clip-rule="evenodd" d="M1176.94 377.483C1177.79 377.532 1178.41 377.314 1178.68 376.681C1178.1 376.948 1177.52 377.216 1176.94 377.483Z" fill="black"/>
<path fill-rule="evenodd" clip-rule="evenodd" d="M1175.6 295.636C1175.54 296.393 1175.48 297.149 1175.42 297.903C1175.48 297.145 1175.54 296.39 1175.6 295.636Z" fill="black"/>
<path fill-rule="evenodd" clip-rule="evenodd" d="M1128.66 235.206C1129.28 235 1129.9 234.794 1130.52 234.588C1129.81 234.602 1129.22 234.87 1128.66 235.206Z" fill="black"/>
<path fill-rule="evenodd" clip-rule="evenodd" d="M1310.08 171.423C1310.71 171.258 1311.35 171.094 1311.98 170.93C1311.35 171.094 1310.71 171.258 1310.08 171.423Z" fill="black"/>
<path fill-rule="evenodd" clip-rule="evenodd" d="M1294.76 176.108C1295.24 175.908 1295.71 175.708 1296.19 175.508C1295.71 175.708 1295.24 175.908 1294.76 176.108Z" fill="black"/>
<path fill-rule="evenodd" clip-rule="evenodd" d="M1286.64 179.373C1287.21 179.33 1287.75 179.231 1288.1 178.839C1287.61 179.017 1287.12 179.195 1286.64 179.373Z" fill="black"/>
<path fill-rule="evenodd" clip-rule="evenodd" d="M1331.5 167.457C1332.16 167.284 1332.81 167.111 1333.47 166.938C1332.81 167.111 1332.16 167.284 1331.5 167.457Z" fill="black"/>
<path fill-rule="evenodd" clip-rule="evenodd" d="M1196.8 403.387C1196.85 403.843 1196.91 404.298 1196.96 404.752C1196.9 404.296 1196.85 403.841 1196.8 403.387Z" fill="black"/>
<path fill-rule="evenodd" clip-rule="evenodd" d="M1396.03 305.1C1395.96 305.405 1395.89 305.711 1395.82 306.014C1395.89 305.708 1395.96 305.404 1396.03 305.1Z" fill="black"/>
<path fill-rule="evenodd" clip-rule="evenodd" d="M1080.51 397.285L1082.3 396.556C1081.46 396.488 1080.9 396.773 1080.51 397.285Z" fill="black"/>
<path fill-rule="evenodd" clip-rule="evenodd" d="M1208.04 355.893C1208.48 355.644 1208.91 355.395 1209.35 355.147C1208.91 355.395 1208.48 355.644 1208.04 355.893Z" fill="black"/>
<path fill-rule="evenodd" clip-rule="evenodd" d="M1366.72 420.715C1367.24 420.382 1367.76 420.048 1368.29 419.714L1366.72 420.715Z" fill="black"/>
<path fill-rule="evenodd" clip-rule="evenodd" d="M1213.74 327.93C1213.84 327.471 1213.94 327.013 1214.05 326.557C1213.94 327.015 1213.84 327.473 1213.74 327.93Z" fill="black"/>
<path fill-rule="evenodd" clip-rule="evenodd" d="M1308.27 172.097C1308.61 171.93 1308.95 171.762 1309.29 171.595C1308.95 171.762 1308.61 171.93 1308.27 172.097Z" fill="black"/>
<path fill-rule="evenodd" clip-rule="evenodd" d="M1244.59 179.169C1244.86 178.92 1245.14 178.67 1245.41 178.421C1245.14 178.67 1244.86 178.92 1244.59 179.169Z" fill="black"/>
<path fill-rule="evenodd" clip-rule="evenodd" d="M1262 498.794C1261.75 498.887 1261.51 498.981 1261.27 499.073C1261.51 498.979 1261.76 498.886 1262 498.794Z" fill="black"/>
<path fill-rule="evenodd" clip-rule="evenodd" d="M1384.61 203.676C1384.23 203.799 1383.86 203.924 1383.48 204.047C1383.86 203.922 1384.24 203.799 1384.61 203.676Z" fill="black"/>
<path fill-rule="evenodd" clip-rule="evenodd" d="M1124.62 236.877C1125.23 236.638 1125.83 236.399 1126.43 236.159C1125.83 236.399 1125.23 236.638 1124.62 236.877Z" fill="black"/>
<path fill-rule="evenodd" clip-rule="evenodd" d="M1321.74 175.932C1322.61 175.674 1323.49 175.416 1324.36 175.159C1323.48 175.418 1322.61 175.675 1321.74 175.932Z" fill="black"/>
<path fill-rule="evenodd" clip-rule="evenodd" d="M1164.06 322.229C1163.9 322.99 1163.73 323.752 1163.57 324.51C1163.73 323.748 1163.89 322.988 1164.06 322.229Z" fill="black"/>
<path fill-rule="evenodd" clip-rule="evenodd" d="M1242.48 471.176C1242.99 471.018 1243.49 470.859 1243.99 470.701C1243.48 470.858 1242.98 471.018 1242.48 471.176Z" fill="black"/>
<path fill-rule="evenodd" clip-rule="evenodd" d="M1140.42 246.246C1139.66 246.474 1138.9 246.703 1138.14 246.931C1139.15 247.093 1139.68 246.507 1140.42 246.246Z" fill="black"/>
<path fill-rule="evenodd" clip-rule="evenodd" d="M1246.66 470.186C1247.03 470.057 1247.4 469.928 1247.78 469.801C1247.4 469.931 1247.03 470.058 1246.66 470.186Z" fill="black"/>
<path fill-rule="evenodd" clip-rule="evenodd" d="M1261.69 474.25C1261.52 475.014 1261.34 475.778 1261.17 476.538C1261.34 475.773 1261.52 475.012 1261.69 474.25Z" fill="black"/>
<path fill-rule="evenodd" clip-rule="evenodd" d="M1159.21 270.29C1158.7 270.44 1158.2 270.591 1157.69 270.742C1158.3 270.823 1158.72 270.481 1159.21 270.29Z" fill="black"/>
<path fill-rule="evenodd" clip-rule="evenodd" d="M1347.47 342.418C1347.05 342.678 1346.62 342.938 1346.2 343.198C1346.62 342.938 1347.05 342.678 1347.47 342.418Z" fill="black"/>
<path fill-rule="evenodd" clip-rule="evenodd" d="M1245.34 245.913C1244.46 245.819 1243.91 246.113 1243.57 246.676C1244.16 246.421 1244.75 246.167 1245.34 245.913Z" fill="black"/>
<path fill-rule="evenodd" clip-rule="evenodd" d="M1273.45 262.082C1273.37 261.779 1273.29 261.475 1273.21 261.172C1273.29 261.476 1273.37 261.779 1273.45 262.082Z" fill="black"/>
<path fill-rule="evenodd" clip-rule="evenodd" d="M1162.96 285.927C1162.83 286.535 1162.7 287.143 1162.57 287.749C1162.7 287.139 1162.83 286.533 1162.96 285.927Z" fill="black"/>
<path fill-rule="evenodd" clip-rule="evenodd" d="M1345.9 331.764C1345.38 332.465 1344.5 334.084 1343.67 334.571C1343 334.961 1341.98 334.635 1341.38 335.077C1339.78 336.266 1341.32 337.78 1342.77 338.138C1346.68 339.105 1349.42 332.909 1345.9 331.764Z" fill="black"/>
<path fill-rule="evenodd" clip-rule="evenodd" d="M1335.74 320.757C1334.09 323.156 1337.76 328.058 1339.59 327.006C1341.75 325.767 1339.91 320.787 1338.73 319.43C1338.1 321.1 1340.04 323.385 1338.42 323.709C1337.38 323.915 1336.43 321.508 1335.74 320.757Z" fill="black"/>
<path fill-rule="evenodd" clip-rule="evenodd" d="M101.902 292.709C100.507 287.069 98.9751 281.36 98.3409 275.584C97.9443 271.97 97.6372 268.345 97.3342 264.722C97.2919 264.219 97.1512 263.785 97.3976 263.4C97.7264 262.886 98.7223 262.392 99.2119 262.026C106.164 256.824 113.372 251.897 120.851 247.402C129.386 242.273 138.224 238.207 147.784 235.146C155.96 232.529 164.307 230.391 172.702 228.529C173.936 228.255 175.172 227.988 176.41 227.73C176.986 227.61 177.859 227.257 178.452 227.313C179.717 227.434 181.38 229.703 182.3 230.555C183.535 231.697 184.858 233.454 186.415 234.17C188.733 235.237 191.628 235.717 194.107 236.325C202.758 238.45 211.726 239.847 220.663 238.553C234.49 236.55 248.152 232.78 261.583 229.091C261.895 229.006 262.208 228.919 262.52 228.833C261.2 233.686 259.881 238.538 258.562 243.391C257.818 246.127 257.074 248.862 256.331 251.598C255.948 253.005 256.141 253.124 254.711 253.506C247.542 255.418 240.319 257.205 233.026 258.622C229.45 259.317 225.803 260.006 222.148 260.057C217.116 260.128 212.075 259.621 207.099 259C202.65 258.445 198.222 257.75 193.815 256.962C192.946 256.807 189.5 255.685 188.864 256.191C188.316 256.627 187.981 258.494 187.743 259.108C187.112 260.734 186.474 262.357 185.824 263.976C184.789 266.552 183.913 269.509 182.335 271.85C180.672 274.317 178.437 276.552 176.499 278.825C175.418 280.093 174.334 281.36 173.249 282.625C172.966 282.955 172.634 283.531 172.245 283.737C171.094 284.346 168.909 284.303 167.637 284.498C164.37 285 161.091 285.434 157.802 285.786C150.781 286.536 143.079 287.388 136.124 285.88C134.911 285.618 133.671 285.263 132.613 284.629C132.247 284.409 131.718 284.111 131.491 283.748C131.13 283.167 131.42 282.872 131.742 282.234C133.401 278.942 135.41 275.789 137.362 272.647C137.821 271.909 138.282 271.171 138.748 270.437L106.426 289.974C104.918 290.886 103.41 291.797 101.902 292.709Z" fill="#69DADB"/>
<path fill-rule="evenodd" clip-rule="evenodd" d="M71.6913 201.048C76.2513 198.439 80.9254 195.763 85.6748 193.64C90.4088 191.523 95.3731 190.653 100.39 190.232C109.435 189.473 119.043 189.432 127.265 193.807C131.11 195.852 134.636 198.311 138.941 199.108C139.948 199.294 141.08 199.567 142.099 199.172C142.909 198.858 143.396 198.123 144.096 197.627C145.432 196.68 146.342 197.137 147.077 198.623C147.886 197.52 148.807 196.401 150.012 195.851C151.019 195.392 152.071 195.534 153.102 195.22C154.961 194.654 156.207 192.94 157.497 191.434C160.754 187.63 164.555 183.901 168.895 181.76C171.753 180.349 175.664 179.543 176.141 184.231C176.537 188.12 172.981 192.477 170.625 195.005C168.62 197.156 165.188 198.557 167.12 201.941C168.469 204.303 170.109 206.714 172.891 205.99C174.417 205.592 179.379 203.29 177.762 207.224C176.568 210.129 177.289 213.446 176.834 216.571C176.254 220.555 174.723 224.451 172.144 227.41C169.259 230.721 165.512 232.821 162.193 235.504C166.534 237.664 171.401 237.953 176.08 238.72C181 239.525 185.936 240.686 190.972 240.288C195.486 239.932 199.998 238.808 204.485 238.086C209.198 237.328 213.928 236.533 218.58 235.319C227.962 232.871 237.364 229.35 246.461 225.722C250.95 223.933 254.901 221.265 259.066 218.71C263.34 216.09 267.974 214.208 272.544 212.394C274.76 211.516 276.921 210.476 279.135 209.595C280.198 209.173 284.237 207.163 285.138 208.619C286.605 210.992 284.806 213.988 283.326 215.852C282.693 216.647 281.415 217.403 280.943 218.245C280.432 219.155 281.041 219.63 281.384 220.545C281.882 221.877 281.713 223.17 281.113 224.466C280.62 225.532 279.673 226.104 280.744 226.848C281.238 227.191 282.011 227.113 282.556 227.459C283.179 227.853 283.655 228.417 283.931 229.151C284.414 230.435 284.137 231.827 283.324 232.906C282.026 234.632 279.865 235.369 278.078 236.213C275.088 237.626 272.223 239.399 269.123 240.491C265.892 241.629 262.552 242.34 259.309 243.463C257.646 244.04 256.009 244.677 254.31 245.09C253.205 245.359 251.419 245.367 250.548 246.274C249.732 247.123 249.609 248.827 249.35 249.936C248.991 251.465 248.673 253.005 248.294 254.529C248.043 255.539 247.77 256.545 247.437 257.528C247.329 257.848 246.489 259.478 246.582 259.713C246.846 260.377 248.208 259.497 248.625 259.562C251.05 259.946 248.953 262.498 247.813 263.126C245.188 264.574 242.464 265.859 239.745 267.053C233.27 269.896 226.775 272.652 219.96 274.109C213.219 275.55 206.548 276.766 199.708 276.874C193.143 276.979 186.543 276.574 180.018 276.02C176.852 275.75 173.639 275.428 170.597 274.455C167.622 273.503 164.84 272.007 162.051 270.567C160.237 276.955 158.666 283.458 156.407 289.693C154.258 295.624 150.527 300.435 147.145 305.55C147.798 306.482 152.497 304.301 153.431 304.057C157.699 302.941 162.182 302.654 166.505 301.916C173.696 300.689 180.963 300.421 186.434 306.233C191.814 311.947 193.02 320.375 193.377 328.401C193.799 337.874 193.341 347.188 191.879 356.611C191.258 360.619 190.375 364.506 189.467 368.448C188.692 371.812 188.381 375.41 190.693 378.019C191.935 376.562 192.836 377.657 192.391 379.352C191.996 380.858 190.588 381.997 189.508 382.892C186.234 385.604 182.524 387.741 178.832 389.62C172.111 393.04 164.826 395.359 157.534 396.015C153.906 396.341 154.064 399.434 153.012 402.577C152.184 405.049 150.511 407.374 150.272 410.044C150.077 412.24 151.944 414.325 153.678 412.446C155.027 410.984 155.346 408.263 156.979 407.128C159.877 405.113 156.565 413.274 156.127 414.291C158.226 414.771 158.896 411.857 160.168 410.633C161.387 409.459 162.152 409.989 162.037 411.697C161.948 413.028 160.5 414.852 162.272 415.276C163.741 415.627 166.179 414.752 167.6 414.412C172.034 413.349 176.258 411.913 180.488 410.026C181.854 409.416 183.826 407.997 185.338 408.323C187.334 408.753 187.739 411.31 187.785 413.227C187.957 420.489 183.913 426.684 178.56 430.62C175.262 433.043 171.691 434.997 168.359 437.38C164.709 439.992 161.102 442.715 157.267 444.976C151.101 448.612 144.888 446.291 139.273 442.965C135.706 440.852 132.241 438.546 128.852 436.11C127.529 435.158 125.47 434.608 124.481 433.222C123.59 431.974 123.851 430.353 124.153 428.877C124.949 424.993 126.465 421.45 127.844 417.782C128.632 415.687 128.668 414.344 128.413 412.187C128.198 410.371 128.884 409.1 129.178 407.355C129.501 405.436 129.083 405.398 127.801 404.813C126.459 404.199 125.957 402.358 125.664 400.884C125.244 398.77 126.068 397.722 127.304 396.169C128.431 394.753 129.148 393.07 129.952 391.42C133.925 383.27 137.268 374.781 141.375 366.703C145.428 358.733 149.991 351.067 153.531 342.798C148.476 345.104 142.95 344.974 137.692 346.159C134.994 346.767 132.289 347.304 129.559 347.653C128.517 347.787 127.358 348.053 126.313 347.939C125.263 347.825 124.295 347.411 123.225 347.352C120.684 347.211 118.073 347.871 115.537 348.115C112.798 348.378 110.035 348.519 107.299 348.377C104.744 348.245 102.17 347.873 99.7223 347.109C97.7724 346.5 95.6462 345.443 93.5507 345.926C95.0697 348.503 99.2371 348.786 101.718 349.34C105.744 350.239 109.683 350.674 113.803 350.911C111.964 356.272 108.827 360.996 105.892 365.694C102.592 370.976 99.5474 376.441 96.2836 381.749C93.5188 386.246 90.3202 390.39 87.4201 394.778C84.2913 399.513 80.874 403.988 77.3176 408.338C74.0991 412.275 71.1579 416.161 68.4481 420.537C65.814 424.792 62.6994 428.745 59.4662 432.456C55.8334 436.626 52.3657 440.6 49.1581 445.19C46.2657 449.328 43.0459 452.845 39.5397 456.324C38.3816 457.473 36.9801 459.122 35.3749 458.322C34.1584 457.715 33.2528 456.163 32.4418 455.055C29.3381 450.817 26.903 446.054 23.8728 441.759C21.6809 444.284 19.7255 446.919 17.0315 448.812C15.338 450.001 14.3796 450.867 14.9683 453.207C16.0336 452.692 19.6485 450.465 20.5118 451.953C21.2909 453.295 19.1269 454.69 18.376 455.218C17.0321 456.162 15.6618 456.71 15.6531 458.647C16.9521 458.394 18.9609 456.072 20.2256 457.354C21.8565 459.009 19.0471 460.789 18.1186 461.596C16.4988 463.005 17.4254 464.397 18.3432 465.932C19.5507 467.952 20.7212 469.998 22.0273 471.941C24.8184 476.092 27.976 479.92 30.669 484.155C32.9977 487.817 35.0767 491.434 34.052 496.184C33.6401 498.094 32.9192 500.449 31.3712 501.629C29.8001 502.827 29.2091 501.552 27.7273 501.279C26.8195 501.112 25.9308 501.525 25.0401 501.69C23.9569 501.891 22.815 501.902 21.7279 501.852C19.7245 501.76 17.7847 501.299 15.965 500.419C8.84685 496.974 2.89387 488.85 -1.15036 481.757C-3.72209 477.247 -5.77855 472.4 -7.68791 467.493C-8.71638 464.849 -9.74408 462.204 -10.7022 459.526C-10.9992 458.697 -11.2387 457.829 -11.5695 457.017C-11.7588 456.553 -12.4004 455.779 -12.4029 455.22C-12.4001 455.933 -13.0707 455.831 -13.7509 455.7C-15.1552 455.43 -15.6978 453.542 -15.7558 452.05C-15.9315 447.554 -11.3295 444.448 -8.42652 442.244C-0.623389 436.318 5.95451 429 12.5116 421.481C10.5182 420.382 11.6659 418.091 12.705 416.617C14.3076 414.344 16.0348 412.143 17.678 409.901C21.3884 404.837 25.0693 399.975 29.371 395.514C33.2677 391.474 36.6309 386.741 40.3399 382.481C44.1719 378.079 47.8157 373.516 51.4511 368.916C58.6511 359.804 65.8221 350.613 72.3957 340.934C74.0574 338.487 75.5379 335.934 77.0412 333.371C78.2626 331.288 79.9122 329.281 80.6544 326.923C81.363 324.671 81.2508 322.237 82.1424 320.034C82.9451 318.051 84.7941 316.854 85.2299 314.747C85.8194 311.898 87.2257 309.917 88.7437 307.5C89.2314 306.724 92.7106 302.157 92.119 301.197C88.9996 303.181 86.2975 306.228 83.4455 308.66C80.429 311.233 77.4428 313.86 74.2923 316.225C69.1872 320.058 63.8044 323.322 58.1904 326.066C57.3515 326.476 53.8207 327.786 53.7305 329.061C53.6619 330.032 55.1158 330.212 55.5011 330.964C56.0668 332.066 55.5389 333.187 54.4155 333.393C52.229 333.795 50.9193 330.44 50.2891 328.715C49.0839 325.416 48.2901 321.892 47.4222 318.461C44.705 322.918 42.4681 327.844 40.693 332.824C39.3177 336.681 38.5843 341.192 36.4537 344.673C34.4083 348.016 32.0798 347.755 30.5035 344.261C29.7815 342.66 29.3375 340.988 29.1138 339.212C29.0081 338.372 29.0096 335.806 28.1934 335.359C26.7266 339.229 25.2799 343.093 23.5947 346.861C22.4035 349.524 20.7551 353.545 17.979 354.554C15.5272 355.445 14.4378 352.67 14.2564 350.449C14.0989 348.523 14.5086 346.461 15.0038 344.599C15.4135 343.059 16.2488 341.382 16.0277 339.749C13.7879 343.075 11.2866 346.106 8.69338 349.091C6.84921 351.215 6.7954 355.197 4.01556 356.381C1.23297 357.567 0.546983 353.466 0.827799 351.315C1.02461 349.81 1.5577 348.256 2.13466 346.87C2.69712 345.517 3.79614 343.951 3.63429 342.399C0.942897 344.915 -1.54098 347.894 -4.71904 349.657C-6.60634 350.704 -10.091 351.775 -11.055 348.866C-12.0313 345.92 -8.81772 343.603 -7.20323 341.911C-5.00203 339.604 -3.20973 336.761 -1.24492 334.213C2.71827 329.071 6.97308 324.263 11.2511 319.454L12.6025 317.935C17.4308 312.505 22.423 307.321 27.4725 302.15C29.9682 299.594 32.4209 296.978 34.9927 294.516C37.4808 292.134 40.1402 289.979 42.5482 287.492C38.3186 285.139 39.584 280.191 41.7313 276.426C39.586 277.23 37.4922 278.224 35.319 278.927C33.4631 279.528 31.5495 279.854 29.7067 280.513C26.5397 281.645 23.5334 283.093 20.167 282.719C13.805 282.012 10.5709 276.507 12.2721 269.703C13.9888 262.835 18.6802 257.148 24.0734 253.45C30.1098 249.311 37.7488 246.16 44.6764 244.874C48.0794 244.242 51.7553 243.852 55.16 244.295C57.4758 244.597 61.3617 245.527 63.5741 244.12C59.1977 242.314 54.1603 240.771 51.3435 236.346C48.6763 232.158 48.1869 226.214 49.8823 221.33C53.2706 211.572 63.8417 205.538 71.6913 201.048ZM130.956 415.579C130.691 419.38 129.546 423.058 128.55 426.706C128.207 427.965 127.23 429.909 127.772 431.193C128.215 432.242 129.917 432.655 130.808 433.134C135.518 435.666 139.982 438.933 145.043 440.624C150.763 442.535 155.314 440.719 160.464 437.46C166.182 433.842 172.355 430.94 177.894 426.986C182.586 423.637 186.188 418.267 186.234 411.976C184.235 412.093 182.215 413.927 180.53 415.025C178.23 416.522 175.951 417.912 173.45 418.926C171.184 419.846 168.843 420.551 166.466 420.919C165.235 421.11 163.984 421.229 162.747 421.193C161.841 421.168 160.984 420.791 160.095 420.767C156.814 420.676 156.576 427.749 153.895 429.321C152.253 430.284 151.982 428.186 152.175 426.793C152.523 424.279 154.101 421.86 155.067 419.574C152.846 419.029 151.942 421.657 150.913 423.333C149.627 425.429 148.382 427.79 146.589 429.411C145.366 426.545 148.091 422.859 149.443 420.517C150.044 419.475 150.879 418.333 150.543 417.096C150.289 416.166 149.436 415.157 148.942 414.37C148.314 413.369 148.071 413.076 146.881 413.438C145.438 413.876 144.219 414.79 142.729 415.14C138.651 416.095 135.044 415.959 130.956 415.579ZM-3.15414 443.44C-3.87322 444.233 -4.61804 444.997 -5.37903 445.741C-6.88532 447.212 -8.3864 448.7 -9.9164 450.139C-10.6839 450.861 -11.6894 451.352 -11.5016 452.402C-11.4057 452.94 -10.6743 453.552 -10.3842 453.99C-9.86131 454.78 -9.42659 455.642 -8.99174 456.497C-4.98309 464.365 -2.60698 473.212 1.98171 480.711C5.85949 487.049 11.3716 494.677 18.3539 496.794C21.3675 497.707 24.9217 498.521 28.1034 498.432C30.5973 498.361 31.8535 493.758 31.2556 491.505C30.827 489.89 29.6082 488.674 28.6179 487.484C27.3489 485.96 26.0751 484.44 24.8095 482.912C22.1075 479.652 19.4633 476.308 17.2997 472.566C16.5889 471.336 15.9962 470.093 15.4327 468.778C15.1265 468.063 14.6012 466.206 13.8642 465.896C12.9111 465.495 11.8466 466.83 11.1021 467.39C10.2859 468.003 9.42692 468.477 8.47769 468.769C6.21772 469.464 5.02231 467.97 6.7922 465.8C8.02799 464.285 11.1859 463.333 11.9266 461.459C12.797 459.256 9.69902 461 8.97936 461.415C8.02116 461.967 5.04604 464.21 4.26376 462.206C3.68369 460.722 6.31208 458.927 7.21823 458.272C9.15437 456.873 12.0875 456.08 11.6527 452.904C11.4788 451.631 9.12923 452.423 8.34804 452.234C6.44924 451.775 4.95711 449.865 3.96688 448.153C2.99302 446.47 1.57252 439.392 -0.917959 440.764C-1.68263 441.186 -2.52717 442.749 -3.15414 443.44ZM132.761 403.077C132.253 405.82 132.023 408.617 131.653 411.381C135.675 411.274 139.586 410.756 143.584 410.321C145.402 410.123 146.709 410.051 147.574 408.049C148.194 406.613 148.395 405.004 148.975 403.551C149.809 401.465 150.756 399.436 151.652 397.382C146.515 398.405 141.415 399.679 136.277 400.698C134.356 401.079 133.176 400.836 132.761 403.077ZM94.5172 419.71C95.9368 420.14 95.5591 424.075 95.6867 425.258C98.4119 423.201 100.993 420.917 103.477 418.51C104.323 417.691 104.597 419.176 104.447 419.819C104.261 420.615 103.457 421.331 102.959 421.889C101.127 423.944 99.0655 425.683 97.0204 427.458C98.7127 428.175 102.217 428.752 102.443 431.305C100.36 430.874 98.4591 429.748 96.3153 429.594C96.2262 430.621 96.5721 433.827 95.4599 434.324C93.7137 435.105 93.8511 431.015 93.8277 430.066C92.7354 430.761 89.1471 434.415 87.85 433.314C86.5228 432.188 90.5078 429.718 91.065 428.898L90.8387 428.803L90.6125 428.711C89.7094 428.34 88.8329 427.965 88.2705 427.025C89.7227 426.706 91.5746 428.276 92.9357 427.451C94.2264 426.668 93.7627 424.216 93.7281 422.937C93.7084 422.21 93.4689 419.392 94.5172 419.71ZM222.893 312.168C226.885 312.944 227.536 319.217 226.59 322.825C225.531 326.867 221.514 332.514 217.273 331.778C214.952 331.375 214.456 328.824 213.914 326.67C213.31 324.276 212.705 322.319 213.594 319.848C214.977 316.003 218.843 311.38 222.893 312.168ZM218.046 317.176C215.676 319.499 214.404 324.139 215.253 327.548C216.366 332.018 220.262 329.919 222.442 327.755C225.184 325.032 227.26 320.445 225.491 316.447C223.964 312.996 219.889 315.371 218.046 317.176ZM14.7795 424.046C11.574 428.222 8.90519 432.843 5.17547 436.483C4.03714 437.594 3.66922 438.251 3.99619 439.756C4.45341 441.863 4.94619 443.979 6.20587 445.683C8.82151 449.22 13.635 445.522 16.3644 443.582C17.7655 442.586 20.6782 441.111 21.4437 439.337C22.0031 438.041 20.9565 436.944 20.298 435.99C17.8354 432.425 16.4617 428.104 14.7795 424.046ZM214.748 247.329C213.422 248.571 211.518 251.505 214.447 251.803C216.401 252.001 218.569 250.798 220.362 250.014C223.864 248.482 227.549 246.739 231.346 246.943C238.381 247.32 241.187 254.689 242.447 261.38C243.925 261.386 244.894 254.58 245.136 253.419C246.119 248.711 247.117 244.005 248.131 239.303C248.565 237.291 237.398 238.398 236.394 238.497C231.087 239.019 226.429 240.103 221.496 242.75C219.157 244.006 216.751 245.455 214.748 247.329ZM190.655 247.467C190.8 248.835 191.758 248.888 192.789 249.242C198.551 251.217 204.118 255.661 208.779 259.698C211.103 261.712 213.136 263.94 215.138 266.325C217.103 268.665 219.414 268.154 222.134 267.443C228.401 265.805 234.363 262.799 240.638 261.128C242.319 260.68 240.888 257.032 240.544 256.095C239.565 253.429 238.034 250.971 235.737 249.533C231.394 246.814 226.383 248.836 221.953 250.719C219.42 251.797 216.139 253.332 213.434 252.768C212.076 252.485 211.45 251.568 211.637 250.025C211.977 247.211 214.172 245.482 216.165 244.003C217.135 243.283 223.726 239.996 223.532 239.061C219.873 239.935 216.319 241.237 212.627 241.924C209.747 242.459 206.876 243.061 204.005 243.674L201.135 244.287C198.217 244.91 195.405 245.198 192.491 245.567C191.396 245.706 190.507 246.064 190.655 247.467ZM252.386 231.976C252.172 233.614 251.873 235.064 251.923 236.719C251.982 238.649 251.323 240.323 251.013 242.21C256.39 240.031 261.667 238.252 267.253 236.973C270.121 236.316 272.847 235.159 275.647 234.215C277.994 233.423 280.625 232.838 282.541 230.977C278.258 228.849 272.206 234.038 268.27 230.666C265.592 228.372 267.279 224.112 269.378 222.083C273.045 218.54 277.404 215.674 281.429 212.683C280.61 210.91 264.963 219.671 263.391 220.486C260.598 221.931 257.543 223.157 254.83 224.75C252.312 226.228 252.744 229.25 252.386 231.976ZM188.074 256.092C187.373 258.565 186.719 261.051 186.02 263.525C185.56 265.152 184.792 267.061 184.632 268.753C184.428 270.912 186.49 270.576 187.981 270.589C191.745 270.621 195.543 270.469 199.311 270.379C202.697 270.299 206.4 270.582 209.733 269.675C211.516 269.189 213.339 269.036 215.143 268.74C210.965 262.195 204.132 258.183 197.844 254.51C196.4 253.667 194.94 252.858 193.496 252.015C192.769 251.591 191.252 250.464 190.358 250.851C189.038 251.423 188.429 254.843 188.074 256.092ZM271.478 226.475C273.812 226.454 275.879 225.883 277.475 223.763C277.861 223.229 278.236 222.684 278.598 222.132C276.273 220.992 272.909 224.727 271.478 226.475ZM111.73 296.036C109.337 299.599 106.721 303.296 105.13 307.387C104.543 308.897 103.174 312.156 104.52 313.466C105.671 314.588 108.776 314.193 110.181 313.865C117.57 312.139 123.893 305.956 131.72 306.434C133.838 306.564 135.073 307.708 136.965 308.447C138.675 309.115 139.922 308.104 141.058 306.653C142.551 304.747 143.707 302.547 145.213 300.65C145.983 299.68 147.48 298.41 146.887 296.949C144.093 290.062 138.65 282.486 131.323 281.844C123.099 281.124 116.274 289.271 111.73 296.036ZM115.936 313.55C116.196 314.483 122.877 312.223 123.617 312.007C127.732 310.804 132.343 311.232 136.258 309.284C136.128 307.306 129.753 308.078 128.781 308.273C124.345 309.164 120.062 311.538 115.936 313.55ZM230.995 236.537C236.486 235.685 242.062 235.372 247.523 236.393C249.407 236.746 249.799 229.141 250.082 227.833C243.957 231.371 237.437 233.88 230.995 236.537ZM127.458 250.629C124.772 256.282 123.081 262.516 119.641 267.728C121.195 267.063 122.26 265.058 123.452 263.834C124.614 262.641 125.849 261.557 126.904 260.244C127.552 259.437 129.884 255.407 131.151 256.328C133.13 257.766 127.037 263.506 126.244 264.47C123.566 267.726 120.937 271.025 118.343 274.364C115.831 277.598 113.369 280.925 110.579 283.875C107.745 286.871 104.381 289.318 101.922 292.735C99.7484 295.757 98.3707 299.347 96.3997 302.516C94.4226 305.693 91.8013 308.548 90.5497 312.202C94.535 313.535 98.7458 314.096 102.947 313.89C101.252 309.07 104.816 303.446 107.265 299.622C112.604 291.284 120.612 278.739 131.1 280.445C138.765 281.692 143.862 290.066 147.282 296.983C148.486 295.556 149.416 293.911 150.391 292.296C151.066 291.177 150.354 289.711 149.99 288.661C149.392 286.942 149.024 285.143 148.722 283.322C148.052 279.293 147.678 275.185 147.242 271.111C146.537 264.52 146.321 257.715 144.729 251.322C143.691 247.149 141.493 240.24 136.522 241.002C132.221 241.661 129.298 246.755 127.458 250.629ZM101.847 247.243C101.412 248.172 102.403 249.5 102.818 250.218C104.331 252.828 105.575 255.624 107.005 258.294C108.746 261.546 111.777 267.614 115.836 267.478C118.612 267.385 120.34 263.781 121.411 261.393C123.225 257.354 124.624 253.113 126.503 249.101C128.731 244.344 133.596 236.631 139.294 239.29C142.377 240.73 144.031 244.745 145.069 248.041C146.439 252.39 146.913 257.039 147.369 261.628C148.31 271.102 149.189 280.78 151.616 289.899C154.071 285.264 155.213 280.107 156.9 275.141C158.151 271.46 160.375 266.733 159.145 262.813C158.867 261.928 159.3 260.896 159.527 260.041C159.822 258.93 159.922 257.929 159.885 256.773C159.803 254.22 159.329 251.708 158.624 249.305C157.146 244.264 154.538 239.968 151.589 235.898C150.255 234.057 149.643 231.561 148.219 229.846C147.23 228.654 146.374 229.306 145.025 229.75C140.168 231.348 135.32 232.986 130.466 234.596C128.494 235.249 126.172 235.6 124.373 236.781C122.897 237.751 122.125 239.512 121.187 241.029C119.647 243.52 117.29 247.662 114.304 248.058C110.824 248.52 112.624 243.422 110.505 242.899C109.053 242.54 106.443 244.969 105.008 245.562C104.222 245.888 102.269 246.34 101.847 247.243ZM165.675 258.308C163.797 259.965 163.089 261.69 162.9 264.311C162.708 266.975 163.045 268.02 165.431 268.492C168.004 269.001 170.648 269.438 173.25 269.715C176.547 270.067 179.881 269.801 183.173 270.216C184.615 270.398 186.043 260.877 186.409 259.464C186.913 257.514 187.445 255.541 188.08 253.638C188.312 252.943 189.207 251.102 188.857 250.393C187.972 248.599 183.531 249.315 182.114 249.568C178.937 250.135 175.959 251.443 173.134 253.178C170.63 254.717 167.926 256.32 165.675 258.308ZM170.919 244.609C169.544 246.948 167.996 249.167 166.597 251.491C166.101 252.315 162.746 257.057 163.552 258.104C168.265 254.664 172.678 250.675 178.051 248.612C180.465 247.685 182.929 247.136 185.462 247.405C187.38 247.609 189.463 249.019 189.92 246.294C186.261 246.346 182.603 245.657 179.017 245.011C177.447 244.727 175.874 244.522 174.301 244.276C173.366 244.13 171.604 243.445 170.919 244.609ZM42.6849 292.095C41.2739 293.3 40.004 294.686 38.6919 296.018C33.3766 301.413 27.961 306.665 22.706 312.139C12.2241 323.057 1.32379 334.089 -7.63334 346.597C-6.0878 347.148 -3.93906 344.67 -2.85009 343.677C-0.718439 341.733 1.17795 339.498 3.21055 337.429C5.19877 335.405 7.14029 333.265 9.19467 331.326C10.141 330.432 11.8592 328.956 12.7548 330.654C14.0245 333.061 10.5686 337.662 9.4102 339.574C8.17155 341.618 7.03712 343.728 5.95762 345.875C5.10434 347.573 3.30844 350.255 3.75441 352.267C6.97972 347.68 10.2114 343.099 13.3787 338.463C14.5718 336.717 15.8069 335.001 16.8431 333.137C17.5339 331.895 18.2817 330.009 19.41 329.165C20.9378 328.022 21.9807 329.43 21.9384 331.127C21.8858 333.253 20.5971 335.252 19.8734 337.176C18.951 339.629 18.3415 342.218 17.6737 344.756C17.1192 346.862 16.2051 349.17 16.4633 351.376C19.0396 350.784 20.2589 346.657 21.2396 344.377C22.7807 340.793 24.0629 337.146 25.4092 333.476C26.0979 331.599 26.6875 328.893 28.145 327.537C29.9918 325.817 31.086 328.481 31.2851 330.207C31.7306 334.064 30.4254 338.345 31.9952 342.014C32.9617 344.273 34.2492 342.36 34.9494 340.763C36.1282 338.072 36.3075 335 37.2026 332.205C39.3578 325.473 42.4132 318.957 46.3795 313.259C47.0893 312.239 46.6538 310.475 46.4733 309.363C46.2036 307.704 46.018 306.047 45.8487 304.366C45.478 300.683 44.7895 296.885 44.974 293.147C45.0254 292.105 45.751 290.615 44.607 290.748C43.9855 290.821 43.1625 291.688 42.6849 292.095ZM84.2495 259.035C82.7846 260.228 81.1932 261.216 79.7159 262.392C77.3048 264.311 80.0955 266.99 80.6934 269.294C82.4531 276.075 77.1679 280.928 71.3353 280.91C68.0537 280.899 65.4264 279.564 62.7633 277.741C61.2451 276.702 60.5544 276.819 59.1624 278.206C58.2073 279.158 57.1926 279.73 56.1321 280.519C54.7975 281.512 54.835 281.91 55.5188 283.368C56.1264 284.662 56.3957 285.656 56.1265 287.189C55.6131 290.109 53.7583 292.997 52.1212 295.341C50.4812 297.69 48.4322 299.964 48.423 303.057C48.4186 304.616 48.4853 306.432 48.9802 307.887C49.5207 309.476 50.4298 310.097 50.3136 311.954C50.0722 315.814 50.8465 319.373 51.6043 323.104C51.851 324.319 51.9569 324.817 53.1448 324.438C54.8493 323.896 56.6714 321.916 58.179 320.87C59.2545 320.125 58.8523 317.606 58.7865 316.524C58.6584 314.419 58.7309 312.303 58.8051 310.187C58.9739 305.393 59.2882 300.537 60.2713 295.817C61.0135 292.254 62.3781 287.539 66.4513 289.292C70.4208 291.001 73.9991 293.683 78.2461 294.671C81.9814 295.541 84.5919 293.933 86.0425 289.935C87.4708 285.999 87.8678 281.616 87.9127 277.465C87.9616 272.977 87.4728 268.529 87.4678 264.049C87.466 262.645 88.4703 258.204 87.1159 257.437C86.2012 256.919 84.9085 258.499 84.2495 259.035ZM96.9767 249.97C95.6355 250.916 94.1675 251.628 92.7764 252.473C90.2592 254.003 88.2232 255.422 88.2586 258.818C88.2895 261.816 88.5565 264.855 88.7112 267.846C89.0471 274.343 89.483 280.933 88.271 287.414C87.1972 293.156 84.3098 297.541 78.6184 296.327C76.095 295.788 73.7503 294.515 71.4957 293.231C69.6882 292.202 67.1183 290.002 64.9853 290.088C62.6073 290.185 61.7166 293.999 61.2517 296.057C60.4698 299.517 60.1957 303.176 59.9391 306.704C59.7531 309.263 59.6333 311.831 59.4891 314.392C59.431 315.43 58.891 319.048 59.9501 319.622C61.012 320.197 63.5768 317.711 64.369 317.093C66.2607 315.618 68.2153 314.277 70.1178 312.821C76.0361 308.293 81.4153 302.919 87.4409 298.566C91.41 295.699 95.0214 292.267 98.6677 288.918C102.213 285.661 105.904 282.63 109.287 279.155C111.275 277.111 113.268 275.064 115.241 273.001C115.924 272.288 119.362 269.339 119.042 268.076C116.236 269.219 114.353 268.992 112.095 266.843C109.268 264.153 107.254 260.432 105.377 256.896C104.655 255.536 103.965 254.155 103.279 252.771L102.457 251.109C101.966 250.117 101.468 248.065 100.307 247.898C99.2311 247.744 97.8347 249.364 96.9767 249.97ZM158.795 239.644C161.127 244.075 162.632 249.079 162.969 254.268C164.896 253.45 165.807 249.683 166.893 247.924C167.312 247.246 170.365 243.329 168.525 242.988C165.141 242.362 162.148 240.384 158.795 239.644ZM211.483 210.949C212.557 211.737 212.616 213.566 212.793 214.849C215.851 213.836 218.891 212.818 221.917 211.685C224.197 210.831 224.144 212.63 222.314 213.673C219.768 215.122 216.893 215.445 214.35 216.866C211.927 218.22 212.757 220.634 210.964 222.341C210.424 221.066 210.915 219.63 211.115 218.289C209.733 218.372 208.349 218.512 206.969 218.513C206.255 218.514 204.036 218.021 204.234 216.884C204.434 215.736 206.685 216.218 207.389 216.191C208.389 216.155 210.432 216.176 211.2 215.308C212.253 214.12 211.028 212.332 211.483 210.949ZM157.975 206.44C156.918 207.221 155.524 207.578 154.745 208.767C153.967 209.951 153.298 211.889 152.825 213.238C152.367 214.544 152.413 215.747 151.594 216.866C150.776 217.985 149.688 218.624 149.973 220.27C151.059 219.951 152.731 218.394 153.847 218.681C155.47 219.099 154.19 221.508 153.581 222.351C152.708 223.561 151.713 223.981 150.523 224.615C150.005 224.892 149.927 224.722 149.652 225.25C148.632 227.208 151.431 230.086 152.561 231.067C158.091 235.868 165.239 228.521 169.648 224.866C167.326 224.171 163.96 223.916 162.552 221.4C162.133 220.651 161.626 219.158 162.504 218.514C163.207 218 164.673 218.643 165.36 218.827C167.396 219.372 170.283 220.588 172.326 219.553C175.057 218.169 174.788 212.313 174.876 209.628C173.418 210.199 171.975 211.138 170.505 210.212C168.758 209.111 167.467 206.543 166.546 204.639C165.762 203.017 165.361 200.952 163.343 202.131C161.485 203.218 159.747 205.13 157.975 206.44ZM-14.4309 321.511C-14.3646 322.651 -15.835 324.05 -16.4382 324.75C-18.7329 327.411 -20.8408 330.277 -22.9556 333.119C-27.2249 338.857 -31.3162 344.797 -34.5818 351.316C-35.1918 352.535 -35.3426 351.028 -35.3203 350.436C-35.2704 349.109 -34.4864 347.694 -33.9418 346.555C-32.4684 343.47 -30.6195 340.786 -28.6374 338.089C-24.6708 332.692 -20.6927 327.115 -16.3918 322.052C-15.8927 321.465 -14.5202 319.978 -14.4309 321.511ZM50.4756 286.093C49.528 286.845 48.2295 287.343 47.4408 288.314C46.413 289.579 47.0857 290.388 47.2856 291.782C47.6255 294.147 47.9128 296.524 48.2202 298.897C50.5976 297.222 51.8929 293.633 53.3608 291.108C54.1919 289.679 57.1344 284.817 54.878 283.514C53.4495 282.69 51.5277 285.259 50.4756 286.093ZM76.5368 265.02C75.0121 265.951 73.5981 267.505 72.1105 268.56C70.1163 269.974 68.3083 271.682 66.3125 273.086C64.9995 274.01 63.8268 275.152 62.5924 276.196C65.5721 278.699 69.6062 279.981 73.4558 279.126C76.4929 278.451 80.1619 276.331 80.6056 272.572C80.8611 270.409 79.4741 263.228 76.5368 265.02ZM148.335 201.199C147.278 203.438 146.803 205.985 146.181 208.383C144.623 214.391 143.078 220.744 144.174 226.924C144.324 227.771 146.19 227.417 146.624 227.177C147.542 226.671 147.481 226.068 147.426 225.028C147.287 222.453 146.499 219.98 147.026 217.375C147.668 214.199 148.679 210.857 149.738 207.806C150.457 205.732 152.855 201.933 152.231 199.658C151.494 196.969 148.975 199.843 148.335 201.199ZM112.735 242.111C111.95 242.998 112.34 243.984 112.627 245.131C113.781 249.74 120.245 239.8 121.122 238.369C120.076 237.32 116.248 240.066 115.309 240.596C114.578 241.009 113.315 241.455 112.735 242.111ZM164.915 211.705C163.658 212.574 161.426 206.489 163.168 206.136C164.663 205.833 165.719 211.147 164.915 211.705ZM-18.6704 319.817C-19.7209 322.913 -22.6822 325.122 -24.8311 327.268C-27.9977 330.43 -31.0142 333.812 -34.0868 337.087C-36.027 339.155 -35.5064 336.835 -34.659 335.549C-33.2021 333.337 -31.2628 331.419 -29.4549 329.562C-27.4975 327.552 -25.3953 325.704 -23.4769 323.649C-22.1487 322.226 -20.7117 319.832 -18.6704 319.817ZM22.8014 241.251C25.2003 240.3 27.7555 239.675 30.2854 239.705C32.3798 239.729 33.1106 241.374 30.6418 241.72C19.1251 243.332 8.80258 253.355 1.55745 263.02C0.757954 264.086 0.37525 263.112 0.327462 262.205C0.261288 260.955 0.876742 259.813 1.51276 258.809C3.4233 255.791 6.02421 253.117 8.55753 250.757C12.7795 246.824 17.6214 243.306 22.8014 241.251ZM21.0841 234.14C22.4482 233.735 24.2474 233.738 25.5228 234.382C27.0157 235.136 26.6655 236.229 25.1064 236.219C23.3663 236.208 21.7405 236.127 20.004 236.641C19.0874 236.913 18.8495 236.346 19.1867 235.501C19.5019 234.71 20.4153 234.339 21.0841 234.14Z" fill="black"/>
</svg>
