<svg width="385" height="523" viewBox="0 0 385 523" fill="none" xmlns="http://www.w3.org/2000/svg">
<g filter="url(#filter0_d_508_5)">
<rect x="4" width="377" height="515" rx="30" fill="#69DADB"/>
</g>
<path d="M46.5 246C16.823 184.173 10.9685 126.24 7.21347 46.3642L4.04785 27V515H380C366.333 486.454 239.75 456.181 181.956 413.712C107.5 359 88.5 333.5 46.5 246Z" fill="#AAE9EA"/>
<path d="M82.6348 55H79.5391L79.5586 52.7148H82.6348C83.403 52.7148 84.0508 52.5423 84.5781 52.1973C85.1055 51.8457 85.5026 51.3346 85.7695 50.6641C86.043 49.9935 86.1797 49.1829 86.1797 48.2324V47.5391C86.1797 46.8099 86.1016 46.1686 85.9453 45.6152C85.7956 45.0618 85.571 44.5964 85.2715 44.2188C84.972 43.8411 84.6042 43.5579 84.168 43.3691C83.7318 43.1738 83.2305 43.0762 82.6641 43.0762H79.4805V40.7812H82.6641C83.6146 40.7812 84.4837 40.944 85.2715 41.2695C86.0658 41.5885 86.7526 42.0475 87.332 42.6465C87.9115 43.2454 88.3574 43.9616 88.6699 44.7949C88.9889 45.6217 89.1484 46.543 89.1484 47.5586V48.2324C89.1484 49.2415 88.9889 50.1628 88.6699 50.9961C88.3574 51.8294 87.9115 52.5456 87.332 53.1445C86.7591 53.737 86.0723 54.196 85.2715 54.5215C84.4772 54.8405 83.5983 55 82.6348 55ZM81.1992 40.7812V55H78.2695V40.7812H81.1992ZM96.8047 52.6172V47.9102C96.8047 47.5716 96.7493 47.2819 96.6387 47.041C96.528 46.7936 96.3555 46.6016 96.1211 46.4648C95.8932 46.3281 95.597 46.2598 95.2324 46.2598C94.9199 46.2598 94.6497 46.3151 94.4219 46.4258C94.194 46.5299 94.0182 46.6829 93.8945 46.8848C93.7708 47.0801 93.709 47.3112 93.709 47.5781H90.8965C90.8965 47.1289 91.0007 46.7025 91.209 46.2988C91.4173 45.8952 91.7201 45.5404 92.1172 45.2344C92.5143 44.9219 92.9863 44.6777 93.5332 44.502C94.0866 44.3262 94.7051 44.2383 95.3887 44.2383C96.209 44.2383 96.9382 44.375 97.5762 44.6484C98.2142 44.9219 98.7155 45.332 99.0801 45.8789C99.4512 46.4258 99.6367 47.1094 99.6367 47.9297V52.4512C99.6367 53.0306 99.6725 53.5059 99.7441 53.877C99.8158 54.2415 99.9199 54.5605 100.057 54.834V55H97.2148C97.0781 54.7135 96.974 54.3555 96.9023 53.9258C96.8372 53.4896 96.8047 53.0534 96.8047 52.6172ZM97.1758 48.5645L97.1953 50.1562H95.623C95.252 50.1562 94.9297 50.1986 94.6562 50.2832C94.3828 50.3678 94.1582 50.4883 93.9824 50.6445C93.8066 50.7943 93.6764 50.9701 93.5918 51.1719C93.5137 51.3737 93.4746 51.5951 93.4746 51.8359C93.4746 52.0768 93.5299 52.2949 93.6406 52.4902C93.7513 52.679 93.9108 52.8288 94.1191 52.9395C94.3275 53.0436 94.5716 53.0957 94.8516 53.0957C95.2747 53.0957 95.6426 53.0111 95.9551 52.8418C96.2676 52.6725 96.5085 52.4642 96.6777 52.2168C96.8535 51.9694 96.9447 51.735 96.9512 51.5137L97.6934 52.7051C97.5892 52.972 97.446 53.2487 97.2637 53.5352C97.0879 53.8216 96.8633 54.0918 96.5898 54.3457C96.3164 54.5931 95.9876 54.7982 95.6035 54.9609C95.2194 55.1172 94.7637 55.1953 94.2363 55.1953C93.5658 55.1953 92.957 55.0618 92.4102 54.7949C91.8698 54.5215 91.4401 54.1471 91.1211 53.6719C90.8086 53.1901 90.6523 52.6432 90.6523 52.0312C90.6523 51.4779 90.7565 50.9863 90.9648 50.5566C91.1732 50.127 91.4792 49.7656 91.8828 49.4727C92.293 49.1732 92.804 48.9486 93.416 48.7988C94.028 48.6426 94.7376 48.5645 95.5449 48.5645H97.1758ZM107.518 52.0801C107.518 51.8783 107.459 51.696 107.342 51.5332C107.225 51.3704 107.007 51.2207 106.688 51.084C106.375 50.9408 105.923 50.8105 105.33 50.6934C104.796 50.5762 104.298 50.4297 103.836 50.2539C103.38 50.0716 102.983 49.8535 102.645 49.5996C102.312 49.3457 102.052 49.0462 101.863 48.7012C101.674 48.3496 101.58 47.9492 101.58 47.5C101.58 47.0573 101.674 46.6406 101.863 46.25C102.059 45.8594 102.335 45.5143 102.693 45.2148C103.058 44.9089 103.501 44.6712 104.021 44.502C104.549 44.3262 105.141 44.2383 105.799 44.2383C106.717 44.2383 107.505 44.3848 108.162 44.6777C108.826 44.9707 109.334 45.3743 109.686 45.8887C110.044 46.3965 110.223 46.9759 110.223 47.627H107.41C107.41 47.3535 107.352 47.1094 107.234 46.8945C107.124 46.6732 106.948 46.5007 106.707 46.377C106.473 46.2467 106.167 46.1816 105.789 46.1816C105.477 46.1816 105.206 46.237 104.979 46.3477C104.751 46.4518 104.575 46.5951 104.451 46.7773C104.334 46.9531 104.275 47.1484 104.275 47.3633C104.275 47.526 104.308 47.6725 104.373 47.8027C104.445 47.9264 104.559 48.0404 104.715 48.1445C104.871 48.2487 105.073 48.3464 105.32 48.4375C105.574 48.5221 105.887 48.6003 106.258 48.6719C107.02 48.8281 107.7 49.0332 108.299 49.2871C108.898 49.5345 109.373 49.873 109.725 50.3027C110.076 50.7259 110.252 51.2826 110.252 51.9727C110.252 52.4414 110.148 52.8711 109.939 53.2617C109.731 53.6523 109.432 53.9941 109.041 54.2871C108.65 54.5736 108.182 54.7982 107.635 54.9609C107.094 55.1172 106.486 55.1953 105.809 55.1953C104.826 55.1953 103.992 55.0195 103.309 54.668C102.632 54.3164 102.117 53.8704 101.766 53.3301C101.421 52.7832 101.248 52.2233 101.248 51.6504H103.914C103.927 52.0345 104.025 52.3438 104.207 52.5781C104.396 52.8125 104.633 52.9818 104.92 53.0859C105.213 53.1901 105.529 53.2422 105.867 53.2422C106.232 53.2422 106.535 53.1934 106.775 53.0957C107.016 52.9915 107.199 52.8548 107.322 52.6855C107.452 52.5098 107.518 52.3079 107.518 52.0801ZM117.781 52.6172V47.9102C117.781 47.5716 117.726 47.2819 117.615 47.041C117.505 46.7936 117.332 46.6016 117.098 46.4648C116.87 46.3281 116.574 46.2598 116.209 46.2598C115.896 46.2598 115.626 46.3151 115.398 46.4258C115.171 46.5299 114.995 46.6829 114.871 46.8848C114.747 47.0801 114.686 47.3112 114.686 47.5781H111.873C111.873 47.1289 111.977 46.7025 112.186 46.2988C112.394 45.8952 112.697 45.5404 113.094 45.2344C113.491 44.9219 113.963 44.6777 114.51 44.502C115.063 44.3262 115.682 44.2383 116.365 44.2383C117.186 44.2383 117.915 44.375 118.553 44.6484C119.191 44.9219 119.692 45.332 120.057 45.8789C120.428 46.4258 120.613 47.1094 120.613 47.9297V52.4512C120.613 53.0306 120.649 53.5059 120.721 53.877C120.792 54.2415 120.896 54.5605 121.033 54.834V55H118.191C118.055 54.7135 117.951 54.3555 117.879 53.9258C117.814 53.4896 117.781 53.0534 117.781 52.6172ZM118.152 48.5645L118.172 50.1562H116.6C116.229 50.1562 115.906 50.1986 115.633 50.2832C115.359 50.3678 115.135 50.4883 114.959 50.6445C114.783 50.7943 114.653 50.9701 114.568 51.1719C114.49 51.3737 114.451 51.5951 114.451 51.8359C114.451 52.0768 114.507 52.2949 114.617 52.4902C114.728 52.679 114.887 52.8288 115.096 52.9395C115.304 53.0436 115.548 53.0957 115.828 53.0957C116.251 53.0957 116.619 53.0111 116.932 52.8418C117.244 52.6725 117.485 52.4642 117.654 52.2168C117.83 51.9694 117.921 51.735 117.928 51.5137L118.67 52.7051C118.566 52.972 118.423 53.2487 118.24 53.5352C118.064 53.8216 117.84 54.0918 117.566 54.3457C117.293 54.5931 116.964 54.7982 116.58 54.9609C116.196 55.1172 115.74 55.1953 115.213 55.1953C114.542 55.1953 113.934 55.0618 113.387 54.7949C112.846 54.5215 112.417 54.1471 112.098 53.6719C111.785 53.1901 111.629 52.6432 111.629 52.0312C111.629 51.4779 111.733 50.9863 111.941 50.5566C112.15 50.127 112.456 49.7656 112.859 49.4727C113.27 49.1732 113.781 48.9486 114.393 48.7988C115.005 48.6426 115.714 48.5645 116.521 48.5645H118.152ZM125.594 46.7383V55H122.781V44.4336H125.428L125.594 46.7383ZM128.777 44.3652L128.729 46.9727C128.592 46.9531 128.426 46.9368 128.23 46.9238C128.042 46.9043 127.869 46.8945 127.713 46.8945C127.316 46.8945 126.971 46.9466 126.678 47.0508C126.391 47.1484 126.15 47.2949 125.955 47.4902C125.766 47.6855 125.623 47.9232 125.525 48.2031C125.434 48.4831 125.382 48.8021 125.369 49.1602L124.803 48.9844C124.803 48.3008 124.871 47.6725 125.008 47.0996C125.145 46.5202 125.343 46.0156 125.604 45.5859C125.87 45.1562 126.196 44.8242 126.58 44.5898C126.964 44.3555 127.404 44.2383 127.898 44.2383C128.055 44.2383 128.214 44.2513 128.377 44.2773C128.54 44.2969 128.673 44.3262 128.777 44.3652ZM140.799 49.9316H137.176V47.6465H140.799C141.359 47.6465 141.814 47.5553 142.166 47.373C142.518 47.1842 142.775 46.9238 142.938 46.5918C143.1 46.2598 143.182 45.8854 143.182 45.4688C143.182 45.0456 143.1 44.6517 142.938 44.2871C142.775 43.9225 142.518 43.6296 142.166 43.4082C141.814 43.1868 141.359 43.0762 140.799 43.0762H138.191V55H135.262V40.7812H140.799C141.912 40.7812 142.866 40.9831 143.66 41.3867C144.461 41.7839 145.073 42.334 145.496 43.0371C145.919 43.7402 146.131 44.5443 146.131 45.4492C146.131 46.3672 145.919 47.1615 145.496 47.832C145.073 48.5026 144.461 49.0202 143.66 49.3848C142.866 49.7493 141.912 49.9316 140.799 49.9316ZM152.703 55.1953C151.883 55.1953 151.147 55.0651 150.496 54.8047C149.845 54.5378 149.292 54.1699 148.836 53.7012C148.387 53.2324 148.042 52.6888 147.801 52.0703C147.56 51.4453 147.439 50.7812 147.439 50.0781V49.6875C147.439 48.8867 147.553 48.1543 147.781 47.4902C148.009 46.8262 148.335 46.25 148.758 45.7617C149.188 45.2734 149.708 44.8991 150.32 44.6387C150.932 44.3717 151.622 44.2383 152.391 44.2383C153.139 44.2383 153.803 44.362 154.383 44.6094C154.962 44.8568 155.447 45.2083 155.838 45.6641C156.235 46.1198 156.535 46.6667 156.736 47.3047C156.938 47.9362 157.039 48.6393 157.039 49.4141V50.5859H148.641V48.7109H154.275V48.4961C154.275 48.1055 154.204 47.7572 154.061 47.4512C153.924 47.1387 153.715 46.8913 153.436 46.709C153.156 46.5267 152.798 46.4355 152.361 46.4355C151.99 46.4355 151.671 46.5169 151.404 46.6797C151.137 46.8424 150.919 47.0703 150.75 47.3633C150.587 47.6562 150.464 48.0013 150.379 48.3984C150.301 48.7891 150.262 49.2188 150.262 49.6875V50.0781C150.262 50.5013 150.32 50.8919 150.438 51.25C150.561 51.6081 150.734 51.9173 150.955 52.1777C151.183 52.4382 151.456 52.64 151.775 52.7832C152.101 52.9264 152.469 52.998 152.879 52.998C153.387 52.998 153.859 52.9004 154.295 52.7051C154.738 52.5033 155.118 52.2005 155.438 51.7969L156.805 53.2812C156.583 53.6003 156.281 53.9062 155.896 54.1992C155.519 54.4922 155.063 54.7331 154.529 54.9219C153.995 55.1042 153.387 55.1953 152.703 55.1953ZM161.453 46.6211V55H158.631V44.4336H161.277L161.453 46.6211ZM161.062 49.3457H160.281C160.281 48.61 160.369 47.9329 160.545 47.3145C160.727 46.6895 160.991 46.1491 161.336 45.6934C161.688 45.2311 162.12 44.873 162.635 44.6191C163.149 44.3652 163.745 44.2383 164.422 44.2383C164.891 44.2383 165.32 44.3099 165.711 44.4531C166.102 44.5898 166.437 44.8079 166.717 45.1074C167.003 45.4004 167.225 45.7845 167.381 46.2598C167.537 46.7285 167.615 47.2917 167.615 47.9492V55H164.803V48.2617C164.803 47.7799 164.738 47.4089 164.607 47.1484C164.477 46.888 164.292 46.7057 164.051 46.6016C163.816 46.4974 163.533 46.4453 163.201 46.4453C162.837 46.4453 162.518 46.5202 162.244 46.6699C161.977 46.8197 161.756 47.028 161.58 47.2949C161.404 47.5553 161.274 47.8613 161.189 48.2129C161.105 48.5645 161.062 48.9421 161.062 49.3457ZM167.352 49.0234L166.346 49.1504C166.346 48.4603 166.43 47.819 166.6 47.2266C166.775 46.6341 167.033 46.1133 167.371 45.6641C167.716 45.2148 168.143 44.8665 168.65 44.6191C169.158 44.3652 169.744 44.2383 170.408 44.2383C170.916 44.2383 171.378 44.3132 171.795 44.4629C172.212 44.6061 172.566 44.8372 172.859 45.1562C173.159 45.4688 173.387 45.8789 173.543 46.3867C173.706 46.8945 173.787 47.5163 173.787 48.252V55H170.965V48.252C170.965 47.7637 170.9 47.3926 170.77 47.1387C170.646 46.8783 170.464 46.6992 170.223 46.6016C169.988 46.4974 169.708 46.4453 169.383 46.4453C169.044 46.4453 168.748 46.5137 168.494 46.6504C168.24 46.7806 168.029 46.9629 167.859 47.1973C167.69 47.4316 167.563 47.7051 167.479 48.0176C167.394 48.3236 167.352 48.6589 167.352 49.0234ZM178.777 46.7383V55H175.965V44.4336H178.611L178.777 46.7383ZM181.961 44.3652L181.912 46.9727C181.775 46.9531 181.609 46.9368 181.414 46.9238C181.225 46.9043 181.053 46.8945 180.896 46.8945C180.499 46.8945 180.154 46.9466 179.861 47.0508C179.575 47.1484 179.334 47.2949 179.139 47.4902C178.95 47.6855 178.807 47.9232 178.709 48.2031C178.618 48.4831 178.566 48.8021 178.553 49.1602L177.986 48.9844C177.986 48.3008 178.055 47.6725 178.191 47.0996C178.328 46.5202 178.527 46.0156 178.787 45.5859C179.054 45.1562 179.38 44.8242 179.764 44.5898C180.148 44.3555 180.587 44.2383 181.082 44.2383C181.238 44.2383 181.398 44.2513 181.561 44.2773C181.723 44.2969 181.857 44.3262 181.961 44.3652ZM182.547 49.8242V49.6191C182.547 48.8444 182.658 48.1315 182.879 47.4805C183.1 46.8229 183.423 46.2533 183.846 45.7715C184.269 45.2897 184.79 44.9154 185.408 44.6484C186.027 44.375 186.736 44.2383 187.537 44.2383C188.338 44.2383 189.051 44.375 189.676 44.6484C190.301 44.9154 190.825 45.2897 191.248 45.7715C191.678 46.2533 192.003 46.8229 192.225 47.4805C192.446 48.1315 192.557 48.8444 192.557 49.6191V49.8242C192.557 50.5924 192.446 51.3053 192.225 51.9629C192.003 52.6139 191.678 53.1836 191.248 53.6719C190.825 54.1536 190.304 54.528 189.686 54.7949C189.067 55.0618 188.357 55.1953 187.557 55.1953C186.756 55.1953 186.043 55.0618 185.418 54.7949C184.799 54.528 184.275 54.1536 183.846 53.6719C183.423 53.1836 183.1 52.6139 182.879 51.9629C182.658 51.3053 182.547 50.5924 182.547 49.8242ZM185.359 49.6191V49.8242C185.359 50.2669 185.398 50.6803 185.477 51.0645C185.555 51.4486 185.678 51.7871 185.848 52.0801C186.023 52.3665 186.251 52.5911 186.531 52.7539C186.811 52.9167 187.153 52.998 187.557 52.998C187.947 52.998 188.283 52.9167 188.562 52.7539C188.842 52.5911 189.067 52.3665 189.236 52.0801C189.406 51.7871 189.529 51.4486 189.607 51.0645C189.692 50.6803 189.734 50.2669 189.734 49.8242V49.6191C189.734 49.1895 189.692 48.7858 189.607 48.4082C189.529 48.0241 189.402 47.6855 189.227 47.3926C189.057 47.0931 188.833 46.8587 188.553 46.6895C188.273 46.5202 187.934 46.4355 187.537 46.4355C187.14 46.4355 186.801 46.5202 186.521 46.6895C186.248 46.8587 186.023 47.0931 185.848 47.3926C185.678 47.6855 185.555 48.0241 185.477 48.4082C185.398 48.7858 185.359 49.1895 185.359 49.6191ZM200.975 44.4336H203.523V54.6484C203.523 55.612 203.309 56.429 202.879 57.0996C202.456 57.7767 201.863 58.2878 201.102 58.6328C200.34 58.9844 199.454 59.1602 198.445 59.1602C198.003 59.1602 197.534 59.1016 197.039 58.9844C196.551 58.8672 196.082 58.6849 195.633 58.4375C195.19 58.1901 194.819 57.8776 194.52 57.5L195.76 55.8398C196.085 56.2174 196.463 56.5104 196.893 56.7188C197.322 56.9336 197.798 57.041 198.318 57.041C198.826 57.041 199.256 56.9466 199.607 56.7578C199.959 56.5755 200.229 56.3053 200.418 55.9473C200.607 55.5957 200.701 55.1693 200.701 54.668V46.875L200.975 44.4336ZM193.865 49.8438V49.6387C193.865 48.8314 193.963 48.099 194.158 47.4414C194.36 46.7773 194.643 46.2077 195.008 45.7324C195.379 45.2572 195.828 44.8893 196.355 44.6289C196.883 44.3685 197.479 44.2383 198.143 44.2383C198.846 44.2383 199.435 44.3685 199.91 44.6289C200.385 44.8893 200.776 45.2604 201.082 45.7422C201.388 46.2174 201.626 46.7806 201.795 47.4316C201.971 48.0762 202.107 48.7826 202.205 49.5508V50C202.107 50.7357 201.961 51.4193 201.766 52.0508C201.57 52.6823 201.313 53.2357 200.994 53.7109C200.675 54.1797 200.278 54.5443 199.803 54.8047C199.334 55.0651 198.774 55.1953 198.123 55.1953C197.472 55.1953 196.883 55.0618 196.355 54.7949C195.835 54.528 195.389 54.1536 195.018 53.6719C194.646 53.1901 194.36 52.6237 194.158 51.9727C193.963 51.3216 193.865 50.612 193.865 49.8438ZM196.678 49.6387V49.8438C196.678 50.2799 196.72 50.6868 196.805 51.0645C196.889 51.4421 197.02 51.7773 197.195 52.0703C197.378 52.3568 197.602 52.5814 197.869 52.7441C198.143 52.9004 198.465 52.9785 198.836 52.9785C199.35 52.9785 199.77 52.8711 200.096 52.6562C200.421 52.4349 200.665 52.1322 200.828 51.748C200.991 51.3639 201.085 50.9212 201.111 50.4199V49.1406C201.098 48.7305 201.043 48.3626 200.945 48.0371C200.848 47.7051 200.711 47.4219 200.535 47.1875C200.359 46.9531 200.132 46.7708 199.852 46.6406C199.572 46.5104 199.24 46.4453 198.855 46.4453C198.484 46.4453 198.162 46.5299 197.889 46.6992C197.622 46.862 197.397 47.0866 197.215 47.373C197.039 47.6595 196.906 47.998 196.814 48.3887C196.723 48.7728 196.678 49.1895 196.678 49.6387ZM208.523 46.7383V55H205.711V44.4336H208.357L208.523 46.7383ZM211.707 44.3652L211.658 46.9727C211.521 46.9531 211.355 46.9368 211.16 46.9238C210.971 46.9043 210.799 46.8945 210.643 46.8945C210.245 46.8945 209.9 46.9466 209.607 47.0508C209.321 47.1484 209.08 47.2949 208.885 47.4902C208.696 47.6855 208.553 47.9232 208.455 48.2031C208.364 48.4831 208.312 48.8021 208.299 49.1602L207.732 48.9844C207.732 48.3008 207.801 47.6725 207.938 47.0996C208.074 46.5202 208.273 46.0156 208.533 45.5859C208.8 45.1562 209.126 44.8242 209.51 44.5898C209.894 44.3555 210.333 44.2383 210.828 44.2383C210.984 44.2383 211.144 44.2513 211.307 44.2773C211.469 44.2969 211.603 44.3262 211.707 44.3652ZM218.406 52.6172V47.9102C218.406 47.5716 218.351 47.2819 218.24 47.041C218.13 46.7936 217.957 46.6016 217.723 46.4648C217.495 46.3281 217.199 46.2598 216.834 46.2598C216.521 46.2598 216.251 46.3151 216.023 46.4258C215.796 46.5299 215.62 46.6829 215.496 46.8848C215.372 47.0801 215.311 47.3112 215.311 47.5781H212.498C212.498 47.1289 212.602 46.7025 212.811 46.2988C213.019 45.8952 213.322 45.5404 213.719 45.2344C214.116 44.9219 214.588 44.6777 215.135 44.502C215.688 44.3262 216.307 44.2383 216.99 44.2383C217.811 44.2383 218.54 44.375 219.178 44.6484C219.816 44.9219 220.317 45.332 220.682 45.8789C221.053 46.4258 221.238 47.1094 221.238 47.9297V52.4512C221.238 53.0306 221.274 53.5059 221.346 53.877C221.417 54.2415 221.521 54.5605 221.658 54.834V55H218.816C218.68 54.7135 218.576 54.3555 218.504 53.9258C218.439 53.4896 218.406 53.0534 218.406 52.6172ZM218.777 48.5645L218.797 50.1562H217.225C216.854 50.1562 216.531 50.1986 216.258 50.2832C215.984 50.3678 215.76 50.4883 215.584 50.6445C215.408 50.7943 215.278 50.9701 215.193 51.1719C215.115 51.3737 215.076 51.5951 215.076 51.8359C215.076 52.0768 215.132 52.2949 215.242 52.4902C215.353 52.679 215.512 52.8288 215.721 52.9395C215.929 53.0436 216.173 53.0957 216.453 53.0957C216.876 53.0957 217.244 53.0111 217.557 52.8418C217.869 52.6725 218.11 52.4642 218.279 52.2168C218.455 51.9694 218.546 51.735 218.553 51.5137L219.295 52.7051C219.191 52.972 219.048 53.2487 218.865 53.5352C218.689 53.8216 218.465 54.0918 218.191 54.3457C217.918 54.5931 217.589 54.7982 217.205 54.9609C216.821 55.1172 216.365 55.1953 215.838 55.1953C215.167 55.1953 214.559 55.0618 214.012 54.7949C213.471 54.5215 213.042 54.1471 212.723 53.6719C212.41 53.1901 212.254 52.6432 212.254 52.0312C212.254 51.4779 212.358 50.9863 212.566 50.5566C212.775 50.127 213.081 49.7656 213.484 49.4727C213.895 49.1732 214.406 48.9486 215.018 48.7988C215.63 48.6426 216.339 48.5645 217.146 48.5645H218.777ZM226.219 46.6211V55H223.396V44.4336H226.043L226.219 46.6211ZM225.828 49.3457H225.047C225.047 48.61 225.135 47.9329 225.311 47.3145C225.493 46.6895 225.757 46.1491 226.102 45.6934C226.453 45.2311 226.886 44.873 227.4 44.6191C227.915 44.3652 228.51 44.2383 229.188 44.2383C229.656 44.2383 230.086 44.3099 230.477 44.4531C230.867 44.5898 231.202 44.8079 231.482 45.1074C231.769 45.4004 231.99 45.7845 232.146 46.2598C232.303 46.7285 232.381 47.2917 232.381 47.9492V55H229.568V48.2617C229.568 47.7799 229.503 47.4089 229.373 47.1484C229.243 46.888 229.057 46.7057 228.816 46.6016C228.582 46.4974 228.299 46.4453 227.967 46.4453C227.602 46.4453 227.283 46.5202 227.01 46.6699C226.743 46.8197 226.521 47.028 226.346 47.2949C226.17 47.5553 226.04 47.8613 225.955 48.2129C225.87 48.5645 225.828 48.9421 225.828 49.3457ZM232.117 49.0234L231.111 49.1504C231.111 48.4603 231.196 47.819 231.365 47.2266C231.541 46.6341 231.798 46.1133 232.137 45.6641C232.482 45.2148 232.908 44.8665 233.416 44.6191C233.924 44.3652 234.51 44.2383 235.174 44.2383C235.682 44.2383 236.144 44.3132 236.561 44.4629C236.977 44.6061 237.332 44.8372 237.625 45.1562C237.924 45.4688 238.152 45.8789 238.309 46.3867C238.471 46.8945 238.553 47.5163 238.553 48.252V55H235.73V48.252C235.73 47.7637 235.665 47.3926 235.535 47.1387C235.411 46.8783 235.229 46.6992 234.988 46.6016C234.754 46.4974 234.474 46.4453 234.148 46.4453C233.81 46.4453 233.514 46.5137 233.26 46.6504C233.006 46.7806 232.794 46.9629 232.625 47.1973C232.456 47.4316 232.329 47.7051 232.244 48.0176C232.16 48.3236 232.117 48.6589 232.117 49.0234ZM246.434 52.6172V47.9102C246.434 47.5716 246.378 47.2819 246.268 47.041C246.157 46.7936 245.984 46.6016 245.75 46.4648C245.522 46.3281 245.226 46.2598 244.861 46.2598C244.549 46.2598 244.279 46.3151 244.051 46.4258C243.823 46.5299 243.647 46.6829 243.523 46.8848C243.4 47.0801 243.338 47.3112 243.338 47.5781H240.525C240.525 47.1289 240.63 46.7025 240.838 46.2988C241.046 45.8952 241.349 45.5404 241.746 45.2344C242.143 44.9219 242.615 44.6777 243.162 44.502C243.715 44.3262 244.334 44.2383 245.018 44.2383C245.838 44.2383 246.567 44.375 247.205 44.6484C247.843 44.9219 248.344 45.332 248.709 45.8789C249.08 46.4258 249.266 47.1094 249.266 47.9297V52.4512C249.266 53.0306 249.301 53.5059 249.373 53.877C249.445 54.2415 249.549 54.5605 249.686 54.834V55H246.844C246.707 54.7135 246.603 54.3555 246.531 53.9258C246.466 53.4896 246.434 53.0534 246.434 52.6172ZM246.805 48.5645L246.824 50.1562H245.252C244.881 50.1562 244.559 50.1986 244.285 50.2832C244.012 50.3678 243.787 50.4883 243.611 50.6445C243.436 50.7943 243.305 50.9701 243.221 51.1719C243.143 51.3737 243.104 51.5951 243.104 51.8359C243.104 52.0768 243.159 52.2949 243.27 52.4902C243.38 52.679 243.54 52.8288 243.748 52.9395C243.956 53.0436 244.201 53.0957 244.48 53.0957C244.904 53.0957 245.271 53.0111 245.584 52.8418C245.896 52.6725 246.137 52.4642 246.307 52.2168C246.482 51.9694 246.574 51.735 246.58 51.5137L247.322 52.7051C247.218 52.972 247.075 53.2487 246.893 53.5352C246.717 53.8216 246.492 54.0918 246.219 54.3457C245.945 54.5931 245.617 54.7982 245.232 54.9609C244.848 55.1172 244.393 55.1953 243.865 55.1953C243.195 55.1953 242.586 55.0618 242.039 54.7949C241.499 54.5215 241.069 54.1471 240.75 53.6719C240.438 53.1901 240.281 52.6432 240.281 52.0312C240.281 51.4779 240.385 50.9863 240.594 50.5566C240.802 50.127 241.108 49.7656 241.512 49.4727C241.922 49.1732 242.433 48.9486 243.045 48.7988C243.657 48.6426 244.367 48.5645 245.174 48.5645H246.805ZM254.188 46.6895V55H251.375V44.4336H254.012L254.188 46.6895ZM253.777 49.3457H253.016C253.016 48.5645 253.117 47.8613 253.318 47.2363C253.52 46.6048 253.803 46.0677 254.168 45.625C254.533 45.1758 254.965 44.834 255.467 44.5996C255.975 44.3587 256.541 44.2383 257.166 44.2383C257.661 44.2383 258.113 44.3099 258.523 44.4531C258.934 44.5964 259.285 44.8242 259.578 45.1367C259.878 45.4492 260.105 45.8626 260.262 46.377C260.424 46.8913 260.506 47.5195 260.506 48.2617V55H257.674V48.252C257.674 47.7832 257.609 47.4186 257.479 47.1582C257.348 46.8978 257.156 46.7155 256.902 46.6113C256.655 46.5007 256.349 46.4453 255.984 46.4453C255.607 46.4453 255.278 46.5202 254.998 46.6699C254.725 46.8197 254.497 47.028 254.314 47.2949C254.139 47.5553 254.005 47.8613 253.914 48.2129C253.823 48.5645 253.777 48.9421 253.777 49.3457ZM273.553 50.6348V40.7812H276.473V50.6348C276.473 51.5853 276.264 52.4023 275.848 53.0859C275.431 53.763 274.861 54.2839 274.139 54.6484C273.423 55.013 272.615 55.1953 271.717 55.1953C270.786 55.1953 269.962 55.0391 269.246 54.7266C268.53 54.4141 267.967 53.9355 267.557 53.291C267.146 52.64 266.941 51.8164 266.941 50.8203H269.881C269.881 51.3411 269.952 51.7546 270.096 52.0605C270.245 52.3665 270.457 52.5846 270.73 52.7148C271.004 52.8451 271.333 52.9102 271.717 52.9102C272.088 52.9102 272.41 52.8223 272.684 52.6465C272.957 52.4707 273.169 52.2135 273.318 51.875C273.475 51.5365 273.553 51.123 273.553 50.6348ZM284.5 52.6172V47.9102C284.5 47.5716 284.445 47.2819 284.334 47.041C284.223 46.7936 284.051 46.6016 283.816 46.4648C283.589 46.3281 283.292 46.2598 282.928 46.2598C282.615 46.2598 282.345 46.3151 282.117 46.4258C281.889 46.5299 281.714 46.6829 281.59 46.8848C281.466 47.0801 281.404 47.3112 281.404 47.5781H278.592C278.592 47.1289 278.696 46.7025 278.904 46.2988C279.113 45.8952 279.415 45.5404 279.812 45.2344C280.21 44.9219 280.682 44.6777 281.229 44.502C281.782 44.3262 282.4 44.2383 283.084 44.2383C283.904 44.2383 284.633 44.375 285.271 44.6484C285.91 44.9219 286.411 45.332 286.775 45.8789C287.146 46.4258 287.332 47.1094 287.332 47.9297V52.4512C287.332 53.0306 287.368 53.5059 287.439 53.877C287.511 54.2415 287.615 54.5605 287.752 54.834V55H284.91C284.773 54.7135 284.669 54.3555 284.598 53.9258C284.533 53.4896 284.5 53.0534 284.5 52.6172ZM284.871 48.5645L284.891 50.1562H283.318C282.947 50.1562 282.625 50.1986 282.352 50.2832C282.078 50.3678 281.854 50.4883 281.678 50.6445C281.502 50.7943 281.372 50.9701 281.287 51.1719C281.209 51.3737 281.17 51.5951 281.17 51.8359C281.17 52.0768 281.225 52.2949 281.336 52.4902C281.447 52.679 281.606 52.8288 281.814 52.9395C282.023 53.0436 282.267 53.0957 282.547 53.0957C282.97 53.0957 283.338 53.0111 283.65 52.8418C283.963 52.6725 284.204 52.4642 284.373 52.2168C284.549 51.9694 284.64 51.735 284.646 51.5137L285.389 52.7051C285.285 52.972 285.141 53.2487 284.959 53.5352C284.783 53.8216 284.559 54.0918 284.285 54.3457C284.012 54.5931 283.683 54.7982 283.299 54.9609C282.915 55.1172 282.459 55.1953 281.932 55.1953C281.261 55.1953 280.652 55.0618 280.105 54.7949C279.565 54.5215 279.135 54.1471 278.816 53.6719C278.504 53.1901 278.348 52.6432 278.348 52.0312C278.348 51.4779 278.452 50.9863 278.66 50.5566C278.868 50.127 279.174 49.7656 279.578 49.4727C279.988 49.1732 280.499 48.9486 281.111 48.7988C281.723 48.6426 282.433 48.5645 283.24 48.5645H284.871ZM292.938 52.9492L295.281 44.4336H298.221L294.656 55H292.879L292.938 52.9492ZM291.326 44.4336L293.68 52.959L293.729 55H291.941L288.377 44.4336H291.326ZM305.027 52.6172V47.9102C305.027 47.5716 304.972 47.2819 304.861 47.041C304.751 46.7936 304.578 46.6016 304.344 46.4648C304.116 46.3281 303.82 46.2598 303.455 46.2598C303.143 46.2598 302.872 46.3151 302.645 46.4258C302.417 46.5299 302.241 46.6829 302.117 46.8848C301.993 47.0801 301.932 47.3112 301.932 47.5781H299.119C299.119 47.1289 299.223 46.7025 299.432 46.2988C299.64 45.8952 299.943 45.5404 300.34 45.2344C300.737 44.9219 301.209 44.6777 301.756 44.502C302.309 44.3262 302.928 44.2383 303.611 44.2383C304.432 44.2383 305.161 44.375 305.799 44.6484C306.437 44.9219 306.938 45.332 307.303 45.8789C307.674 46.4258 307.859 47.1094 307.859 47.9297V52.4512C307.859 53.0306 307.895 53.5059 307.967 53.877C308.038 54.2415 308.143 54.5605 308.279 54.834V55H305.438C305.301 54.7135 305.197 54.3555 305.125 53.9258C305.06 53.4896 305.027 53.0534 305.027 52.6172ZM305.398 48.5645L305.418 50.1562H303.846C303.475 50.1562 303.152 50.1986 302.879 50.2832C302.605 50.3678 302.381 50.4883 302.205 50.6445C302.029 50.7943 301.899 50.9701 301.814 51.1719C301.736 51.3737 301.697 51.5951 301.697 51.8359C301.697 52.0768 301.753 52.2949 301.863 52.4902C301.974 52.679 302.133 52.8288 302.342 52.9395C302.55 53.0436 302.794 53.0957 303.074 53.0957C303.497 53.0957 303.865 53.0111 304.178 52.8418C304.49 52.6725 304.731 52.4642 304.9 52.2168C305.076 51.9694 305.167 51.735 305.174 51.5137L305.916 52.7051C305.812 52.972 305.669 53.2487 305.486 53.5352C305.311 53.8216 305.086 54.0918 304.812 54.3457C304.539 54.5931 304.21 54.7982 303.826 54.9609C303.442 55.1172 302.986 55.1953 302.459 55.1953C301.788 55.1953 301.18 55.0618 300.633 54.7949C300.092 54.5215 299.663 54.1471 299.344 53.6719C299.031 53.1901 298.875 52.6432 298.875 52.0312C298.875 51.4779 298.979 50.9863 299.188 50.5566C299.396 50.127 299.702 49.7656 300.105 49.4727C300.516 49.1732 301.027 48.9486 301.639 48.7988C302.251 48.6426 302.96 48.5645 303.768 48.5645H305.398Z" fill="black"/>
<path d="M67.9141 230.041L63.207 243H61.2832L66.7031 228.781H67.9434L67.9141 230.041ZM71.8594 243L67.1426 230.041L67.1133 228.781H68.3535L73.793 243H71.8594ZM71.6152 237.736V239.279H63.627V237.736H71.6152ZM77.2402 228V243H75.4238V228H77.2402ZM83.6953 232.434L79.0859 237.365L76.5078 240.041L76.3613 238.117L78.207 235.91L81.4883 232.434H83.6953ZM82.0449 243L78.2754 237.961L79.2129 236.35L84.1738 243H82.0449ZM91.7129 240.197C91.7129 239.937 91.6543 239.696 91.5371 239.475C91.4264 239.247 91.1953 239.042 90.8438 238.859C90.4987 238.671 89.9779 238.508 89.2812 238.371C88.6953 238.247 88.1647 238.101 87.6895 237.932C87.2207 237.762 86.8203 237.557 86.4883 237.316C86.1628 237.076 85.9121 236.792 85.7363 236.467C85.5605 236.141 85.4727 235.76 85.4727 235.324C85.4727 234.908 85.5638 234.514 85.7461 234.143C85.9349 233.771 86.1986 233.443 86.5371 233.156C86.8822 232.87 87.2956 232.645 87.7773 232.482C88.2591 232.32 88.7962 232.238 89.3887 232.238C90.235 232.238 90.9577 232.388 91.5566 232.688C92.1556 232.987 92.6146 233.387 92.9336 233.889C93.2526 234.383 93.4121 234.934 93.4121 235.539H91.6055C91.6055 235.246 91.5176 234.963 91.3418 234.689C91.1725 234.41 90.9219 234.178 90.5898 233.996C90.2643 233.814 89.8639 233.723 89.3887 233.723C88.8874 233.723 88.4805 233.801 88.168 233.957C87.862 234.107 87.6374 234.299 87.4941 234.533C87.3574 234.768 87.2891 235.015 87.2891 235.275C87.2891 235.471 87.3216 235.646 87.3867 235.803C87.4583 235.952 87.582 236.092 87.7578 236.223C87.9336 236.346 88.181 236.464 88.5 236.574C88.819 236.685 89.2259 236.796 89.7207 236.906C90.5866 237.102 91.2995 237.336 91.8594 237.609C92.4193 237.883 92.8359 238.218 93.1094 238.615C93.3828 239.012 93.5195 239.494 93.5195 240.061C93.5195 240.523 93.4219 240.946 93.2266 241.33C93.0378 241.714 92.7611 242.046 92.3965 242.326C92.0384 242.6 91.6087 242.814 91.1074 242.971C90.6126 243.12 90.056 243.195 89.4375 243.195C88.5065 243.195 87.7188 243.029 87.0742 242.697C86.4297 242.365 85.9414 241.936 85.6094 241.408C85.2773 240.881 85.1113 240.324 85.1113 239.738H86.9277C86.9538 240.233 87.097 240.627 87.3574 240.92C87.6178 241.206 87.9368 241.411 88.3145 241.535C88.6921 241.652 89.0664 241.711 89.4375 241.711C89.9323 241.711 90.3457 241.646 90.6777 241.516C91.0163 241.385 91.2734 241.206 91.4492 240.979C91.625 240.751 91.7129 240.49 91.7129 240.197ZM100.277 243.195C99.5417 243.195 98.8743 243.072 98.2754 242.824C97.6829 242.57 97.1719 242.215 96.7422 241.76C96.319 241.304 95.9935 240.764 95.7656 240.139C95.5378 239.514 95.4238 238.83 95.4238 238.088V237.678C95.4238 236.818 95.5508 236.053 95.8047 235.383C96.0586 234.706 96.4036 234.133 96.8398 233.664C97.276 233.195 97.7708 232.84 98.3242 232.6C98.8776 232.359 99.4505 232.238 100.043 232.238C100.798 232.238 101.449 232.368 101.996 232.629C102.549 232.889 103.002 233.254 103.354 233.723C103.705 234.185 103.965 234.732 104.135 235.363C104.304 235.988 104.389 236.672 104.389 237.414V238.225H96.498V236.75H102.582V236.613C102.556 236.145 102.458 235.689 102.289 235.246C102.126 234.803 101.866 234.439 101.508 234.152C101.15 233.866 100.661 233.723 100.043 233.723C99.6328 233.723 99.2552 233.811 98.9102 233.986C98.5651 234.156 98.2689 234.41 98.0215 234.748C97.7741 235.087 97.582 235.5 97.4453 235.988C97.3086 236.477 97.2402 237.04 97.2402 237.678V238.088C97.2402 238.589 97.3086 239.061 97.4453 239.504C97.5885 239.94 97.7936 240.324 98.0605 240.656C98.334 240.988 98.6628 241.249 99.0469 241.438C99.4375 241.626 99.8802 241.721 100.375 241.721C101.013 241.721 101.553 241.59 101.996 241.33C102.439 241.07 102.826 240.721 103.158 240.285L104.252 241.154C104.024 241.499 103.734 241.828 103.383 242.141C103.031 242.453 102.598 242.707 102.084 242.902C101.576 243.098 100.974 243.195 100.277 243.195ZM112.65 240.197C112.65 239.937 112.592 239.696 112.475 239.475C112.364 239.247 112.133 239.042 111.781 238.859C111.436 238.671 110.915 238.508 110.219 238.371C109.633 238.247 109.102 238.101 108.627 237.932C108.158 237.762 107.758 237.557 107.426 237.316C107.1 237.076 106.85 236.792 106.674 236.467C106.498 236.141 106.41 235.76 106.41 235.324C106.41 234.908 106.501 234.514 106.684 234.143C106.872 233.771 107.136 233.443 107.475 233.156C107.82 232.87 108.233 232.645 108.715 232.482C109.197 232.32 109.734 232.238 110.326 232.238C111.173 232.238 111.895 232.388 112.494 232.688C113.093 232.987 113.552 233.387 113.871 233.889C114.19 234.383 114.35 234.934 114.35 235.539H112.543C112.543 235.246 112.455 234.963 112.279 234.689C112.11 234.41 111.859 234.178 111.527 233.996C111.202 233.814 110.801 233.723 110.326 233.723C109.825 233.723 109.418 233.801 109.105 233.957C108.799 234.107 108.575 234.299 108.432 234.533C108.295 234.768 108.227 235.015 108.227 235.275C108.227 235.471 108.259 235.646 108.324 235.803C108.396 235.952 108.52 236.092 108.695 236.223C108.871 236.346 109.118 236.464 109.438 236.574C109.757 236.685 110.163 236.796 110.658 236.906C111.524 237.102 112.237 237.336 112.797 237.609C113.357 237.883 113.773 238.218 114.047 238.615C114.32 239.012 114.457 239.494 114.457 240.061C114.457 240.523 114.359 240.946 114.164 241.33C113.975 241.714 113.699 242.046 113.334 242.326C112.976 242.6 112.546 242.814 112.045 242.971C111.55 243.12 110.993 243.195 110.375 243.195C109.444 243.195 108.656 243.029 108.012 242.697C107.367 242.365 106.879 241.936 106.547 241.408C106.215 240.881 106.049 240.324 106.049 239.738H107.865C107.891 240.233 108.035 240.627 108.295 240.92C108.555 241.206 108.874 241.411 109.252 241.535C109.63 241.652 110.004 241.711 110.375 241.711C110.87 241.711 111.283 241.646 111.615 241.516C111.954 241.385 112.211 241.206 112.387 240.979C112.562 240.751 112.65 240.49 112.65 240.197ZM126.654 240.842L130.844 228.781H132.885L127.621 243H126.166L126.654 240.842ZM122.738 228.781L126.889 240.842L127.406 243H125.951L120.697 228.781H122.738ZM136.488 232.434V243H134.672V232.434H136.488ZM134.535 229.631C134.535 229.338 134.623 229.09 134.799 228.889C134.981 228.687 135.248 228.586 135.6 228.586C135.945 228.586 136.208 228.687 136.391 228.889C136.579 229.09 136.674 229.338 136.674 229.631C136.674 229.911 136.579 230.152 136.391 230.354C136.208 230.549 135.945 230.646 135.6 230.646C135.248 230.646 134.981 230.549 134.799 230.354C134.623 230.152 134.535 229.911 134.535 229.631ZM146.049 240.949V228H147.865V243H146.205L146.049 240.949ZM138.939 237.834V237.629C138.939 236.822 139.037 236.089 139.232 235.432C139.434 234.768 139.717 234.198 140.082 233.723C140.453 233.247 140.893 232.883 141.4 232.629C141.915 232.368 142.488 232.238 143.119 232.238C143.783 232.238 144.363 232.355 144.857 232.59C145.359 232.818 145.782 233.153 146.127 233.596C146.479 234.032 146.755 234.559 146.957 235.178C147.159 235.796 147.299 236.496 147.377 237.277V238.176C147.305 238.951 147.165 239.647 146.957 240.266C146.755 240.884 146.479 241.411 146.127 241.848C145.782 242.284 145.359 242.619 144.857 242.854C144.356 243.081 143.77 243.195 143.1 243.195C142.481 243.195 141.915 243.062 141.4 242.795C140.893 242.528 140.453 242.154 140.082 241.672C139.717 241.19 139.434 240.624 139.232 239.973C139.037 239.315 138.939 238.602 138.939 237.834ZM140.756 237.629V237.834C140.756 238.361 140.808 238.856 140.912 239.318C141.023 239.781 141.192 240.188 141.42 240.539C141.648 240.891 141.938 241.167 142.289 241.369C142.641 241.564 143.061 241.662 143.549 241.662C144.148 241.662 144.639 241.535 145.023 241.281C145.414 241.027 145.727 240.692 145.961 240.275C146.195 239.859 146.378 239.406 146.508 238.918V236.564C146.43 236.206 146.316 235.861 146.166 235.529C146.023 235.191 145.834 234.891 145.6 234.631C145.372 234.364 145.089 234.152 144.75 233.996C144.418 233.84 144.024 233.762 143.568 233.762C143.074 233.762 142.647 233.866 142.289 234.074C141.938 234.276 141.648 234.556 141.42 234.914C141.192 235.266 141.023 235.676 140.912 236.145C140.808 236.607 140.756 237.102 140.756 237.629ZM155.062 243.195C154.327 243.195 153.66 243.072 153.061 242.824C152.468 242.57 151.957 242.215 151.527 241.76C151.104 241.304 150.779 240.764 150.551 240.139C150.323 239.514 150.209 238.83 150.209 238.088V237.678C150.209 236.818 150.336 236.053 150.59 235.383C150.844 234.706 151.189 234.133 151.625 233.664C152.061 233.195 152.556 232.84 153.109 232.6C153.663 232.359 154.236 232.238 154.828 232.238C155.583 232.238 156.234 232.368 156.781 232.629C157.335 232.889 157.787 233.254 158.139 233.723C158.49 234.185 158.751 234.732 158.92 235.363C159.089 235.988 159.174 236.672 159.174 237.414V238.225H151.283V236.75H157.367V236.613C157.341 236.145 157.243 235.689 157.074 235.246C156.911 234.803 156.651 234.439 156.293 234.152C155.935 233.866 155.447 233.723 154.828 233.723C154.418 233.723 154.04 233.811 153.695 233.986C153.35 234.156 153.054 234.41 152.807 234.748C152.559 235.087 152.367 235.5 152.23 235.988C152.094 236.477 152.025 237.04 152.025 237.678V238.088C152.025 238.589 152.094 239.061 152.23 239.504C152.374 239.94 152.579 240.324 152.846 240.656C153.119 240.988 153.448 241.249 153.832 241.438C154.223 241.626 154.665 241.721 155.16 241.721C155.798 241.721 156.339 241.59 156.781 241.33C157.224 241.07 157.611 240.721 157.943 240.285L159.037 241.154C158.809 241.499 158.52 241.828 158.168 242.141C157.816 242.453 157.383 242.707 156.869 242.902C156.361 243.098 155.759 243.195 155.062 243.195ZM160.805 237.834V237.609C160.805 236.848 160.915 236.141 161.137 235.49C161.358 234.833 161.677 234.263 162.094 233.781C162.51 233.293 163.015 232.915 163.607 232.648C164.2 232.375 164.864 232.238 165.6 232.238C166.342 232.238 167.009 232.375 167.602 232.648C168.201 232.915 168.708 233.293 169.125 233.781C169.548 234.263 169.87 234.833 170.092 235.49C170.313 236.141 170.424 236.848 170.424 237.609V237.834C170.424 238.596 170.313 239.302 170.092 239.953C169.87 240.604 169.548 241.174 169.125 241.662C168.708 242.144 168.204 242.521 167.611 242.795C167.025 243.062 166.361 243.195 165.619 243.195C164.877 243.195 164.21 243.062 163.617 242.795C163.025 242.521 162.517 242.144 162.094 241.662C161.677 241.174 161.358 240.604 161.137 239.953C160.915 239.302 160.805 238.596 160.805 237.834ZM162.611 237.609V237.834C162.611 238.361 162.673 238.859 162.797 239.328C162.921 239.79 163.106 240.201 163.354 240.559C163.607 240.917 163.923 241.2 164.301 241.408C164.678 241.61 165.118 241.711 165.619 241.711C166.114 241.711 166.547 241.61 166.918 241.408C167.296 241.2 167.608 240.917 167.855 240.559C168.103 240.201 168.288 239.79 168.412 239.328C168.542 238.859 168.607 238.361 168.607 237.834V237.609C168.607 237.089 168.542 236.597 168.412 236.135C168.288 235.666 168.1 235.253 167.846 234.895C167.598 234.53 167.286 234.243 166.908 234.035C166.537 233.827 166.101 233.723 165.6 233.723C165.105 233.723 164.669 233.827 164.291 234.035C163.92 234.243 163.607 234.53 163.354 234.895C163.106 235.253 162.921 235.666 162.797 236.135C162.673 236.597 162.611 237.089 162.611 237.609ZM185.502 239.406C185.502 239.074 185.45 238.781 185.346 238.527C185.248 238.267 185.072 238.033 184.818 237.824C184.571 237.616 184.226 237.417 183.783 237.229C183.347 237.04 182.794 236.848 182.123 236.652C181.42 236.444 180.785 236.213 180.219 235.959C179.652 235.699 179.167 235.402 178.764 235.07C178.36 234.738 178.051 234.357 177.836 233.928C177.621 233.498 177.514 233.007 177.514 232.453C177.514 231.9 177.628 231.389 177.855 230.92C178.083 230.451 178.409 230.044 178.832 229.699C179.262 229.348 179.773 229.074 180.365 228.879C180.958 228.684 181.618 228.586 182.348 228.586C183.415 228.586 184.32 228.791 185.062 229.201C185.811 229.605 186.381 230.135 186.771 230.793C187.162 231.444 187.357 232.141 187.357 232.883H185.482C185.482 232.349 185.368 231.877 185.141 231.467C184.913 231.05 184.568 230.725 184.105 230.49C183.643 230.249 183.057 230.129 182.348 230.129C181.677 230.129 181.124 230.23 180.688 230.432C180.251 230.633 179.926 230.907 179.711 231.252C179.503 231.597 179.398 231.991 179.398 232.434C179.398 232.733 179.46 233.007 179.584 233.254C179.714 233.495 179.913 233.719 180.18 233.928C180.453 234.136 180.798 234.328 181.215 234.504C181.638 234.68 182.143 234.849 182.729 235.012C183.536 235.24 184.232 235.493 184.818 235.773C185.404 236.053 185.886 236.369 186.264 236.721C186.648 237.066 186.931 237.46 187.113 237.902C187.302 238.339 187.396 238.833 187.396 239.387C187.396 239.966 187.279 240.49 187.045 240.959C186.811 241.428 186.475 241.828 186.039 242.16C185.603 242.492 185.079 242.749 184.467 242.932C183.861 243.107 183.184 243.195 182.436 243.195C181.778 243.195 181.13 243.104 180.492 242.922C179.861 242.74 179.285 242.466 178.764 242.102C178.249 241.737 177.836 241.288 177.523 240.754C177.217 240.214 177.064 239.589 177.064 238.879H178.939C178.939 239.367 179.034 239.787 179.223 240.139C179.411 240.484 179.669 240.77 179.994 240.998C180.326 241.226 180.701 241.395 181.117 241.506C181.54 241.61 181.98 241.662 182.436 241.662C183.093 241.662 183.65 241.571 184.105 241.389C184.561 241.206 184.906 240.946 185.141 240.607C185.382 240.269 185.502 239.868 185.502 239.406ZM193.91 243.195C193.174 243.195 192.507 243.072 191.908 242.824C191.316 242.57 190.805 242.215 190.375 241.76C189.952 241.304 189.626 240.764 189.398 240.139C189.171 239.514 189.057 238.83 189.057 238.088V237.678C189.057 236.818 189.184 236.053 189.438 235.383C189.691 234.706 190.036 234.133 190.473 233.664C190.909 233.195 191.404 232.84 191.957 232.6C192.51 232.359 193.083 232.238 193.676 232.238C194.431 232.238 195.082 232.368 195.629 232.629C196.182 232.889 196.635 233.254 196.986 233.723C197.338 234.185 197.598 234.732 197.768 235.363C197.937 235.988 198.021 236.672 198.021 237.414V238.225H190.131V236.75H196.215V236.613C196.189 236.145 196.091 235.689 195.922 235.246C195.759 234.803 195.499 234.439 195.141 234.152C194.783 233.866 194.294 233.723 193.676 233.723C193.266 233.723 192.888 233.811 192.543 233.986C192.198 234.156 191.902 234.41 191.654 234.748C191.407 235.087 191.215 235.5 191.078 235.988C190.941 236.477 190.873 237.04 190.873 237.678V238.088C190.873 238.589 190.941 239.061 191.078 239.504C191.221 239.94 191.426 240.324 191.693 240.656C191.967 240.988 192.296 241.249 192.68 241.438C193.07 241.626 193.513 241.721 194.008 241.721C194.646 241.721 195.186 241.59 195.629 241.33C196.072 241.07 196.459 240.721 196.791 240.285L197.885 241.154C197.657 241.499 197.367 241.828 197.016 242.141C196.664 242.453 196.231 242.707 195.717 242.902C195.209 243.098 194.607 243.195 193.91 243.195ZM202.094 228V243H200.277V228H202.094ZM211.225 241.193V235.754C211.225 235.337 211.14 234.976 210.971 234.67C210.808 234.357 210.561 234.117 210.229 233.947C209.896 233.778 209.486 233.693 208.998 233.693C208.542 233.693 208.142 233.771 207.797 233.928C207.458 234.084 207.191 234.289 206.996 234.543C206.807 234.797 206.713 235.07 206.713 235.363H204.906C204.906 234.986 205.004 234.611 205.199 234.24C205.395 233.869 205.674 233.534 206.039 233.234C206.41 232.928 206.853 232.688 207.367 232.512C207.888 232.329 208.467 232.238 209.105 232.238C209.874 232.238 210.551 232.368 211.137 232.629C211.729 232.889 212.191 233.283 212.523 233.811C212.862 234.331 213.031 234.986 213.031 235.773V240.695C213.031 241.047 213.061 241.421 213.119 241.818C213.184 242.215 213.279 242.557 213.402 242.844V243H211.518C211.426 242.792 211.355 242.515 211.303 242.17C211.251 241.818 211.225 241.493 211.225 241.193ZM211.537 236.594L211.557 237.863H209.73C209.216 237.863 208.757 237.906 208.354 237.99C207.95 238.068 207.611 238.189 207.338 238.352C207.064 238.514 206.856 238.719 206.713 238.967C206.57 239.208 206.498 239.491 206.498 239.816C206.498 240.148 206.573 240.451 206.723 240.725C206.872 240.998 207.097 241.216 207.396 241.379C207.702 241.535 208.077 241.613 208.52 241.613C209.073 241.613 209.561 241.496 209.984 241.262C210.408 241.027 210.743 240.741 210.99 240.402C211.244 240.064 211.381 239.735 211.4 239.416L212.172 240.285C212.126 240.559 212.003 240.861 211.801 241.193C211.599 241.525 211.329 241.844 210.99 242.15C210.658 242.45 210.261 242.701 209.799 242.902C209.343 243.098 208.829 243.195 208.256 243.195C207.54 243.195 206.911 243.055 206.371 242.775C205.837 242.495 205.421 242.121 205.121 241.652C204.828 241.177 204.682 240.646 204.682 240.061C204.682 239.494 204.792 238.996 205.014 238.566C205.235 238.13 205.554 237.769 205.971 237.482C206.387 237.189 206.889 236.968 207.475 236.818C208.061 236.669 208.715 236.594 209.438 236.594H211.537ZM217.67 234.533V243H215.854V232.434H217.572L217.67 234.533ZM217.299 237.316L216.459 237.287C216.465 236.564 216.56 235.897 216.742 235.285C216.924 234.667 217.195 234.13 217.553 233.674C217.911 233.218 218.357 232.867 218.891 232.619C219.424 232.365 220.043 232.238 220.746 232.238C221.241 232.238 221.697 232.31 222.113 232.453C222.53 232.59 222.891 232.808 223.197 233.107C223.503 233.407 223.741 233.791 223.91 234.26C224.079 234.729 224.164 235.295 224.164 235.959V243H222.357V236.047C222.357 235.493 222.263 235.051 222.074 234.719C221.892 234.387 221.632 234.146 221.293 233.996C220.954 233.84 220.557 233.762 220.102 233.762C219.568 233.762 219.122 233.856 218.764 234.045C218.406 234.234 218.119 234.494 217.904 234.826C217.689 235.158 217.533 235.539 217.436 235.969C217.344 236.392 217.299 236.841 217.299 237.316ZM224.145 236.32L222.934 236.691C222.94 236.112 223.035 235.555 223.217 235.021C223.406 234.488 223.676 234.012 224.027 233.596C224.385 233.179 224.825 232.85 225.346 232.609C225.867 232.362 226.462 232.238 227.133 232.238C227.699 232.238 228.201 232.313 228.637 232.463C229.079 232.613 229.451 232.844 229.75 233.156C230.056 233.462 230.287 233.856 230.443 234.338C230.6 234.82 230.678 235.393 230.678 236.057V243H228.861V236.037C228.861 235.445 228.767 234.986 228.578 234.66C228.396 234.328 228.135 234.097 227.797 233.967C227.465 233.83 227.068 233.762 226.605 233.762C226.208 233.762 225.857 233.83 225.551 233.967C225.245 234.104 224.988 234.292 224.779 234.533C224.571 234.768 224.411 235.038 224.301 235.344C224.197 235.65 224.145 235.975 224.145 236.32ZM239.643 241.193V235.754C239.643 235.337 239.558 234.976 239.389 234.67C239.226 234.357 238.979 234.117 238.646 233.947C238.314 233.778 237.904 233.693 237.416 233.693C236.96 233.693 236.56 233.771 236.215 233.928C235.876 234.084 235.609 234.289 235.414 234.543C235.225 234.797 235.131 235.07 235.131 235.363H233.324C233.324 234.986 233.422 234.611 233.617 234.24C233.812 233.869 234.092 233.534 234.457 233.234C234.828 232.928 235.271 232.688 235.785 232.512C236.306 232.329 236.885 232.238 237.523 232.238C238.292 232.238 238.969 232.368 239.555 232.629C240.147 232.889 240.609 233.283 240.941 233.811C241.28 234.331 241.449 234.986 241.449 235.773V240.695C241.449 241.047 241.479 241.421 241.537 241.818C241.602 242.215 241.697 242.557 241.82 242.844V243H239.936C239.844 242.792 239.773 242.515 239.721 242.17C239.669 241.818 239.643 241.493 239.643 241.193ZM239.955 236.594L239.975 237.863H238.148C237.634 237.863 237.175 237.906 236.771 237.99C236.368 238.068 236.029 238.189 235.756 238.352C235.482 238.514 235.274 238.719 235.131 238.967C234.988 239.208 234.916 239.491 234.916 239.816C234.916 240.148 234.991 240.451 235.141 240.725C235.29 240.998 235.515 241.216 235.814 241.379C236.12 241.535 236.495 241.613 236.938 241.613C237.491 241.613 237.979 241.496 238.402 241.262C238.826 241.027 239.161 240.741 239.408 240.402C239.662 240.064 239.799 239.735 239.818 239.416L240.59 240.285C240.544 240.559 240.421 240.861 240.219 241.193C240.017 241.525 239.747 241.844 239.408 242.15C239.076 242.45 238.679 242.701 238.217 242.902C237.761 243.098 237.247 243.195 236.674 243.195C235.958 243.195 235.329 243.055 234.789 242.775C234.255 242.495 233.839 242.121 233.539 241.652C233.246 241.177 233.1 240.646 233.1 240.061C233.1 239.494 233.21 238.996 233.432 238.566C233.653 238.13 233.972 237.769 234.389 237.482C234.805 237.189 235.307 236.968 235.893 236.818C236.479 236.669 237.133 236.594 237.855 236.594H239.955ZM246.098 234.689V243H244.291V232.434H246L246.098 234.689ZM245.668 237.316L244.916 237.287C244.923 236.564 245.03 235.897 245.238 235.285C245.447 234.667 245.74 234.13 246.117 233.674C246.495 233.218 246.944 232.867 247.465 232.619C247.992 232.365 248.575 232.238 249.213 232.238C249.734 232.238 250.202 232.31 250.619 232.453C251.036 232.59 251.391 232.811 251.684 233.117C251.983 233.423 252.211 233.82 252.367 234.309C252.523 234.79 252.602 235.38 252.602 236.076V243H250.785V236.057C250.785 235.503 250.704 235.061 250.541 234.729C250.378 234.39 250.141 234.146 249.828 233.996C249.516 233.84 249.132 233.762 248.676 233.762C248.227 233.762 247.816 233.856 247.445 234.045C247.081 234.234 246.765 234.494 246.498 234.826C246.238 235.158 246.033 235.539 245.883 235.969C245.74 236.392 245.668 236.841 245.668 237.316ZM258.314 241.906L261.254 232.434H263.188L258.949 244.631C258.852 244.891 258.721 245.171 258.559 245.471C258.402 245.777 258.201 246.066 257.953 246.34C257.706 246.613 257.406 246.835 257.055 247.004C256.71 247.18 256.296 247.268 255.814 247.268C255.671 247.268 255.489 247.248 255.268 247.209C255.046 247.17 254.89 247.137 254.799 247.111L254.789 245.646C254.841 245.653 254.923 245.66 255.033 245.666C255.15 245.679 255.232 245.686 255.277 245.686C255.688 245.686 256.036 245.63 256.322 245.52C256.609 245.415 256.85 245.236 257.045 244.982C257.247 244.735 257.419 244.393 257.562 243.957L258.314 241.906ZM256.156 232.434L258.9 240.637L259.369 242.541L258.07 243.205L254.184 232.434H256.156ZM270.893 241.193V235.754C270.893 235.337 270.808 234.976 270.639 234.67C270.476 234.357 270.229 234.117 269.896 233.947C269.564 233.778 269.154 233.693 268.666 233.693C268.21 233.693 267.81 233.771 267.465 233.928C267.126 234.084 266.859 234.289 266.664 234.543C266.475 234.797 266.381 235.07 266.381 235.363H264.574C264.574 234.986 264.672 234.611 264.867 234.24C265.062 233.869 265.342 233.534 265.707 233.234C266.078 232.928 266.521 232.688 267.035 232.512C267.556 232.329 268.135 232.238 268.773 232.238C269.542 232.238 270.219 232.368 270.805 232.629C271.397 232.889 271.859 233.283 272.191 233.811C272.53 234.331 272.699 234.986 272.699 235.773V240.695C272.699 241.047 272.729 241.421 272.787 241.818C272.852 242.215 272.947 242.557 273.07 242.844V243H271.186C271.094 242.792 271.023 242.515 270.971 242.17C270.919 241.818 270.893 241.493 270.893 241.193ZM271.205 236.594L271.225 237.863H269.398C268.884 237.863 268.425 237.906 268.021 237.99C267.618 238.068 267.279 238.189 267.006 238.352C266.732 238.514 266.524 238.719 266.381 238.967C266.238 239.208 266.166 239.491 266.166 239.816C266.166 240.148 266.241 240.451 266.391 240.725C266.54 240.998 266.765 241.216 267.064 241.379C267.37 241.535 267.745 241.613 268.188 241.613C268.741 241.613 269.229 241.496 269.652 241.262C270.076 241.027 270.411 240.741 270.658 240.402C270.912 240.064 271.049 239.735 271.068 239.416L271.84 240.285C271.794 240.559 271.671 240.861 271.469 241.193C271.267 241.525 270.997 241.844 270.658 242.15C270.326 242.45 269.929 242.701 269.467 242.902C269.011 243.098 268.497 243.195 267.924 243.195C267.208 243.195 266.579 243.055 266.039 242.775C265.505 242.495 265.089 242.121 264.789 241.652C264.496 241.177 264.35 240.646 264.35 240.061C264.35 239.494 264.46 238.996 264.682 238.566C264.903 238.13 265.222 237.769 265.639 237.482C266.055 237.189 266.557 236.968 267.143 236.818C267.729 236.669 268.383 236.594 269.105 236.594H271.205Z" fill="black"/>
<path d="M70.2285 282.406C70.2285 282.074 70.1764 281.781 70.0723 281.527C69.9746 281.267 69.7988 281.033 69.5449 280.824C69.2975 280.616 68.9525 280.417 68.5098 280.229C68.0736 280.04 67.5202 279.848 66.8496 279.652C66.1465 279.444 65.5117 279.213 64.9453 278.959C64.3789 278.699 63.8939 278.402 63.4902 278.07C63.0866 277.738 62.7773 277.357 62.5625 276.928C62.3477 276.498 62.2402 276.007 62.2402 275.453C62.2402 274.9 62.3542 274.389 62.582 273.92C62.8099 273.451 63.1354 273.044 63.5586 272.699C63.9883 272.348 64.4993 272.074 65.0918 271.879C65.6842 271.684 66.3451 271.586 67.0742 271.586C68.1419 271.586 69.0469 271.791 69.7891 272.201C70.5378 272.605 71.1074 273.135 71.498 273.793C71.8887 274.444 72.084 275.141 72.084 275.883H70.209C70.209 275.349 70.0951 274.877 69.8672 274.467C69.6393 274.05 69.2943 273.725 68.832 273.49C68.3698 273.249 67.7839 273.129 67.0742 273.129C66.4036 273.129 65.8503 273.23 65.4141 273.432C64.9779 273.633 64.6523 273.907 64.4375 274.252C64.2292 274.597 64.125 274.991 64.125 275.434C64.125 275.733 64.1868 276.007 64.3105 276.254C64.4408 276.495 64.6393 276.719 64.9062 276.928C65.1797 277.136 65.5247 277.328 65.9414 277.504C66.3646 277.68 66.8691 277.849 67.4551 278.012C68.2624 278.24 68.959 278.493 69.5449 278.773C70.1309 279.053 70.6126 279.369 70.9902 279.721C71.3743 280.066 71.6576 280.46 71.8398 280.902C72.0286 281.339 72.123 281.833 72.123 282.387C72.123 282.966 72.0059 283.49 71.7715 283.959C71.5371 284.428 71.2018 284.828 70.7656 285.16C70.3294 285.492 69.8053 285.749 69.1934 285.932C68.5879 286.107 67.9108 286.195 67.1621 286.195C66.5046 286.195 65.8568 286.104 65.2188 285.922C64.5872 285.74 64.0111 285.466 63.4902 285.102C62.9759 284.737 62.5625 284.288 62.25 283.754C61.944 283.214 61.791 282.589 61.791 281.879H63.666C63.666 282.367 63.7604 282.787 63.9492 283.139C64.138 283.484 64.3952 283.77 64.7207 283.998C65.0527 284.226 65.4271 284.395 65.8438 284.506C66.2669 284.61 66.7064 284.662 67.1621 284.662C67.8197 284.662 68.3763 284.571 68.832 284.389C69.2878 284.206 69.6328 283.946 69.8672 283.607C70.1081 283.269 70.2285 282.868 70.2285 282.406ZM78.6367 286.195C77.901 286.195 77.2337 286.072 76.6348 285.824C76.0423 285.57 75.5312 285.215 75.1016 284.76C74.6784 284.304 74.3529 283.764 74.125 283.139C73.8971 282.514 73.7832 281.83 73.7832 281.088V280.678C73.7832 279.818 73.9102 279.053 74.1641 278.383C74.418 277.706 74.763 277.133 75.1992 276.664C75.6354 276.195 76.1302 275.84 76.6836 275.6C77.237 275.359 77.8099 275.238 78.4023 275.238C79.1576 275.238 79.8086 275.368 80.3555 275.629C80.9089 275.889 81.3613 276.254 81.7129 276.723C82.0645 277.185 82.3249 277.732 82.4941 278.363C82.6634 278.988 82.748 279.672 82.748 280.414V281.225H74.8574V279.75H80.9414V279.613C80.9154 279.145 80.8177 278.689 80.6484 278.246C80.4857 277.803 80.2253 277.439 79.8672 277.152C79.5091 276.866 79.0208 276.723 78.4023 276.723C77.9922 276.723 77.6146 276.811 77.2695 276.986C76.9245 277.156 76.6283 277.41 76.3809 277.748C76.1335 278.087 75.9414 278.5 75.8047 278.988C75.668 279.477 75.5996 280.04 75.5996 280.678V281.088C75.5996 281.589 75.668 282.061 75.8047 282.504C75.9479 282.94 76.153 283.324 76.4199 283.656C76.6934 283.988 77.0221 284.249 77.4062 284.438C77.7969 284.626 78.2396 284.721 78.7344 284.721C79.3724 284.721 79.9128 284.59 80.3555 284.33C80.7982 284.07 81.1855 283.721 81.5176 283.285L82.6113 284.154C82.3835 284.499 82.0938 284.828 81.7422 285.141C81.3906 285.453 80.9577 285.707 80.4434 285.902C79.9355 286.098 79.3333 286.195 78.6367 286.195ZM86.6641 277.094V286H84.8574V275.434H86.6152L86.6641 277.094ZM89.9648 275.375L89.9551 277.055C89.8053 277.022 89.6621 277.003 89.5254 276.996C89.3952 276.983 89.2454 276.977 89.0762 276.977C88.6595 276.977 88.2917 277.042 87.9727 277.172C87.6536 277.302 87.3835 277.484 87.1621 277.719C86.9408 277.953 86.765 278.233 86.6348 278.559C86.5111 278.878 86.4297 279.229 86.3906 279.613L85.8828 279.906C85.8828 279.268 85.9447 278.669 86.0684 278.109C86.1986 277.549 86.3971 277.055 86.6641 276.625C86.931 276.189 87.2695 275.85 87.6797 275.609C88.0964 275.362 88.5911 275.238 89.1641 275.238C89.2943 275.238 89.444 275.255 89.6133 275.287C89.7826 275.313 89.8997 275.342 89.9648 275.375ZM96.5469 275.434V276.82H90.834V275.434H96.5469ZM92.7676 272.865H94.5742V283.383C94.5742 283.741 94.6296 284.011 94.7402 284.193C94.8509 284.376 94.9941 284.496 95.1699 284.555C95.3457 284.613 95.5345 284.643 95.7363 284.643C95.8861 284.643 96.0423 284.63 96.2051 284.604C96.3743 284.571 96.5013 284.545 96.5859 284.525L96.5957 286C96.4525 286.046 96.2637 286.088 96.0293 286.127C95.8014 286.173 95.5247 286.195 95.1992 286.195C94.7565 286.195 94.3496 286.107 93.9785 285.932C93.6074 285.756 93.3112 285.463 93.0898 285.053C92.875 284.636 92.7676 284.076 92.7676 283.373V272.865ZM100.629 275.434V286H98.8125V275.434H100.629ZM98.6758 272.631C98.6758 272.338 98.7637 272.09 98.9395 271.889C99.1217 271.687 99.3887 271.586 99.7402 271.586C100.085 271.586 100.349 271.687 100.531 271.889C100.72 272.09 100.814 272.338 100.814 272.631C100.814 272.911 100.72 273.152 100.531 273.354C100.349 273.549 100.085 273.646 99.7402 273.646C99.3887 273.646 99.1217 273.549 98.9395 273.354C98.7637 273.152 98.6758 272.911 98.6758 272.631ZM105.941 286H104.135V274.516C104.135 273.715 104.291 273.038 104.604 272.484C104.916 271.931 105.362 271.511 105.941 271.225C106.521 270.938 107.208 270.795 108.002 270.795C108.471 270.795 108.93 270.854 109.379 270.971C109.828 271.081 110.29 271.221 110.766 271.391L110.463 272.914C110.163 272.797 109.815 272.686 109.418 272.582C109.027 272.471 108.598 272.416 108.129 272.416C107.354 272.416 106.794 272.592 106.449 272.943C106.111 273.288 105.941 273.812 105.941 274.516V286ZM108.1 275.434V276.82H102.465V275.434H108.1ZM111.654 275.434V286H109.848V275.434H111.654ZM116.439 271V286H114.623V271H116.439ZM122.895 275.434L118.285 280.365L115.707 283.041L115.561 281.117L117.406 278.91L120.688 275.434H122.895ZM121.244 286L117.475 280.961L118.412 279.35L123.373 286H121.244ZM130.99 284.193V278.754C130.99 278.337 130.906 277.976 130.736 277.67C130.574 277.357 130.326 277.117 129.994 276.947C129.662 276.778 129.252 276.693 128.764 276.693C128.308 276.693 127.908 276.771 127.562 276.928C127.224 277.084 126.957 277.289 126.762 277.543C126.573 277.797 126.479 278.07 126.479 278.363H124.672C124.672 277.986 124.77 277.611 124.965 277.24C125.16 276.869 125.44 276.534 125.805 276.234C126.176 275.928 126.618 275.688 127.133 275.512C127.654 275.329 128.233 275.238 128.871 275.238C129.639 275.238 130.316 275.368 130.902 275.629C131.495 275.889 131.957 276.283 132.289 276.811C132.628 277.331 132.797 277.986 132.797 278.773V283.695C132.797 284.047 132.826 284.421 132.885 284.818C132.95 285.215 133.044 285.557 133.168 285.844V286H131.283C131.192 285.792 131.12 285.515 131.068 285.17C131.016 284.818 130.99 284.493 130.99 284.193ZM131.303 279.594L131.322 280.863H129.496C128.982 280.863 128.523 280.906 128.119 280.99C127.715 281.068 127.377 281.189 127.104 281.352C126.83 281.514 126.622 281.719 126.479 281.967C126.335 282.208 126.264 282.491 126.264 282.816C126.264 283.148 126.339 283.451 126.488 283.725C126.638 283.998 126.863 284.216 127.162 284.379C127.468 284.535 127.842 284.613 128.285 284.613C128.839 284.613 129.327 284.496 129.75 284.262C130.173 284.027 130.508 283.741 130.756 283.402C131.01 283.064 131.146 282.735 131.166 282.416L131.938 283.285C131.892 283.559 131.768 283.861 131.566 284.193C131.365 284.525 131.094 284.844 130.756 285.15C130.424 285.45 130.027 285.701 129.564 285.902C129.109 286.098 128.594 286.195 128.021 286.195C127.305 286.195 126.677 286.055 126.137 285.775C125.603 285.495 125.186 285.121 124.887 284.652C124.594 284.177 124.447 283.646 124.447 283.061C124.447 282.494 124.558 281.996 124.779 281.566C125.001 281.13 125.32 280.769 125.736 280.482C126.153 280.189 126.654 279.968 127.24 279.818C127.826 279.669 128.48 279.594 129.203 279.594H131.303ZM140.062 275.434V276.82H134.35V275.434H140.062ZM136.283 272.865H138.09V283.383C138.09 283.741 138.145 284.011 138.256 284.193C138.367 284.376 138.51 284.496 138.686 284.555C138.861 284.613 139.05 284.643 139.252 284.643C139.402 284.643 139.558 284.63 139.721 284.604C139.89 284.571 140.017 284.545 140.102 284.525L140.111 286C139.968 286.046 139.779 286.088 139.545 286.127C139.317 286.173 139.04 286.195 138.715 286.195C138.272 286.195 137.865 286.107 137.494 285.932C137.123 285.756 136.827 285.463 136.605 285.053C136.391 284.636 136.283 284.076 136.283 283.373V272.865Z" fill="black"/>
<path d="M73.1582 321.92V327.125C72.9824 327.385 72.7025 327.678 72.3184 328.004C71.9342 328.323 71.4036 328.603 70.7266 328.844C70.056 329.078 69.1901 329.195 68.1289 329.195C67.263 329.195 66.4655 329.046 65.7363 328.746C65.0137 328.44 64.3854 327.997 63.8516 327.418C63.3242 326.832 62.9141 326.122 62.6211 325.289C62.3346 324.449 62.1914 323.499 62.1914 322.438V321.334C62.1914 320.273 62.3151 319.326 62.5625 318.492C62.8164 317.659 63.1875 316.952 63.6758 316.373C64.1641 315.787 64.763 315.344 65.4727 315.045C66.1823 314.739 66.9961 314.586 67.9141 314.586C69.0013 314.586 69.9095 314.775 70.6387 315.152C71.3743 315.523 71.9473 316.038 72.3574 316.695C72.7741 317.353 73.041 318.102 73.1582 318.941H71.2734C71.1888 318.427 71.0195 317.958 70.7656 317.535C70.5182 317.112 70.1634 316.773 69.7012 316.52C69.2389 316.259 68.6432 316.129 67.9141 316.129C67.2565 316.129 66.6868 316.249 66.2051 316.49C65.7233 316.731 65.3262 317.076 65.0137 317.525C64.7012 317.975 64.4668 318.518 64.3105 319.156C64.1608 319.794 64.0859 320.514 64.0859 321.314V322.438C64.0859 323.258 64.1803 323.99 64.3691 324.635C64.5645 325.279 64.8411 325.829 65.1992 326.285C65.5573 326.734 65.9837 327.076 66.4785 327.311C66.9798 327.545 67.5332 327.662 68.1387 327.662C68.8092 327.662 69.3529 327.607 69.7695 327.496C70.1862 327.379 70.5117 327.242 70.7461 327.086C70.9805 326.923 71.1595 326.77 71.2832 326.627V323.443H67.9922V321.92H73.1582ZM77.8164 320.094V329H76.0098V318.434H77.7676L77.8164 320.094ZM81.1172 318.375L81.1074 320.055C80.9577 320.022 80.8145 320.003 80.6777 319.996C80.5475 319.983 80.3978 319.977 80.2285 319.977C79.8118 319.977 79.444 320.042 79.125 320.172C78.806 320.302 78.5358 320.484 78.3145 320.719C78.0931 320.953 77.9173 321.233 77.7871 321.559C77.6634 321.878 77.582 322.229 77.543 322.613L77.0352 322.906C77.0352 322.268 77.097 321.669 77.2207 321.109C77.3509 320.549 77.5495 320.055 77.8164 319.625C78.0833 319.189 78.4219 318.85 78.832 318.609C79.2487 318.362 79.7435 318.238 80.3164 318.238C80.4466 318.238 80.5964 318.255 80.7656 318.287C80.9349 318.313 81.0521 318.342 81.1172 318.375ZM89.252 326.559V318.434H91.0684V329H89.3398L89.252 326.559ZM89.5938 324.332L90.3457 324.312C90.3457 325.016 90.2708 325.667 90.1211 326.266C89.9779 326.858 89.7435 327.372 89.418 327.809C89.0924 328.245 88.666 328.587 88.1387 328.834C87.6113 329.075 86.9701 329.195 86.2148 329.195C85.7005 329.195 85.2285 329.12 84.7988 328.971C84.3757 328.821 84.0111 328.59 83.7051 328.277C83.3991 327.965 83.1615 327.558 82.9922 327.057C82.8294 326.555 82.748 325.953 82.748 325.25V318.434H84.5547V325.27C84.5547 325.745 84.6068 326.139 84.7109 326.451C84.8216 326.757 84.9681 327.001 85.1504 327.184C85.3392 327.359 85.5475 327.483 85.7754 327.555C86.0098 327.626 86.2507 327.662 86.498 327.662C87.2663 327.662 87.875 327.516 88.3242 327.223C88.7734 326.923 89.0957 326.523 89.291 326.021C89.4928 325.514 89.5938 324.951 89.5938 324.332ZM95.6289 320.465V333.062H93.8125V318.434H95.4727L95.6289 320.465ZM102.748 323.629V323.834C102.748 324.602 102.657 325.315 102.475 325.973C102.292 326.624 102.025 327.19 101.674 327.672C101.329 328.154 100.902 328.528 100.395 328.795C99.8867 329.062 99.304 329.195 98.6465 329.195C97.9759 329.195 97.3835 329.085 96.8691 328.863C96.3548 328.642 95.9186 328.32 95.5605 327.896C95.2025 327.473 94.916 326.965 94.7012 326.373C94.4928 325.781 94.3496 325.113 94.2715 324.371V323.277C94.3496 322.496 94.4961 321.796 94.7109 321.178C94.9258 320.559 95.209 320.032 95.5605 319.596C95.9186 319.153 96.3516 318.818 96.8594 318.59C97.3672 318.355 97.9531 318.238 98.6172 318.238C99.2812 318.238 99.8704 318.368 100.385 318.629C100.899 318.883 101.332 319.247 101.684 319.723C102.035 320.198 102.299 320.768 102.475 321.432C102.657 322.089 102.748 322.822 102.748 323.629ZM100.932 323.834V323.629C100.932 323.102 100.876 322.607 100.766 322.145C100.655 321.676 100.482 321.266 100.248 320.914C100.02 320.556 99.7272 320.276 99.3691 320.074C99.0111 319.866 98.5846 319.762 98.0898 319.762C97.6341 319.762 97.237 319.84 96.8984 319.996C96.5664 320.152 96.2832 320.364 96.0488 320.631C95.8145 320.891 95.6224 321.191 95.4727 321.529C95.3294 321.861 95.222 322.206 95.1504 322.564V325.094C95.2806 325.549 95.4629 325.979 95.6973 326.383C95.9316 326.78 96.2441 327.102 96.6348 327.35C97.0254 327.59 97.5169 327.711 98.1094 327.711C98.5977 327.711 99.0176 327.61 99.3691 327.408C99.7272 327.2 100.02 326.917 100.248 326.559C100.482 326.201 100.655 325.79 100.766 325.328C100.876 324.859 100.932 324.361 100.932 323.834ZM114.135 329H111.166L111.186 327.467H114.135C115.15 327.467 115.997 327.255 116.674 326.832C117.351 326.402 117.859 325.803 118.197 325.035C118.542 324.26 118.715 323.355 118.715 322.32V321.451C118.715 320.637 118.617 319.915 118.422 319.283C118.227 318.645 117.94 318.108 117.562 317.672C117.185 317.229 116.723 316.894 116.176 316.666C115.635 316.438 115.014 316.324 114.311 316.324H111.107V314.781H114.311C115.242 314.781 116.091 314.938 116.859 315.25C117.628 315.556 118.288 316.002 118.842 316.588C119.402 317.167 119.831 317.87 120.131 318.697C120.43 319.518 120.58 320.442 120.58 321.471V322.32C120.58 323.349 120.43 324.277 120.131 325.104C119.831 325.924 119.398 326.624 118.832 327.203C118.272 327.783 117.595 328.229 116.801 328.541C116.013 328.847 115.124 329 114.135 329ZM112.172 314.781V329H110.287V314.781H112.172ZM125.102 318.434V329H123.285V318.434H125.102ZM123.148 315.631C123.148 315.338 123.236 315.09 123.412 314.889C123.594 314.687 123.861 314.586 124.213 314.586C124.558 314.586 124.822 314.687 125.004 314.889C125.193 315.09 125.287 315.338 125.287 315.631C125.287 315.911 125.193 316.152 125.004 316.354C124.822 316.549 124.558 316.646 124.213 316.646C123.861 316.646 123.594 316.549 123.412 316.354C123.236 316.152 123.148 315.911 123.148 315.631ZM134.154 326.197C134.154 325.937 134.096 325.696 133.979 325.475C133.868 325.247 133.637 325.042 133.285 324.859C132.94 324.671 132.419 324.508 131.723 324.371C131.137 324.247 130.606 324.101 130.131 323.932C129.662 323.762 129.262 323.557 128.93 323.316C128.604 323.076 128.354 322.792 128.178 322.467C128.002 322.141 127.914 321.76 127.914 321.324C127.914 320.908 128.005 320.514 128.188 320.143C128.376 319.771 128.64 319.443 128.979 319.156C129.324 318.87 129.737 318.645 130.219 318.482C130.701 318.32 131.238 318.238 131.83 318.238C132.676 318.238 133.399 318.388 133.998 318.688C134.597 318.987 135.056 319.387 135.375 319.889C135.694 320.383 135.854 320.934 135.854 321.539H134.047C134.047 321.246 133.959 320.963 133.783 320.689C133.614 320.41 133.363 320.178 133.031 319.996C132.706 319.814 132.305 319.723 131.83 319.723C131.329 319.723 130.922 319.801 130.609 319.957C130.303 320.107 130.079 320.299 129.936 320.533C129.799 320.768 129.73 321.015 129.73 321.275C129.73 321.471 129.763 321.646 129.828 321.803C129.9 321.952 130.023 322.092 130.199 322.223C130.375 322.346 130.622 322.464 130.941 322.574C131.26 322.685 131.667 322.796 132.162 322.906C133.028 323.102 133.741 323.336 134.301 323.609C134.861 323.883 135.277 324.218 135.551 324.615C135.824 325.012 135.961 325.494 135.961 326.061C135.961 326.523 135.863 326.946 135.668 327.33C135.479 327.714 135.202 328.046 134.838 328.326C134.48 328.6 134.05 328.814 133.549 328.971C133.054 329.12 132.497 329.195 131.879 329.195C130.948 329.195 130.16 329.029 129.516 328.697C128.871 328.365 128.383 327.936 128.051 327.408C127.719 326.881 127.553 326.324 127.553 325.738H129.369C129.395 326.233 129.538 326.627 129.799 326.92C130.059 327.206 130.378 327.411 130.756 327.535C131.133 327.652 131.508 327.711 131.879 327.711C132.374 327.711 132.787 327.646 133.119 327.516C133.458 327.385 133.715 327.206 133.891 326.979C134.066 326.751 134.154 326.49 134.154 326.197ZM140.15 314V329H138.334V314H140.15ZM146.605 318.434L141.996 323.365L139.418 326.041L139.271 324.117L141.117 321.91L144.398 318.434H146.605ZM144.955 329L141.186 323.961L142.123 322.35L147.084 329H144.955ZM154.936 326.559V318.434H156.752V329H155.023L154.936 326.559ZM155.277 324.332L156.029 324.312C156.029 325.016 155.954 325.667 155.805 326.266C155.661 326.858 155.427 327.372 155.102 327.809C154.776 328.245 154.35 328.587 153.822 328.834C153.295 329.075 152.654 329.195 151.898 329.195C151.384 329.195 150.912 329.12 150.482 328.971C150.059 328.821 149.695 328.59 149.389 328.277C149.083 327.965 148.845 327.558 148.676 327.057C148.513 326.555 148.432 325.953 148.432 325.25V318.434H150.238V325.27C150.238 325.745 150.29 326.139 150.395 326.451C150.505 326.757 150.652 327.001 150.834 327.184C151.023 327.359 151.231 327.483 151.459 327.555C151.693 327.626 151.934 327.662 152.182 327.662C152.95 327.662 153.559 327.516 154.008 327.223C154.457 326.923 154.779 326.523 154.975 326.021C155.176 325.514 155.277 324.951 155.277 324.332ZM165.658 326.197C165.658 325.937 165.6 325.696 165.482 325.475C165.372 325.247 165.141 325.042 164.789 324.859C164.444 324.671 163.923 324.508 163.227 324.371C162.641 324.247 162.11 324.101 161.635 323.932C161.166 323.762 160.766 323.557 160.434 323.316C160.108 323.076 159.857 322.792 159.682 322.467C159.506 322.141 159.418 321.76 159.418 321.324C159.418 320.908 159.509 320.514 159.691 320.143C159.88 319.771 160.144 319.443 160.482 319.156C160.827 318.87 161.241 318.645 161.723 318.482C162.204 318.32 162.742 318.238 163.334 318.238C164.18 318.238 164.903 318.388 165.502 318.688C166.101 318.987 166.56 319.387 166.879 319.889C167.198 320.383 167.357 320.934 167.357 321.539H165.551C165.551 321.246 165.463 320.963 165.287 320.689C165.118 320.41 164.867 320.178 164.535 319.996C164.21 319.814 163.809 319.723 163.334 319.723C162.833 319.723 162.426 319.801 162.113 319.957C161.807 320.107 161.583 320.299 161.439 320.533C161.303 320.768 161.234 321.015 161.234 321.275C161.234 321.471 161.267 321.646 161.332 321.803C161.404 321.952 161.527 322.092 161.703 322.223C161.879 322.346 162.126 322.464 162.445 322.574C162.764 322.685 163.171 322.796 163.666 322.906C164.532 323.102 165.245 323.336 165.805 323.609C166.365 323.883 166.781 324.218 167.055 324.615C167.328 325.012 167.465 325.494 167.465 326.061C167.465 326.523 167.367 326.946 167.172 327.33C166.983 327.714 166.706 328.046 166.342 328.326C165.984 328.6 165.554 328.814 165.053 328.971C164.558 329.12 164.001 329.195 163.383 329.195C162.452 329.195 161.664 329.029 161.02 328.697C160.375 328.365 159.887 327.936 159.555 327.408C159.223 326.881 159.057 326.324 159.057 325.738H160.873C160.899 326.233 161.042 326.627 161.303 326.92C161.563 327.206 161.882 327.411 162.26 327.535C162.637 327.652 163.012 327.711 163.383 327.711C163.878 327.711 164.291 327.646 164.623 327.516C164.962 327.385 165.219 327.206 165.395 326.979C165.57 326.751 165.658 326.49 165.658 326.197ZM171.801 318.434V329H169.984V318.434H171.801ZM169.848 315.631C169.848 315.338 169.936 315.09 170.111 314.889C170.294 314.687 170.561 314.586 170.912 314.586C171.257 314.586 171.521 314.687 171.703 314.889C171.892 315.09 171.986 315.338 171.986 315.631C171.986 315.911 171.892 316.152 171.703 316.354C171.521 316.549 171.257 316.646 170.912 316.646C170.561 316.646 170.294 316.549 170.111 316.354C169.936 316.152 169.848 315.911 169.848 315.631Z" fill="black"/>
<path d="M64.5352 185.781V200H62.6504V185.781H64.5352ZM73.1191 185.781L67.2109 192.412L63.8906 195.859L63.5781 193.848L66.0781 191.094L70.8535 185.781H73.1191ZM71.3027 200L66.0391 193.066L67.1621 191.572L73.5488 200H71.3027ZM74.1836 194.834V194.609C74.1836 193.848 74.2943 193.141 74.5156 192.49C74.737 191.833 75.056 191.263 75.4727 190.781C75.8893 190.293 76.3939 189.915 76.9863 189.648C77.5788 189.375 78.2428 189.238 78.9785 189.238C79.7207 189.238 80.388 189.375 80.9805 189.648C81.5794 189.915 82.0872 190.293 82.5039 190.781C82.9271 191.263 83.2493 191.833 83.4707 192.49C83.6921 193.141 83.8027 193.848 83.8027 194.609V194.834C83.8027 195.596 83.6921 196.302 83.4707 196.953C83.2493 197.604 82.9271 198.174 82.5039 198.662C82.0872 199.144 81.5827 199.521 80.9902 199.795C80.4043 200.062 79.7402 200.195 78.998 200.195C78.2559 200.195 77.5885 200.062 76.9961 199.795C76.4036 199.521 75.8958 199.144 75.4727 198.662C75.056 198.174 74.737 197.604 74.5156 196.953C74.2943 196.302 74.1836 195.596 74.1836 194.834ZM75.9902 194.609V194.834C75.9902 195.361 76.0521 195.859 76.1758 196.328C76.2995 196.79 76.485 197.201 76.7324 197.559C76.9863 197.917 77.3021 198.2 77.6797 198.408C78.0573 198.61 78.4967 198.711 78.998 198.711C79.4928 198.711 79.9258 198.61 80.2969 198.408C80.6745 198.2 80.987 197.917 81.2344 197.559C81.4818 197.201 81.6673 196.79 81.791 196.328C81.9212 195.859 81.9863 195.361 81.9863 194.834V194.609C81.9863 194.089 81.9212 193.597 81.791 193.135C81.6673 192.666 81.4785 192.253 81.2246 191.895C80.9772 191.53 80.6647 191.243 80.2871 191.035C79.916 190.827 79.4798 190.723 78.9785 190.723C78.4837 190.723 78.0475 190.827 77.6699 191.035C77.2988 191.243 76.9863 191.53 76.7324 191.895C76.485 192.253 76.2995 192.666 76.1758 193.135C76.0521 193.597 75.9902 194.089 75.9902 194.609ZM87.875 191.689V200H86.0684V189.434H87.7773L87.875 191.689ZM87.4453 194.316L86.6934 194.287C86.6999 193.564 86.8073 192.897 87.0156 192.285C87.224 191.667 87.5169 191.13 87.8945 190.674C88.2721 190.218 88.7214 189.867 89.2422 189.619C89.7695 189.365 90.3522 189.238 90.9902 189.238C91.5111 189.238 91.9798 189.31 92.3965 189.453C92.8132 189.59 93.168 189.811 93.4609 190.117C93.7604 190.423 93.9883 190.82 94.1445 191.309C94.3008 191.79 94.3789 192.38 94.3789 193.076V200H92.5625V193.057C92.5625 192.503 92.4811 192.061 92.3184 191.729C92.1556 191.39 91.918 191.146 91.6055 190.996C91.293 190.84 90.9089 190.762 90.4531 190.762C90.0039 190.762 89.5938 190.856 89.2227 191.045C88.8581 191.234 88.5423 191.494 88.2754 191.826C88.015 192.158 87.8099 192.539 87.6602 192.969C87.5169 193.392 87.4453 193.841 87.4453 194.316ZM103.275 197.197C103.275 196.937 103.217 196.696 103.1 196.475C102.989 196.247 102.758 196.042 102.406 195.859C102.061 195.671 101.54 195.508 100.844 195.371C100.258 195.247 99.7272 195.101 99.252 194.932C98.7832 194.762 98.3828 194.557 98.0508 194.316C97.7253 194.076 97.4746 193.792 97.2988 193.467C97.123 193.141 97.0352 192.76 97.0352 192.324C97.0352 191.908 97.1263 191.514 97.3086 191.143C97.4974 190.771 97.7611 190.443 98.0996 190.156C98.4447 189.87 98.8581 189.645 99.3398 189.482C99.8216 189.32 100.359 189.238 100.951 189.238C101.798 189.238 102.52 189.388 103.119 189.688C103.718 189.987 104.177 190.387 104.496 190.889C104.815 191.383 104.975 191.934 104.975 192.539H103.168C103.168 192.246 103.08 191.963 102.904 191.689C102.735 191.41 102.484 191.178 102.152 190.996C101.827 190.814 101.426 190.723 100.951 190.723C100.45 190.723 100.043 190.801 99.7305 190.957C99.4245 191.107 99.1999 191.299 99.0566 191.533C98.9199 191.768 98.8516 192.015 98.8516 192.275C98.8516 192.471 98.8841 192.646 98.9492 192.803C99.0208 192.952 99.1445 193.092 99.3203 193.223C99.4961 193.346 99.7435 193.464 100.062 193.574C100.382 193.685 100.788 193.796 101.283 193.906C102.149 194.102 102.862 194.336 103.422 194.609C103.982 194.883 104.398 195.218 104.672 195.615C104.945 196.012 105.082 196.494 105.082 197.061C105.082 197.523 104.984 197.946 104.789 198.33C104.6 198.714 104.324 199.046 103.959 199.326C103.601 199.6 103.171 199.814 102.67 199.971C102.175 200.12 101.618 200.195 101 200.195C100.069 200.195 99.2812 200.029 98.6367 199.697C97.9922 199.365 97.5039 198.936 97.1719 198.408C96.8398 197.881 96.6738 197.324 96.6738 196.738H98.4902C98.5163 197.233 98.6595 197.627 98.9199 197.92C99.1803 198.206 99.4993 198.411 99.877 198.535C100.255 198.652 100.629 198.711 101 198.711C101.495 198.711 101.908 198.646 102.24 198.516C102.579 198.385 102.836 198.206 103.012 197.979C103.188 197.751 103.275 197.49 103.275 197.197ZM113.92 197.559V189.434H115.736V200H114.008L113.92 197.559ZM114.262 195.332L115.014 195.312C115.014 196.016 114.939 196.667 114.789 197.266C114.646 197.858 114.411 198.372 114.086 198.809C113.76 199.245 113.334 199.587 112.807 199.834C112.279 200.075 111.638 200.195 110.883 200.195C110.368 200.195 109.896 200.12 109.467 199.971C109.044 199.821 108.679 199.59 108.373 199.277C108.067 198.965 107.829 198.558 107.66 198.057C107.497 197.555 107.416 196.953 107.416 196.25V189.434H109.223V196.27C109.223 196.745 109.275 197.139 109.379 197.451C109.49 197.757 109.636 198.001 109.818 198.184C110.007 198.359 110.215 198.483 110.443 198.555C110.678 198.626 110.919 198.662 111.166 198.662C111.934 198.662 112.543 198.516 112.992 198.223C113.441 197.923 113.764 197.523 113.959 197.021C114.161 196.514 114.262 195.951 114.262 195.332ZM120.453 185V200H118.637V185H120.453ZM127.777 189.434V190.82H122.064V189.434H127.777ZM123.998 186.865H125.805V197.383C125.805 197.741 125.86 198.011 125.971 198.193C126.081 198.376 126.225 198.496 126.4 198.555C126.576 198.613 126.765 198.643 126.967 198.643C127.117 198.643 127.273 198.63 127.436 198.604C127.605 198.571 127.732 198.545 127.816 198.525L127.826 200C127.683 200.046 127.494 200.088 127.26 200.127C127.032 200.173 126.755 200.195 126.43 200.195C125.987 200.195 125.58 200.107 125.209 199.932C124.838 199.756 124.542 199.463 124.32 199.053C124.105 198.636 123.998 198.076 123.998 197.373V186.865ZM136.127 198.193V192.754C136.127 192.337 136.042 191.976 135.873 191.67C135.71 191.357 135.463 191.117 135.131 190.947C134.799 190.778 134.389 190.693 133.9 190.693C133.445 190.693 133.044 190.771 132.699 190.928C132.361 191.084 132.094 191.289 131.898 191.543C131.71 191.797 131.615 192.07 131.615 192.363H129.809C129.809 191.986 129.906 191.611 130.102 191.24C130.297 190.869 130.577 190.534 130.941 190.234C131.312 189.928 131.755 189.688 132.27 189.512C132.79 189.329 133.37 189.238 134.008 189.238C134.776 189.238 135.453 189.368 136.039 189.629C136.632 189.889 137.094 190.283 137.426 190.811C137.764 191.331 137.934 191.986 137.934 192.773V197.695C137.934 198.047 137.963 198.421 138.021 198.818C138.087 199.215 138.181 199.557 138.305 199.844V200H136.42C136.329 199.792 136.257 199.515 136.205 199.17C136.153 198.818 136.127 198.493 136.127 198.193ZM136.439 193.594L136.459 194.863H134.633C134.118 194.863 133.66 194.906 133.256 194.99C132.852 195.068 132.514 195.189 132.24 195.352C131.967 195.514 131.758 195.719 131.615 195.967C131.472 196.208 131.4 196.491 131.4 196.816C131.4 197.148 131.475 197.451 131.625 197.725C131.775 197.998 131.999 198.216 132.299 198.379C132.605 198.535 132.979 198.613 133.422 198.613C133.975 198.613 134.464 198.496 134.887 198.262C135.31 198.027 135.645 197.741 135.893 197.402C136.146 197.064 136.283 196.735 136.303 196.416L137.074 197.285C137.029 197.559 136.905 197.861 136.703 198.193C136.501 198.525 136.231 198.844 135.893 199.15C135.561 199.45 135.163 199.701 134.701 199.902C134.245 200.098 133.731 200.195 133.158 200.195C132.442 200.195 131.814 200.055 131.273 199.775C130.74 199.495 130.323 199.121 130.023 198.652C129.73 198.177 129.584 197.646 129.584 197.061C129.584 196.494 129.695 195.996 129.916 195.566C130.137 195.13 130.456 194.769 130.873 194.482C131.29 194.189 131.791 193.968 132.377 193.818C132.963 193.669 133.617 193.594 134.34 193.594H136.439ZM146.928 197.197C146.928 196.937 146.869 196.696 146.752 196.475C146.641 196.247 146.41 196.042 146.059 195.859C145.714 195.671 145.193 195.508 144.496 195.371C143.91 195.247 143.38 195.101 142.904 194.932C142.436 194.762 142.035 194.557 141.703 194.316C141.378 194.076 141.127 193.792 140.951 193.467C140.775 193.141 140.688 192.76 140.688 192.324C140.688 191.908 140.779 191.514 140.961 191.143C141.15 190.771 141.413 190.443 141.752 190.156C142.097 189.87 142.51 189.645 142.992 189.482C143.474 189.32 144.011 189.238 144.604 189.238C145.45 189.238 146.173 189.388 146.771 189.688C147.37 189.987 147.829 190.387 148.148 190.889C148.467 191.383 148.627 191.934 148.627 192.539H146.82C146.82 192.246 146.732 191.963 146.557 191.689C146.387 191.41 146.137 191.178 145.805 190.996C145.479 190.814 145.079 190.723 144.604 190.723C144.102 190.723 143.695 190.801 143.383 190.957C143.077 191.107 142.852 191.299 142.709 191.533C142.572 191.768 142.504 192.015 142.504 192.275C142.504 192.471 142.536 192.646 142.602 192.803C142.673 192.952 142.797 193.092 142.973 193.223C143.148 193.346 143.396 193.464 143.715 193.574C144.034 193.685 144.441 193.796 144.936 193.906C145.801 194.102 146.514 194.336 147.074 194.609C147.634 194.883 148.051 195.218 148.324 195.615C148.598 196.012 148.734 196.494 148.734 197.061C148.734 197.523 148.637 197.946 148.441 198.33C148.253 198.714 147.976 199.046 147.611 199.326C147.253 199.6 146.824 199.814 146.322 199.971C145.827 200.12 145.271 200.195 144.652 200.195C143.721 200.195 142.934 200.029 142.289 199.697C141.645 199.365 141.156 198.936 140.824 198.408C140.492 197.881 140.326 197.324 140.326 196.738H142.143C142.169 197.233 142.312 197.627 142.572 197.92C142.833 198.206 143.152 198.411 143.529 198.535C143.907 198.652 144.281 198.711 144.652 198.711C145.147 198.711 145.561 198.646 145.893 198.516C146.231 198.385 146.488 198.206 146.664 197.979C146.84 197.751 146.928 197.49 146.928 197.197ZM153.07 189.434V200H151.254V189.434H153.07ZM151.117 186.631C151.117 186.338 151.205 186.09 151.381 185.889C151.563 185.687 151.83 185.586 152.182 185.586C152.527 185.586 152.79 185.687 152.973 185.889C153.161 186.09 153.256 186.338 153.256 186.631C153.256 186.911 153.161 187.152 152.973 187.354C152.79 187.549 152.527 187.646 152.182 187.646C151.83 187.646 151.563 187.549 151.381 187.354C151.205 187.152 151.117 186.911 151.117 186.631ZM166.449 194.424H162.65V192.891H166.449C167.185 192.891 167.781 192.773 168.236 192.539C168.692 192.305 169.024 191.979 169.232 191.562C169.447 191.146 169.555 190.671 169.555 190.137C169.555 189.648 169.447 189.189 169.232 188.76C169.024 188.33 168.692 187.985 168.236 187.725C167.781 187.458 167.185 187.324 166.449 187.324H163.09V200H161.205V185.781H166.449C167.523 185.781 168.432 185.967 169.174 186.338C169.916 186.709 170.479 187.223 170.863 187.881C171.247 188.532 171.439 189.277 171.439 190.117C171.439 191.029 171.247 191.807 170.863 192.451C170.479 193.096 169.916 193.587 169.174 193.926C168.432 194.258 167.523 194.424 166.449 194.424ZM175.355 191.094V200H173.549V189.434H175.307L175.355 191.094ZM178.656 189.375L178.646 191.055C178.497 191.022 178.354 191.003 178.217 190.996C178.087 190.983 177.937 190.977 177.768 190.977C177.351 190.977 176.983 191.042 176.664 191.172C176.345 191.302 176.075 191.484 175.854 191.719C175.632 191.953 175.456 192.233 175.326 192.559C175.202 192.878 175.121 193.229 175.082 193.613L174.574 193.906C174.574 193.268 174.636 192.669 174.76 192.109C174.89 191.549 175.089 191.055 175.355 190.625C175.622 190.189 175.961 189.85 176.371 189.609C176.788 189.362 177.283 189.238 177.855 189.238C177.986 189.238 178.135 189.255 178.305 189.287C178.474 189.313 178.591 189.342 178.656 189.375ZM182.289 189.434V200H180.473V189.434H182.289ZM180.336 186.631C180.336 186.338 180.424 186.09 180.6 185.889C180.782 185.687 181.049 185.586 181.4 185.586C181.745 185.586 182.009 185.687 182.191 185.889C182.38 186.09 182.475 186.338 182.475 186.631C182.475 186.911 182.38 187.152 182.191 187.354C182.009 187.549 181.745 187.646 181.4 187.646C181.049 187.646 180.782 187.549 180.6 187.354C180.424 187.152 180.336 186.911 180.336 186.631ZM188.402 198.369L191.293 189.434H193.139L189.34 200H188.129L188.402 198.369ZM185.99 189.434L188.969 198.418L189.174 200H187.963L184.135 189.434H185.99ZM200.951 198.193V192.754C200.951 192.337 200.867 191.976 200.697 191.67C200.535 191.357 200.287 191.117 199.955 190.947C199.623 190.778 199.213 190.693 198.725 190.693C198.269 190.693 197.868 190.771 197.523 190.928C197.185 191.084 196.918 191.289 196.723 191.543C196.534 191.797 196.439 192.07 196.439 192.363H194.633C194.633 191.986 194.73 191.611 194.926 191.24C195.121 190.869 195.401 190.534 195.766 190.234C196.137 189.928 196.579 189.688 197.094 189.512C197.615 189.329 198.194 189.238 198.832 189.238C199.6 189.238 200.277 189.368 200.863 189.629C201.456 189.889 201.918 190.283 202.25 190.811C202.589 191.331 202.758 191.986 202.758 192.773V197.695C202.758 198.047 202.787 198.421 202.846 198.818C202.911 199.215 203.005 199.557 203.129 199.844V200H201.244C201.153 199.792 201.081 199.515 201.029 199.17C200.977 198.818 200.951 198.493 200.951 198.193ZM201.264 193.594L201.283 194.863H199.457C198.943 194.863 198.484 194.906 198.08 194.99C197.676 195.068 197.338 195.189 197.064 195.352C196.791 195.514 196.583 195.719 196.439 195.967C196.296 196.208 196.225 196.491 196.225 196.816C196.225 197.148 196.299 197.451 196.449 197.725C196.599 197.998 196.824 198.216 197.123 198.379C197.429 198.535 197.803 198.613 198.246 198.613C198.799 198.613 199.288 198.496 199.711 198.262C200.134 198.027 200.469 197.741 200.717 197.402C200.971 197.064 201.107 196.735 201.127 196.416L201.898 197.285C201.853 197.559 201.729 197.861 201.527 198.193C201.326 198.525 201.055 198.844 200.717 199.15C200.385 199.45 199.988 199.701 199.525 199.902C199.07 200.098 198.555 200.195 197.982 200.195C197.266 200.195 196.638 200.055 196.098 199.775C195.564 199.495 195.147 199.121 194.848 198.652C194.555 198.177 194.408 197.646 194.408 197.061C194.408 196.494 194.519 195.996 194.74 195.566C194.962 195.13 195.281 194.769 195.697 194.482C196.114 194.189 196.615 193.968 197.201 193.818C197.787 193.669 198.441 193.594 199.164 193.594H201.264ZM210.023 189.434V190.82H204.311V189.434H210.023ZM206.244 186.865H208.051V197.383C208.051 197.741 208.106 198.011 208.217 198.193C208.327 198.376 208.471 198.496 208.646 198.555C208.822 198.613 209.011 198.643 209.213 198.643C209.363 198.643 209.519 198.63 209.682 198.604C209.851 198.571 209.978 198.545 210.062 198.525L210.072 200C209.929 200.046 209.74 200.088 209.506 200.127C209.278 200.173 209.001 200.195 208.676 200.195C208.233 200.195 207.826 200.107 207.455 199.932C207.084 199.756 206.788 199.463 206.566 199.053C206.352 198.636 206.244 198.076 206.244 197.373V186.865Z" fill="black"/>
<path d="M316 188.08V189C315.999 191.156 315.301 193.255 314.009 194.982C312.718 196.709 310.903 197.972 308.835 198.584C306.767 199.195 304.557 199.122 302.534 198.375C300.512 197.627 298.785 196.246 297.611 194.437C296.437 192.628 295.88 190.488 296.022 188.336C296.164 186.185 296.997 184.136 298.398 182.497C299.799 180.858 301.693 179.715 303.796 179.24C305.9 178.765 308.1 178.982 310.07 179.86" stroke="black" stroke-width="2" stroke-linecap="round" stroke-linejoin="round"/>
<path d="M316 181L306 191.01L303 188.01" stroke="black" stroke-width="2" stroke-linecap="round" stroke-linejoin="round"/>
<path d="M314 239.08V240C313.999 242.156 313.301 244.255 312.009 245.982C310.718 247.709 308.903 248.972 306.835 249.584C304.767 250.195 302.557 250.122 300.534 249.375C298.512 248.627 296.785 247.246 295.611 245.437C294.437 243.628 293.88 241.488 294.022 239.336C294.164 237.185 294.997 235.136 296.398 233.497C297.799 231.858 299.693 230.715 301.796 230.24C303.9 229.765 306.1 229.982 308.07 230.86" stroke="black" stroke-width="2" stroke-linecap="round" stroke-linejoin="round"/>
<path d="M314 232L304 242.01L301 239.01" stroke="black" stroke-width="2" stroke-linecap="round" stroke-linejoin="round"/>
<path d="M314 328.08V329C313.999 331.156 313.301 333.255 312.009 334.982C310.718 336.709 308.903 337.972 306.835 338.584C304.767 339.195 302.557 339.122 300.534 338.375C298.512 337.627 296.785 336.246 295.611 334.437C294.437 332.628 293.88 330.488 294.022 328.336C294.164 326.185 294.997 324.136 296.398 322.497C297.799 320.858 299.693 319.715 301.796 319.24C303.9 318.765 306.1 318.982 308.07 319.86" stroke="black" stroke-width="2" stroke-linecap="round" stroke-linejoin="round"/>
<path d="M314 321L304 331.01L301 328.01" stroke="black" stroke-width="2" stroke-linecap="round" stroke-linejoin="round"/>
<path d="M304 296C309.523 296 314 291.523 314 286C314 280.477 309.523 276 304 276C298.477 276 294 280.477 294 286C294 291.523 298.477 296 304 296Z" stroke="black" stroke-width="2" stroke-linecap="round" stroke-linejoin="round"/>
<path d="M307 283L301 289" stroke="black" stroke-width="2" stroke-linecap="round" stroke-linejoin="round"/>
<path d="M301 283L307 289" stroke="black" stroke-width="2" stroke-linecap="round" stroke-linejoin="round"/>
<defs>
<filter id="filter0_d_508_5" x="0" y="0" width="385" height="523" filterUnits="userSpaceOnUse" color-interpolation-filters="sRGB">
<feFlood flood-opacity="0" result="BackgroundImageFix"/>
<feColorMatrix in="SourceAlpha" type="matrix" values="0 0 0 0 0 0 0 0 0 0 0 0 0 0 0 0 0 0 127 0" result="hardAlpha"/>
<feOffset dy="4"/>
<feGaussianBlur stdDeviation="2"/>
<feComposite in2="hardAlpha" operator="out"/>
<feColorMatrix type="matrix" values="0 0 0 0 0 0 0 0 0 0 0 0 0 0 0 0 0 0 0.25 0"/>
<feBlend mode="normal" in2="BackgroundImageFix" result="effect1_dropShadow_508_5"/>
<feBlend mode="normal" in="SourceGraphic" in2="effect1_dropShadow_508_5" result="shape"/>
</filter>
</defs>
</svg>
