<svg width="668" height="294" viewBox="0 0 668 294" fill="none" xmlns="http://www.w3.org/2000/svg">
<path d="M0 40C0 17.9086 17.9086 0 40 0H482C504.091 0 522 17.9086 522 40V101.225C522 110.457 525.193 119.404 531.038 126.55L626.377 243.112C635.195 253.892 622.656 268.924 610.469 262.184L472.013 184.723C466.046 181.385 459.322 179.631 452.484 179.631H40C17.9086 179.631 0 161.723 0 139.631V40Z" fill="#69DADB"/>
<path d="M30.168 48C29.448 48 29.088 47.64 29.088 46.92V32.16C29.088 31.44 29.448 31.08 30.168 31.08H35.856C37.6 31.08 38.944 31.472 39.888 32.256C40.848 33.024 41.328 34.104 41.328 35.496C41.328 36.424 41.088 37.216 40.608 37.872C40.128 38.528 39.464 39.008 38.616 39.312C39.592 39.568 40.352 40.04 40.896 40.728C41.456 41.416 41.736 42.288 41.736 43.344C41.736 44.848 41.248 46 40.272 46.8C39.296 47.6 37.92 48 36.144 48H30.168ZM31.008 38.64H35.568C38.112 38.64 39.384 37.648 39.384 35.664C39.384 33.664 38.112 32.664 35.568 32.664H31.008V38.64ZM31.008 46.416H35.952C38.512 46.416 39.792 45.384 39.792 43.32C39.792 41.256 38.512 40.224 35.952 40.224H31.008V46.416ZM50.2988 48.216C48.4588 48.216 47.0028 47.68 45.9308 46.608C44.8588 45.52 44.3228 44.048 44.3228 42.192C44.3228 40.992 44.5628 39.936 45.0428 39.024C45.5228 38.096 46.1788 37.384 47.0108 36.888C47.8588 36.376 48.8348 36.12 49.9388 36.12C51.5228 36.12 52.7628 36.632 53.6588 37.656C54.5548 38.664 55.0028 40.056 55.0028 41.832C55.0028 42.328 54.7228 42.576 54.1628 42.576H46.2188C46.2828 43.904 46.6668 44.92 47.3708 45.624C48.0748 46.312 49.0508 46.656 50.2988 46.656C50.8268 46.656 51.3628 46.592 51.9068 46.464C52.4508 46.32 52.9788 46.072 53.4908 45.72C53.8588 45.48 54.1628 45.432 54.4028 45.576C54.6588 45.72 54.7868 45.944 54.7868 46.248C54.8028 46.536 54.6428 46.792 54.3068 47.016C53.7788 47.4 53.1468 47.696 52.4108 47.904C51.6908 48.112 50.9868 48.216 50.2988 48.216ZM49.9868 37.56C48.8828 37.56 48.0108 37.904 47.3708 38.592C46.7308 39.28 46.3548 40.184 46.2428 41.304H53.3228C53.2748 40.12 52.9628 39.2 52.3868 38.544C51.8268 37.888 51.0268 37.56 49.9868 37.56ZM61.3682 48.216C60.2162 48.216 59.3362 47.872 58.7282 47.184C58.1202 46.48 57.8162 45.464 57.8162 44.136V31.896C57.8162 31.24 58.1362 30.912 58.7762 30.912C59.4322 30.912 59.7602 31.24 59.7602 31.896V43.992C59.7602 45.704 60.4402 46.56 61.8002 46.56C61.9442 46.56 62.0722 46.552 62.1842 46.536C62.2962 46.52 62.4082 46.512 62.5202 46.512C62.6962 46.496 62.8162 46.536 62.8802 46.632C62.9602 46.728 63.0002 46.92 63.0002 47.208C63.0002 47.752 62.7282 48.064 62.1842 48.144C62.0562 48.176 61.9202 48.192 61.7762 48.192C61.6322 48.208 61.4962 48.216 61.3682 48.216ZM68.5898 48.216C67.7898 48.216 67.0698 48.064 66.4298 47.76C65.8058 47.44 65.3098 47.008 64.9418 46.464C64.5738 45.92 64.3898 45.312 64.3898 44.64C64.3898 43.792 64.6058 43.12 65.0378 42.624C65.4858 42.128 66.2138 41.776 67.2218 41.568C68.2458 41.344 69.6378 41.232 71.3978 41.232H72.1658V40.488C72.1658 39.496 71.9578 38.784 71.5418 38.352C71.1418 37.904 70.4938 37.68 69.5978 37.68C69.0378 37.68 68.4698 37.752 67.8938 37.896C67.3338 38.04 66.7498 38.272 66.1418 38.592C65.8698 38.736 65.6378 38.768 65.4458 38.688C65.2698 38.592 65.1418 38.448 65.0618 38.256C64.9978 38.048 64.9978 37.84 65.0618 37.632C65.1418 37.408 65.3018 37.24 65.5418 37.128C66.2298 36.776 66.9178 36.52 67.6058 36.36C68.3098 36.2 68.9738 36.12 69.5978 36.12C71.1018 36.12 72.2138 36.488 72.9338 37.224C73.6698 37.96 74.0378 39.104 74.0378 40.656V47.16C74.0378 47.832 73.7418 48.168 73.1498 48.168C72.5258 48.168 72.2138 47.832 72.2138 47.16V45.984C71.9098 46.672 71.4378 47.216 70.7978 47.616C70.1738 48.016 69.4378 48.216 68.5898 48.216ZM68.9018 46.752C69.8618 46.752 70.6458 46.424 71.2538 45.768C71.8618 45.096 72.1658 44.248 72.1658 43.224V42.504H71.4218C70.1258 42.504 69.1018 42.568 68.3498 42.696C67.6138 42.808 67.0938 43.016 66.7898 43.32C66.5018 43.608 66.3578 44.008 66.3578 44.52C66.3578 45.176 66.5818 45.712 67.0298 46.128C67.4938 46.544 68.1178 46.752 68.9018 46.752ZM78.6763 33.528C77.8283 33.528 77.4043 33.128 77.4043 32.328C77.4043 31.544 77.8283 31.152 78.6763 31.152C79.5403 31.152 79.9723 31.544 79.9723 32.328C79.9723 33.128 79.5403 33.528 78.6763 33.528ZM75.4123 52.584C75.0123 52.6 74.7403 52.488 74.5963 52.248C74.4363 52.008 74.4043 51.752 74.5003 51.48C74.5963 51.224 74.8043 51.088 75.1243 51.072C76.0043 51.024 76.6523 50.784 77.0683 50.352C77.5003 49.936 77.7163 49.272 77.7163 48.36V37.152C77.7163 36.496 78.0443 36.168 78.7003 36.168C79.3403 36.168 79.6603 36.496 79.6603 37.152V48.216C79.6603 49.688 79.2923 50.768 78.5563 51.456C77.8363 52.144 76.7883 52.52 75.4123 52.584ZM86.9882 48.216C86.1882 48.216 85.4682 48.064 84.8282 47.76C84.2042 47.44 83.7082 47.008 83.3402 46.464C82.9722 45.92 82.7882 45.312 82.7882 44.64C82.7882 43.792 83.0042 43.12 83.4362 42.624C83.8842 42.128 84.6122 41.776 85.6202 41.568C86.6442 41.344 88.0362 41.232 89.7962 41.232H90.5642V40.488C90.5642 39.496 90.3562 38.784 89.9402 38.352C89.5402 37.904 88.8922 37.68 87.9962 37.68C87.4362 37.68 86.8682 37.752 86.2922 37.896C85.7322 38.04 85.1482 38.272 84.5402 38.592C84.2682 38.736 84.0362 38.768 83.8442 38.688C83.6682 38.592 83.5402 38.448 83.4602 38.256C83.3962 38.048 83.3962 37.84 83.4602 37.632C83.5402 37.408 83.7002 37.24 83.9402 37.128C84.6282 36.776 85.3162 36.52 86.0042 36.36C86.7082 36.2 87.3722 36.12 87.9962 36.12C89.5002 36.12 90.6122 36.488 91.3322 37.224C92.0682 37.96 92.4362 39.104 92.4362 40.656V47.16C92.4362 47.832 92.1402 48.168 91.5482 48.168C90.9242 48.168 90.6122 47.832 90.6122 47.16V45.984C90.3082 46.672 89.8362 47.216 89.1962 47.616C88.5722 48.016 87.8362 48.216 86.9882 48.216ZM87.3002 46.752C88.2602 46.752 89.0442 46.424 89.6522 45.768C90.2602 45.096 90.5642 44.248 90.5642 43.224V42.504H89.8202C88.5242 42.504 87.5002 42.568 86.7482 42.696C86.0122 42.808 85.4922 43.016 85.1882 43.32C84.9002 43.608 84.7562 44.008 84.7562 44.52C84.7562 45.176 84.9802 45.712 85.4282 46.128C85.8922 46.544 86.5162 46.752 87.3002 46.752ZM97.0268 48.168C96.3708 48.168 96.0428 47.832 96.0428 47.16V37.152C96.0428 36.496 96.3548 36.168 96.9788 36.168C97.6188 36.168 97.9388 36.496 97.9388 37.152V38.424C98.2588 37.688 98.7548 37.128 99.4268 36.744C100.099 36.344 100.899 36.128 101.827 36.096C102.339 36.048 102.611 36.304 102.643 36.864C102.691 37.424 102.403 37.736 101.779 37.8L101.395 37.848C100.291 37.944 99.4508 38.296 98.8748 38.904C98.2988 39.496 98.0108 40.312 98.0108 41.352V47.16C98.0108 47.832 97.6828 48.168 97.0268 48.168ZM105.604 48.168C104.964 48.168 104.644 47.832 104.644 47.16V37.152C104.644 36.496 104.956 36.168 105.58 36.168C106.22 36.168 106.54 36.496 106.54 37.152V38.328C106.924 37.592 107.468 37.04 108.172 36.672C108.876 36.304 109.668 36.12 110.548 36.12C113.316 36.12 114.7 37.656 114.7 40.728V47.16C114.7 47.832 114.38 48.168 113.74 48.168C113.084 48.168 112.756 47.832 112.756 47.16V40.848C112.756 39.76 112.54 38.968 112.108 38.472C111.692 37.96 111.02 37.704 110.092 37.704C109.02 37.704 108.164 38.04 107.524 38.712C106.9 39.368 106.588 40.248 106.588 41.352V47.16C106.588 47.832 106.26 48.168 105.604 48.168ZM120.76 52.488C120.392 52.488 120.144 52.344 120.016 52.056C119.888 51.784 119.896 51.472 120.04 51.12L121.504 47.808L117.088 37.536C116.928 37.168 116.92 36.848 117.064 36.576C117.224 36.304 117.52 36.168 117.952 36.168C118.4 36.168 118.728 36.424 118.936 36.936L122.56 45.792L126.208 36.936C126.336 36.648 126.472 36.448 126.616 36.336C126.76 36.224 126.968 36.168 127.24 36.168C127.608 36.168 127.856 36.304 127.984 36.576C128.112 36.848 128.104 37.16 127.96 37.512L121.816 51.72C121.688 52.008 121.544 52.208 121.384 52.32C121.24 52.432 121.032 52.488 120.76 52.488ZM133.934 48.216C133.134 48.216 132.414 48.064 131.774 47.76C131.15 47.44 130.654 47.008 130.286 46.464C129.918 45.92 129.734 45.312 129.734 44.64C129.734 43.792 129.95 43.12 130.382 42.624C130.83 42.128 131.558 41.776 132.566 41.568C133.59 41.344 134.982 41.232 136.742 41.232H137.51V40.488C137.51 39.496 137.302 38.784 136.886 38.352C136.486 37.904 135.838 37.68 134.942 37.68C134.382 37.68 133.814 37.752 133.238 37.896C132.678 38.04 132.094 38.272 131.486 38.592C131.214 38.736 130.982 38.768 130.79 38.688C130.614 38.592 130.486 38.448 130.406 38.256C130.342 38.048 130.342 37.84 130.406 37.632C130.486 37.408 130.646 37.24 130.886 37.128C131.574 36.776 132.262 36.52 132.95 36.36C133.654 36.2 134.318 36.12 134.942 36.12C136.446 36.12 137.558 36.488 138.278 37.224C139.014 37.96 139.382 39.104 139.382 40.656V47.16C139.382 47.832 139.086 48.168 138.494 48.168C137.87 48.168 137.558 47.832 137.558 47.16V45.984C137.254 46.672 136.782 47.216 136.142 47.616C135.518 48.016 134.782 48.216 133.934 48.216ZM134.246 46.752C135.206 46.752 135.99 46.424 136.598 45.768C137.206 45.096 137.51 44.248 137.51 43.224V42.504H136.766C135.47 42.504 134.446 42.568 133.694 42.696C132.958 42.808 132.438 43.016 132.134 43.32C131.846 43.608 131.702 44.008 131.702 44.52C131.702 45.176 131.926 45.712 132.374 46.128C132.838 46.544 133.462 46.752 134.246 46.752ZM149.08 48.168C148.696 48.168 148.432 48.04 148.288 47.784C148.144 47.528 148.16 47.208 148.336 46.824L154.936 31.8C155.192 31.208 155.584 30.912 156.112 30.912C156.352 30.912 156.568 30.984 156.76 31.128C156.968 31.256 157.136 31.48 157.264 31.8L163.888 46.824C164.064 47.208 164.088 47.528 163.96 47.784C163.832 48.04 163.576 48.168 163.192 48.168C162.904 48.168 162.672 48.096 162.496 47.952C162.32 47.792 162.176 47.568 162.064 47.28L160.504 43.68H151.696L150.16 47.28C149.904 47.872 149.544 48.168 149.08 48.168ZM156.088 33.384L152.416 42.024H159.808L156.136 33.384H156.088ZM170.455 48.216C169.735 48.216 169.007 48.128 168.271 47.952C167.551 47.76 166.879 47.456 166.255 47.04C165.967 46.864 165.823 46.64 165.823 46.368C165.839 46.08 165.951 45.856 166.159 45.696C166.367 45.536 166.631 45.536 166.951 45.696C167.575 46.08 168.175 46.352 168.751 46.512C169.343 46.656 169.927 46.728 170.503 46.728C171.415 46.728 172.103 46.56 172.567 46.224C173.031 45.888 173.263 45.432 173.263 44.856C173.263 44.408 173.111 44.056 172.807 43.8C172.503 43.528 172.023 43.32 171.367 43.176L169.183 42.696C167.199 42.264 166.207 41.24 166.207 39.624C166.207 38.568 166.623 37.72 167.455 37.08C168.303 36.44 169.407 36.12 170.767 36.12C171.455 36.12 172.119 36.216 172.759 36.408C173.399 36.584 173.975 36.872 174.487 37.272C174.759 37.464 174.879 37.696 174.847 37.968C174.815 38.24 174.687 38.456 174.463 38.616C174.255 38.76 173.999 38.736 173.695 38.544C173.215 38.224 172.727 37.992 172.231 37.848C171.735 37.688 171.247 37.608 170.767 37.608C169.871 37.608 169.191 37.784 168.727 38.136C168.263 38.488 168.031 38.952 168.031 39.528C168.031 40.424 168.623 41 169.807 41.256L171.991 41.712C173.015 41.936 173.791 42.296 174.319 42.792C174.847 43.272 175.111 43.928 175.111 44.76C175.111 45.832 174.687 46.68 173.839 47.304C172.991 47.912 171.863 48.216 170.455 48.216ZM179.034 33.528C178.186 33.528 177.762 33.128 177.762 32.328C177.762 31.544 178.186 31.152 179.034 31.152C179.882 31.152 180.306 31.544 180.306 32.328C180.306 33.128 179.882 33.528 179.034 33.528ZM179.034 48.12C178.394 48.12 178.074 47.768 178.074 47.064V37.248C178.074 36.56 178.394 36.216 179.034 36.216C179.69 36.216 180.018 36.56 180.018 37.248V47.064C180.018 47.768 179.69 48.12 179.034 48.12ZM184.612 48.168C183.972 48.168 183.652 47.832 183.652 47.16V31.896C183.652 31.24 183.972 30.912 184.612 30.912C185.268 30.912 185.596 31.24 185.596 31.896V41.52H185.644L190.564 36.816C190.772 36.608 190.964 36.448 191.14 36.336C191.316 36.224 191.548 36.168 191.836 36.168C192.22 36.168 192.468 36.32 192.58 36.624C192.708 36.912 192.628 37.208 192.34 37.512L187.66 41.952L192.796 46.776C193.132 47.096 193.22 47.408 193.06 47.712C192.916 48.016 192.668 48.168 192.316 48.168C192.028 48.168 191.788 48.112 191.596 48C191.42 47.872 191.212 47.688 190.972 47.448L185.644 42.528H185.596V47.16C185.596 47.832 185.268 48.168 184.612 48.168ZM203.184 48C202.464 48 202.104 47.64 202.104 46.92V32.16C202.104 31.44 202.464 31.08 203.184 31.08H207.816C210.552 31.08 212.664 31.808 214.152 33.264C215.64 34.704 216.384 36.792 216.384 39.528C216.384 42.264 215.64 44.36 214.152 45.816C212.664 47.272 210.552 48 207.816 48H203.184ZM204.072 46.32H207.672C212.088 46.32 214.296 44.056 214.296 39.528C214.296 35.016 212.088 32.76 207.672 32.76H204.072V46.32ZM223.324 48.216C222.524 48.216 221.804 48.064 221.164 47.76C220.54 47.44 220.044 47.008 219.676 46.464C219.308 45.92 219.124 45.312 219.124 44.64C219.124 43.792 219.34 43.12 219.772 42.624C220.22 42.128 220.948 41.776 221.956 41.568C222.98 41.344 224.372 41.232 226.132 41.232H226.9V40.488C226.9 39.496 226.692 38.784 226.276 38.352C225.876 37.904 225.228 37.68 224.332 37.68C223.772 37.68 223.204 37.752 222.628 37.896C222.068 38.04 221.484 38.272 220.876 38.592C220.604 38.736 220.372 38.768 220.18 38.688C220.004 38.592 219.876 38.448 219.796 38.256C219.732 38.048 219.732 37.84 219.796 37.632C219.876 37.408 220.036 37.24 220.276 37.128C220.964 36.776 221.652 36.52 222.34 36.36C223.044 36.2 223.708 36.12 224.332 36.12C225.836 36.12 226.948 36.488 227.668 37.224C228.404 37.96 228.772 39.104 228.772 40.656V47.16C228.772 47.832 228.476 48.168 227.884 48.168C227.26 48.168 226.948 47.832 226.948 47.16V45.984C226.644 46.672 226.172 47.216 225.532 47.616C224.908 48.016 224.172 48.216 223.324 48.216ZM223.636 46.752C224.596 46.752 225.38 46.424 225.988 45.768C226.596 45.096 226.9 44.248 226.9 43.224V42.504H226.156C224.86 42.504 223.836 42.568 223.084 42.696C222.348 42.808 221.828 43.016 221.524 43.32C221.236 43.608 221.092 44.008 221.092 44.52C221.092 45.176 221.316 45.712 221.764 46.128C222.228 46.544 222.852 46.752 223.636 46.752ZM233.339 48.168C232.699 48.168 232.379 47.832 232.379 47.16V37.152C232.379 36.496 232.691 36.168 233.315 36.168C233.955 36.168 234.275 36.496 234.275 37.152V38.328C234.659 37.592 235.203 37.04 235.907 36.672C236.611 36.304 237.403 36.12 238.283 36.12C241.051 36.12 242.435 37.656 242.435 40.728V47.16C242.435 47.832 242.115 48.168 241.475 48.168C240.819 48.168 240.491 47.832 240.491 47.16V40.848C240.491 39.76 240.275 38.968 239.843 38.472C239.427 37.96 238.755 37.704 237.827 37.704C236.755 37.704 235.899 38.04 235.259 38.712C234.635 39.368 234.323 40.248 234.323 41.352V47.16C234.323 47.832 233.995 48.168 233.339 48.168ZM257.607 48.168C256.951 48.168 256.623 47.824 256.623 47.136V32.784H251.223C250.615 32.784 250.311 32.496 250.311 31.92C250.311 31.36 250.615 31.08 251.223 31.08H264.015C264.623 31.08 264.927 31.36 264.927 31.92C264.927 32.496 264.623 32.784 264.015 32.784H258.615V47.136C258.615 47.824 258.279 48.168 257.607 48.168ZM270.072 48.216C268.232 48.216 266.776 47.68 265.704 46.608C264.632 45.52 264.096 44.048 264.096 42.192C264.096 40.992 264.336 39.936 264.816 39.024C265.296 38.096 265.952 37.384 266.784 36.888C267.632 36.376 268.608 36.12 269.712 36.12C271.296 36.12 272.536 36.632 273.432 37.656C274.328 38.664 274.776 40.056 274.776 41.832C274.776 42.328 274.496 42.576 273.936 42.576H265.992C266.056 43.904 266.44 44.92 267.144 45.624C267.848 46.312 268.824 46.656 270.072 46.656C270.6 46.656 271.136 46.592 271.68 46.464C272.224 46.32 272.752 46.072 273.264 45.72C273.632 45.48 273.936 45.432 274.176 45.576C274.432 45.72 274.56 45.944 274.56 46.248C274.576 46.536 274.416 46.792 274.08 47.016C273.552 47.4 272.92 47.696 272.184 47.904C271.464 48.112 270.76 48.216 270.072 48.216ZM269.76 37.56C268.656 37.56 267.784 37.904 267.144 38.592C266.504 39.28 266.128 40.184 266.016 41.304H273.096C273.048 40.12 272.736 39.2 272.16 38.544C271.6 37.888 270.8 37.56 269.76 37.56ZM278.574 48.168C277.918 48.168 277.59 47.832 277.59 47.16V37.152C277.59 36.496 277.902 36.168 278.526 36.168C279.166 36.168 279.486 36.496 279.486 37.152V38.424C279.806 37.688 280.302 37.128 280.974 36.744C281.646 36.344 282.446 36.128 283.374 36.096C283.886 36.048 284.158 36.304 284.19 36.864C284.238 37.424 283.95 37.736 283.326 37.8L282.942 37.848C281.838 37.944 280.998 38.296 280.422 38.904C279.846 39.496 279.558 40.312 279.558 41.352V47.16C279.558 47.832 279.23 48.168 278.574 48.168ZM289.746 48.216C288.946 48.216 288.226 48.064 287.586 47.76C286.962 47.44 286.466 47.008 286.098 46.464C285.73 45.92 285.546 45.312 285.546 44.64C285.546 43.792 285.762 43.12 286.194 42.624C286.642 42.128 287.37 41.776 288.378 41.568C289.402 41.344 290.794 41.232 292.554 41.232H293.322V40.488C293.322 39.496 293.114 38.784 292.698 38.352C292.298 37.904 291.65 37.68 290.754 37.68C290.194 37.68 289.626 37.752 289.05 37.896C288.49 38.04 287.906 38.272 287.298 38.592C287.026 38.736 286.794 38.768 286.602 38.688C286.426 38.592 286.298 38.448 286.218 38.256C286.154 38.048 286.154 37.84 286.218 37.632C286.298 37.408 286.458 37.24 286.698 37.128C287.386 36.776 288.074 36.52 288.762 36.36C289.466 36.2 290.13 36.12 290.754 36.12C292.258 36.12 293.37 36.488 294.09 37.224C294.826 37.96 295.194 39.104 295.194 40.656V47.16C295.194 47.832 294.898 48.168 294.306 48.168C293.682 48.168 293.37 47.832 293.37 47.16V45.984C293.066 46.672 292.594 47.216 291.954 47.616C291.33 48.016 290.594 48.216 289.746 48.216ZM290.058 46.752C291.018 46.752 291.802 46.424 292.41 45.768C293.018 45.096 293.322 44.248 293.322 43.224V42.504H292.578C291.282 42.504 290.258 42.568 289.506 42.696C288.77 42.808 288.25 43.016 287.946 43.32C287.658 43.608 287.514 44.008 287.514 44.52C287.514 45.176 287.738 45.712 288.186 46.128C288.65 46.544 289.274 46.752 290.058 46.752ZM299.785 48.168C299.129 48.168 298.801 47.832 298.801 47.16V37.152C298.801 36.496 299.113 36.168 299.737 36.168C300.377 36.168 300.697 36.496 300.697 37.152V38.424C301.017 37.688 301.513 37.128 302.185 36.744C302.857 36.344 303.657 36.128 304.585 36.096C305.097 36.048 305.369 36.304 305.401 36.864C305.449 37.424 305.161 37.736 304.537 37.8L304.153 37.848C303.049 37.944 302.209 38.296 301.633 38.904C301.057 39.496 300.769 40.312 300.769 41.352V47.16C300.769 47.832 300.441 48.168 299.785 48.168ZM310.957 48.216C310.157 48.216 309.437 48.064 308.797 47.76C308.173 47.44 307.677 47.008 307.309 46.464C306.941 45.92 306.757 45.312 306.757 44.64C306.757 43.792 306.973 43.12 307.405 42.624C307.853 42.128 308.581 41.776 309.589 41.568C310.613 41.344 312.005 41.232 313.765 41.232H314.533V40.488C314.533 39.496 314.325 38.784 313.909 38.352C313.509 37.904 312.861 37.68 311.965 37.68C311.405 37.68 310.837 37.752 310.261 37.896C309.701 38.04 309.117 38.272 308.509 38.592C308.237 38.736 308.005 38.768 307.813 38.688C307.637 38.592 307.509 38.448 307.429 38.256C307.365 38.048 307.365 37.84 307.429 37.632C307.509 37.408 307.669 37.24 307.909 37.128C308.597 36.776 309.285 36.52 309.973 36.36C310.677 36.2 311.341 36.12 311.965 36.12C313.469 36.12 314.581 36.488 315.301 37.224C316.037 37.96 316.405 39.104 316.405 40.656V47.16C316.405 47.832 316.109 48.168 315.517 48.168C314.893 48.168 314.581 47.832 314.581 47.16V45.984C314.277 46.672 313.805 47.216 313.165 47.616C312.541 48.016 311.805 48.216 310.957 48.216ZM311.269 46.752C312.229 46.752 313.013 46.424 313.621 45.768C314.229 45.096 314.533 44.248 314.533 43.224V42.504H313.789C312.493 42.504 311.469 42.568 310.717 42.696C309.981 42.808 309.461 43.016 309.157 43.32C308.869 43.608 308.725 44.008 308.725 44.52C308.725 45.176 308.949 45.712 309.397 46.128C309.861 46.544 310.485 46.752 311.269 46.752ZM320.972 48.168C320.332 48.168 320.012 47.832 320.012 47.16V31.896C320.012 31.24 320.332 30.912 320.972 30.912C321.628 30.912 321.956 31.24 321.956 31.896V38.256C322.34 37.552 322.876 37.024 323.564 36.672C324.268 36.304 325.052 36.12 325.916 36.12C328.684 36.12 330.068 37.656 330.068 40.728V47.16C330.068 47.832 329.748 48.168 329.108 48.168C328.452 48.168 328.124 47.832 328.124 47.16V40.848C328.124 39.76 327.908 38.968 327.476 38.472C327.06 37.96 326.388 37.704 325.46 37.704C324.388 37.704 323.532 38.04 322.892 38.712C322.268 39.368 321.956 40.248 321.956 41.352V47.16C321.956 47.832 321.628 48.168 320.972 48.168ZM334.804 50.28C334.58 50.552 334.356 50.672 334.132 50.64C333.908 50.624 333.756 50.512 333.676 50.304C333.596 50.096 333.66 49.848 333.868 49.56C334.06 49.32 334.204 49.072 334.3 48.816C334.396 48.56 334.468 48.32 334.516 48.096C334.132 48.064 333.828 47.928 333.604 47.688C333.38 47.448 333.268 47.144 333.268 46.776C333.268 46.392 333.38 46.08 333.604 45.84C333.844 45.584 334.156 45.456 334.54 45.456C334.956 45.456 335.284 45.6 335.524 45.888C335.764 46.16 335.884 46.56 335.884 47.088C335.884 47.584 335.804 48.112 335.644 48.672C335.484 49.232 335.204 49.768 334.804 50.28ZM344.149 48.144C343.845 48.16 343.613 48.08 343.453 47.904C343.277 47.728 343.189 47.512 343.189 47.256C343.189 47.064 343.253 46.896 343.381 46.752C343.493 46.592 343.677 46.496 343.933 46.464L344.677 46.416C345.493 46.352 346.117 46.072 346.549 45.576C346.981 45.064 347.197 44.368 347.197 43.488V31.92C347.197 31.248 347.525 30.912 348.181 30.912C348.837 30.912 349.165 31.248 349.165 31.92V43.512C349.165 44.904 348.805 45.992 348.085 46.776C347.365 47.544 346.317 47.976 344.941 48.072L344.149 48.144ZM357.21 48.216C354.41 48.216 353.01 46.672 353.01 43.584V37.152C353.01 36.496 353.33 36.168 353.97 36.168C354.626 36.168 354.954 36.496 354.954 37.152V43.56C354.954 44.6 355.162 45.368 355.578 45.864C356.01 46.36 356.682 46.608 357.594 46.608C358.586 46.608 359.394 46.28 360.018 45.624C360.642 44.952 360.954 44.064 360.954 42.96V37.152C360.954 36.496 361.282 36.168 361.938 36.168C362.578 36.168 362.898 36.496 362.898 37.152V47.16C362.898 47.832 362.586 48.168 361.962 48.168C361.322 48.168 361.002 47.832 361.002 47.16V46.032C360.634 46.736 360.114 47.28 359.442 47.664C358.786 48.032 358.042 48.216 357.21 48.216ZM371.695 52.536C370.847 52.536 370.015 52.432 369.199 52.224C368.399 52.032 367.671 51.72 367.015 51.288C366.775 51.144 366.631 50.968 366.583 50.76C366.551 50.568 366.583 50.376 366.679 50.184C366.775 50.008 366.911 49.88 367.087 49.8C367.279 49.72 367.479 49.736 367.687 49.848C368.391 50.28 369.063 50.576 369.703 50.736C370.343 50.896 370.975 50.976 371.599 50.976C373.903 50.976 375.055 49.792 375.055 47.424V45.36C374.719 46.096 374.191 46.68 373.471 47.112C372.767 47.528 371.959 47.736 371.047 47.736C369.975 47.736 369.047 47.488 368.263 46.992C367.479 46.496 366.871 45.816 366.439 44.952C366.023 44.072 365.815 43.056 365.815 41.904C365.815 40.752 366.023 39.744 366.439 38.88C366.871 38 367.479 37.32 368.263 36.84C369.047 36.36 369.975 36.12 371.047 36.12C371.959 36.12 372.767 36.32 373.471 36.72C374.175 37.12 374.695 37.68 375.031 38.4V37.152C375.031 36.496 375.351 36.168 375.991 36.168C376.631 36.168 376.951 36.496 376.951 37.152V47.16C376.951 48.952 376.503 50.296 375.607 51.192C374.727 52.088 373.423 52.536 371.695 52.536ZM371.407 46.152C372.527 46.152 373.415 45.768 374.071 45C374.727 44.232 375.055 43.2 375.055 41.904C375.055 40.608 374.727 39.584 374.071 38.832C373.415 38.064 372.527 37.68 371.407 37.68C370.303 37.68 369.423 38.064 368.767 38.832C368.111 39.584 367.783 40.608 367.783 41.904C367.783 43.2 368.111 44.232 368.767 45C369.423 45.768 370.303 46.152 371.407 46.152ZM384.269 48.216C383.469 48.216 382.749 48.064 382.109 47.76C381.485 47.44 380.989 47.008 380.621 46.464C380.253 45.92 380.069 45.312 380.069 44.64C380.069 43.792 380.285 43.12 380.717 42.624C381.165 42.128 381.893 41.776 382.901 41.568C383.925 41.344 385.317 41.232 387.077 41.232H387.845V40.488C387.845 39.496 387.637 38.784 387.221 38.352C386.821 37.904 386.173 37.68 385.277 37.68C384.717 37.68 384.149 37.752 383.573 37.896C383.013 38.04 382.429 38.272 381.821 38.592C381.549 38.736 381.317 38.768 381.125 38.688C380.949 38.592 380.821 38.448 380.741 38.256C380.677 38.048 380.677 37.84 380.741 37.632C380.821 37.408 380.981 37.24 381.221 37.128C381.909 36.776 382.597 36.52 383.285 36.36C383.989 36.2 384.653 36.12 385.277 36.12C386.781 36.12 387.893 36.488 388.613 37.224C389.349 37.96 389.717 39.104 389.717 40.656V47.16C389.717 47.832 389.421 48.168 388.829 48.168C388.205 48.168 387.893 47.832 387.893 47.16V45.984C387.589 46.672 387.117 47.216 386.477 47.616C385.853 48.016 385.117 48.216 384.269 48.216ZM384.581 46.752C385.541 46.752 386.325 46.424 386.933 45.768C387.541 45.096 387.845 44.248 387.845 43.224V42.504H387.101C385.805 42.504 384.781 42.568 384.029 42.696C383.293 42.808 382.773 43.016 382.469 43.32C382.181 43.608 382.037 44.008 382.037 44.52C382.037 45.176 382.261 45.712 382.709 46.128C383.173 46.544 383.797 46.752 384.581 46.752ZM400.855 48C400.136 48 399.776 47.64 399.776 46.92V32.16C399.776 31.44 400.136 31.08 400.855 31.08H405.488C408.224 31.08 410.336 31.808 411.824 33.264C413.312 34.704 414.056 36.792 414.056 39.528C414.056 42.264 413.312 44.36 411.824 45.816C410.336 47.272 408.224 48 405.488 48H400.855ZM401.744 46.32H405.344C409.76 46.32 411.968 44.056 411.968 39.528C411.968 35.016 409.76 32.76 405.344 32.76H401.744V46.32ZM418.284 33.528C417.436 33.528 417.012 33.128 417.012 32.328C417.012 31.544 417.436 31.152 418.284 31.152C419.132 31.152 419.556 31.544 419.556 32.328C419.556 33.128 419.132 33.528 418.284 33.528ZM418.284 48.12C417.644 48.12 417.324 47.768 417.324 47.064V37.248C417.324 36.56 417.644 36.216 418.284 36.216C418.94 36.216 419.268 36.56 419.268 37.248V47.064C419.268 47.768 418.94 48.12 418.284 48.12ZM423.862 52.488C423.222 52.488 422.902 52.16 422.902 51.504V37.152C422.902 36.496 423.214 36.168 423.838 36.168C424.494 36.168 424.822 36.496 424.822 37.152V38.4C425.158 37.696 425.678 37.144 426.382 36.744C427.086 36.328 427.894 36.12 428.806 36.12C429.846 36.12 430.75 36.368 431.518 36.864C432.302 37.344 432.902 38.04 433.318 38.952C433.75 39.848 433.966 40.92 433.966 42.168C433.966 43.4 433.75 44.472 433.318 45.384C432.902 46.28 432.302 46.976 431.518 47.472C430.75 47.968 429.846 48.216 428.806 48.216C427.91 48.216 427.11 48.016 426.406 47.616C425.702 47.216 425.182 46.664 424.846 45.96V51.504C424.846 52.16 424.518 52.488 423.862 52.488ZM428.398 46.656C429.486 46.656 430.358 46.272 431.014 45.504C431.67 44.72 431.998 43.608 431.998 42.168C431.998 40.712 431.67 39.6 431.014 38.832C430.358 38.064 429.486 37.68 428.398 37.68C427.31 37.68 426.438 38.064 425.782 38.832C425.126 39.6 424.798 40.712 424.798 42.168C424.798 43.608 425.126 44.72 425.782 45.504C426.438 46.272 427.31 46.656 428.398 46.656ZM440.566 48.216C439.766 48.216 439.046 48.064 438.406 47.76C437.782 47.44 437.286 47.008 436.918 46.464C436.55 45.92 436.366 45.312 436.366 44.64C436.366 43.792 436.582 43.12 437.014 42.624C437.462 42.128 438.19 41.776 439.198 41.568C440.222 41.344 441.614 41.232 443.374 41.232H444.142V40.488C444.142 39.496 443.934 38.784 443.518 38.352C443.118 37.904 442.47 37.68 441.574 37.68C441.014 37.68 440.446 37.752 439.87 37.896C439.31 38.04 438.726 38.272 438.118 38.592C437.846 38.736 437.614 38.768 437.422 38.688C437.246 38.592 437.118 38.448 437.038 38.256C436.974 38.048 436.974 37.84 437.038 37.632C437.118 37.408 437.278 37.24 437.518 37.128C438.206 36.776 438.894 36.52 439.582 36.36C440.286 36.2 440.95 36.12 441.574 36.12C443.078 36.12 444.19 36.488 444.91 37.224C445.646 37.96 446.014 39.104 446.014 40.656V47.16C446.014 47.832 445.718 48.168 445.126 48.168C444.502 48.168 444.19 47.832 444.19 47.16V45.984C443.886 46.672 443.414 47.216 442.774 47.616C442.15 48.016 441.414 48.216 440.566 48.216ZM440.878 46.752C441.838 46.752 442.622 46.424 443.23 45.768C443.838 45.096 444.142 44.248 444.142 43.224V42.504H443.398C442.102 42.504 441.078 42.568 440.326 42.696C439.59 42.808 439.07 43.016 438.766 43.32C438.478 43.608 438.334 44.008 438.334 44.52C438.334 45.176 438.558 45.712 439.006 46.128C439.47 46.544 440.094 46.752 440.878 46.752ZM450.581 48.168C449.941 48.168 449.621 47.832 449.621 47.16V37.152C449.621 36.496 449.933 36.168 450.557 36.168C451.197 36.168 451.517 36.496 451.517 37.152V38.328C451.901 37.592 452.445 37.04 453.149 36.672C453.853 36.304 454.645 36.12 455.525 36.12C458.293 36.12 459.677 37.656 459.677 40.728V47.16C459.677 47.832 459.357 48.168 458.717 48.168C458.061 48.168 457.733 47.832 457.733 47.16V40.848C457.733 39.76 457.517 38.968 457.085 38.472C456.669 37.96 455.997 37.704 455.069 37.704C453.997 37.704 453.141 38.04 452.501 38.712C451.877 39.368 451.565 40.248 451.565 41.352V47.16C451.565 47.832 451.237 48.168 450.581 48.168ZM467.702 48.216C466.662 48.216 465.75 47.968 464.965 47.472C464.198 46.976 463.598 46.28 463.166 45.384C462.75 44.472 462.542 43.4 462.542 42.168C462.542 40.92 462.75 39.848 463.166 38.952C463.598 38.04 464.198 37.344 464.965 36.864C465.75 36.368 466.662 36.12 467.702 36.12C468.614 36.12 469.414 36.32 470.102 36.72C470.806 37.12 471.326 37.672 471.662 38.376V31.896C471.662 31.24 471.99 30.912 472.646 30.912C473.286 30.912 473.606 31.24 473.606 31.896V47.16C473.606 47.832 473.286 48.168 472.646 48.168C472.006 48.168 471.686 47.832 471.686 47.16V45.912C471.334 46.632 470.806 47.2 470.102 47.616C469.414 48.016 468.614 48.216 467.702 48.216ZM468.11 46.656C469.198 46.656 470.07 46.272 470.726 45.504C471.382 44.72 471.71 43.608 471.71 42.168C471.71 40.712 471.382 39.6 470.726 38.832C470.07 38.064 469.198 37.68 468.11 37.68C467.006 37.68 466.126 38.064 465.47 38.832C464.83 39.6 464.51 40.712 464.51 42.168C464.51 43.608 464.83 44.72 465.47 45.504C466.126 46.272 467.006 46.656 468.11 46.656ZM481.382 48.216C478.582 48.216 477.182 46.672 477.182 43.584V37.152C477.182 36.496 477.502 36.168 478.142 36.168C478.798 36.168 479.126 36.496 479.126 37.152V43.56C479.126 44.6 479.334 45.368 479.75 45.864C480.182 46.36 480.854 46.608 481.766 46.608C482.758 46.608 483.566 46.28 484.19 45.624C484.814 44.952 485.126 44.064 485.126 42.96V37.152C485.126 36.496 485.454 36.168 486.11 36.168C486.75 36.168 487.07 36.496 487.07 37.152V47.16C487.07 47.832 486.758 48.168 486.134 48.168C485.494 48.168 485.174 47.832 485.174 47.16V46.032C484.806 46.736 484.286 47.28 483.614 47.664C482.958 48.032 482.214 48.216 481.382 48.216ZM36.192 81.216C34.624 81.216 33.256 80.864 32.088 80.16C30.936 79.44 30.04 78.432 29.4 77.136C28.776 75.84 28.464 74.304 28.464 72.528C28.464 70.752 28.776 69.216 29.4 67.92C30.024 66.624 30.912 65.624 32.064 64.92C33.232 64.216 34.608 63.864 36.192 63.864C37.792 63.864 39.168 64.216 40.32 64.92C41.488 65.624 42.384 66.624 43.008 67.92C43.648 69.2 43.968 70.728 43.968 72.504C43.968 74.28 43.648 75.824 43.008 77.136C42.368 78.432 41.464 79.44 40.296 80.16C39.144 80.864 37.776 81.216 36.192 81.216ZM36.192 79.464C38 79.464 39.4 78.856 40.392 77.64C41.384 76.424 41.88 74.72 41.88 72.528C41.88 70.336 41.384 68.64 40.392 67.44C39.4 66.224 38 65.616 36.192 65.616C34.416 65.616 33.032 66.224 32.04 67.44C31.048 68.64 30.552 70.336 30.552 72.528C30.552 74.704 31.048 76.408 32.04 77.64C33.032 78.856 34.416 79.464 36.192 79.464ZM50.7744 81.216C49.6224 81.216 48.7424 80.872 48.1344 80.184C47.5264 79.48 47.2224 78.464 47.2224 77.136V64.896C47.2224 64.24 47.5424 63.912 48.1824 63.912C48.8384 63.912 49.1664 64.24 49.1664 64.896V76.992C49.1664 78.704 49.8464 79.56 51.2064 79.56C51.3504 79.56 51.4784 79.552 51.5904 79.536C51.7024 79.52 51.8144 79.512 51.9264 79.512C52.1024 79.496 52.2224 79.536 52.2864 79.632C52.3664 79.728 52.4064 79.92 52.4064 80.208C52.4064 80.752 52.1344 81.064 51.5904 81.144C51.4624 81.176 51.3264 81.192 51.1824 81.192C51.0384 81.208 50.9024 81.216 50.7744 81.216ZM59.4628 81.216C57.6228 81.216 56.1668 80.68 55.0948 79.608C54.0228 78.52 53.4868 77.048 53.4868 75.192C53.4868 73.992 53.7268 72.936 54.2068 72.024C54.6868 71.096 55.3428 70.384 56.1748 69.888C57.0228 69.376 57.9988 69.12 59.1028 69.12C60.6868 69.12 61.9268 69.632 62.8228 70.656C63.7188 71.664 64.1668 73.056 64.1668 74.832C64.1668 75.328 63.8868 75.576 63.3268 75.576H55.3828C55.4468 76.904 55.8308 77.92 56.5348 78.624C57.2388 79.312 58.2148 79.656 59.4628 79.656C59.9908 79.656 60.5268 79.592 61.0708 79.464C61.6148 79.32 62.1428 79.072 62.6548 78.72C63.0228 78.48 63.3268 78.432 63.5668 78.576C63.8228 78.72 63.9508 78.944 63.9508 79.248C63.9668 79.536 63.8068 79.792 63.4708 80.016C62.9428 80.4 62.3108 80.696 61.5748 80.904C60.8548 81.112 60.1508 81.216 59.4628 81.216ZM59.1508 70.56C58.0468 70.56 57.1748 70.904 56.5348 71.592C55.8948 72.28 55.5188 73.184 55.4068 74.304H62.4868C62.4388 73.12 62.1268 72.2 61.5508 71.544C60.9908 70.888 60.1908 70.56 59.1508 70.56ZM67.9403 81.168C67.3003 81.168 66.9803 80.832 66.9803 80.16V64.896C66.9803 64.24 67.3003 63.912 67.9403 63.912C68.5963 63.912 68.9243 64.24 68.9243 64.896V71.256C69.3083 70.552 69.8443 70.024 70.5323 69.672C71.2363 69.304 72.0203 69.12 72.8843 69.12C75.6523 69.12 77.0363 70.656 77.0363 73.728V80.16C77.0363 80.832 76.7163 81.168 76.0763 81.168C75.4203 81.168 75.0923 80.832 75.0923 80.16V73.848C75.0923 72.76 74.8763 71.968 74.4443 71.472C74.0283 70.96 73.3563 70.704 72.4283 70.704C71.3563 70.704 70.5003 71.04 69.8603 71.712C69.2363 72.368 68.9243 73.248 68.9243 74.352V80.16C68.9243 80.832 68.5963 81.168 67.9403 81.168ZM88.0324 81.168C87.4244 81.168 87.1204 80.848 87.1204 80.208V64.872C87.1204 64.232 87.4244 63.912 88.0324 63.912C88.2884 63.912 88.4884 63.968 88.6324 64.08C88.7924 64.176 88.9364 64.344 89.0644 64.584L95.2804 76.296L101.472 64.584C101.6 64.344 101.736 64.176 101.88 64.08C102.024 63.968 102.232 63.912 102.504 63.912C103.096 63.912 103.392 64.232 103.392 64.872V80.208C103.392 80.848 103.088 81.168 102.48 81.168C101.872 81.168 101.568 80.848 101.568 80.208V67.776L96.1444 77.976C96.0324 78.184 95.9124 78.336 95.7844 78.432C95.6724 78.512 95.5044 78.552 95.2804 78.552C95.0564 78.552 94.8804 78.504 94.7524 78.408C94.6244 78.312 94.5124 78.168 94.4164 77.976L88.9204 67.8V80.208C88.9204 80.848 88.6244 81.168 88.0324 81.168ZM112.596 81.216C110.756 81.216 109.3 80.68 108.228 79.608C107.156 78.52 106.62 77.048 106.62 75.192C106.62 73.992 106.86 72.936 107.34 72.024C107.82 71.096 108.476 70.384 109.308 69.888C110.156 69.376 111.132 69.12 112.236 69.12C113.82 69.12 115.06 69.632 115.956 70.656C116.852 71.664 117.3 73.056 117.3 74.832C117.3 75.328 117.02 75.576 116.46 75.576H108.516C108.58 76.904 108.964 77.92 109.668 78.624C110.372 79.312 111.348 79.656 112.596 79.656C113.124 79.656 113.66 79.592 114.204 79.464C114.748 79.32 115.276 79.072 115.788 78.72C116.156 78.48 116.46 78.432 116.7 78.576C116.956 78.72 117.084 78.944 117.084 79.248C117.1 79.536 116.94 79.792 116.604 80.016C116.076 80.4 115.444 80.696 114.708 80.904C113.988 81.112 113.284 81.216 112.596 81.216ZM112.284 70.56C111.18 70.56 110.308 70.904 109.668 71.592C109.028 72.28 108.652 73.184 108.54 74.304H115.62C115.572 73.12 115.26 72.2 114.684 71.544C114.124 70.888 113.324 70.56 112.284 70.56ZM121.073 81.168C120.433 81.168 120.113 80.832 120.113 80.16V70.152C120.113 69.496 120.425 69.168 121.049 69.168C121.689 69.168 122.009 69.496 122.009 70.152V71.328C122.393 70.592 122.937 70.04 123.641 69.672C124.345 69.304 125.137 69.12 126.017 69.12C128.785 69.12 130.169 70.656 130.169 73.728V80.16C130.169 80.832 129.849 81.168 129.209 81.168C128.553 81.168 128.225 80.832 128.225 80.16V73.848C128.225 72.76 128.009 71.968 127.577 71.472C127.161 70.96 126.489 70.704 125.561 70.704C124.489 70.704 123.633 71.04 122.993 71.712C122.369 72.368 122.057 73.248 122.057 74.352V80.16C122.057 80.832 121.729 81.168 121.073 81.168ZM138.434 81.216C137.058 81.216 136.026 80.856 135.338 80.136C134.65 79.4 134.306 78.344 134.306 76.968V70.848H132.698C132.138 70.848 131.858 70.592 131.858 70.08C131.858 69.584 132.138 69.336 132.698 69.336H134.306V66.576C134.306 65.92 134.634 65.592 135.29 65.592C135.93 65.592 136.25 65.92 136.25 66.576V69.336H139.274C139.834 69.336 140.114 69.584 140.114 70.08C140.114 70.592 139.834 70.848 139.274 70.848H136.25V76.776C136.25 77.688 136.442 78.384 136.826 78.864C137.21 79.328 137.834 79.56 138.698 79.56C139.002 79.56 139.258 79.528 139.466 79.464C139.674 79.4 139.858 79.368 140.018 79.368C140.162 79.352 140.282 79.4 140.378 79.512C140.474 79.624 140.522 79.816 140.522 80.088C140.522 80.28 140.482 80.456 140.402 80.616C140.338 80.776 140.218 80.888 140.042 80.952C139.85 81.016 139.594 81.072 139.274 81.12C138.97 81.184 138.69 81.216 138.434 81.216ZM146.875 81.216C145.739 81.216 144.755 80.968 143.923 80.472C143.091 79.976 142.443 79.28 141.979 78.384C141.531 77.472 141.307 76.4 141.307 75.168C141.307 73.936 141.531 72.872 141.979 71.976C142.443 71.064 143.091 70.36 143.923 69.864C144.755 69.368 145.739 69.12 146.875 69.12C147.995 69.12 148.971 69.368 149.803 69.864C150.651 70.36 151.299 71.064 151.747 71.976C152.211 72.872 152.443 73.936 152.443 75.168C152.443 76.4 152.211 77.472 151.747 78.384C151.299 79.28 150.651 79.976 149.803 80.472C148.971 80.968 147.995 81.216 146.875 81.216ZM146.875 79.656C147.963 79.656 148.835 79.272 149.491 78.504C150.147 77.72 150.475 76.608 150.475 75.168C150.475 73.712 150.147 72.6 149.491 71.832C148.835 71.064 147.963 70.68 146.875 70.68C145.771 70.68 144.891 71.064 144.235 71.832C143.595 72.6 143.275 73.712 143.275 75.168C143.275 76.608 143.595 77.72 144.235 78.504C144.891 79.272 145.771 79.656 146.875 79.656ZM156.347 81.168C155.691 81.168 155.363 80.832 155.363 80.16V70.152C155.363 69.496 155.675 69.168 156.299 69.168C156.939 69.168 157.259 69.496 157.259 70.152V71.424C157.579 70.688 158.075 70.128 158.747 69.744C159.419 69.344 160.219 69.128 161.147 69.096C161.659 69.048 161.931 69.304 161.963 69.864C162.011 70.424 161.723 70.736 161.099 70.8L160.715 70.848C159.611 70.944 158.771 71.296 158.195 71.904C157.619 72.496 157.331 73.312 157.331 74.352V80.16C157.331 80.832 157.003 81.168 156.347 81.168ZM175.48 81.168C174.824 81.168 174.496 80.816 174.496 80.112V72.984L168.904 65.304C168.68 65 168.632 64.696 168.76 64.392C168.904 64.072 169.176 63.912 169.576 63.912C169.992 63.912 170.352 64.128 170.656 64.56L175.528 71.256L180.376 64.56C180.696 64.128 181.056 63.912 181.456 63.912C181.84 63.912 182.096 64.064 182.224 64.368C182.352 64.656 182.296 64.976 182.056 65.328L176.464 73.032V80.112C176.464 80.816 176.136 81.168 175.48 81.168ZM186.293 81.216C185.493 81.216 184.773 81.064 184.133 80.76C183.509 80.44 183.013 80.008 182.645 79.464C182.277 78.92 182.093 78.312 182.093 77.64C182.093 76.792 182.309 76.12 182.741 75.624C183.189 75.128 183.917 74.776 184.925 74.568C185.949 74.344 187.341 74.232 189.101 74.232H189.869V73.488C189.869 72.496 189.661 71.784 189.245 71.352C188.845 70.904 188.197 70.68 187.301 70.68C186.741 70.68 186.173 70.752 185.597 70.896C185.037 71.04 184.453 71.272 183.845 71.592C183.573 71.736 183.341 71.768 183.149 71.688C182.973 71.592 182.845 71.448 182.765 71.256C182.701 71.048 182.701 70.84 182.765 70.632C182.845 70.408 183.005 70.24 183.245 70.128C183.933 69.776 184.621 69.52 185.309 69.36C186.013 69.2 186.677 69.12 187.301 69.12C188.805 69.12 189.917 69.488 190.637 70.224C191.373 70.96 191.741 72.104 191.741 73.656V80.16C191.741 80.832 191.445 81.168 190.853 81.168C190.229 81.168 189.917 80.832 189.917 80.16V78.984C189.613 79.672 189.141 80.216 188.501 80.616C187.877 81.016 187.141 81.216 186.293 81.216ZM186.605 79.752C187.565 79.752 188.349 79.424 188.957 78.768C189.565 78.096 189.869 77.248 189.869 76.224V75.504H189.125C187.829 75.504 186.805 75.568 186.053 75.696C185.317 75.808 184.797 76.016 184.493 76.32C184.205 76.608 184.061 77.008 184.061 77.52C184.061 78.176 184.285 78.712 184.733 79.128C185.197 79.544 185.821 79.752 186.605 79.752ZM196.307 81.168C195.667 81.168 195.347 80.832 195.347 80.16V70.152C195.347 69.496 195.659 69.168 196.283 69.168C196.923 69.168 197.243 69.496 197.243 70.152V71.328C197.627 70.592 198.171 70.04 198.875 69.672C199.579 69.304 200.371 69.12 201.251 69.12C204.019 69.12 205.403 70.656 205.403 73.728V80.16C205.403 80.832 205.083 81.168 204.443 81.168C203.787 81.168 203.459 80.832 203.459 80.16V73.848C203.459 72.76 203.243 71.968 202.811 71.472C202.395 70.96 201.723 70.704 200.795 70.704C199.723 70.704 198.867 71.04 198.227 71.712C197.603 72.368 197.291 73.248 197.291 74.352V80.16C197.291 80.832 196.963 81.168 196.307 81.168ZM214.148 85.536C213.3 85.536 212.468 85.432 211.652 85.224C210.852 85.032 210.124 84.72 209.468 84.288C209.228 84.144 209.084 83.968 209.036 83.76C209.004 83.568 209.036 83.376 209.132 83.184C209.228 83.008 209.364 82.88 209.54 82.8C209.732 82.72 209.932 82.736 210.14 82.848C210.844 83.28 211.516 83.576 212.156 83.736C212.796 83.896 213.428 83.976 214.052 83.976C216.356 83.976 217.508 82.792 217.508 80.424V78.36C217.172 79.096 216.644 79.68 215.924 80.112C215.22 80.528 214.412 80.736 213.5 80.736C212.428 80.736 211.5 80.488 210.716 79.992C209.932 79.496 209.324 78.816 208.892 77.952C208.476 77.072 208.268 76.056 208.268 74.904C208.268 73.752 208.476 72.744 208.892 71.88C209.324 71 209.932 70.32 210.716 69.84C211.5 69.36 212.428 69.12 213.5 69.12C214.412 69.12 215.22 69.32 215.924 69.72C216.628 70.12 217.148 70.68 217.484 71.4V70.152C217.484 69.496 217.804 69.168 218.444 69.168C219.084 69.168 219.404 69.496 219.404 70.152V80.16C219.404 81.952 218.956 83.296 218.06 84.192C217.18 85.088 215.876 85.536 214.148 85.536ZM213.86 79.152C214.98 79.152 215.868 78.768 216.524 78C217.18 77.232 217.508 76.2 217.508 74.904C217.508 73.608 217.18 72.584 216.524 71.832C215.868 71.064 214.98 70.68 213.86 70.68C212.756 70.68 211.876 71.064 211.22 71.832C210.564 72.584 210.236 73.608 210.236 74.904C210.236 76.2 210.564 77.232 211.22 78C211.876 78.768 212.756 79.152 213.86 79.152ZM234.974 81.216C233.822 81.216 232.734 81.08 231.71 80.808C230.702 80.52 229.83 80.104 229.094 79.56C228.838 79.384 228.686 79.176 228.638 78.936C228.59 78.696 228.614 78.472 228.71 78.264C228.822 78.056 228.982 77.92 229.19 77.856C229.398 77.776 229.638 77.824 229.91 78C230.63 78.528 231.398 78.904 232.214 79.128C233.03 79.352 233.95 79.464 234.974 79.464C236.414 79.464 237.478 79.2 238.166 78.672C238.87 78.128 239.222 77.416 239.222 76.536C239.222 75.832 238.966 75.272 238.454 74.856C237.958 74.44 237.118 74.112 235.934 73.872L233.438 73.368C231.934 73.048 230.806 72.528 230.054 71.808C229.318 71.072 228.95 70.096 228.95 68.88C228.95 67.872 229.206 66.992 229.718 66.24C230.246 65.488 230.974 64.904 231.902 64.488C232.83 64.072 233.902 63.864 235.118 63.864C236.126 63.864 237.062 64.008 237.926 64.296C238.806 64.568 239.598 64.984 240.302 65.544C240.526 65.72 240.654 65.928 240.686 66.168C240.734 66.392 240.702 66.6 240.59 66.792C240.478 66.984 240.318 67.112 240.11 67.176C239.902 67.224 239.654 67.16 239.366 66.984C238.726 66.488 238.054 66.136 237.35 65.928C236.662 65.72 235.91 65.616 235.094 65.616C233.83 65.616 232.822 65.912 232.07 66.504C231.318 67.08 230.942 67.848 230.942 68.808C230.942 69.576 231.174 70.184 231.638 70.632C232.118 71.08 232.894 71.408 233.966 71.616L236.462 72.144C238.078 72.48 239.27 72.992 240.038 73.68C240.822 74.352 241.214 75.272 241.214 76.44C241.214 77.384 240.958 78.216 240.446 78.936C239.95 79.656 239.23 80.216 238.286 80.616C237.358 81.016 236.254 81.216 234.974 81.216ZM249.26 81.216C247.42 81.216 245.964 80.68 244.892 79.608C243.82 78.52 243.284 77.048 243.284 75.192C243.284 73.992 243.524 72.936 244.004 72.024C244.484 71.096 245.14 70.384 245.972 69.888C246.82 69.376 247.796 69.12 248.9 69.12C250.484 69.12 251.724 69.632 252.62 70.656C253.516 71.664 253.964 73.056 253.964 74.832C253.964 75.328 253.684 75.576 253.124 75.576H245.18C245.244 76.904 245.628 77.92 246.332 78.624C247.036 79.312 248.012 79.656 249.26 79.656C249.788 79.656 250.324 79.592 250.868 79.464C251.412 79.32 251.94 79.072 252.452 78.72C252.82 78.48 253.124 78.432 253.364 78.576C253.62 78.72 253.748 78.944 253.748 79.248C253.764 79.536 253.604 79.792 253.268 80.016C252.74 80.4 252.108 80.696 251.372 80.904C250.652 81.112 249.948 81.216 249.26 81.216ZM248.948 70.56C247.844 70.56 246.972 70.904 246.332 71.592C245.692 72.28 245.316 73.184 245.204 74.304H252.284C252.236 73.12 251.924 72.2 251.348 71.544C250.788 70.888 249.988 70.56 248.948 70.56ZM257.761 81.168C257.105 81.168 256.777 80.832 256.777 80.16V70.152C256.777 69.496 257.089 69.168 257.713 69.168C258.353 69.168 258.673 69.496 258.673 70.152V71.424C258.993 70.688 259.489 70.128 260.161 69.744C260.833 69.344 261.633 69.128 262.561 69.096C263.073 69.048 263.345 69.304 263.377 69.864C263.425 70.424 263.137 70.736 262.513 70.8L262.129 70.848C261.025 70.944 260.185 71.296 259.609 71.904C259.033 72.496 258.745 73.312 258.745 74.352V80.16C258.745 80.832 258.417 81.168 257.761 81.168ZM269.507 81.216C266.707 81.216 265.307 79.672 265.307 76.584V70.152C265.307 69.496 265.627 69.168 266.267 69.168C266.923 69.168 267.251 69.496 267.251 70.152V76.56C267.251 77.6 267.459 78.368 267.875 78.864C268.307 79.36 268.979 79.608 269.891 79.608C270.883 79.608 271.691 79.28 272.315 78.624C272.939 77.952 273.251 77.064 273.251 75.96V70.152C273.251 69.496 273.579 69.168 274.235 69.168C274.875 69.168 275.195 69.496 275.195 70.152V80.16C275.195 80.832 274.883 81.168 274.259 81.168C273.619 81.168 273.299 80.832 273.299 80.16V79.032C272.931 79.736 272.411 80.28 271.739 80.664C271.083 81.032 270.339 81.216 269.507 81.216ZM279.768 81.096C279.368 81.096 279.048 80.976 278.808 80.736C278.568 80.48 278.448 80.16 278.448 79.776C278.448 79.392 278.568 79.08 278.808 78.84C279.048 78.584 279.368 78.456 279.768 78.456C280.168 78.456 280.48 78.584 280.704 78.84C280.944 79.08 281.064 79.392 281.064 79.776C281.064 80.16 280.944 80.48 280.704 80.736C280.48 80.976 280.168 81.096 279.768 81.096ZM295.88 81.168C295.224 81.168 294.896 80.824 294.896 80.136V65.784H289.496C288.888 65.784 288.584 65.496 288.584 64.92C288.584 64.36 288.888 64.08 289.496 64.08H302.288C302.896 64.08 303.2 64.36 303.2 64.92C303.2 65.496 302.896 65.784 302.288 65.784H296.888V80.136C296.888 80.824 296.552 81.168 295.88 81.168ZM308.346 81.216C306.506 81.216 305.05 80.68 303.978 79.608C302.906 78.52 302.37 77.048 302.37 75.192C302.37 73.992 302.61 72.936 303.09 72.024C303.57 71.096 304.226 70.384 305.058 69.888C305.906 69.376 306.882 69.12 307.986 69.12C309.57 69.12 310.81 69.632 311.706 70.656C312.602 71.664 313.05 73.056 313.05 74.832C313.05 75.328 312.77 75.576 312.21 75.576H304.266C304.33 76.904 304.714 77.92 305.418 78.624C306.122 79.312 307.098 79.656 308.346 79.656C308.874 79.656 309.41 79.592 309.954 79.464C310.498 79.32 311.026 79.072 311.538 78.72C311.906 78.48 312.21 78.432 312.45 78.576C312.706 78.72 312.834 78.944 312.834 79.248C312.85 79.536 312.69 79.792 312.354 80.016C311.826 80.4 311.194 80.696 310.458 80.904C309.738 81.112 309.034 81.216 308.346 81.216ZM308.034 70.56C306.93 70.56 306.058 70.904 305.418 71.592C304.778 72.28 304.402 73.184 304.29 74.304H311.37C311.322 73.12 311.01 72.2 310.434 71.544C309.874 70.888 309.074 70.56 308.034 70.56ZM316.847 81.168C316.191 81.168 315.863 80.832 315.863 80.16V70.152C315.863 69.496 316.175 69.168 316.799 69.168C317.439 69.168 317.759 69.496 317.759 70.152V71.424C318.079 70.688 318.575 70.128 319.247 69.744C319.919 69.344 320.719 69.128 321.647 69.096C322.159 69.048 322.431 69.304 322.463 69.864C322.511 70.424 322.223 70.736 321.599 70.8L321.215 70.848C320.111 70.944 319.271 71.296 318.695 71.904C318.119 72.496 317.831 73.312 317.831 74.352V80.16C317.831 80.832 317.503 81.168 316.847 81.168ZM325.425 66.528C324.577 66.528 324.153 66.128 324.153 65.328C324.153 64.544 324.577 64.152 325.425 64.152C326.273 64.152 326.697 64.544 326.697 65.328C326.697 66.128 326.273 66.528 325.425 66.528ZM325.425 81.12C324.785 81.12 324.465 80.768 324.465 80.064V70.248C324.465 69.56 324.785 69.216 325.425 69.216C326.081 69.216 326.409 69.56 326.409 70.248V80.064C326.409 80.768 326.081 81.12 325.425 81.12ZM331.051 81.168C330.411 81.168 330.091 80.832 330.091 80.16V70.152C330.091 69.496 330.403 69.168 331.027 69.168C331.667 69.168 331.987 69.496 331.987 70.152V71.304C332.339 70.6 332.827 70.064 333.451 69.696C334.075 69.312 334.803 69.12 335.635 69.12C337.459 69.12 338.627 69.912 339.139 71.496C339.491 70.76 340.011 70.184 340.699 69.768C341.387 69.336 342.179 69.12 343.075 69.12C345.667 69.12 346.963 70.656 346.963 73.728V80.16C346.963 80.832 346.635 81.168 345.979 81.168C345.339 81.168 345.019 80.832 345.019 80.16V73.824C345.019 72.752 344.827 71.968 344.443 71.472C344.075 70.96 343.459 70.704 342.595 70.704C341.651 70.704 340.899 71.04 340.339 71.712C339.779 72.384 339.499 73.28 339.499 74.4V80.16C339.499 80.832 339.171 81.168 338.515 81.168C337.875 81.168 337.555 80.832 337.555 80.16V73.824C337.555 72.752 337.363 71.968 336.979 71.472C336.611 70.96 335.995 70.704 335.131 70.704C334.171 70.704 333.411 71.04 332.851 71.712C332.307 72.384 332.035 73.28 332.035 74.4V80.16C332.035 80.832 331.707 81.168 331.051 81.168ZM354.269 81.216C353.469 81.216 352.749 81.064 352.109 80.76C351.485 80.44 350.989 80.008 350.621 79.464C350.253 78.92 350.069 78.312 350.069 77.64C350.069 76.792 350.285 76.12 350.717 75.624C351.165 75.128 351.893 74.776 352.901 74.568C353.925 74.344 355.317 74.232 357.077 74.232H357.845V73.488C357.845 72.496 357.637 71.784 357.221 71.352C356.821 70.904 356.173 70.68 355.277 70.68C354.717 70.68 354.149 70.752 353.573 70.896C353.013 71.04 352.429 71.272 351.821 71.592C351.549 71.736 351.317 71.768 351.125 71.688C350.949 71.592 350.821 71.448 350.741 71.256C350.677 71.048 350.677 70.84 350.741 70.632C350.821 70.408 350.981 70.24 351.221 70.128C351.909 69.776 352.597 69.52 353.285 69.36C353.989 69.2 354.653 69.12 355.277 69.12C356.781 69.12 357.893 69.488 358.613 70.224C359.349 70.96 359.717 72.104 359.717 73.656V80.16C359.717 80.832 359.421 81.168 358.829 81.168C358.205 81.168 357.893 80.832 357.893 80.16V78.984C357.589 79.672 357.117 80.216 356.477 80.616C355.853 81.016 355.117 81.216 354.269 81.216ZM354.581 79.752C355.541 79.752 356.325 79.424 356.933 78.768C357.541 78.096 357.845 77.248 357.845 76.224V75.504H357.101C355.805 75.504 354.781 75.568 354.029 75.696C353.293 75.808 352.773 76.016 352.469 76.32C352.181 76.608 352.037 77.008 352.037 77.52C352.037 78.176 352.261 78.712 352.709 79.128C353.173 79.544 353.797 79.752 354.581 79.752ZM364.284 81.168C363.644 81.168 363.324 80.832 363.324 80.16V64.896C363.324 64.24 363.644 63.912 364.284 63.912C364.94 63.912 365.268 64.24 365.268 64.896V74.52H365.316L370.236 69.816C370.444 69.608 370.636 69.448 370.812 69.336C370.988 69.224 371.22 69.168 371.508 69.168C371.892 69.168 372.14 69.32 372.252 69.624C372.38 69.912 372.3 70.208 372.012 70.512L367.332 74.952L372.468 79.776C372.804 80.096 372.892 80.408 372.732 80.712C372.588 81.016 372.34 81.168 371.988 81.168C371.7 81.168 371.46 81.112 371.268 81C371.092 80.872 370.884 80.688 370.644 80.448L365.316 75.528H365.268V80.16C365.268 80.832 364.94 81.168 364.284 81.168ZM378.879 81.216C378.079 81.216 377.359 81.064 376.719 80.76C376.095 80.44 375.599 80.008 375.231 79.464C374.863 78.92 374.679 78.312 374.679 77.64C374.679 76.792 374.895 76.12 375.327 75.624C375.775 75.128 376.503 74.776 377.511 74.568C378.535 74.344 379.927 74.232 381.687 74.232H382.455V73.488C382.455 72.496 382.247 71.784 381.831 71.352C381.431 70.904 380.783 70.68 379.887 70.68C379.327 70.68 378.759 70.752 378.183 70.896C377.623 71.04 377.039 71.272 376.431 71.592C376.159 71.736 375.927 71.768 375.735 71.688C375.559 71.592 375.431 71.448 375.351 71.256C375.287 71.048 375.287 70.84 375.351 70.632C375.431 70.408 375.591 70.24 375.831 70.128C376.519 69.776 377.207 69.52 377.895 69.36C378.599 69.2 379.263 69.12 379.887 69.12C381.391 69.12 382.503 69.488 383.223 70.224C383.959 70.96 384.327 72.104 384.327 73.656V80.16C384.327 80.832 384.031 81.168 383.439 81.168C382.815 81.168 382.503 80.832 382.503 80.16V78.984C382.199 79.672 381.727 80.216 381.087 80.616C380.463 81.016 379.727 81.216 378.879 81.216ZM379.191 79.752C380.151 79.752 380.935 79.424 381.543 78.768C382.151 78.096 382.455 77.248 382.455 76.224V75.504H381.711C380.415 75.504 379.391 75.568 378.639 75.696C377.903 75.808 377.383 76.016 377.079 76.32C376.791 76.608 376.647 77.008 376.647 77.52C376.647 78.176 376.871 78.712 377.319 79.128C377.783 79.544 378.407 79.752 379.191 79.752ZM391.869 81.216C391.149 81.216 390.421 81.128 389.685 80.952C388.965 80.76 388.293 80.456 387.669 80.04C387.381 79.864 387.237 79.64 387.237 79.368C387.253 79.08 387.365 78.856 387.573 78.696C387.781 78.536 388.045 78.536 388.365 78.696C388.989 79.08 389.589 79.352 390.165 79.512C390.757 79.656 391.341 79.728 391.917 79.728C392.829 79.728 393.517 79.56 393.981 79.224C394.445 78.888 394.677 78.432 394.677 77.856C394.677 77.408 394.525 77.056 394.221 76.8C393.917 76.528 393.437 76.32 392.781 76.176L390.597 75.696C388.613 75.264 387.621 74.24 387.621 72.624C387.621 71.568 388.037 70.72 388.869 70.08C389.717 69.44 390.821 69.12 392.181 69.12C392.869 69.12 393.533 69.216 394.173 69.408C394.813 69.584 395.389 69.872 395.901 70.272C396.173 70.464 396.293 70.696 396.261 70.968C396.229 71.24 396.101 71.456 395.877 71.616C395.669 71.76 395.413 71.736 395.109 71.544C394.629 71.224 394.141 70.992 393.645 70.848C393.149 70.688 392.661 70.608 392.181 70.608C391.285 70.608 390.605 70.784 390.141 71.136C389.677 71.488 389.445 71.952 389.445 72.528C389.445 73.424 390.037 74 391.221 74.256L393.405 74.712C394.429 74.936 395.205 75.296 395.733 75.792C396.261 76.272 396.525 76.928 396.525 77.76C396.525 78.832 396.101 79.68 395.253 80.304C394.405 80.912 393.277 81.216 391.869 81.216ZM400.448 66.528C399.6 66.528 399.176 66.128 399.176 65.328C399.176 64.544 399.6 64.152 400.448 64.152C401.296 64.152 401.72 64.544 401.72 65.328C401.72 66.128 401.296 66.528 400.448 66.528ZM400.448 81.12C399.808 81.12 399.488 80.768 399.488 80.064V70.248C399.488 69.56 399.808 69.216 400.448 69.216C401.104 69.216 401.432 69.56 401.432 70.248V80.064C401.432 80.768 401.104 81.12 400.448 81.12ZM406.026 81.168C405.386 81.168 405.066 80.832 405.066 80.16V64.896C405.066 64.24 405.386 63.912 406.026 63.912C406.682 63.912 407.01 64.24 407.01 64.896V71.256C407.394 70.552 407.93 70.024 408.618 69.672C409.322 69.304 410.106 69.12 410.97 69.12C413.738 69.12 415.122 70.656 415.122 73.728V80.16C415.122 80.832 414.802 81.168 414.162 81.168C413.506 81.168 413.178 80.832 413.178 80.16V73.848C413.178 72.76 412.962 71.968 412.53 71.472C412.114 70.96 411.442 70.704 410.514 70.704C409.442 70.704 408.586 71.04 407.946 71.712C407.322 72.368 407.01 73.248 407.01 74.352V80.16C407.01 80.832 406.682 81.168 406.026 81.168ZM36.816 114.216C34.096 114.216 32.024 113.448 30.6 111.912C29.176 110.376 28.464 108.256 28.464 105.552C28.464 103.76 28.784 102.216 29.424 100.92C30.064 99.624 30.984 98.624 32.184 97.92C33.384 97.216 34.832 96.864 36.528 96.864C37.536 96.864 38.512 97.008 39.456 97.296C40.4 97.568 41.24 98.008 41.976 98.616C42.2 98.776 42.328 98.976 42.36 99.216C42.392 99.44 42.344 99.656 42.216 99.864C42.104 100.056 41.936 100.184 41.712 100.248C41.504 100.312 41.28 100.264 41.04 100.104C40.384 99.592 39.688 99.224 38.952 99C38.216 98.76 37.4 98.64 36.504 98.64C34.584 98.64 33.112 99.248 32.088 100.464C31.064 101.664 30.552 103.36 30.552 105.552C30.552 107.792 31.08 109.504 32.136 110.688C33.192 111.872 34.768 112.464 36.864 112.464C38.224 112.464 39.528 112.232 40.776 111.768V106.752H37.344C36.768 106.752 36.48 106.488 36.48 105.96C36.48 105.448 36.768 105.192 37.344 105.192H41.64C42.2 105.192 42.48 105.472 42.48 106.032V112.296C42.48 112.792 42.304 113.112 41.952 113.256C41.28 113.544 40.472 113.776 39.528 113.952C38.6 114.128 37.696 114.216 36.816 114.216ZM47.2221 114.168C46.5661 114.168 46.2381 113.832 46.2381 113.16V103.152C46.2381 102.496 46.5501 102.168 47.1741 102.168C47.8141 102.168 48.1341 102.496 48.1341 103.152V104.424C48.4541 103.688 48.9501 103.128 49.6221 102.744C50.2941 102.344 51.0941 102.128 52.0221 102.096C52.5341 102.048 52.8061 102.304 52.8381 102.864C52.8861 103.424 52.5981 103.736 51.9741 103.8L51.5901 103.848C50.4861 103.944 49.6461 104.296 49.0701 104.904C48.4941 105.496 48.2061 106.312 48.2061 107.352V113.16C48.2061 113.832 47.8781 114.168 47.2221 114.168ZM59.547 114.216C58.411 114.216 57.427 113.968 56.595 113.472C55.763 112.976 55.115 112.28 54.651 111.384C54.203 110.472 53.979 109.4 53.979 108.168C53.979 106.936 54.203 105.872 54.651 104.976C55.115 104.064 55.763 103.36 56.595 102.864C57.427 102.368 58.411 102.12 59.547 102.12C60.667 102.12 61.643 102.368 62.475 102.864C63.323 103.36 63.971 104.064 64.419 104.976C64.883 105.872 65.115 106.936 65.115 108.168C65.115 109.4 64.883 110.472 64.419 111.384C63.971 112.28 63.323 112.976 62.475 113.472C61.643 113.968 60.667 114.216 59.547 114.216ZM59.547 112.656C60.635 112.656 61.507 112.272 62.163 111.504C62.819 110.72 63.147 109.608 63.147 108.168C63.147 106.712 62.819 105.6 62.163 104.832C61.507 104.064 60.635 103.68 59.547 103.68C58.443 103.68 57.563 104.064 56.907 104.832C56.267 105.6 55.947 106.712 55.947 108.168C55.947 109.608 56.267 110.72 56.907 111.504C57.563 112.272 58.443 112.656 59.547 112.656ZM71.9029 114.168C71.3109 114.168 70.9029 113.864 70.6789 113.256L67.1029 103.536C66.9429 103.12 66.9429 102.792 67.1029 102.552C67.2789 102.296 67.5509 102.168 67.9189 102.168C68.1589 102.168 68.3509 102.224 68.4949 102.336C68.6549 102.448 68.7829 102.656 68.8789 102.96L71.9509 111.72L75.1189 102.96C75.3109 102.432 75.6709 102.168 76.1989 102.168C76.7109 102.168 77.0629 102.432 77.2549 102.96L80.3749 111.744L83.4949 102.912C83.6069 102.624 83.7349 102.432 83.8789 102.336C84.0389 102.224 84.2389 102.168 84.4789 102.168C84.8629 102.168 85.1109 102.312 85.2229 102.6C85.3349 102.872 85.3189 103.184 85.1749 103.536L81.5989 113.256C81.3589 113.864 80.9509 114.168 80.3749 114.168C79.7829 114.168 79.3829 113.864 79.1749 113.256L76.1509 104.952L73.1269 113.256C72.9029 113.864 72.4949 114.168 71.9029 114.168ZM101.174 114.216C98.9501 114.216 97.2621 113.632 96.1101 112.464C94.9581 111.28 94.3821 109.56 94.3821 107.304V97.92C94.3821 97.248 94.7101 96.912 95.3661 96.912C96.0221 96.912 96.3501 97.248 96.3501 97.92V107.208C96.3501 110.712 97.9581 112.464 101.174 112.464C104.358 112.464 105.95 110.712 105.95 107.208V97.92C105.95 97.248 106.286 96.912 106.958 96.912C107.598 96.912 107.918 97.248 107.918 97.92V107.304C107.918 109.56 107.342 111.28 106.19 112.464C105.054 113.632 103.382 114.216 101.174 114.216ZM112.659 118.488C112.019 118.488 111.699 118.16 111.699 117.504V103.152C111.699 102.496 112.011 102.168 112.635 102.168C113.291 102.168 113.619 102.496 113.619 103.152V104.4C113.955 103.696 114.475 103.144 115.179 102.744C115.883 102.328 116.691 102.12 117.603 102.12C118.643 102.12 119.547 102.368 120.315 102.864C121.099 103.344 121.699 104.04 122.115 104.952C122.547 105.848 122.763 106.92 122.763 108.168C122.763 109.4 122.547 110.472 122.115 111.384C121.699 112.28 121.099 112.976 120.315 113.472C119.547 113.968 118.643 114.216 117.603 114.216C116.707 114.216 115.907 114.016 115.203 113.616C114.499 113.216 113.979 112.664 113.643 111.96V117.504C113.643 118.16 113.315 118.488 112.659 118.488ZM117.195 112.656C118.283 112.656 119.155 112.272 119.811 111.504C120.467 110.72 120.795 109.608 120.795 108.168C120.795 106.712 120.467 105.6 119.811 104.832C119.155 104.064 118.283 103.68 117.195 103.68C116.107 103.68 115.235 104.064 114.579 104.832C113.923 105.6 113.595 106.712 113.595 108.168C113.595 109.608 113.923 110.72 114.579 111.504C115.235 112.272 116.107 112.656 117.195 112.656ZM137.279 114.168C136.623 114.168 136.295 113.824 136.295 113.136V98.784H130.895C130.287 98.784 129.983 98.496 129.983 97.92C129.983 97.36 130.287 97.08 130.895 97.08H143.687C144.295 97.08 144.599 97.36 144.599 97.92C144.599 98.496 144.295 98.784 143.687 98.784H138.287V113.136C138.287 113.824 137.951 114.168 137.279 114.168ZM149.744 114.216C147.904 114.216 146.448 113.68 145.376 112.608C144.304 111.52 143.768 110.048 143.768 108.192C143.768 106.992 144.008 105.936 144.488 105.024C144.968 104.096 145.624 103.384 146.456 102.888C147.304 102.376 148.28 102.12 149.384 102.12C150.968 102.12 152.208 102.632 153.104 103.656C154 104.664 154.448 106.056 154.448 107.832C154.448 108.328 154.168 108.576 153.608 108.576H145.664C145.728 109.904 146.112 110.92 146.816 111.624C147.52 112.312 148.496 112.656 149.744 112.656C150.272 112.656 150.808 112.592 151.352 112.464C151.896 112.32 152.424 112.072 152.936 111.72C153.304 111.48 153.608 111.432 153.848 111.576C154.104 111.72 154.232 111.944 154.232 112.248C154.248 112.536 154.088 112.792 153.752 113.016C153.224 113.4 152.592 113.696 151.856 113.904C151.136 114.112 150.432 114.216 149.744 114.216ZM149.432 103.56C148.328 103.56 147.456 103.904 146.816 104.592C146.176 105.28 145.8 106.184 145.688 107.304H152.768C152.72 106.12 152.408 105.2 151.832 104.544C151.272 103.888 150.472 103.56 149.432 103.56ZM160.934 114.216C160.134 114.216 159.414 114.064 158.774 113.76C158.15 113.44 157.654 113.008 157.286 112.464C156.918 111.92 156.734 111.312 156.734 110.64C156.734 109.792 156.95 109.12 157.382 108.624C157.83 108.128 158.558 107.776 159.566 107.568C160.59 107.344 161.982 107.232 163.742 107.232H164.51V106.488C164.51 105.496 164.302 104.784 163.886 104.352C163.486 103.904 162.838 103.68 161.942 103.68C161.382 103.68 160.814 103.752 160.238 103.896C159.678 104.04 159.094 104.272 158.486 104.592C158.214 104.736 157.982 104.768 157.79 104.688C157.614 104.592 157.486 104.448 157.406 104.256C157.342 104.048 157.342 103.84 157.406 103.632C157.486 103.408 157.646 103.24 157.886 103.128C158.574 102.776 159.262 102.52 159.95 102.36C160.654 102.2 161.318 102.12 161.942 102.12C163.446 102.12 164.558 102.488 165.278 103.224C166.014 103.96 166.382 105.104 166.382 106.656V113.16C166.382 113.832 166.086 114.168 165.494 114.168C164.87 114.168 164.558 113.832 164.558 113.16V111.984C164.254 112.672 163.782 113.216 163.142 113.616C162.518 114.016 161.782 114.216 160.934 114.216ZM161.246 112.752C162.206 112.752 162.99 112.424 163.598 111.768C164.206 111.096 164.51 110.248 164.51 109.224V108.504H163.766C162.47 108.504 161.446 108.568 160.694 108.696C159.958 108.808 159.438 109.016 159.134 109.32C158.846 109.608 158.702 110.008 158.702 110.52C158.702 111.176 158.926 111.712 159.374 112.128C159.838 112.544 160.462 112.752 161.246 112.752ZM170.996 114.168C170.356 114.168 170.036 113.832 170.036 113.16V103.152C170.036 102.496 170.348 102.168 170.972 102.168C171.612 102.168 171.932 102.496 171.932 103.152V104.304C172.284 103.6 172.772 103.064 173.396 102.696C174.02 102.312 174.748 102.12 175.58 102.12C177.404 102.12 178.572 102.912 179.084 104.496C179.436 103.76 179.956 103.184 180.644 102.768C181.332 102.336 182.124 102.12 183.02 102.12C185.612 102.12 186.908 103.656 186.908 106.728V113.16C186.908 113.832 186.58 114.168 185.924 114.168C185.284 114.168 184.964 113.832 184.964 113.16V106.824C184.964 105.752 184.772 104.968 184.388 104.472C184.02 103.96 183.404 103.704 182.54 103.704C181.596 103.704 180.844 104.04 180.284 104.712C179.724 105.384 179.444 106.28 179.444 107.4V113.16C179.444 113.832 179.116 114.168 178.46 114.168C177.82 114.168 177.5 113.832 177.5 113.16V106.824C177.5 105.752 177.308 104.968 176.924 104.472C176.556 103.96 175.94 103.704 175.076 103.704C174.116 103.704 173.356 104.04 172.796 104.712C172.252 105.384 171.98 106.28 171.98 107.4V113.16C171.98 113.832 171.652 114.168 170.996 114.168ZM200.602 99.7734L198.434 105.457H195.762L199.266 96.9375H201.188L200.602 99.7734ZM202.57 105.457L200.402 99.7734L199.816 96.9375H201.738L205.23 105.457H202.57ZM213.727 105.352V108H207.105V105.352H213.727ZM220.594 99.7734L218.426 105.457H215.754L219.258 96.9375H221.18L220.594 99.7734ZM222.562 105.457L220.395 99.7734L219.809 96.9375H221.73L225.223 105.457H222.562Z" fill="black"/>
<path d="M315.376 159C315.112 159 314.908 158.934 314.764 158.802C314.632 158.658 314.566 158.454 314.566 158.19V147.12C314.566 146.856 314.632 146.658 314.764 146.526C314.908 146.382 315.112 146.31 315.376 146.31H318.85C320.902 146.31 322.486 146.85 323.602 147.93C324.718 149.01 325.276 150.582 325.276 152.646C325.276 153.678 325.132 154.59 324.844 155.382C324.568 156.162 324.154 156.822 323.602 157.362C323.05 157.902 322.378 158.31 321.586 158.586C320.794 158.862 319.882 159 318.85 159H315.376ZM316.042 157.74H318.742C319.582 157.74 320.308 157.632 320.92 157.416C321.544 157.2 322.06 156.882 322.468 156.462C322.888 156.042 323.2 155.514 323.404 154.878C323.608 154.23 323.71 153.486 323.71 152.646C323.71 150.954 323.296 149.688 322.468 148.848C321.64 147.996 320.398 147.57 318.742 147.57H316.042V157.74ZM328.447 159.09C328.207 159.09 328.027 159.024 327.907 158.892C327.787 158.748 327.727 158.55 327.727 158.298V150.936C327.727 150.684 327.787 150.492 327.907 150.36C328.027 150.228 328.207 150.162 328.447 150.162C328.675 150.162 328.855 150.228 328.987 150.36C329.119 150.492 329.185 150.684 329.185 150.936V158.298C329.185 158.55 329.119 158.748 328.987 158.892C328.867 159.024 328.687 159.09 328.447 159.09ZM328.447 148.146C328.147 148.146 327.913 148.068 327.745 147.912C327.577 147.744 327.493 147.522 327.493 147.246C327.493 146.958 327.577 146.742 327.745 146.598C327.913 146.442 328.147 146.364 328.447 146.364C328.759 146.364 328.993 146.442 329.149 146.598C329.317 146.742 329.401 146.958 329.401 147.246C329.401 147.522 329.317 147.744 329.149 147.912C328.993 148.068 328.759 148.146 328.447 148.146ZM335.781 162.402C335.145 162.402 334.521 162.324 333.909 162.168C333.309 162.024 332.763 161.79 332.271 161.466C332.127 161.382 332.031 161.28 331.983 161.16C331.947 161.04 331.941 160.92 331.965 160.8C331.989 160.692 332.043 160.59 332.127 160.494C332.211 160.41 332.307 160.356 332.415 160.332C332.535 160.308 332.655 160.326 332.775 160.386C333.303 160.71 333.807 160.932 334.287 161.052C334.767 161.172 335.241 161.232 335.709 161.232C336.561 161.232 337.203 161.004 337.635 160.548C338.079 160.092 338.301 159.432 338.301 158.568V156.534H338.481C338.301 157.23 337.917 157.782 337.329 158.19C336.753 158.598 336.075 158.802 335.295 158.802C334.491 158.802 333.795 158.622 333.207 158.262C332.619 157.89 332.163 157.374 331.839 156.714C331.527 156.054 331.371 155.292 331.371 154.428C331.371 153.78 331.461 153.192 331.641 152.664C331.821 152.124 332.079 151.668 332.415 151.296C332.763 150.912 333.177 150.618 333.657 150.414C334.149 150.198 334.695 150.09 335.295 150.09C336.087 150.09 336.771 150.294 337.347 150.702C337.923 151.098 338.295 151.638 338.463 152.322L338.283 152.538V150.864C338.283 150.624 338.343 150.444 338.463 150.324C338.595 150.192 338.775 150.126 339.003 150.126C339.243 150.126 339.423 150.192 339.543 150.324C339.663 150.444 339.723 150.624 339.723 150.864V158.37C339.723 159.702 339.387 160.704 338.715 161.376C338.055 162.06 337.077 162.402 335.781 162.402ZM335.565 157.614C336.129 157.614 336.615 157.488 337.023 157.236C337.431 156.972 337.743 156.6 337.959 156.12C338.187 155.64 338.301 155.076 338.301 154.428C338.301 153.456 338.055 152.688 337.563 152.124C337.071 151.548 336.405 151.26 335.565 151.26C335.013 151.26 334.533 151.392 334.125 151.656C333.717 151.908 333.399 152.274 333.171 152.754C332.955 153.222 332.847 153.78 332.847 154.428C332.847 155.4 333.093 156.174 333.585 156.75C334.077 157.326 334.737 157.614 335.565 157.614ZM346.094 159.162C345.242 159.162 344.504 158.976 343.88 158.604C343.256 158.232 342.77 157.71 342.422 157.038C342.086 156.354 341.918 155.55 341.918 154.626C341.918 153.93 342.014 153.306 342.206 152.754C342.398 152.19 342.68 151.71 343.052 151.314C343.424 150.918 343.862 150.618 344.366 150.414C344.882 150.198 345.458 150.09 346.094 150.09C346.946 150.09 347.684 150.276 348.308 150.648C348.932 151.02 349.412 151.548 349.748 152.232C350.096 152.904 350.27 153.702 350.27 154.626C350.27 155.322 350.174 155.946 349.982 156.498C349.79 157.05 349.508 157.53 349.136 157.938C348.764 158.334 348.32 158.64 347.804 158.856C347.3 159.06 346.73 159.162 346.094 159.162ZM346.094 157.992C346.634 157.992 347.108 157.86 347.516 157.596C347.924 157.332 348.236 156.948 348.452 156.444C348.68 155.94 348.794 155.334 348.794 154.626C348.794 153.534 348.548 152.7 348.056 152.124C347.576 151.548 346.922 151.26 346.094 151.26C345.542 151.26 345.062 151.392 344.654 151.656C344.258 151.908 343.946 152.286 343.718 152.79C343.502 153.282 343.394 153.894 343.394 154.626C343.394 155.706 343.64 156.54 344.132 157.128C344.624 157.704 345.278 157.992 346.094 157.992Z" fill="black"/>
</svg>
