<svg width="323" height="460" viewBox="0 0 323 460" fill="none" xmlns="http://www.w3.org/2000/svg">
<path d="M280.983 150.023L313.495 295.762L316.122 304.692L278.577 313.672L280.983 150.023Z" fill="white"/>
<path d="M42.8474 150.022L5.8189 305.297L43.7723 315.406L42.8474 150.022Z" fill="white"/>
<rect x="161.275" y="150.024" width="32.3167" height="218.138" transform="rotate(45 161.275 150.024)" fill="white"/>
<rect x="184.123" y="435.667" width="33.5311" height="218.138" transform="rotate(135 184.123 435.667)" fill="white"/>
<rect x="161.186" y="458.604" width="32.3167" height="113.109" transform="rotate(-135 161.186 458.604)" fill="white"/>
<rect x="138.338" y="321.495" width="32.3167" height="113.109" transform="rotate(-45 138.338 321.495)" fill="white"/>
<rect x="292.668" y="281.42" width="32.3167" height="56.5543" transform="rotate(45 292.668 281.42)" fill="white"/>
<rect x="315.516" y="304.271" width="32.3167" height="185.821" transform="rotate(135 315.516 304.271)" fill="white"/>
<path d="M271.389 198.603V208.319L161.274 111.16L51.1602 208.319V198.603" stroke="white" stroke-width="19.4319"/>
<path d="M226.048 66.4662V72.2958L161.275 14L96.502 72.2958V66.4662" stroke="white" stroke-width="19.4319"/>
<path d="M245.48 129.944V137.069L161.275 65.8184L77.0703 137.069V129.944" stroke="white" stroke-width="19.4319"/>
</svg>
