<svg width="281" height="268" viewBox="0 0 281 268" fill="none" xmlns="http://www.w3.org/2000/svg">
<path d="M42.0522 226.216C41.1242 226.216 40.2042 226.08 39.2922 225.808C38.3962 225.536 37.5882 225.112 36.8682 224.536C36.6282 224.376 36.4842 224.184 36.4362 223.96C36.4042 223.72 36.4442 223.504 36.5562 223.312C36.6682 223.12 36.8282 222.992 37.0362 222.928C37.2602 222.864 37.5082 222.92 37.7802 223.096C39.0442 224.008 40.4602 224.464 42.0282 224.464C43.1962 224.464 44.1162 224.136 44.7882 223.48C45.4602 222.824 45.7962 221.96 45.7962 220.888C45.7962 219.784 45.4762 218.88 44.8362 218.176C44.1962 217.472 43.3162 217.12 42.1962 217.12C41.5082 217.12 40.8682 217.248 40.2762 217.504C39.7002 217.76 39.1802 218.168 38.7162 218.728C38.6042 218.856 38.4682 218.968 38.3082 219.064C38.1642 219.144 37.9962 219.184 37.8042 219.184C37.2282 219.184 36.9402 218.904 36.9402 218.344V209.992C36.9402 209.384 37.2442 209.08 37.8522 209.08H46.0122C46.6202 209.08 46.9242 209.36 46.9242 209.92C46.9242 210.48 46.6202 210.76 46.0122 210.76H38.8842V216.808C39.8122 215.88 41.0362 215.416 42.5562 215.416C43.6122 215.416 44.5322 215.64 45.3162 216.088C46.1002 216.536 46.7002 217.168 47.1162 217.984C47.5482 218.784 47.7642 219.72 47.7642 220.792C47.7642 221.848 47.5322 222.784 47.0682 223.6C46.6042 224.416 45.9402 225.056 45.0762 225.52C44.2282 225.984 43.2202 226.216 42.0522 226.216ZM56.0828 226.216C54.1468 226.216 52.6748 225.472 51.6668 223.984C50.6588 222.496 50.1548 220.344 50.1548 217.528C50.1548 214.696 50.6588 212.544 51.6668 211.072C52.6748 209.6 54.1468 208.864 56.0828 208.864C58.0348 208.864 59.5068 209.6 60.4988 211.072C61.5068 212.528 62.0108 214.672 62.0108 217.504C62.0108 220.336 61.4988 222.496 60.4748 223.984C59.4668 225.472 58.0028 226.216 56.0828 226.216ZM56.0828 224.512C57.4268 224.512 58.4188 223.944 59.0588 222.808C59.7148 221.656 60.0428 219.888 60.0428 217.504C60.0428 215.104 59.7228 213.352 59.0828 212.248C58.4428 211.128 57.4428 210.568 56.0828 210.568C54.7388 210.568 53.7388 211.128 53.0828 212.248C52.4428 213.368 52.1228 215.12 52.1228 217.504C52.1228 219.888 52.4428 221.656 53.0828 222.808C53.7388 223.944 54.7388 224.512 56.0828 224.512ZM70.4734 226.216C68.5374 226.216 67.0654 225.472 66.0574 223.984C65.0494 222.496 64.5454 220.344 64.5454 217.528C64.5454 214.696 65.0494 212.544 66.0574 211.072C67.0654 209.6 68.5374 208.864 70.4734 208.864C72.4254 208.864 73.8974 209.6 74.8894 211.072C75.8974 212.528 76.4014 214.672 76.4014 217.504C76.4014 220.336 75.8894 222.496 74.8654 223.984C73.8574 225.472 72.3934 226.216 70.4734 226.216ZM70.4734 224.512C71.8174 224.512 72.8094 223.944 73.4494 222.808C74.1054 221.656 74.4334 219.888 74.4334 217.504C74.4334 215.104 74.1134 213.352 73.4734 212.248C72.8334 211.128 71.8334 210.568 70.4734 210.568C69.1294 210.568 68.1294 211.128 67.4734 212.248C66.8334 213.368 66.5134 215.12 66.5134 217.504C66.5134 219.888 66.8334 221.656 67.4734 222.808C68.1294 223.944 69.1294 224.512 70.4734 224.512ZM84.8641 226.216C82.9281 226.216 81.4561 225.472 80.4481 223.984C79.4401 222.496 78.9361 220.344 78.9361 217.528C78.9361 214.696 79.4401 212.544 80.4481 211.072C81.4561 209.6 82.9281 208.864 84.8641 208.864C86.8161 208.864 88.2881 209.6 89.2801 211.072C90.2881 212.528 90.7921 214.672 90.7921 217.504C90.7921 220.336 90.2801 222.496 89.2561 223.984C88.2481 225.472 86.7841 226.216 84.8641 226.216ZM84.8641 224.512C86.2081 224.512 87.2001 223.944 87.8401 222.808C88.4961 221.656 88.8241 219.888 88.8241 217.504C88.8241 215.104 88.5041 213.352 87.8641 212.248C87.2241 211.128 86.2241 210.568 84.8641 210.568C83.5201 210.568 82.5201 211.128 81.8641 212.248C81.2241 213.368 80.9041 215.12 80.9041 217.504C80.9041 219.888 81.2241 221.656 81.8641 222.808C82.5201 223.944 83.5201 224.512 84.8641 224.512ZM107.434 226.216C105.866 226.216 104.498 225.864 103.33 225.16C102.178 224.44 101.282 223.432 100.642 222.136C100.018 220.84 99.7062 219.304 99.7062 217.528C99.7062 215.752 100.018 214.216 100.642 212.92C101.266 211.624 102.154 210.624 103.306 209.92C104.474 209.216 105.85 208.864 107.434 208.864C109.034 208.864 110.41 209.216 111.562 209.92C112.73 210.624 113.626 211.624 114.25 212.92C114.89 214.2 115.21 215.728 115.21 217.504C115.21 219.28 114.89 220.824 114.25 222.136C113.61 223.432 112.706 224.44 111.538 225.16C110.386 225.864 109.018 226.216 107.434 226.216ZM107.434 224.464C109.242 224.464 110.642 223.856 111.634 222.64C112.626 221.424 113.122 219.72 113.122 217.528C113.122 215.336 112.626 213.64 111.634 212.44C110.642 211.224 109.242 210.616 107.434 210.616C105.658 210.616 104.274 211.224 103.282 212.44C102.29 213.64 101.794 215.336 101.794 217.528C101.794 219.704 102.29 221.408 103.282 222.64C104.274 223.856 105.658 224.464 107.434 224.464ZM119.449 226.168C118.793 226.168 118.465 225.832 118.465 225.16V215.152C118.465 214.496 118.777 214.168 119.401 214.168C120.041 214.168 120.361 214.496 120.361 215.152V216.424C120.681 215.688 121.177 215.128 121.849 214.744C122.521 214.344 123.321 214.128 124.249 214.096C124.761 214.048 125.033 214.304 125.065 214.864C125.113 215.424 124.825 215.736 124.201 215.8L123.817 215.848C122.713 215.944 121.873 216.296 121.297 216.904C120.721 217.496 120.433 218.312 120.433 219.352V225.16C120.433 225.832 120.105 226.168 119.449 226.168ZM130.621 226.216C129.821 226.216 129.101 226.064 128.461 225.76C127.837 225.44 127.341 225.008 126.973 224.464C126.605 223.92 126.421 223.312 126.421 222.64C126.421 221.792 126.637 221.12 127.069 220.624C127.517 220.128 128.245 219.776 129.253 219.568C130.277 219.344 131.669 219.232 133.429 219.232H134.197V218.488C134.197 217.496 133.989 216.784 133.573 216.352C133.173 215.904 132.525 215.68 131.629 215.68C131.069 215.68 130.501 215.752 129.925 215.896C129.365 216.04 128.781 216.272 128.173 216.592C127.901 216.736 127.669 216.768 127.477 216.688C127.301 216.592 127.173 216.448 127.093 216.256C127.029 216.048 127.029 215.84 127.093 215.632C127.173 215.408 127.333 215.24 127.573 215.128C128.261 214.776 128.949 214.52 129.637 214.36C130.341 214.2 131.005 214.12 131.629 214.12C133.133 214.12 134.245 214.488 134.965 215.224C135.701 215.96 136.069 217.104 136.069 218.656V225.16C136.069 225.832 135.773 226.168 135.181 226.168C134.557 226.168 134.245 225.832 134.245 225.16V223.984C133.941 224.672 133.469 225.216 132.829 225.616C132.205 226.016 131.469 226.216 130.621 226.216ZM130.933 224.752C131.893 224.752 132.677 224.424 133.285 223.768C133.893 223.096 134.197 222.248 134.197 221.224V220.504H133.453C132.157 220.504 131.133 220.568 130.381 220.696C129.645 220.808 129.125 221.016 128.821 221.32C128.533 221.608 128.389 222.008 128.389 222.52C128.389 223.176 128.613 223.712 129.061 224.128C129.525 224.544 130.149 224.752 130.933 224.752ZM140.636 226.168C139.996 226.168 139.676 225.832 139.676 225.16V215.152C139.676 214.496 139.988 214.168 140.612 214.168C141.252 214.168 141.572 214.496 141.572 215.152V216.328C141.956 215.592 142.5 215.04 143.204 214.672C143.908 214.304 144.7 214.12 145.58 214.12C148.348 214.12 149.732 215.656 149.732 218.728V225.16C149.732 225.832 149.412 226.168 148.772 226.168C148.116 226.168 147.788 225.832 147.788 225.16V218.848C147.788 217.76 147.572 216.968 147.14 216.472C146.724 215.96 146.052 215.704 145.124 215.704C144.052 215.704 143.196 216.04 142.556 216.712C141.932 217.368 141.62 218.248 141.62 219.352V225.16C141.62 225.832 141.292 226.168 140.636 226.168ZM158.476 230.536C157.628 230.536 156.796 230.432 155.98 230.224C155.18 230.032 154.452 229.72 153.796 229.288C153.556 229.144 153.412 228.968 153.364 228.76C153.332 228.568 153.364 228.376 153.46 228.184C153.556 228.008 153.692 227.88 153.868 227.8C154.06 227.72 154.26 227.736 154.468 227.848C155.172 228.28 155.844 228.576 156.484 228.736C157.124 228.896 157.756 228.976 158.38 228.976C160.684 228.976 161.836 227.792 161.836 225.424V223.36C161.5 224.096 160.972 224.68 160.252 225.112C159.548 225.528 158.74 225.736 157.828 225.736C156.756 225.736 155.828 225.488 155.044 224.992C154.26 224.496 153.652 223.816 153.22 222.952C152.804 222.072 152.596 221.056 152.596 219.904C152.596 218.752 152.804 217.744 153.22 216.88C153.652 216 154.26 215.32 155.044 214.84C155.828 214.36 156.756 214.12 157.828 214.12C158.74 214.12 159.548 214.32 160.252 214.72C160.956 215.12 161.476 215.68 161.812 216.4V215.152C161.812 214.496 162.132 214.168 162.772 214.168C163.412 214.168 163.732 214.496 163.732 215.152V225.16C163.732 226.952 163.284 228.296 162.388 229.192C161.508 230.088 160.204 230.536 158.476 230.536ZM158.188 224.152C159.308 224.152 160.196 223.768 160.852 223C161.508 222.232 161.836 221.2 161.836 219.904C161.836 218.608 161.508 217.584 160.852 216.832C160.196 216.064 159.308 215.68 158.188 215.68C157.084 215.68 156.204 216.064 155.548 216.832C154.892 217.584 154.564 218.608 154.564 219.904C154.564 221.2 154.892 222.232 155.548 223C156.204 223.768 157.084 224.152 158.188 224.152ZM179.302 226.216C178.15 226.216 177.062 226.08 176.038 225.808C175.03 225.52 174.158 225.104 173.422 224.56C173.166 224.384 173.014 224.176 172.966 223.936C172.918 223.696 172.942 223.472 173.038 223.264C173.15 223.056 173.31 222.92 173.518 222.856C173.726 222.776 173.966 222.824 174.238 223C174.958 223.528 175.726 223.904 176.542 224.128C177.358 224.352 178.278 224.464 179.302 224.464C180.742 224.464 181.806 224.2 182.494 223.672C183.198 223.128 183.55 222.416 183.55 221.536C183.55 220.832 183.294 220.272 182.782 219.856C182.286 219.44 181.446 219.112 180.262 218.872L177.766 218.368C176.262 218.048 175.134 217.528 174.382 216.808C173.646 216.072 173.278 215.096 173.278 213.88C173.278 212.872 173.534 211.992 174.046 211.24C174.574 210.488 175.302 209.904 176.23 209.488C177.158 209.072 178.23 208.864 179.446 208.864C180.454 208.864 181.39 209.008 182.254 209.296C183.134 209.568 183.926 209.984 184.63 210.544C184.854 210.72 184.982 210.928 185.014 211.168C185.062 211.392 185.03 211.6 184.918 211.792C184.806 211.984 184.646 212.112 184.438 212.176C184.23 212.224 183.982 212.16 183.694 211.984C183.054 211.488 182.382 211.136 181.678 210.928C180.99 210.72 180.238 210.616 179.422 210.616C178.158 210.616 177.15 210.912 176.398 211.504C175.646 212.08 175.27 212.848 175.27 213.808C175.27 214.576 175.502 215.184 175.966 215.632C176.446 216.08 177.222 216.408 178.294 216.616L180.79 217.144C182.406 217.48 183.598 217.992 184.366 218.68C185.15 219.352 185.542 220.272 185.542 221.44C185.542 222.384 185.286 223.216 184.774 223.936C184.278 224.656 183.558 225.216 182.614 225.616C181.686 226.016 180.582 226.216 179.302 226.216ZM192.46 226.216C189.66 226.216 188.26 224.672 188.26 221.584V215.152C188.26 214.496 188.58 214.168 189.22 214.168C189.876 214.168 190.204 214.496 190.204 215.152V221.56C190.204 222.6 190.412 223.368 190.828 223.864C191.26 224.36 191.932 224.608 192.844 224.608C193.836 224.608 194.644 224.28 195.268 223.624C195.892 222.952 196.204 222.064 196.204 220.96V215.152C196.204 214.496 196.532 214.168 197.188 214.168C197.828 214.168 198.148 214.496 198.148 215.152V225.16C198.148 225.832 197.836 226.168 197.212 226.168C196.572 226.168 196.252 225.832 196.252 225.16V224.032C195.884 224.736 195.364 225.28 194.692 225.664C194.036 226.032 193.292 226.216 192.46 226.216ZM206.225 226.216C205.185 226.216 204.273 225.968 203.489 225.472C202.721 224.976 202.121 224.28 201.689 223.384C201.273 222.472 201.065 221.4 201.065 220.168C201.065 218.92 201.273 217.848 201.689 216.952C202.121 216.04 202.721 215.344 203.489 214.864C204.273 214.368 205.185 214.12 206.225 214.12C207.137 214.12 207.937 214.32 208.625 214.72C209.329 215.12 209.849 215.672 210.185 216.376V209.896C210.185 209.24 210.513 208.912 211.169 208.912C211.809 208.912 212.129 209.24 212.129 209.896V225.16C212.129 225.832 211.809 226.168 211.169 226.168C210.529 226.168 210.209 225.832 210.209 225.16V223.912C209.857 224.632 209.329 225.2 208.625 225.616C207.937 226.016 207.137 226.216 206.225 226.216ZM206.633 224.656C207.721 224.656 208.593 224.272 209.249 223.504C209.905 222.72 210.233 221.608 210.233 220.168C210.233 218.712 209.905 217.6 209.249 216.832C208.593 216.064 207.721 215.68 206.633 215.68C205.529 215.68 204.649 216.064 203.993 216.832C203.353 217.6 203.033 218.712 203.033 220.168C203.033 221.608 203.353 222.72 203.993 223.504C204.649 224.272 205.529 224.656 206.633 224.656ZM219.449 226.216C218.649 226.216 217.929 226.064 217.289 225.76C216.665 225.44 216.169 225.008 215.801 224.464C215.433 223.92 215.249 223.312 215.249 222.64C215.249 221.792 215.465 221.12 215.897 220.624C216.345 220.128 217.073 219.776 218.081 219.568C219.105 219.344 220.497 219.232 222.257 219.232H223.025V218.488C223.025 217.496 222.817 216.784 222.401 216.352C222.001 215.904 221.353 215.68 220.457 215.68C219.897 215.68 219.329 215.752 218.753 215.896C218.193 216.04 217.609 216.272 217.001 216.592C216.729 216.736 216.497 216.768 216.305 216.688C216.129 216.592 216.001 216.448 215.921 216.256C215.857 216.048 215.857 215.84 215.921 215.632C216.001 215.408 216.161 215.24 216.401 215.128C217.089 214.776 217.777 214.52 218.465 214.36C219.169 214.2 219.833 214.12 220.457 214.12C221.961 214.12 223.073 214.488 223.793 215.224C224.529 215.96 224.897 217.104 224.897 218.656V225.16C224.897 225.832 224.601 226.168 224.009 226.168C223.385 226.168 223.073 225.832 223.073 225.16V223.984C222.769 224.672 222.297 225.216 221.657 225.616C221.033 226.016 220.297 226.216 219.449 226.216ZM219.761 224.752C220.721 224.752 221.505 224.424 222.113 223.768C222.721 223.096 223.025 222.248 223.025 221.224V220.504H222.281C220.985 220.504 219.961 220.568 219.209 220.696C218.473 220.808 217.953 221.016 217.649 221.32C217.361 221.608 217.217 222.008 217.217 222.52C217.217 223.176 217.441 223.712 217.889 224.128C218.353 224.544 218.977 224.752 219.761 224.752ZM229.464 226.168C228.824 226.168 228.504 225.832 228.504 225.16V209.896C228.504 209.24 228.824 208.912 229.464 208.912C230.12 208.912 230.448 209.24 230.448 209.896V216.256C230.832 215.552 231.368 215.024 232.056 214.672C232.76 214.304 233.544 214.12 234.408 214.12C237.176 214.12 238.56 215.656 238.56 218.728V225.16C238.56 225.832 238.24 226.168 237.6 226.168C236.944 226.168 236.616 225.832 236.616 225.16V218.848C236.616 217.76 236.4 216.968 235.968 216.472C235.552 215.96 234.88 215.704 233.952 215.704C232.88 215.704 232.024 216.04 231.384 216.712C230.76 217.368 230.448 218.248 230.448 219.352V225.16C230.448 225.832 230.12 226.168 229.464 226.168ZM3.33597 259C2.61597 259 2.25597 258.64 2.25597 257.92V243.16C2.25597 242.44 2.61597 242.08 3.33597 242.08H9.02397C10.768 242.08 12.112 242.472 13.056 243.256C14.016 244.024 14.496 245.104 14.496 246.496C14.496 247.424 14.256 248.216 13.776 248.872C13.296 249.528 12.632 250.008 11.784 250.312C12.76 250.568 13.52 251.04 14.064 251.728C14.624 252.416 14.904 253.288 14.904 254.344C14.904 255.848 14.416 257 13.44 257.8C12.464 258.6 11.088 259 9.31197 259H3.33597ZM4.17597 249.64H8.73597C11.28 249.64 12.552 248.648 12.552 246.664C12.552 244.664 11.28 243.664 8.73597 243.664H4.17597V249.64ZM4.17597 257.416H9.11997C11.68 257.416 12.96 256.384 12.96 254.32C12.96 252.256 11.68 251.224 9.11997 251.224H4.17597V257.416ZM23.4667 259.216C21.6267 259.216 20.1707 258.68 19.0987 257.608C18.0267 256.52 17.4907 255.048 17.4907 253.192C17.4907 251.992 17.7307 250.936 18.2107 250.024C18.6907 249.096 19.3467 248.384 20.1787 247.888C21.0267 247.376 22.0027 247.12 23.1067 247.12C24.6907 247.12 25.9307 247.632 26.8267 248.656C27.7227 249.664 28.1707 251.056 28.1707 252.832C28.1707 253.328 27.8907 253.576 27.3307 253.576H19.3867C19.4507 254.904 19.8347 255.92 20.5387 256.624C21.2427 257.312 22.2187 257.656 23.4667 257.656C23.9947 257.656 24.5307 257.592 25.0747 257.464C25.6187 257.32 26.1467 257.072 26.6587 256.72C27.0267 256.48 27.3307 256.432 27.5707 256.576C27.8267 256.72 27.9547 256.944 27.9547 257.248C27.9707 257.536 27.8107 257.792 27.4747 258.016C26.9467 258.4 26.3147 258.696 25.5787 258.904C24.8587 259.112 24.1547 259.216 23.4667 259.216ZM23.1547 248.56C22.0507 248.56 21.1787 248.904 20.5387 249.592C19.8987 250.28 19.5227 251.184 19.4107 252.304H26.4907C26.4427 251.12 26.1307 250.2 25.5547 249.544C24.9947 248.888 24.1947 248.56 23.1547 248.56ZM31.9682 259.168C31.3122 259.168 30.9842 258.832 30.9842 258.16V248.152C30.9842 247.496 31.2962 247.168 31.9202 247.168C32.5602 247.168 32.8802 247.496 32.8802 248.152V249.424C33.2002 248.688 33.6962 248.128 34.3682 247.744C35.0402 247.344 35.8402 247.128 36.7682 247.096C37.2802 247.048 37.5522 247.304 37.5842 247.864C37.6322 248.424 37.3442 248.736 36.7202 248.8L36.3362 248.848C35.2322 248.944 34.3922 249.296 33.8162 249.904C33.2402 250.496 32.9522 251.312 32.9522 252.352V258.16C32.9522 258.832 32.6242 259.168 31.9682 259.168ZM44.6051 263.536C43.7571 263.536 42.9251 263.432 42.1091 263.224C41.3091 263.032 40.5811 262.72 39.9251 262.288C39.6851 262.144 39.5411 261.968 39.4931 261.76C39.4611 261.568 39.4931 261.376 39.5891 261.184C39.6851 261.008 39.8211 260.88 39.9971 260.8C40.1891 260.72 40.3891 260.736 40.5971 260.848C41.3011 261.28 41.9731 261.576 42.6131 261.736C43.2531 261.896 43.8851 261.976 44.5091 261.976C46.8131 261.976 47.9651 260.792 47.9651 258.424V256.36C47.6291 257.096 47.1011 257.68 46.3811 258.112C45.6771 258.528 44.8691 258.736 43.9571 258.736C42.8851 258.736 41.9571 258.488 41.1731 257.992C40.3891 257.496 39.7811 256.816 39.3491 255.952C38.9331 255.072 38.7251 254.056 38.7251 252.904C38.7251 251.752 38.9331 250.744 39.3491 249.88C39.7811 249 40.3891 248.32 41.1731 247.84C41.9571 247.36 42.8851 247.12 43.9571 247.12C44.8691 247.12 45.6771 247.32 46.3811 247.72C47.0851 248.12 47.6051 248.68 47.9411 249.4V248.152C47.9411 247.496 48.2611 247.168 48.9011 247.168C49.5411 247.168 49.8611 247.496 49.8611 248.152V258.16C49.8611 259.952 49.4131 261.296 48.5171 262.192C47.6371 263.088 46.3331 263.536 44.6051 263.536ZM44.3171 257.152C45.4371 257.152 46.3251 256.768 46.9811 256C47.6371 255.232 47.9651 254.2 47.9651 252.904C47.9651 251.608 47.6371 250.584 46.9811 249.832C46.3251 249.064 45.4371 248.68 44.3171 248.68C43.2131 248.68 42.3331 249.064 41.6771 249.832C41.0211 250.584 40.6931 251.608 40.6931 252.904C40.6931 254.2 41.0211 255.232 41.6771 256C42.3331 256.768 43.2131 257.152 44.3171 257.152ZM57.1796 259.216C56.3796 259.216 55.6596 259.064 55.0196 258.76C54.3956 258.44 53.8996 258.008 53.5316 257.464C53.1636 256.92 52.9796 256.312 52.9796 255.64C52.9796 254.792 53.1956 254.12 53.6276 253.624C54.0756 253.128 54.8036 252.776 55.8116 252.568C56.8356 252.344 58.2276 252.232 59.9876 252.232H60.7556V251.488C60.7556 250.496 60.5476 249.784 60.1316 249.352C59.7316 248.904 59.0836 248.68 58.1876 248.68C57.6276 248.68 57.0596 248.752 56.4836 248.896C55.9236 249.04 55.3396 249.272 54.7316 249.592C54.4596 249.736 54.2276 249.768 54.0356 249.688C53.8596 249.592 53.7316 249.448 53.6516 249.256C53.5876 249.048 53.5876 248.84 53.6516 248.632C53.7316 248.408 53.8916 248.24 54.1316 248.128C54.8196 247.776 55.5076 247.52 56.1956 247.36C56.8996 247.2 57.5636 247.12 58.1876 247.12C59.6916 247.12 60.8036 247.488 61.5236 248.224C62.2596 248.96 62.6276 250.104 62.6276 251.656V258.16C62.6276 258.832 62.3316 259.168 61.7396 259.168C61.1156 259.168 60.8036 258.832 60.8036 258.16V256.984C60.4996 257.672 60.0276 258.216 59.3876 258.616C58.7636 259.016 58.0276 259.216 57.1796 259.216ZM57.4916 257.752C58.4516 257.752 59.2356 257.424 59.8436 256.768C60.4516 256.096 60.7556 255.248 60.7556 254.224V253.504H60.0116C58.7156 253.504 57.6916 253.568 56.9396 253.696C56.2036 253.808 55.6836 254.016 55.3796 254.32C55.0916 254.608 54.9476 255.008 54.9476 255.52C54.9476 256.176 55.1716 256.712 55.6196 257.128C56.0836 257.544 56.7076 257.752 57.4916 257.752ZM72.1382 259.216C71.2262 259.216 70.4182 259.016 69.7142 258.616C69.0102 258.2 68.4902 257.632 68.1542 256.912V258.16C68.1542 258.832 67.8342 259.168 67.1942 259.168C66.5542 259.168 66.2342 258.832 66.2342 258.16V242.896C66.2342 242.24 66.5542 241.912 67.1942 241.912C67.8502 241.912 68.1782 242.24 68.1782 242.896V249.352C68.5142 248.664 69.0342 248.12 69.7382 247.72C70.4422 247.32 71.2422 247.12 72.1382 247.12C73.1782 247.12 74.0822 247.368 74.8502 247.864C75.6342 248.344 76.2342 249.04 76.6502 249.952C77.0822 250.848 77.2982 251.92 77.2982 253.168C77.2982 254.4 77.0822 255.472 76.6502 256.384C76.2342 257.28 75.6342 257.976 74.8502 258.472C74.0822 258.968 73.1782 259.216 72.1382 259.216ZM71.7302 257.656C72.8182 257.656 73.6902 257.272 74.3462 256.504C75.0022 255.72 75.3302 254.608 75.3302 253.168C75.3302 251.712 75.0022 250.6 74.3462 249.832C73.6902 249.064 72.8182 248.68 71.7302 248.68C70.6422 248.68 69.7702 249.064 69.1142 249.832C68.4582 250.6 68.1302 251.712 68.1302 253.168C68.1302 254.608 68.4582 255.72 69.1142 256.504C69.7702 257.272 70.6422 257.656 71.7302 257.656ZM84.3543 259.216C81.5543 259.216 80.1543 257.672 80.1543 254.584V248.152C80.1543 247.496 80.4743 247.168 81.1143 247.168C81.7703 247.168 82.0983 247.496 82.0983 248.152V254.56C82.0983 255.6 82.3063 256.368 82.7223 256.864C83.1543 257.36 83.8263 257.608 84.7383 257.608C85.7303 257.608 86.5383 257.28 87.1623 256.624C87.7863 255.952 88.0983 255.064 88.0983 253.96V248.152C88.0983 247.496 88.4263 247.168 89.0823 247.168C89.7223 247.168 90.0423 247.496 90.0423 248.152V258.16C90.0423 258.832 89.7303 259.168 89.1063 259.168C88.4663 259.168 88.1463 258.832 88.1463 258.16V257.032C87.7783 257.736 87.2583 258.28 86.5863 258.664C85.9303 259.032 85.1863 259.216 84.3543 259.216ZM94.6395 259.168C93.9995 259.168 93.6795 258.832 93.6795 258.16V248.152C93.6795 247.496 93.9915 247.168 94.6155 247.168C95.2555 247.168 95.5755 247.496 95.5755 248.152V249.328C95.9595 248.592 96.5035 248.04 97.2075 247.672C97.9115 247.304 98.7035 247.12 99.5835 247.12C102.351 247.12 103.735 248.656 103.735 251.728V258.16C103.735 258.832 103.415 259.168 102.775 259.168C102.119 259.168 101.791 258.832 101.791 258.16V251.848C101.791 250.76 101.575 249.968 101.143 249.472C100.727 248.96 100.055 248.704 99.1275 248.704C98.0555 248.704 97.1995 249.04 96.5595 249.712C95.9355 250.368 95.6235 251.248 95.6235 252.352V258.16C95.6235 258.832 95.2955 259.168 94.6395 259.168ZM112.48 263.536C111.632 263.536 110.8 263.432 109.984 263.224C109.184 263.032 108.456 262.72 107.8 262.288C107.56 262.144 107.416 261.968 107.368 261.76C107.336 261.568 107.368 261.376 107.464 261.184C107.56 261.008 107.696 260.88 107.872 260.8C108.064 260.72 108.264 260.736 108.472 260.848C109.176 261.28 109.848 261.576 110.488 261.736C111.128 261.896 111.76 261.976 112.384 261.976C114.688 261.976 115.84 260.792 115.84 258.424V256.36C115.504 257.096 114.976 257.68 114.256 258.112C113.552 258.528 112.744 258.736 111.832 258.736C110.76 258.736 109.832 258.488 109.048 257.992C108.264 257.496 107.656 256.816 107.224 255.952C106.808 255.072 106.6 254.056 106.6 252.904C106.6 251.752 106.808 250.744 107.224 249.88C107.656 249 108.264 248.32 109.048 247.84C109.832 247.36 110.76 247.12 111.832 247.12C112.744 247.12 113.552 247.32 114.256 247.72C114.96 248.12 115.48 248.68 115.816 249.4V248.152C115.816 247.496 116.136 247.168 116.776 247.168C117.416 247.168 117.736 247.496 117.736 248.152V258.16C117.736 259.952 117.288 261.296 116.392 262.192C115.512 263.088 114.208 263.536 112.48 263.536ZM112.192 257.152C113.312 257.152 114.2 256.768 114.856 256C115.512 255.232 115.84 254.2 115.84 252.904C115.84 251.608 115.512 250.584 114.856 249.832C114.2 249.064 113.312 248.68 112.192 248.68C111.088 248.68 110.208 249.064 109.552 249.832C108.896 250.584 108.568 251.608 108.568 252.904C108.568 254.2 108.896 255.232 109.552 256C110.208 256.768 111.088 257.152 112.192 257.152ZM128.914 259C128.194 259 127.834 258.64 127.834 257.92V243.16C127.834 242.44 128.194 242.08 128.914 242.08H134.602C136.346 242.08 137.69 242.472 138.634 243.256C139.594 244.024 140.074 245.104 140.074 246.496C140.074 247.424 139.834 248.216 139.354 248.872C138.874 249.528 138.21 250.008 137.362 250.312C138.338 250.568 139.098 251.04 139.642 251.728C140.202 252.416 140.482 253.288 140.482 254.344C140.482 255.848 139.994 257 139.018 257.8C138.042 258.6 136.666 259 134.89 259H128.914ZM129.754 249.64H134.314C136.858 249.64 138.13 248.648 138.13 246.664C138.13 244.664 136.858 243.664 134.314 243.664H129.754V249.64ZM129.754 257.416H134.698C137.258 257.416 138.538 256.384 138.538 254.32C138.538 252.256 137.258 251.224 134.698 251.224H129.754V257.416ZM149.045 259.216C147.205 259.216 145.749 258.68 144.677 257.608C143.605 256.52 143.069 255.048 143.069 253.192C143.069 251.992 143.309 250.936 143.789 250.024C144.269 249.096 144.925 248.384 145.757 247.888C146.605 247.376 147.581 247.12 148.685 247.12C150.269 247.12 151.509 247.632 152.405 248.656C153.301 249.664 153.749 251.056 153.749 252.832C153.749 253.328 153.469 253.576 152.909 253.576H144.965C145.029 254.904 145.413 255.92 146.117 256.624C146.821 257.312 147.797 257.656 149.045 257.656C149.573 257.656 150.109 257.592 150.653 257.464C151.197 257.32 151.725 257.072 152.237 256.72C152.605 256.48 152.909 256.432 153.149 256.576C153.405 256.72 153.533 256.944 153.533 257.248C153.549 257.536 153.389 257.792 153.053 258.016C152.525 258.4 151.893 258.696 151.157 258.904C150.437 259.112 149.733 259.216 149.045 259.216ZM148.733 248.56C147.629 248.56 146.757 248.904 146.117 249.592C145.477 250.28 145.101 251.184 144.989 252.304H152.069C152.021 251.12 151.709 250.2 151.133 249.544C150.573 248.888 149.773 248.56 148.733 248.56ZM157.546 259.168C156.89 259.168 156.562 258.832 156.562 258.16V248.152C156.562 247.496 156.874 247.168 157.498 247.168C158.138 247.168 158.458 247.496 158.458 248.152V249.424C158.778 248.688 159.274 248.128 159.946 247.744C160.618 247.344 161.418 247.128 162.346 247.096C162.858 247.048 163.13 247.304 163.162 247.864C163.21 248.424 162.922 248.736 162.298 248.8L161.914 248.848C160.81 248.944 159.97 249.296 159.394 249.904C158.818 250.496 158.53 251.312 158.53 252.352V258.16C158.53 258.832 158.202 259.168 157.546 259.168ZM168.983 259.216C168.263 259.216 167.535 259.128 166.799 258.952C166.079 258.76 165.407 258.456 164.783 258.04C164.495 257.864 164.351 257.64 164.351 257.368C164.367 257.08 164.479 256.856 164.687 256.696C164.895 256.536 165.159 256.536 165.479 256.696C166.103 257.08 166.703 257.352 167.279 257.512C167.871 257.656 168.455 257.728 169.031 257.728C169.943 257.728 170.631 257.56 171.095 257.224C171.559 256.888 171.791 256.432 171.791 255.856C171.791 255.408 171.639 255.056 171.335 254.8C171.031 254.528 170.551 254.32 169.895 254.176L167.711 253.696C165.727 253.264 164.735 252.24 164.735 250.624C164.735 249.568 165.151 248.72 165.983 248.08C166.831 247.44 167.935 247.12 169.295 247.12C169.983 247.12 170.647 247.216 171.287 247.408C171.927 247.584 172.503 247.872 173.015 248.272C173.287 248.464 173.407 248.696 173.375 248.968C173.343 249.24 173.215 249.456 172.991 249.616C172.783 249.76 172.527 249.736 172.223 249.544C171.743 249.224 171.255 248.992 170.759 248.848C170.263 248.688 169.775 248.608 169.295 248.608C168.399 248.608 167.719 248.784 167.255 249.136C166.791 249.488 166.559 249.952 166.559 250.528C166.559 251.424 167.151 252 168.335 252.256L170.519 252.712C171.543 252.936 172.319 253.296 172.847 253.792C173.375 254.272 173.639 254.928 173.639 255.76C173.639 256.832 173.215 257.68 172.367 258.304C171.519 258.912 170.391 259.216 168.983 259.216ZM180.273 259.216C179.473 259.216 178.753 259.064 178.113 258.76C177.489 258.44 176.993 258.008 176.625 257.464C176.257 256.92 176.073 256.312 176.073 255.64C176.073 254.792 176.289 254.12 176.721 253.624C177.169 253.128 177.897 252.776 178.905 252.568C179.929 252.344 181.321 252.232 183.081 252.232H183.849V251.488C183.849 250.496 183.641 249.784 183.225 249.352C182.825 248.904 182.177 248.68 181.281 248.68C180.721 248.68 180.153 248.752 179.577 248.896C179.017 249.04 178.433 249.272 177.825 249.592C177.553 249.736 177.321 249.768 177.129 249.688C176.953 249.592 176.825 249.448 176.745 249.256C176.681 249.048 176.681 248.84 176.745 248.632C176.825 248.408 176.985 248.24 177.225 248.128C177.913 247.776 178.601 247.52 179.289 247.36C179.993 247.2 180.657 247.12 181.281 247.12C182.785 247.12 183.897 247.488 184.617 248.224C185.353 248.96 185.721 250.104 185.721 251.656V258.16C185.721 258.832 185.425 259.168 184.833 259.168C184.209 259.168 183.897 258.832 183.897 258.16V256.984C183.593 257.672 183.121 258.216 182.481 258.616C181.857 259.016 181.121 259.216 180.273 259.216ZM180.585 257.752C181.545 257.752 182.329 257.424 182.937 256.768C183.545 256.096 183.849 255.248 183.849 254.224V253.504H183.105C181.809 253.504 180.785 253.568 180.033 253.696C179.297 253.808 178.777 254.016 178.473 254.32C178.185 254.608 178.041 255.008 178.041 255.52C178.041 256.176 178.265 256.712 178.713 257.128C179.177 257.544 179.801 257.752 180.585 257.752ZM190.336 259.168C189.696 259.168 189.376 258.832 189.376 258.16V248.152C189.376 247.496 189.688 247.168 190.312 247.168C190.952 247.168 191.272 247.496 191.272 248.152V249.304C191.624 248.6 192.112 248.064 192.736 247.696C193.36 247.312 194.088 247.12 194.92 247.12C196.744 247.12 197.912 247.912 198.424 249.496C198.776 248.76 199.296 248.184 199.984 247.768C200.672 247.336 201.464 247.12 202.36 247.12C204.952 247.12 206.248 248.656 206.248 251.728V258.16C206.248 258.832 205.92 259.168 205.264 259.168C204.624 259.168 204.304 258.832 204.304 258.16V251.824C204.304 250.752 204.112 249.968 203.728 249.472C203.36 248.96 202.744 248.704 201.88 248.704C200.936 248.704 200.184 249.04 199.624 249.712C199.064 250.384 198.784 251.28 198.784 252.4V258.16C198.784 258.832 198.456 259.168 197.8 259.168C197.16 259.168 196.84 258.832 196.84 258.16V251.824C196.84 250.752 196.648 249.968 196.264 249.472C195.896 248.96 195.28 248.704 194.416 248.704C193.456 248.704 192.696 249.04 192.136 249.712C191.592 250.384 191.32 251.28 191.32 252.4V258.16C191.32 258.832 190.992 259.168 190.336 259.168ZM213.555 259.216C212.755 259.216 212.035 259.064 211.395 258.76C210.771 258.44 210.275 258.008 209.907 257.464C209.539 256.92 209.355 256.312 209.355 255.64C209.355 254.792 209.571 254.12 210.003 253.624C210.451 253.128 211.179 252.776 212.187 252.568C213.211 252.344 214.603 252.232 216.363 252.232H217.131V251.488C217.131 250.496 216.923 249.784 216.507 249.352C216.107 248.904 215.459 248.68 214.563 248.68C214.003 248.68 213.435 248.752 212.859 248.896C212.299 249.04 211.715 249.272 211.107 249.592C210.835 249.736 210.603 249.768 210.411 249.688C210.235 249.592 210.107 249.448 210.027 249.256C209.963 249.048 209.963 248.84 210.027 248.632C210.107 248.408 210.267 248.24 210.507 248.128C211.195 247.776 211.883 247.52 212.571 247.36C213.275 247.2 213.939 247.12 214.563 247.12C216.067 247.12 217.179 247.488 217.899 248.224C218.635 248.96 219.003 250.104 219.003 251.656V258.16C219.003 258.832 218.707 259.168 218.115 259.168C217.491 259.168 217.179 258.832 217.179 258.16V256.984C216.875 257.672 216.403 258.216 215.763 258.616C215.139 259.016 214.403 259.216 213.555 259.216ZM213.867 257.752C214.827 257.752 215.611 257.424 216.219 256.768C216.827 256.096 217.131 255.248 217.131 254.224V253.504H216.387C215.091 253.504 214.067 253.568 213.315 253.696C212.579 253.808 212.059 254.016 211.755 254.32C211.467 254.608 211.323 255.008 211.323 255.52C211.323 256.176 211.547 256.712 211.995 257.128C212.459 257.544 213.083 257.752 213.867 257.752ZM230.045 259.168C229.389 259.168 229.061 258.824 229.061 258.136V242.92C229.061 242.248 229.389 241.912 230.045 241.912C230.701 241.912 231.029 242.248 231.029 242.92V249.76H231.077L238.901 242.464C239.285 242.096 239.685 241.912 240.101 241.912C240.533 241.912 240.789 242.072 240.869 242.392C240.965 242.696 240.869 242.984 240.581 243.256L232.973 250.288L240.965 257.68C241.317 258.016 241.429 258.352 241.301 258.688C241.173 259.008 240.893 259.168 240.461 259.168C240.221 259.168 240.013 259.112 239.837 259C239.677 258.904 239.493 258.752 239.285 258.544L231.077 251.032H231.029V258.136C231.029 258.824 230.701 259.168 230.045 259.168ZM247.469 259.216C246.669 259.216 245.949 259.064 245.309 258.76C244.685 258.44 244.189 258.008 243.821 257.464C243.453 256.92 243.269 256.312 243.269 255.64C243.269 254.792 243.485 254.12 243.917 253.624C244.365 253.128 245.093 252.776 246.101 252.568C247.125 252.344 248.517 252.232 250.277 252.232H251.045V251.488C251.045 250.496 250.837 249.784 250.421 249.352C250.021 248.904 249.373 248.68 248.477 248.68C247.917 248.68 247.349 248.752 246.773 248.896C246.213 249.04 245.629 249.272 245.021 249.592C244.749 249.736 244.517 249.768 244.325 249.688C244.149 249.592 244.021 249.448 243.941 249.256C243.877 249.048 243.877 248.84 243.941 248.632C244.021 248.408 244.181 248.24 244.421 248.128C245.109 247.776 245.797 247.52 246.485 247.36C247.189 247.2 247.853 247.12 248.477 247.12C249.981 247.12 251.093 247.488 251.813 248.224C252.549 248.96 252.917 250.104 252.917 251.656V258.16C252.917 258.832 252.621 259.168 252.029 259.168C251.405 259.168 251.093 258.832 251.093 258.16V256.984C250.789 257.672 250.317 258.216 249.677 258.616C249.053 259.016 248.317 259.216 247.469 259.216ZM247.781 257.752C248.741 257.752 249.525 257.424 250.133 256.768C250.741 256.096 251.045 255.248 251.045 254.224V253.504H250.301C249.005 253.504 247.981 253.568 247.229 253.696C246.493 253.808 245.973 254.016 245.669 254.32C245.381 254.608 245.237 255.008 245.237 255.52C245.237 256.176 245.461 256.712 245.909 257.128C246.373 257.544 246.997 257.752 247.781 257.752ZM257.531 259.168C256.891 259.168 256.571 258.832 256.571 258.16V248.152C256.571 247.496 256.883 247.168 257.507 247.168C258.147 247.168 258.467 247.496 258.467 248.152V249.304C258.819 248.6 259.307 248.064 259.931 247.696C260.555 247.312 261.283 247.12 262.115 247.12C263.939 247.12 265.107 247.912 265.619 249.496C265.971 248.76 266.491 248.184 267.179 247.768C267.867 247.336 268.659 247.12 269.555 247.12C272.147 247.12 273.443 248.656 273.443 251.728V258.16C273.443 258.832 273.115 259.168 272.459 259.168C271.819 259.168 271.499 258.832 271.499 258.16V251.824C271.499 250.752 271.307 249.968 270.923 249.472C270.555 248.96 269.939 248.704 269.075 248.704C268.131 248.704 267.379 249.04 266.819 249.712C266.259 250.384 265.979 251.28 265.979 252.4V258.16C265.979 258.832 265.651 259.168 264.995 259.168C264.355 259.168 264.035 258.832 264.035 258.16V251.824C264.035 250.752 263.843 249.968 263.459 249.472C263.091 248.96 262.475 248.704 261.611 248.704C260.651 248.704 259.891 249.04 259.331 249.712C258.787 250.384 258.515 251.28 258.515 252.4V258.16C258.515 258.832 258.187 259.168 257.531 259.168ZM278.038 244.528C277.19 244.528 276.766 244.128 276.766 243.328C276.766 242.544 277.19 242.152 278.038 242.152C278.886 242.152 279.31 242.544 279.31 243.328C279.31 244.128 278.886 244.528 278.038 244.528ZM278.038 259.12C277.398 259.12 277.078 258.768 277.078 258.064V248.248C277.078 247.56 277.398 247.216 278.038 247.216C278.694 247.216 279.022 247.56 279.022 248.248V258.064C279.022 258.768 278.694 259.12 278.038 259.12Z" fill="black"/>
<rect x="73" y="32.355" width="139.803" height="111.02" rx="10" fill="#8EE7E8"/>
<path d="M183.863 3.87752C182.84 2.64824 181.626 1.67308 180.289 1.00776C178.953 0.342441 177.52 0 176.073 0C174.627 0 173.194 0.342441 171.857 1.00776C170.521 1.67308 169.307 2.64824 168.284 3.87752L166.161 6.42754L164.039 3.87752C161.973 1.39561 159.171 0.00128646 156.249 0.00128649C153.328 0.00128651 150.526 1.39561 148.46 3.87752C146.394 6.35944 145.233 9.72563 145.233 13.2356C145.233 16.7455 146.394 20.1117 148.46 22.5937L150.582 25.1437L166.161 43.8598L181.74 25.1437L183.863 22.5937C184.886 21.3649 185.698 19.9061 186.251 18.3004C186.805 16.6947 187.09 14.9737 187.09 13.2356C187.09 11.4975 186.805 9.77648 186.251 8.1708C185.698 6.56511 184.886 5.10624 183.863 3.87752Z" fill="#FA2424"/>
<circle cx="140.764" cy="70.7309" r="22.7941" stroke="black" stroke-width="5"/>
<path d="M110.748 126.682H179.403C145.076 83.0763 139.354 83.565 110.748 126.682Z" stroke="black" stroke-width="5" stroke-linecap="round" stroke-linejoin="round"/>
<circle cx="140.63" cy="71.6151" r="21.7752" stroke="black" stroke-width="1.68"/>
<circle cx="151.032" cy="64.3782" r="2.26152" fill="black"/>
<circle cx="130.227" cy="64.3782" r="2.26152" fill="black"/>
<path d="M131.131 78.8519C131.131 78.8519 137.934 82.0181 141.986 82.0181C144.926 82.0181 151.032 78.8519 151.032 78.8519" stroke="#81CAD8" stroke-width="1.68" stroke-linecap="round" stroke-linejoin="round"/>
<path d="M144.686 177.399L120.015 141.763H167.986L144.686 177.399Z" fill="#8EE7E8"/>
</svg>
