<svg width="402" height="426" viewBox="0 0 402 426" fill="none" xmlns="http://www.w3.org/2000/svg">
<mask id="mask0_452_79" style="mask-type:alpha" maskUnits="userSpaceOnUse" x="37" y="61" width="303" height="303">
<circle cx="188.794" cy="212.794" r="151.159" transform="rotate(-140.48 188.794 212.794)" fill="#AAE9EA"/>
</mask>
<g mask="url(#mask0_452_79)">
<rect x="188.154" y="457.289" width="13.5384" height="378.512" transform="rotate(-140.48 188.154 457.289)" fill="#AAE9EA"/>
<rect x="48.9082" y="342.421" width="13.5384" height="378.512" transform="rotate(-140.48 48.9082 342.421)" fill="#AAE9EA"/>
<rect x="118.529" y="399.855" width="13.5384" height="378.512" transform="rotate(-140.48 118.529 399.855)" fill="#AAE9EA"/>
<rect x="-20.7168" y="284.986" width="13.5384" height="378.512" transform="rotate(-140.48 -20.7168 284.986)" fill="#AAE9EA"/>
<rect x="153.344" y="428.573" width="13.5384" height="378.512" transform="rotate(-140.48 153.344 428.573)" fill="#AAE9EA"/>
<rect x="14.0957" y="313.704" width="13.5384" height="378.512" transform="rotate(-140.48 14.0957 313.704)" fill="#AAE9EA"/>
<rect x="83.7207" y="371.138" width="13.5384" height="378.512" transform="rotate(-140.48 83.7207 371.138)" fill="#AAE9EA"/>
<rect x="-34.5645" y="260.939" width="13.5384" height="378.512" transform="rotate(-140.48 -34.5645 260.939)" fill="#AAE9EA"/>
<rect x="170.75" y="442.931" width="13.5384" height="378.512" transform="rotate(-140.48 170.75 442.931)" fill="#AAE9EA"/>
<rect x="31.5" y="328.062" width="13.5384" height="378.512" transform="rotate(-140.48 31.5 328.062)" fill="#AAE9EA"/>
<rect x="101.125" y="385.497" width="13.5384" height="378.512" transform="rotate(-140.48 101.125 385.497)" fill="#AAE9EA"/>
<rect x="-38.123" y="270.628" width="13.5384" height="378.512" transform="rotate(-140.48 -38.123 270.628)" fill="#AAE9EA"/>
<rect x="135.938" y="414.213" width="13.5384" height="378.512" transform="rotate(-140.48 135.938 414.213)" fill="#AAE9EA"/>
<rect x="-3.31055" y="299.345" width="13.5384" height="378.512" transform="rotate(-140.48 -3.31055 299.345)" fill="#AAE9EA"/>
<rect x="66.3125" y="356.779" width="13.5384" height="378.512" transform="rotate(-140.48 66.3125 356.779)" fill="#AAE9EA"/>
<rect x="-40.1797" y="249.205" width="13.5384" height="378.512" transform="rotate(-140.48 -40.1797 249.205)" fill="#AAE9EA"/>
</g>
</svg>
