<svg width="238" height="271" viewBox="0 0 238 271" fill="none" xmlns="http://www.w3.org/2000/svg">
<path d="M16.6294 219.945C17.6054 220.201 18.3574 220.681 18.8854 221.385C19.4294 222.089 19.7014 222.969 19.7014 224.025C19.7014 225.513 19.2134 226.657 18.2374 227.457C17.2614 228.241 15.8774 228.633 14.0854 228.633H8.03741C7.73341 228.633 7.48541 228.545 7.29341 228.369C7.11741 228.193 7.02941 227.961 7.02941 227.673V212.673C7.02941 212.385 7.11741 212.153 7.29341 211.977C7.48541 211.801 7.73341 211.713 8.03741 211.713H13.8214C15.5654 211.713 16.9174 212.097 17.8774 212.865C18.8374 213.633 19.3174 214.721 19.3174 216.129C19.3174 217.041 19.0774 217.825 18.5974 218.481C18.1334 219.137 17.4774 219.625 16.6294 219.945ZM8.97341 219.225H13.5334C14.7974 219.225 15.7494 218.969 16.3894 218.457C17.0454 217.945 17.3734 217.201 17.3734 216.225C17.3734 214.305 16.0934 213.345 13.5334 213.345H8.97341V219.225ZM13.8934 227.001C15.2214 227.001 16.1974 226.761 16.8214 226.281C17.4614 225.785 17.7814 225.017 17.7814 223.977C17.7814 221.897 16.4854 220.857 13.8934 220.857H8.97341V227.001H13.8934ZM31.9613 225.921C32.1373 225.921 32.2893 225.993 32.4173 226.137C32.5453 226.281 32.6093 226.465 32.6093 226.689C32.6093 227.089 32.3293 227.457 31.7693 227.793C31.1933 228.129 30.5853 228.385 29.9453 228.561C29.3053 228.721 28.6813 228.801 28.0733 228.801C26.2653 228.801 24.8333 228.265 23.7773 227.193C22.7373 226.121 22.2173 224.641 22.2173 222.753C22.2173 221.553 22.4493 220.497 22.9133 219.585C23.3773 218.657 24.0253 217.937 24.8573 217.425C25.7053 216.913 26.6653 216.657 27.7373 216.657C29.2573 216.657 30.4653 217.153 31.3613 218.145C32.2573 219.137 32.7053 220.481 32.7053 222.177C32.7053 222.497 32.6413 222.729 32.5133 222.873C32.3853 223.017 32.1773 223.089 31.8893 223.089H24.1613C24.3053 225.841 25.6093 227.217 28.0733 227.217C28.6973 227.217 29.2333 227.137 29.6813 226.977C30.1293 226.801 30.6093 226.569 31.1213 226.281C31.5373 226.041 31.8173 225.921 31.9613 225.921ZM27.7613 218.169C26.7373 218.169 25.9133 218.489 25.2893 219.129C24.6813 219.769 24.3213 220.673 24.2093 221.841H31.0013C30.9693 220.657 30.6733 219.753 30.1133 219.129C29.5533 218.489 28.7693 218.169 27.7613 218.169ZM44.9055 227.097C45.1615 227.337 45.2895 227.593 45.2895 227.865C45.2895 228.105 45.2015 228.313 45.0255 228.489C44.8655 228.665 44.6655 228.753 44.4255 228.753C44.2175 228.753 44.0015 228.657 43.7775 228.465L37.5135 223.065V227.793C37.5135 228.097 37.4175 228.337 37.2255 228.513C37.0495 228.673 36.8255 228.753 36.5535 228.753C36.2655 228.753 36.0255 228.673 35.8335 228.513C35.6575 228.337 35.5695 228.097 35.5695 227.793V212.553C35.5695 212.249 35.6575 212.017 35.8335 211.857C36.0255 211.681 36.2655 211.593 36.5535 211.593C36.8255 211.593 37.0495 211.681 37.2255 211.857C37.4175 212.017 37.5135 212.249 37.5135 212.553V222.297L43.2495 217.041C43.4415 216.849 43.6575 216.753 43.8975 216.753C44.1375 216.753 44.3455 216.841 44.5215 217.017C44.6975 217.193 44.7855 217.401 44.7855 217.641C44.7855 217.913 44.6735 218.153 44.4495 218.361L39.7215 222.585L44.9055 227.097ZM56.4066 225.921C56.5826 225.921 56.7346 225.993 56.8626 226.137C56.9906 226.281 57.0546 226.465 57.0546 226.689C57.0546 227.089 56.7746 227.457 56.2146 227.793C55.6386 228.129 55.0306 228.385 54.3906 228.561C53.7506 228.721 53.1266 228.801 52.5186 228.801C50.7106 228.801 49.2786 228.265 48.2226 227.193C47.1826 226.121 46.6626 224.641 46.6626 222.753C46.6626 221.553 46.8946 220.497 47.3586 219.585C47.8226 218.657 48.4706 217.937 49.3026 217.425C50.1506 216.913 51.1106 216.657 52.1826 216.657C53.7026 216.657 54.9106 217.153 55.8066 218.145C56.7026 219.137 57.1506 220.481 57.1506 222.177C57.1506 222.497 57.0866 222.729 56.9586 222.873C56.8306 223.017 56.6226 223.089 56.3346 223.089H48.6066C48.7506 225.841 50.0546 227.217 52.5186 227.217C53.1426 227.217 53.6786 227.137 54.1266 226.977C54.5746 226.801 55.0546 226.569 55.5666 226.281C55.9826 226.041 56.2626 225.921 56.4066 225.921ZM52.2066 218.169C51.1826 218.169 50.3586 218.489 49.7346 219.129C49.1266 219.769 48.7666 220.673 48.6546 221.841H55.4466C55.4146 220.657 55.1186 219.753 54.5586 219.129C53.9986 218.489 53.2146 218.169 52.2066 218.169ZM65.7988 216.705C66.4708 216.657 66.8068 216.929 66.8068 217.521C66.8068 217.777 66.7348 217.985 66.5908 218.145C66.4468 218.289 66.1988 218.377 65.8468 218.409L65.1268 218.481C64.0548 218.577 63.2548 218.961 62.7268 219.633C62.2148 220.289 61.9588 221.065 61.9588 221.961V227.793C61.9588 228.113 61.8708 228.353 61.6948 228.513C61.5188 228.673 61.2868 228.753 60.9988 228.753C60.7108 228.753 60.4708 228.673 60.2788 228.513C60.1028 228.337 60.0148 228.097 60.0148 227.793V217.665C60.0148 217.361 60.1108 217.129 60.3028 216.969C60.4948 216.793 60.7268 216.705 60.9988 216.705C61.2548 216.705 61.4708 216.793 61.6468 216.969C61.8228 217.129 61.9108 217.353 61.9108 217.641V218.985C62.2468 218.281 62.7188 217.745 63.3268 217.377C63.9508 217.009 64.6628 216.793 65.4628 216.729L65.7988 216.705ZM66.0518 233.001C65.6518 233.033 65.3558 232.977 65.1638 232.833C64.9558 232.705 64.8518 232.505 64.8518 232.233C64.8518 231.801 65.1318 231.553 65.6918 231.489L66.3638 231.441C67.0838 231.393 67.6118 231.177 67.9478 230.793C68.2998 230.409 68.4758 229.777 68.4758 228.897V217.665C68.4758 217.361 68.5638 217.129 68.7398 216.969C68.9318 216.793 69.1718 216.705 69.4598 216.705C69.7478 216.705 69.9798 216.793 70.1558 216.969C70.3318 217.129 70.4198 217.361 70.4198 217.665V228.777C70.4198 230.121 70.1158 231.129 69.5078 231.801C68.9158 232.473 67.9878 232.857 66.7238 232.953L66.0518 233.001ZM69.4598 214.185C69.0758 214.185 68.7638 214.073 68.5238 213.849C68.2838 213.625 68.1638 213.329 68.1638 212.961C68.1638 212.609 68.2838 212.321 68.5238 212.097C68.7638 211.873 69.0758 211.761 69.4598 211.761C69.8438 211.761 70.1558 211.873 70.3958 212.097C70.6358 212.321 70.7558 212.609 70.7558 212.961C70.7558 213.329 70.6358 213.625 70.3958 213.849C70.1558 214.073 69.8438 214.185 69.4598 214.185ZM78.8299 216.657C81.7579 216.657 83.2219 218.193 83.2219 221.265V227.793C83.2219 228.081 83.1339 228.313 82.9579 228.489C82.7979 228.665 82.5739 228.753 82.2859 228.753C81.9979 228.753 81.7659 228.665 81.5899 228.489C81.4139 228.313 81.3259 228.081 81.3259 227.793V226.641C81.0219 227.329 80.5579 227.865 79.9339 228.249C79.3099 228.617 78.5899 228.801 77.7739 228.801C77.0219 228.801 76.3259 228.649 75.6859 228.345C75.0619 228.041 74.5659 227.617 74.1979 227.073C73.8299 226.529 73.6459 225.929 73.6459 225.273C73.6459 224.393 73.8699 223.713 74.3179 223.233C74.7659 222.737 75.5019 222.385 76.5259 222.177C77.5499 221.953 78.9739 221.841 80.7979 221.841H81.3259V221.049C81.3259 220.089 81.1259 219.385 80.7259 218.937C80.3419 218.489 79.7099 218.265 78.8299 218.265C77.7419 218.265 76.6379 218.561 75.5179 219.153C75.0859 219.425 74.7819 219.561 74.6059 219.561C74.4139 219.561 74.2539 219.489 74.1259 219.345C73.9979 219.201 73.9339 219.017 73.9339 218.793C73.9339 218.569 73.9979 218.377 74.1259 218.217C74.2699 218.041 74.4939 217.865 74.7979 217.689C75.3579 217.369 75.9899 217.121 76.6939 216.945C77.4139 216.753 78.1259 216.657 78.8299 216.657ZM78.0379 227.265C78.9979 227.265 79.7819 226.945 80.3899 226.305C81.0139 225.649 81.3259 224.809 81.3259 223.785V223.089H80.8939C79.4859 223.089 78.4139 223.153 77.6779 223.281C76.9419 223.393 76.4139 223.593 76.0939 223.881C75.7899 224.153 75.6379 224.561 75.6379 225.105C75.6379 225.729 75.8619 226.249 76.3099 226.665C76.7739 227.065 77.3499 227.265 78.0379 227.265ZM90.7165 228.801C89.9805 228.801 89.2765 228.713 88.6045 228.537C87.9485 228.361 87.3645 228.113 86.8525 227.793C86.5645 227.601 86.3565 227.425 86.2285 227.265C86.1165 227.089 86.0605 226.881 86.0605 226.641C86.0605 226.433 86.1165 226.265 86.2285 226.137C86.3565 225.993 86.5165 225.921 86.7085 225.921C86.9005 225.921 87.1805 226.041 87.5485 226.281C88.0285 226.569 88.5005 226.801 88.9645 226.977C89.4445 227.137 90.0365 227.217 90.7405 227.217C91.6045 227.217 92.2765 227.065 92.7565 226.761C93.2365 226.457 93.4765 226.017 93.4765 225.441C93.4765 225.089 93.3885 224.809 93.2125 224.601C93.0365 224.377 92.7325 224.185 92.3005 224.025C91.8685 223.849 91.2365 223.673 90.4045 223.497C88.9965 223.193 87.9885 222.785 87.3805 222.273C86.7725 221.761 86.4685 221.065 86.4685 220.185C86.4685 219.497 86.6605 218.889 87.0445 218.361C87.4285 217.833 87.9565 217.417 88.6285 217.113C89.3165 216.809 90.0925 216.657 90.9565 216.657C91.5805 216.657 92.1805 216.745 92.7565 216.921C93.3485 217.081 93.8685 217.313 94.3165 217.617C94.8605 218.001 95.1325 218.401 95.1325 218.817C95.1325 219.025 95.0685 219.201 94.9405 219.345C94.8125 219.489 94.6605 219.561 94.4845 219.561C94.2925 219.561 94.0045 219.425 93.6205 219.153C93.1725 218.865 92.7485 218.641 92.3485 218.481C91.9485 218.321 91.4525 218.241 90.8605 218.241C90.1085 218.241 89.5005 218.409 89.0365 218.745C88.5885 219.081 88.3645 219.529 88.3645 220.089C88.3645 220.441 88.4445 220.729 88.6045 220.953C88.7805 221.161 89.0605 221.353 89.4445 221.529C89.8445 221.689 90.4125 221.849 91.1485 222.009C92.2365 222.249 93.0765 222.513 93.6685 222.801C94.2765 223.089 94.7085 223.441 94.9645 223.857C95.2205 224.273 95.3485 224.801 95.3485 225.441C95.3485 226.449 94.9245 227.265 94.0765 227.889C93.2285 228.497 92.1085 228.801 90.7165 228.801ZM103.088 216.657C106.016 216.657 107.48 218.193 107.48 221.265V227.793C107.48 228.081 107.392 228.313 107.216 228.489C107.056 228.665 106.832 228.753 106.544 228.753C106.256 228.753 106.024 228.665 105.848 228.489C105.672 228.313 105.584 228.081 105.584 227.793V226.641C105.28 227.329 104.816 227.865 104.192 228.249C103.568 228.617 102.848 228.801 102.032 228.801C101.28 228.801 100.584 228.649 99.9437 228.345C99.3197 228.041 98.8237 227.617 98.4557 227.073C98.0877 226.529 97.9037 225.929 97.9037 225.273C97.9037 224.393 98.1277 223.713 98.5757 223.233C99.0237 222.737 99.7597 222.385 100.784 222.177C101.808 221.953 103.232 221.841 105.056 221.841H105.584V221.049C105.584 220.089 105.384 219.385 104.984 218.937C104.6 218.489 103.968 218.265 103.088 218.265C102 218.265 100.896 218.561 99.7757 219.153C99.3437 219.425 99.0397 219.561 98.8637 219.561C98.6717 219.561 98.5117 219.489 98.3837 219.345C98.2557 219.201 98.1917 219.017 98.1917 218.793C98.1917 218.569 98.2557 218.377 98.3837 218.217C98.5277 218.041 98.7517 217.865 99.0557 217.689C99.6157 217.369 100.248 217.121 100.952 216.945C101.672 216.753 102.384 216.657 103.088 216.657ZM102.296 227.265C103.256 227.265 104.04 226.945 104.648 226.305C105.272 225.649 105.584 224.809 105.584 223.785V223.089H105.152C103.744 223.089 102.672 223.153 101.936 223.281C101.2 223.393 100.672 223.593 100.352 223.881C100.048 224.153 99.8957 224.561 99.8957 225.105C99.8957 225.729 100.12 226.249 100.568 226.665C101.032 227.065 101.608 227.265 102.296 227.265ZM124.046 216.657C126.638 216.657 127.934 218.201 127.934 221.289V227.793C127.934 228.097 127.846 228.337 127.67 228.513C127.494 228.673 127.262 228.753 126.974 228.753C126.686 228.753 126.446 228.673 126.254 228.513C126.078 228.337 125.99 228.097 125.99 227.793V221.337C125.99 220.265 125.798 219.489 125.414 219.009C125.03 218.529 124.43 218.289 123.614 218.289C122.638 218.289 121.87 218.617 121.31 219.273C120.75 219.929 120.47 220.817 120.47 221.937V227.793C120.47 228.097 120.374 228.337 120.182 228.513C120.006 228.673 119.774 228.753 119.486 228.753C119.198 228.753 118.966 228.673 118.79 228.513C118.614 228.337 118.526 228.097 118.526 227.793V221.337C118.526 220.265 118.334 219.489 117.95 219.009C117.566 218.529 116.958 218.289 116.126 218.289C115.166 218.289 114.398 218.617 113.822 219.273C113.262 219.929 112.982 220.817 112.982 221.937V227.793C112.982 228.097 112.894 228.337 112.718 228.513C112.542 228.673 112.31 228.753 112.022 228.753C111.734 228.753 111.494 228.673 111.302 228.513C111.126 228.337 111.038 228.097 111.038 227.793V217.665C111.038 217.377 111.126 217.145 111.302 216.969C111.494 216.793 111.734 216.705 112.022 216.705C112.294 216.705 112.518 216.793 112.694 216.969C112.87 217.129 112.958 217.353 112.958 217.641V218.793C113.31 218.105 113.798 217.577 114.422 217.209C115.046 216.841 115.766 216.657 116.582 216.657C118.406 216.657 119.598 217.425 120.158 218.961C120.494 218.257 121.006 217.697 121.694 217.281C122.382 216.865 123.166 216.657 124.046 216.657ZM136.252 216.657C139.18 216.657 140.644 218.193 140.644 221.265V227.793C140.644 228.081 140.556 228.313 140.38 228.489C140.22 228.665 139.996 228.753 139.708 228.753C139.42 228.753 139.188 228.665 139.012 228.489C138.836 228.313 138.748 228.081 138.748 227.793V226.641C138.444 227.329 137.98 227.865 137.356 228.249C136.732 228.617 136.012 228.801 135.196 228.801C134.444 228.801 133.748 228.649 133.108 228.345C132.484 228.041 131.988 227.617 131.62 227.073C131.252 226.529 131.068 225.929 131.068 225.273C131.068 224.393 131.292 223.713 131.74 223.233C132.188 222.737 132.924 222.385 133.948 222.177C134.972 221.953 136.396 221.841 138.22 221.841H138.748V221.049C138.748 220.089 138.548 219.385 138.148 218.937C137.764 218.489 137.132 218.265 136.252 218.265C135.164 218.265 134.06 218.561 132.94 219.153C132.508 219.425 132.204 219.561 132.028 219.561C131.836 219.561 131.676 219.489 131.548 219.345C131.42 219.201 131.356 219.017 131.356 218.793C131.356 218.569 131.42 218.377 131.548 218.217C131.692 218.041 131.916 217.865 132.22 217.689C132.78 217.369 133.412 217.121 134.116 216.945C134.836 216.753 135.548 216.657 136.252 216.657ZM135.46 227.265C136.42 227.265 137.204 226.945 137.812 226.305C138.436 225.649 138.748 224.809 138.748 223.785V223.089H138.316C136.908 223.089 135.836 223.153 135.1 223.281C134.364 223.393 133.836 223.593 133.516 223.881C133.212 224.153 133.06 224.561 133.06 225.105C133.06 225.729 133.284 226.249 133.732 226.665C134.196 227.065 134.772 227.265 135.46 227.265ZM151.686 228.633C151.382 228.633 151.134 228.545 150.942 228.369C150.766 228.193 150.678 227.961 150.678 227.673V212.673C150.678 212.385 150.766 212.153 150.942 211.977C151.134 211.801 151.382 211.713 151.686 211.713H156.366C159.07 211.713 161.158 212.449 162.63 213.921C164.118 215.377 164.862 217.457 164.862 220.161C164.862 222.865 164.118 224.953 162.63 226.425C161.142 227.897 159.054 228.633 156.366 228.633H151.686ZM156.246 226.953C160.63 226.953 162.822 224.689 162.822 220.161C162.822 215.649 160.63 213.393 156.246 213.393H152.646V226.953H156.246ZM177.18 225.921C177.356 225.921 177.508 225.993 177.636 226.137C177.764 226.281 177.828 226.465 177.828 226.689C177.828 227.089 177.548 227.457 176.988 227.793C176.412 228.129 175.804 228.385 175.164 228.561C174.524 228.721 173.9 228.801 173.292 228.801C171.484 228.801 170.052 228.265 168.996 227.193C167.956 226.121 167.436 224.641 167.436 222.753C167.436 221.553 167.668 220.497 168.132 219.585C168.596 218.657 169.244 217.937 170.076 217.425C170.924 216.913 171.884 216.657 172.956 216.657C174.476 216.657 175.684 217.153 176.58 218.145C177.476 219.137 177.924 220.481 177.924 222.177C177.924 222.497 177.86 222.729 177.732 222.873C177.604 223.017 177.396 223.089 177.108 223.089H169.38C169.524 225.841 170.828 227.217 173.292 227.217C173.916 227.217 174.452 227.137 174.9 226.977C175.348 226.801 175.828 226.569 176.34 226.281C176.756 226.041 177.036 225.921 177.18 225.921ZM172.98 218.169C171.956 218.169 171.132 218.489 170.508 219.129C169.9 219.769 169.54 220.673 169.428 221.841H176.22C176.188 220.657 175.892 219.753 175.332 219.129C174.772 218.489 173.988 218.169 172.98 218.169ZM186.668 216.657C189.468 216.657 190.868 218.201 190.868 221.289V227.793C190.868 228.097 190.78 228.337 190.604 228.513C190.444 228.673 190.212 228.753 189.908 228.753C189.604 228.753 189.364 228.673 189.188 228.513C189.012 228.337 188.924 228.097 188.924 227.793V221.409C188.924 220.321 188.708 219.529 188.276 219.033C187.86 218.537 187.188 218.289 186.26 218.289C185.188 218.289 184.332 218.617 183.692 219.273C183.052 219.929 182.732 220.817 182.732 221.937V227.793C182.732 228.097 182.644 228.337 182.468 228.513C182.308 228.673 182.076 228.753 181.772 228.753C181.468 228.753 181.228 228.673 181.052 228.513C180.876 228.337 180.788 228.097 180.788 227.793V217.665C180.788 217.377 180.876 217.145 181.052 216.969C181.228 216.793 181.468 216.705 181.772 216.705C182.06 216.705 182.284 216.793 182.444 216.969C182.62 217.145 182.708 217.369 182.708 217.641V218.865C183.092 218.145 183.628 217.601 184.316 217.233C185.004 216.849 185.788 216.657 186.668 216.657ZM203.909 216.705C204.213 216.705 204.453 216.793 204.629 216.969C204.805 217.145 204.893 217.377 204.893 217.665V227.841C204.893 229.585 204.445 230.897 203.549 231.777C202.653 232.673 201.325 233.121 199.565 233.121C197.853 233.121 196.429 232.785 195.293 232.113C194.717 231.793 194.429 231.425 194.429 231.009C194.429 230.785 194.485 230.601 194.597 230.457C194.725 230.313 194.885 230.241 195.077 230.241C195.237 230.241 195.525 230.353 195.941 230.577C196.501 230.865 197.053 231.097 197.597 231.273C198.141 231.449 198.789 231.537 199.541 231.537C200.677 231.537 201.533 231.233 202.109 230.625C202.685 230.033 202.973 229.161 202.973 228.009V225.945C202.637 226.697 202.117 227.273 201.413 227.673C200.725 228.073 199.909 228.273 198.965 228.273C197.941 228.273 197.029 228.033 196.229 227.553C195.445 227.073 194.829 226.393 194.381 225.513C193.949 224.633 193.733 223.617 193.733 222.465C193.733 221.313 193.949 220.297 194.381 219.417C194.829 218.537 195.445 217.857 196.229 217.377C197.029 216.897 197.941 216.657 198.965 216.657C199.893 216.657 200.701 216.857 201.389 217.257C202.077 217.657 202.597 218.225 202.949 218.961V217.665C202.949 217.377 203.029 217.145 203.189 216.969C203.365 216.793 203.605 216.705 203.909 216.705ZM199.349 226.665C200.469 226.665 201.349 226.297 201.989 225.561C202.629 224.809 202.949 223.777 202.949 222.465C202.949 221.169 202.629 220.153 201.989 219.417C201.365 218.665 200.485 218.289 199.349 218.289C198.213 218.289 197.317 218.665 196.661 219.417C196.021 220.153 195.701 221.169 195.701 222.465C195.701 223.777 196.021 224.809 196.661 225.561C197.317 226.297 198.213 226.665 199.349 226.665ZM213.267 216.657C216.195 216.657 217.659 218.193 217.659 221.265V227.793C217.659 228.081 217.571 228.313 217.395 228.489C217.235 228.665 217.011 228.753 216.723 228.753C216.435 228.753 216.203 228.665 216.027 228.489C215.851 228.313 215.763 228.081 215.763 227.793V226.641C215.459 227.329 214.995 227.865 214.371 228.249C213.747 228.617 213.027 228.801 212.211 228.801C211.459 228.801 210.763 228.649 210.123 228.345C209.499 228.041 209.003 227.617 208.635 227.073C208.267 226.529 208.083 225.929 208.083 225.273C208.083 224.393 208.307 223.713 208.755 223.233C209.203 222.737 209.939 222.385 210.963 222.177C211.987 221.953 213.411 221.841 215.235 221.841H215.763V221.049C215.763 220.089 215.563 219.385 215.163 218.937C214.779 218.489 214.147 218.265 213.267 218.265C212.179 218.265 211.075 218.561 209.955 219.153C209.523 219.425 209.219 219.561 209.043 219.561C208.851 219.561 208.691 219.489 208.563 219.345C208.435 219.201 208.371 219.017 208.371 218.793C208.371 218.569 208.435 218.377 208.563 218.217C208.707 218.041 208.931 217.865 209.235 217.689C209.795 217.369 210.427 217.121 211.131 216.945C211.851 216.753 212.563 216.657 213.267 216.657ZM212.475 227.265C213.435 227.265 214.219 226.945 214.827 226.305C215.451 225.649 215.763 224.809 215.763 223.785V223.089H215.331C213.923 223.089 212.851 223.153 212.115 223.281C211.379 223.393 210.851 223.593 210.531 223.881C210.227 224.153 210.075 224.561 210.075 225.105C210.075 225.729 210.299 226.249 210.747 226.665C211.211 227.065 211.787 227.265 212.475 227.265ZM227.098 216.657C229.898 216.657 231.298 218.201 231.298 221.289V227.793C231.298 228.097 231.21 228.337 231.034 228.513C230.874 228.673 230.642 228.753 230.338 228.753C230.034 228.753 229.794 228.673 229.618 228.513C229.442 228.337 229.354 228.097 229.354 227.793V221.409C229.354 220.321 229.138 219.529 228.706 219.033C228.29 218.537 227.618 218.289 226.69 218.289C225.618 218.289 224.762 218.617 224.122 219.273C223.482 219.929 223.162 220.817 223.162 221.937V227.793C223.162 228.097 223.074 228.337 222.898 228.513C222.738 228.673 222.506 228.753 222.202 228.753C221.898 228.753 221.658 228.673 221.482 228.513C221.306 228.337 221.218 228.097 221.218 227.793V217.665C221.218 217.377 221.306 217.145 221.482 216.969C221.658 216.793 221.898 216.705 222.202 216.705C222.49 216.705 222.714 216.793 222.874 216.969C223.05 217.145 223.138 217.369 223.138 217.641V218.865C223.522 218.145 224.058 217.601 224.746 217.233C225.434 216.849 226.218 216.657 227.098 216.657ZM12.1294 252.945C13.1054 253.201 13.8574 253.681 14.3854 254.385C14.9294 255.089 15.2014 255.969 15.2014 257.025C15.2014 258.513 14.7134 259.657 13.7374 260.457C12.7614 261.241 11.3774 261.633 9.58541 261.633H3.53741C3.23341 261.633 2.98541 261.545 2.79341 261.369C2.61741 261.193 2.52941 260.961 2.52941 260.673V245.673C2.52941 245.385 2.61741 245.153 2.79341 244.977C2.98541 244.801 3.23341 244.713 3.53741 244.713H9.32141C11.0654 244.713 12.4174 245.097 13.3774 245.865C14.3374 246.633 14.8174 247.721 14.8174 249.129C14.8174 250.041 14.5774 250.825 14.0974 251.481C13.6334 252.137 12.9774 252.625 12.1294 252.945ZM4.47341 252.225H9.03341C10.2974 252.225 11.2494 251.969 11.8894 251.457C12.5454 250.945 12.8734 250.201 12.8734 249.225C12.8734 247.305 11.5934 246.345 9.03341 246.345H4.47341V252.225ZM9.39341 260.001C10.7214 260.001 11.6974 259.761 12.3214 259.281C12.9614 258.785 13.2814 258.017 13.2814 256.977C13.2814 254.897 11.9854 253.857 9.39341 253.857H4.47341V260.001H9.39341ZM23.1893 249.657C26.1173 249.657 27.5813 251.193 27.5813 254.265V260.793C27.5813 261.081 27.4933 261.313 27.3173 261.489C27.1573 261.665 26.9333 261.753 26.6453 261.753C26.3573 261.753 26.1253 261.665 25.9493 261.489C25.7733 261.313 25.6853 261.081 25.6853 260.793V259.641C25.3813 260.329 24.9173 260.865 24.2933 261.249C23.6693 261.617 22.9493 261.801 22.1333 261.801C21.3813 261.801 20.6853 261.649 20.0453 261.345C19.4213 261.041 18.9253 260.617 18.5573 260.073C18.1893 259.529 18.0053 258.929 18.0053 258.273C18.0053 257.393 18.2293 256.713 18.6773 256.233C19.1253 255.737 19.8613 255.385 20.8853 255.177C21.9093 254.953 23.3333 254.841 25.1573 254.841H25.6853V254.049C25.6853 253.089 25.4853 252.385 25.0853 251.937C24.7013 251.489 24.0693 251.265 23.1893 251.265C22.1013 251.265 20.9973 251.561 19.8773 252.153C19.4453 252.425 19.1413 252.561 18.9653 252.561C18.7733 252.561 18.6133 252.489 18.4853 252.345C18.3573 252.201 18.2933 252.017 18.2933 251.793C18.2933 251.569 18.3573 251.377 18.4853 251.217C18.6293 251.041 18.8533 250.865 19.1573 250.689C19.7173 250.369 20.3493 250.121 21.0533 249.945C21.7733 249.753 22.4853 249.657 23.1893 249.657ZM22.3973 260.265C23.3573 260.265 24.1413 259.945 24.7493 259.305C25.3733 258.649 25.6853 257.809 25.6853 256.785V256.089H25.2533C23.8453 256.089 22.7733 256.153 22.0373 256.281C21.3013 256.393 20.7733 256.593 20.4533 256.881C20.1493 257.153 19.9973 257.561 19.9973 258.105C19.9973 258.729 20.2213 259.249 20.6693 259.665C21.1333 260.065 21.7093 260.265 22.3973 260.265ZM37.0198 249.657C39.8198 249.657 41.2198 251.201 41.2198 254.289V260.793C41.2198 261.097 41.1318 261.337 40.9558 261.513C40.7958 261.673 40.5638 261.753 40.2598 261.753C39.9558 261.753 39.7158 261.673 39.5398 261.513C39.3638 261.337 39.2758 261.097 39.2758 260.793V254.409C39.2758 253.321 39.0598 252.529 38.6278 252.033C38.2118 251.537 37.5398 251.289 36.6118 251.289C35.5398 251.289 34.6838 251.617 34.0438 252.273C33.4038 252.929 33.0838 253.817 33.0838 254.937V260.793C33.0838 261.097 32.9958 261.337 32.8198 261.513C32.6598 261.673 32.4278 261.753 32.1238 261.753C31.8198 261.753 31.5798 261.673 31.4038 261.513C31.2278 261.337 31.1398 261.097 31.1398 260.793V250.665C31.1398 250.377 31.2278 250.145 31.4038 249.969C31.5798 249.793 31.8198 249.705 32.1238 249.705C32.4118 249.705 32.6358 249.793 32.7958 249.969C32.9718 250.145 33.0598 250.369 33.0598 250.641V251.865C33.4438 251.145 33.9798 250.601 34.6678 250.233C35.3558 249.849 36.1398 249.657 37.0198 249.657ZM53.2045 250.305C53.3805 249.921 53.6605 249.729 54.0445 249.729C54.2845 249.729 54.5005 249.809 54.6925 249.969C54.8845 250.129 54.9805 250.329 54.9805 250.569C54.9805 250.713 54.9485 250.841 54.8845 250.953L48.1405 265.497C48.0605 265.673 47.9405 265.809 47.7805 265.905C47.6365 266.001 47.4845 266.049 47.3245 266.049C47.0845 266.049 46.8685 265.969 46.6765 265.809C46.5005 265.665 46.4125 265.473 46.4125 265.233C46.4125 265.105 46.4445 264.977 46.5085 264.849L48.1885 261.225L43.4365 250.953C43.3725 250.841 43.3405 250.721 43.3405 250.593C43.3405 250.353 43.4445 250.145 43.6525 249.969C43.8765 249.793 44.1165 249.705 44.3725 249.705C44.5325 249.705 44.6845 249.753 44.8285 249.849C44.9885 249.945 45.1085 250.081 45.1885 250.257L49.1965 259.257L53.2045 250.305ZM61.6737 249.657C64.6017 249.657 66.0657 251.193 66.0657 254.265V260.793C66.0657 261.081 65.9777 261.313 65.8017 261.489C65.6417 261.665 65.4177 261.753 65.1297 261.753C64.8417 261.753 64.6097 261.665 64.4337 261.489C64.2577 261.313 64.1697 261.081 64.1697 260.793V259.641C63.8657 260.329 63.4017 260.865 62.7777 261.249C62.1537 261.617 61.4337 261.801 60.6177 261.801C59.8657 261.801 59.1697 261.649 58.5297 261.345C57.9057 261.041 57.4097 260.617 57.0417 260.073C56.6737 259.529 56.4897 258.929 56.4897 258.273C56.4897 257.393 56.7137 256.713 57.1617 256.233C57.6097 255.737 58.3457 255.385 59.3697 255.177C60.3937 254.953 61.8177 254.841 63.6417 254.841H64.1697V254.049C64.1697 253.089 63.9697 252.385 63.5697 251.937C63.1857 251.489 62.5537 251.265 61.6737 251.265C60.5857 251.265 59.4817 251.561 58.3617 252.153C57.9297 252.425 57.6257 252.561 57.4497 252.561C57.2577 252.561 57.0977 252.489 56.9697 252.345C56.8417 252.201 56.7777 252.017 56.7777 251.793C56.7777 251.569 56.8417 251.377 56.9697 251.217C57.1137 251.041 57.3377 250.865 57.6417 250.689C58.2017 250.369 58.8337 250.121 59.5377 249.945C60.2577 249.753 60.9697 249.657 61.6737 249.657ZM60.8817 260.265C61.8417 260.265 62.6257 259.945 63.2337 259.305C63.8577 258.649 64.1697 257.809 64.1697 256.785V256.089H63.7377C62.3297 256.089 61.2577 256.153 60.5217 256.281C59.7857 256.393 59.2577 256.593 58.9377 256.881C58.6337 257.153 58.4817 257.561 58.4817 258.105C58.4817 258.729 58.7057 259.249 59.1537 259.665C59.6177 260.065 60.1937 260.265 60.8817 260.265ZM78.9602 260.097C79.2162 260.337 79.3442 260.593 79.3442 260.865C79.3442 261.105 79.2562 261.313 79.0802 261.489C78.9202 261.665 78.7202 261.753 78.4802 261.753C78.2722 261.753 78.0562 261.657 77.8322 261.465L71.5682 256.065V260.793C71.5682 261.097 71.4722 261.337 71.2802 261.513C71.1042 261.673 70.8802 261.753 70.6082 261.753C70.3202 261.753 70.0802 261.673 69.8882 261.513C69.7122 261.337 69.6242 261.097 69.6242 260.793V245.553C69.6242 245.249 69.7122 245.017 69.8882 244.857C70.0802 244.681 70.3202 244.593 70.6082 244.593C70.8802 244.593 71.1042 244.681 71.2802 244.857C71.4722 245.017 71.5682 245.249 71.5682 245.553V255.297L77.3042 250.041C77.4962 249.849 77.7122 249.753 77.9522 249.753C78.1922 249.753 78.4002 249.841 78.5762 250.017C78.7522 250.193 78.8402 250.401 78.8402 250.641C78.8402 250.913 78.7282 251.153 78.5042 251.361L73.7762 255.585L78.9602 260.097ZM103.124 244.593C103.428 244.593 103.66 244.689 103.82 244.881C103.996 245.057 104.084 245.297 104.084 245.601V260.793C104.084 261.081 104.004 261.313 103.844 261.489C103.684 261.665 103.46 261.753 103.172 261.753C102.884 261.753 102.668 261.665 102.524 261.489C102.38 261.313 102.308 261.081 102.308 260.793V248.529L97.0997 258.513C96.8757 258.977 96.5477 259.209 96.1157 259.209C95.6997 259.209 95.3717 258.977 95.1317 258.513L89.8997 248.649V260.793C89.8997 261.081 89.8197 261.313 89.6597 261.489C89.5157 261.665 89.2997 261.753 89.0117 261.753C88.7237 261.753 88.4997 261.665 88.3397 261.489C88.1797 261.313 88.0997 261.081 88.0997 260.793V245.601C88.0997 245.297 88.1877 245.057 88.3637 244.881C88.5397 244.689 88.7797 244.593 89.0837 244.593C89.4837 244.593 89.8037 244.825 90.0437 245.289L96.1397 256.977L102.164 245.289C102.292 245.033 102.428 244.857 102.572 244.761C102.732 244.649 102.916 244.593 103.124 244.593ZM117.039 258.921C117.215 258.921 117.367 258.993 117.495 259.137C117.623 259.281 117.687 259.465 117.687 259.689C117.687 260.089 117.407 260.457 116.847 260.793C116.271 261.129 115.663 261.385 115.023 261.561C114.383 261.721 113.759 261.801 113.151 261.801C111.343 261.801 109.911 261.265 108.855 260.193C107.815 259.121 107.295 257.641 107.295 255.753C107.295 254.553 107.527 253.497 107.991 252.585C108.455 251.657 109.103 250.937 109.935 250.425C110.783 249.913 111.743 249.657 112.815 249.657C114.335 249.657 115.543 250.153 116.439 251.145C117.335 252.137 117.783 253.481 117.783 255.177C117.783 255.497 117.719 255.729 117.591 255.873C117.463 256.017 117.255 256.089 116.967 256.089H109.239C109.383 258.841 110.687 260.217 113.151 260.217C113.775 260.217 114.311 260.137 114.759 259.977C115.207 259.801 115.687 259.569 116.199 259.281C116.615 259.041 116.895 258.921 117.039 258.921ZM112.839 251.169C111.815 251.169 110.991 251.489 110.367 252.129C109.759 252.769 109.399 253.673 109.287 254.841H116.079C116.047 253.657 115.751 252.753 115.191 252.129C114.631 251.489 113.847 251.169 112.839 251.169ZM130.032 244.593C130.336 244.593 130.576 244.681 130.752 244.857C130.928 245.033 131.016 245.257 131.016 245.529V260.793C131.016 261.081 130.928 261.313 130.752 261.489C130.576 261.665 130.336 261.753 130.032 261.753C129.728 261.753 129.488 261.665 129.312 261.489C129.152 261.313 129.072 261.081 129.072 260.793V259.497C128.72 260.233 128.2 260.801 127.512 261.201C126.84 261.601 126.048 261.801 125.136 261.801C124.112 261.801 123.208 261.545 122.424 261.033C121.64 260.521 121.032 259.809 120.6 258.897C120.168 257.969 119.952 256.897 119.952 255.681C119.952 254.481 120.168 253.425 120.6 252.513C121.032 251.601 121.64 250.897 122.424 250.401C123.208 249.905 124.112 249.657 125.136 249.657C126.048 249.657 126.84 249.857 127.512 250.257C128.2 250.657 128.72 251.225 129.072 251.961V245.529C129.072 245.241 129.152 245.017 129.312 244.857C129.488 244.681 129.728 244.593 130.032 244.593ZM125.52 260.193C126.656 260.193 127.528 259.809 128.136 259.041C128.76 258.257 129.072 257.153 129.072 255.729C129.072 254.305 128.76 253.209 128.136 252.441C127.528 251.673 126.656 251.289 125.52 251.289C124.384 251.289 123.496 251.673 122.856 252.441C122.232 253.209 121.92 254.289 121.92 255.681C121.92 257.105 122.232 258.217 122.856 259.017C123.496 259.801 124.384 260.193 125.52 260.193ZM135.6 261.753C135.312 261.753 135.072 261.673 134.88 261.513C134.704 261.337 134.616 261.097 134.616 260.793V250.665C134.616 250.361 134.704 250.129 134.88 249.969C135.072 249.793 135.312 249.705 135.6 249.705C135.888 249.705 136.12 249.793 136.296 249.969C136.472 250.129 136.56 250.361 136.56 250.665V260.793C136.56 261.113 136.472 261.353 136.296 261.513C136.12 261.673 135.888 261.753 135.6 261.753ZM135.6 247.185C135.216 247.185 134.904 247.073 134.664 246.849C134.424 246.625 134.304 246.329 134.304 245.961C134.304 245.609 134.424 245.321 134.664 245.097C134.904 244.873 135.216 244.761 135.6 244.761C135.984 244.761 136.296 244.873 136.536 245.097C136.776 245.321 136.896 245.609 136.896 245.961C136.896 246.329 136.776 246.625 136.536 246.849C136.296 247.073 135.984 247.185 135.6 247.185ZM144.971 249.657C147.899 249.657 149.363 251.193 149.363 254.265V260.793C149.363 261.081 149.275 261.313 149.099 261.489C148.939 261.665 148.715 261.753 148.427 261.753C148.139 261.753 147.907 261.665 147.731 261.489C147.555 261.313 147.467 261.081 147.467 260.793V259.641C147.163 260.329 146.699 260.865 146.075 261.249C145.451 261.617 144.731 261.801 143.915 261.801C143.163 261.801 142.467 261.649 141.827 261.345C141.203 261.041 140.707 260.617 140.339 260.073C139.971 259.529 139.787 258.929 139.787 258.273C139.787 257.393 140.011 256.713 140.459 256.233C140.907 255.737 141.643 255.385 142.667 255.177C143.691 254.953 145.115 254.841 146.939 254.841H147.467V254.049C147.467 253.089 147.267 252.385 146.867 251.937C146.483 251.489 145.851 251.265 144.971 251.265C143.883 251.265 142.779 251.561 141.659 252.153C141.227 252.425 140.923 252.561 140.747 252.561C140.555 252.561 140.395 252.489 140.267 252.345C140.139 252.201 140.075 252.017 140.075 251.793C140.075 251.569 140.139 251.377 140.267 251.217C140.411 251.041 140.635 250.865 140.939 250.689C141.499 250.369 142.131 250.121 142.835 249.945C143.555 249.753 144.267 249.657 144.971 249.657ZM144.179 260.265C145.139 260.265 145.923 259.945 146.531 259.305C147.155 258.649 147.467 257.809 147.467 256.785V256.089H147.035C145.627 256.089 144.555 256.153 143.819 256.281C143.083 256.393 142.555 256.593 142.235 256.881C141.931 257.153 141.779 257.561 141.779 258.105C141.779 258.729 142.003 259.249 142.451 259.665C142.915 260.065 143.491 260.265 144.179 260.265ZM160.381 261.753C160.077 261.753 159.837 261.665 159.661 261.489C159.485 261.297 159.397 261.049 159.397 260.745V245.673C159.397 245.385 159.485 245.153 159.661 244.977C159.853 244.801 160.101 244.713 160.405 244.713H166.093C167.869 244.713 169.245 245.145 170.221 246.009C171.213 246.873 171.709 248.097 171.709 249.681C171.709 251.265 171.213 252.497 170.221 253.377C169.229 254.257 167.853 254.697 166.093 254.697H161.365V260.745C161.365 261.049 161.277 261.297 161.101 261.489C160.925 261.665 160.685 261.753 160.381 261.753ZM165.901 253.065C168.477 253.065 169.765 251.937 169.765 249.681C169.765 247.457 168.477 246.345 165.901 246.345H161.365V253.065H165.901ZM179.096 249.657C182.024 249.657 183.488 251.193 183.488 254.265V260.793C183.488 261.081 183.4 261.313 183.224 261.489C183.064 261.665 182.84 261.753 182.552 261.753C182.264 261.753 182.032 261.665 181.856 261.489C181.68 261.313 181.592 261.081 181.592 260.793V259.641C181.288 260.329 180.824 260.865 180.2 261.249C179.576 261.617 178.856 261.801 178.04 261.801C177.288 261.801 176.592 261.649 175.952 261.345C175.328 261.041 174.832 260.617 174.464 260.073C174.096 259.529 173.912 258.929 173.912 258.273C173.912 257.393 174.136 256.713 174.584 256.233C175.032 255.737 175.768 255.385 176.792 255.177C177.816 254.953 179.24 254.841 181.064 254.841H181.592V254.049C181.592 253.089 181.392 252.385 180.992 251.937C180.608 251.489 179.976 251.265 179.096 251.265C178.008 251.265 176.904 251.561 175.784 252.153C175.352 252.425 175.048 252.561 174.872 252.561C174.68 252.561 174.52 252.489 174.392 252.345C174.264 252.201 174.2 252.017 174.2 251.793C174.2 251.569 174.264 251.377 174.392 251.217C174.536 251.041 174.76 250.865 175.064 250.689C175.624 250.369 176.256 250.121 176.96 249.945C177.68 249.753 178.392 249.657 179.096 249.657ZM178.304 260.265C179.264 260.265 180.048 259.945 180.656 259.305C181.28 258.649 181.592 257.809 181.592 256.785V256.089H181.16C179.752 256.089 178.68 256.153 177.944 256.281C177.208 256.393 176.68 256.593 176.36 256.881C176.056 257.153 175.904 257.561 175.904 258.105C175.904 258.729 176.128 259.249 176.576 259.665C177.04 260.065 177.616 260.265 178.304 260.265ZM192.83 249.705C193.502 249.657 193.838 249.929 193.838 250.521C193.838 250.777 193.766 250.985 193.622 251.145C193.478 251.289 193.23 251.377 192.878 251.409L192.158 251.481C191.086 251.577 190.286 251.961 189.758 252.633C189.246 253.289 188.99 254.065 188.99 254.961V260.793C188.99 261.113 188.902 261.353 188.726 261.513C188.55 261.673 188.318 261.753 188.03 261.753C187.742 261.753 187.502 261.673 187.31 261.513C187.134 261.337 187.046 261.097 187.046 260.793V250.665C187.046 250.361 187.142 250.129 187.334 249.969C187.526 249.793 187.758 249.705 188.03 249.705C188.286 249.705 188.502 249.793 188.678 249.969C188.854 250.129 188.942 250.353 188.942 250.641V251.985C189.278 251.281 189.75 250.745 190.358 250.377C190.982 250.009 191.694 249.793 192.494 249.729L192.83 249.705ZM201.845 260.217C202.405 260.265 202.685 260.521 202.685 260.985C202.685 261.257 202.581 261.465 202.373 261.609C202.181 261.737 201.885 261.785 201.485 261.753L200.837 261.705C199.557 261.609 198.613 261.225 198.005 260.553C197.397 259.881 197.093 258.865 197.093 257.505V251.481H195.485C195.213 251.481 194.997 251.417 194.837 251.289C194.693 251.145 194.621 250.961 194.621 250.737C194.621 250.497 194.693 250.305 194.837 250.161C194.997 250.017 195.213 249.945 195.485 249.945H197.093V247.233C197.093 246.929 197.181 246.697 197.357 246.537C197.533 246.361 197.773 246.273 198.077 246.273C198.365 246.273 198.597 246.361 198.773 246.537C198.949 246.697 199.037 246.929 199.037 247.233V249.945H201.701C201.957 249.945 202.157 250.017 202.301 250.161C202.461 250.305 202.541 250.497 202.541 250.737C202.541 250.961 202.461 251.145 202.301 251.289C202.157 251.417 201.957 251.481 201.701 251.481H199.037V257.601C199.037 258.481 199.213 259.121 199.565 259.521C199.933 259.905 200.477 260.121 201.197 260.169L201.845 260.217ZM210.481 249.657C213.281 249.657 214.681 251.201 214.681 254.289V260.793C214.681 261.097 214.593 261.337 214.417 261.513C214.257 261.673 214.025 261.753 213.721 261.753C213.417 261.753 213.177 261.673 213.001 261.513C212.825 261.337 212.737 261.097 212.737 260.793V254.409C212.737 253.321 212.521 252.529 212.089 252.033C211.673 251.537 211.001 251.289 210.073 251.289C209.001 251.289 208.145 251.617 207.505 252.273C206.865 252.929 206.545 253.817 206.545 254.937V260.793C206.545 261.097 206.457 261.337 206.281 261.513C206.121 261.673 205.889 261.753 205.585 261.753C205.281 261.753 205.041 261.673 204.865 261.513C204.689 261.337 204.601 261.097 204.601 260.793V250.665C204.601 250.377 204.689 250.145 204.865 249.969C205.041 249.793 205.281 249.705 205.585 249.705C205.873 249.705 206.097 249.793 206.257 249.969C206.433 250.145 206.521 250.369 206.521 250.641V251.865C206.905 251.145 207.441 250.601 208.129 250.233C208.817 249.849 209.601 249.657 210.481 249.657ZM227.289 258.921C227.465 258.921 227.617 258.993 227.745 259.137C227.873 259.281 227.937 259.465 227.937 259.689C227.937 260.089 227.657 260.457 227.097 260.793C226.521 261.129 225.913 261.385 225.273 261.561C224.633 261.721 224.009 261.801 223.401 261.801C221.593 261.801 220.161 261.265 219.105 260.193C218.065 259.121 217.545 257.641 217.545 255.753C217.545 254.553 217.777 253.497 218.241 252.585C218.705 251.657 219.353 250.937 220.185 250.425C221.033 249.913 221.993 249.657 223.065 249.657C224.585 249.657 225.793 250.153 226.689 251.145C227.585 252.137 228.033 253.481 228.033 255.177C228.033 255.497 227.969 255.729 227.841 255.873C227.713 256.017 227.505 256.089 227.217 256.089H219.489C219.633 258.841 220.937 260.217 223.401 260.217C224.025 260.217 224.561 260.137 225.009 259.977C225.457 259.801 225.937 259.569 226.449 259.281C226.865 259.041 227.145 258.921 227.289 258.921ZM223.089 251.169C222.065 251.169 221.241 251.489 220.617 252.129C220.009 252.769 219.649 253.673 219.537 254.841H226.329C226.297 253.657 226.001 252.753 225.441 252.129C224.881 251.489 224.097 251.169 223.089 251.169ZM236.682 249.705C237.354 249.657 237.69 249.929 237.69 250.521C237.69 250.777 237.618 250.985 237.474 251.145C237.33 251.289 237.082 251.377 236.73 251.409L236.01 251.481C234.938 251.577 234.138 251.961 233.61 252.633C233.098 253.289 232.842 254.065 232.842 254.961V260.793C232.842 261.113 232.754 261.353 232.578 261.513C232.402 261.673 232.17 261.753 231.882 261.753C231.594 261.753 231.354 261.673 231.162 261.513C230.986 261.337 230.898 261.097 230.898 260.793V250.665C230.898 250.361 230.994 250.129 231.186 249.969C231.378 249.793 231.61 249.705 231.882 249.705C232.138 249.705 232.354 249.793 232.53 249.969C232.706 250.129 232.794 250.353 232.794 250.641V251.985C233.13 251.281 233.602 250.745 234.21 250.377C234.834 250.009 235.546 249.793 236.346 249.729L236.682 249.705Z" fill="black"/>
<path d="M134.241 152.415C136.299 162.799 125.78 166.683 122.661 165.395C122.661 165.395 55.6357 106.679 26.5001 73.242C-2.63556 39.805 35.3818 -14.3265 69.7213 11.9827L100.787 37.8446M134.241 152.415L78.9133 95.3068M134.241 152.415C139.865 154.443 147.108 148.781 147.108 139.436M147.108 139.436L100.787 91.4131M147.108 139.436C153.951 141.56 161.004 135.023 159.974 127.755M100.787 91.4131C84.3174 97.6431 87.9201 81.8949 91.7802 73.242C99.0714 65.8871 119.058 46.5049 140.674 27.8148C162.291 9.1247 184.391 8.97154 201.332 21.7396C218.255 34.4946 216.433 60.5133 206.321 77.2013C196.21 93.8892 172.841 114.776 172.841 114.776M100.787 91.4131L134.241 58.9649C143.676 66.3198 165.121 76.6166 175.415 58.9649M159.974 127.755L112.765 79.7953M159.974 127.755C166.757 127.755 173.871 123.082 172.841 114.776M172.841 114.776L126.146 66.8161" stroke="#81CAD8" stroke-width="10" stroke-linecap="round" stroke-linejoin="round"/>
</svg>
