<svg width="205" height="34" viewBox="0 0 205 34" fill="none" xmlns="http://www.w3.org/2000/svg">
<path d="M73.0407 1.00049L58.9297 18.0974" stroke="black" stroke-width="2" stroke-linecap="round" stroke-linejoin="round"/>
<path d="M73.0412 1.00049L64.0614 32.085L58.9301 18.0969L47.3848 11.8801L73.0412 1.00049Z" stroke="black" stroke-width="2" stroke-linecap="round" stroke-linejoin="round"/>
<path d="M120.843 6.01289C119.873 6.87871 118.799 7.54092 117.662 7.97403C117.052 7.0864 116.241 6.45727 115.339 6.17174C114.437 5.8862 113.488 5.95802 112.62 6.3775C111.751 6.79697 111.005 7.54386 110.483 8.51714C109.961 9.49042 109.688 10.6431 109.7 11.8194V13.1012C107.92 13.1596 106.156 12.66 104.565 11.6469C102.975 10.6338 101.607 9.1387 100.584 7.29468C100.584 7.29468 96.5317 18.8308 105.648 23.9579C103.562 25.7498 101.077 26.6483 98.5576 26.5215C107.674 32.9304 118.817 26.5215 118.817 11.7809C118.816 11.4239 118.789 11.0677 118.736 10.7171C119.77 9.42692 120.499 7.79805 120.843 6.01289Z" stroke="black" stroke-width="2" stroke-linecap="round" stroke-linejoin="round"/>
<path d="M159.258 14.9465C158.406 14.9465 157.719 14.1135 157.719 13.0815V6.86458C157.719 5.83257 158.406 4.99951 159.258 4.99951C160.11 4.99951 160.797 5.83257 160.797 6.86458V13.0815C160.797 14.1135 160.11 14.9465 159.258 14.9465Z" stroke="black" stroke-width="2" stroke-linecap="round" stroke-linejoin="round"/>
<path d="M165.415 14.9468H163.876V13.0819C163.876 12.05 164.564 11.217 165.415 11.217C166.267 11.217 166.955 12.05 166.955 13.0819C166.955 14.1138 166.267 14.9468 165.415 14.9468Z" stroke="black" stroke-width="2" stroke-linecap="round" stroke-linejoin="round"/>
<path d="M154.126 19.9204C154.978 19.9204 155.666 20.7535 155.666 21.7855V28.0024C155.666 29.0344 154.978 29.8674 154.126 29.8674C153.275 29.8674 152.587 29.0344 152.587 28.0024V21.7855C152.587 20.7535 153.275 19.9204 154.126 19.9204Z" stroke="black" stroke-width="2" stroke-linecap="round" stroke-linejoin="round"/>
<path d="M147.969 19.9204H149.508V21.7856C149.508 22.8177 148.821 23.6509 147.969 23.6509C147.117 23.6509 146.43 22.8177 146.43 21.7856C146.43 20.7535 147.117 19.9204 147.969 19.9204Z" stroke="black" stroke-width="2" stroke-linecap="round" stroke-linejoin="round"/>
<path d="M158.745 20.5424C158.745 19.5103 159.433 18.6772 160.285 18.6772H165.416C166.268 18.6772 166.955 19.5103 166.955 20.5424C166.955 21.5744 166.268 22.4075 165.416 22.4075H160.285C159.433 22.4075 158.745 21.5744 158.745 20.5424Z" stroke="black" stroke-width="2" stroke-linecap="round" stroke-linejoin="round"/>
<path d="M160.285 26.1377H158.745V28.0028C158.745 29.0348 159.433 29.8679 160.285 29.8679C161.136 29.8679 161.824 29.0348 161.824 28.0028C161.824 26.9708 161.136 26.1377 160.285 26.1377Z" stroke="black" stroke-width="2" stroke-linecap="round" stroke-linejoin="round"/>
<path d="M154.64 14.3254C154.64 13.2933 153.952 12.4602 153.1 12.4602H147.969C147.117 12.4602 146.43 13.2933 146.43 14.3254C146.43 15.3575 147.117 16.1907 147.969 16.1907H153.1C153.952 16.1907 154.64 15.3575 154.64 14.3254Z" stroke="black" stroke-width="2" stroke-linecap="round" stroke-linejoin="round"/>
<path d="M153.1 8.72998H154.639V6.86475C154.639 5.83265 153.952 4.99951 153.1 4.99951C152.248 4.99951 151.561 5.83265 151.561 6.86475C151.561 7.89684 152.248 8.72998 153.1 8.72998Z" stroke="black" stroke-width="2" stroke-linecap="round" stroke-linejoin="round"/>
<path d="M203.38 3H200.454C199.16 3 197.92 3.65848 197.005 4.83058C196.091 6.00269 195.577 7.5924 195.577 9.25V13H192.65V18H195.577V28H199.478V18H202.405L203.38 13H199.478V9.25C199.478 8.91848 199.581 8.60054 199.764 8.36612C199.947 8.1317 200.195 8 200.454 8H203.38V3Z" stroke="black" stroke-width="2" stroke-linecap="round" stroke-linejoin="round"/>
<path d="M16.5579 1.00049H6.29534C3.46141 1.00049 1.16406 3.7839 1.16406 7.21741V19.6512C1.16406 23.0848 3.46141 25.8682 6.29534 25.8682H16.5579C19.3918 25.8682 21.6892 23.0848 21.6892 19.6512V7.21741C21.6892 3.7839 19.3918 1.00049 16.5579 1.00049Z" stroke="black" stroke-width="2" stroke-linecap="round" stroke-linejoin="round"/>
<path d="M15.5319 12.6504C15.6585 13.6853 15.5126 14.7422 15.1149 15.6708C14.7173 16.5994 14.0881 17.3524 13.3168 17.8227C12.5456 18.2931 11.6715 18.4568 10.8191 18.2906C9.9666 18.1244 9.17909 17.6367 8.56855 16.897C7.95801 16.1572 7.55552 15.2031 7.41835 14.1702C7.28118 13.1373 7.4163 12.0783 7.80449 11.1439C8.19268 10.2094 8.81418 9.44702 9.58059 8.96519C10.347 8.48336 11.2193 8.3066 12.0734 8.46005C12.9446 8.61658 13.7512 9.10846 14.3739 9.86303C14.9967 10.6176 15.4027 11.5949 15.5319 12.6504Z" stroke="black" stroke-width="2" stroke-linecap="round" stroke-linejoin="round"/>
<path d="M17.0713 6.59448H17.0821" stroke="black" stroke-width="2" stroke-linecap="round" stroke-linejoin="round"/>
</svg>
