<svg width="674" height="596" viewBox="0 0 674 596" fill="none" xmlns="http://www.w3.org/2000/svg">
<path fill-rule="evenodd" clip-rule="evenodd" d="M155.921 355.483L157.79 380.896L193.305 390.045L220.409 403.26L241.905 423.59L252.186 414.441L265.27 382.929L280.224 379.88L334.431 385.979L353.124 392.078L346.581 426.64L340.039 452.052L448.454 444.937L444.715 385.979L422.285 332.103L333.497 285.344L267.14 294.492L220.409 350.401L199.848 362.599L163.398 360.566" fill="#AAE9EA"/>
<path fill-rule="evenodd" clip-rule="evenodd" d="M602.95 121.899C610.254 131.525 599.493 145.138 593.391 151.854C590.43 155.115 587.975 158.884 585.08 162.226C582.22 165.529 578.63 168.128 576.061 171.316C573.364 174.664 570.252 178.328 567.997 182.095C566.57 184.481 564.453 187.147 563.744 189.916C562.725 193.899 563.577 191.598 564.924 193.85C566.299 196.149 566.762 196.282 567.229 199.487C567.682 202.603 568.326 204.884 569.879 207.546C572.437 211.93 575.199 216.053 577.003 220.901C579.401 227.349 581.098 233.895 583.009 240.529C583.754 243.116 584.253 246.079 585.456 248.462C587.163 251.848 587.404 251.564 589.945 249.452C597.53 243.149 605.202 236.486 613.109 230.479C617.639 227.038 622.344 223.668 627.125 220.653C630.406 218.584 637.455 214.902 639.098 211.061C641.276 205.968 637.886 201.294 642.552 196.604C645.59 193.55 650.543 191.857 654.501 191.115C660.096 190.067 666.277 191.564 671.866 192.106C677.517 192.653 683.042 192.057 688.583 190.804C697.066 188.886 713.362 178.271 718.859 191.023C721.265 196.602 719.639 202.785 719.186 208.504C718.793 213.489 717.443 218.781 714.58 222.881C711.306 227.566 706.54 227.811 701.584 229.055C695.73 230.524 689.722 231.059 683.861 232.492C680.974 233.197 678.125 233.54 675.161 233.688C672.523 233.821 668.717 232.662 666.402 233.028C664.206 233.374 664.956 234.877 663.414 235.919C662.789 236.341 661.514 236.038 661.124 236.379C660.052 237.313 659.742 238.127 658.96 239.819C656.477 245.195 652.721 250.435 649.529 255.36C646.84 259.509 643.725 264.589 640.562 268.291C633.856 276.14 627.344 284.789 620.726 292.991C617.359 297.164 613.32 301.604 609.407 305.191C608.2 306.299 605.759 307.295 605.142 308.845C604.261 311.055 606.656 315.92 607.216 318.141C608.545 323.423 608.725 328.877 610.135 334.079C611.484 339.054 611.975 344.478 612.273 349.664C612.95 361.384 614.428 372.501 614.081 384.228C613.781 394.342 613.44 404.041 610.2 413.97C607.251 423.009 598.417 432.848 590.202 436.178C585.311 438.161 580.768 439.963 575.847 441.038C570.987 442.1 565.866 443.188 561.04 444.682C552.087 447.455 542.649 449.392 533.351 450.341C521.449 451.556 509.033 451.673 497.163 451.226C491.749 451.022 486.186 451.01 480.844 451.027C475.307 451.045 470.092 452.228 464.558 452.857C445.028 455.078 424.389 453.293 404.871 455.465C395.224 456.538 385.591 458.604 375.777 458.728C366.99 458.837 358.08 458.209 349.487 458.167C346.763 458.154 344.388 458.39 341.665 457.712C340.229 457.355 338.21 455.962 336.76 456.765C335.493 457.465 334.538 460.419 333.753 461.677C332.037 464.428 329.947 466.637 327.739 468.918C318.976 477.972 310.293 481.022 298.792 484.339C293.512 485.863 290.906 486.66 286.473 490.146C282.862 492.985 279.208 495.025 275.052 496.699C266.9 499.983 257.286 497.443 249.624 494.595C245.914 493.215 242.015 491.961 238.225 490.323C233.062 488.094 228.801 484.39 223.713 482.112C224.296 487.998 218.408 489.975 216.621 493.93C215.467 496.486 216.167 500.498 214.936 503.388C213.795 506.067 212.03 508.6 209.278 509.302C205.528 510.256 198.824 505.733 196.19 503.095C194.727 501.629 193.422 497.728 191.631 497.078C189.295 496.23 185.014 499.977 182.804 500.822C172.224 504.87 161.504 506.779 150.145 505.167C138.636 503.532 128.086 499.102 117.293 494.901C96.1555 486.673 77.7567 473.129 61.2049 456.819C60.2842 455.912 58.9479 455.103 58.3129 453.913C57.7582 452.875 57.8068 450.422 57.4444 449.842C56.3659 448.117 54.7504 448.422 52.7278 448.257C46.4787 447.745 41.5146 446.109 36.6709 441.569C29.0473 434.423 26.2272 417.762 37.9138 413.337C40.9011 412.205 44.189 411.98 47.2771 412.677C48.5509 412.965 53.289 416.078 54.4992 415.87C56.3341 415.553 55.9774 412.993 56.4649 411.625C57.7012 408.158 59.4409 405.106 61.5383 402.164C65.0242 397.273 69.2721 392.357 73.6311 388.378C78.3664 384.053 83.5808 382.134 89.2182 379.739C93.016 378.126 100.43 375.356 104.452 376.799C109.691 378.679 107.127 384.886 103.826 387.057C99.111 390.159 93.453 391.429 88.6757 394.568C83.4034 398.031 78.5877 402.775 73.7628 406.938C69.88 410.288 66.5155 414.422 62.5711 417.635C61.5252 418.486 59.8173 419.976 59.4923 420.446C59.3793 420.609 59.5184 421.934 59.0011 422.522C56.7067 425.134 57.2437 424.839 53.7886 423.923C49.7153 422.842 39.9916 420.399 37.2452 425.874C34.7734 430.801 44.8903 435.241 48.2119 436.744C53.0882 438.949 54.2275 441.164 57.7115 445.366C61.2805 449.674 67.2093 452.602 71.6804 455.813C81.3443 462.753 92.2073 467.677 102.557 473.19C112.628 478.555 123.454 482.417 133.949 486.171C140.284 488.436 147.877 490.867 154.527 491.566C161.227 492.27 167.511 491.085 174.085 489.699C176.713 489.145 178.698 488.72 181.447 487.669C182.671 487.201 184.668 487.132 185.641 486.313C187.148 485.044 186.521 484.029 186.788 481.861C187.955 472.351 194.04 482.967 196.733 486.133C198.811 488.576 200.857 491.58 203.592 493.128C207.02 495.067 207.615 494.153 208.738 490.956C210.841 484.968 211.632 478.162 219.579 479.042C213.305 473.222 207.325 468.278 201.955 461.284C196.657 454.385 191.703 446.972 186.622 439.881C182.457 434.07 178.83 426.05 173.424 421.465C171.716 420.016 166.521 416.677 164.543 416.747C161.584 416.852 158.956 422.094 155.768 422.529C152.247 423.012 150.625 421.679 149.62 418.579C148.577 415.364 151.07 411.663 150.228 409.325C149.993 408.675 148.495 407.895 148.031 406.951C147.335 405.532 147.284 403.666 147.493 402.095C147.803 399.75 148.568 398.793 148.405 396.434C148.215 393.693 147.107 391.689 147.98 388.822C148.896 385.81 151.715 384.16 153.475 381.936C156.138 378.57 154.777 376.031 153.709 371.706C151.421 362.452 148.753 353.304 146.432 344.055C141.093 345.886 135.873 347.962 130.507 349.669C125.344 351.311 118.956 352.785 114.167 355.375C111.289 356.931 112.088 355.502 112.301 358.958C112.437 361.196 113.31 363.697 113.715 365.903C114.463 369.978 114.789 380.495 117.733 382.442C119.516 383.621 122.384 381.908 124.344 384.289C125.995 386.292 125.5 389.205 126.494 391.431C127.111 392.816 128.306 393.342 129.049 394.614C130.601 397.273 130.436 399.509 130.709 402.489C130.881 404.365 130.615 409.985 131.476 411.443C132.624 413.388 134.9 413.05 136.819 413.656C141.654 415.182 146.108 417.837 150.214 420.933C152.345 423.759 167.596 440.3 160.972 442.404C157.774 443.421 152.115 435.61 149.813 433.486C146.245 430.195 142.508 428.034 138.157 426.219C127.539 421.79 117.932 417.809 106.369 419.648C101.411 420.436 95.3888 422.816 90.4088 422.292C85.3971 421.765 86.6951 416.918 89.8289 414.214C92.6313 411.796 96.5318 412.476 97.7616 408.421C99.0027 404.325 97.6701 399.149 99.6619 395.045C101.362 391.54 105.371 387.902 108.466 385.871C109.815 384.986 112.128 384.368 112.833 383.064C113.411 381.994 111.029 375.86 110.699 374.585C109.081 368.339 107.318 362.086 105.948 355.772C104.678 349.92 104.348 346.887 110.034 344.763C118.712 341.52 127.81 340.004 136.491 337.023C134.952 332.677 130.142 336.334 126.687 336.183C122.455 335.998 117.558 334.488 113.528 333.079C104.379 329.878 98.1529 321.896 96.7391 311.605C96.4282 309.347 97.4077 304.819 96.6495 302.823C95.9342 300.937 93.9115 300.02 92.4333 298.676C88.6234 295.215 85.2486 290.462 83.1933 285.543C81.1333 280.613 80.9895 275.075 82.1866 269.872C82.8459 267.006 83.2185 266.611 82.2866 263.901C81.2071 260.765 79.4468 257.974 78.4514 254.751C76.821 249.473 75.932 243.783 76.0207 238.21C76.1216 231.958 78.4346 229.153 79.967 223.64C81.1763 219.288 79.5262 213.274 79.8026 208.445C80.1565 202.267 81.6152 197.304 84.1336 191.804C88.0033 183.355 94.131 174.297 102.107 169.867C103.684 168.99 106.276 168.939 107.685 167.92C109.436 166.654 109.573 164.789 110.259 162.572C111.894 157.284 113.935 153 117.471 148.958C128.937 135.848 149.03 131.205 165.143 132.312C168.037 132.511 170.796 133.996 173.538 133.123C175.439 132.518 177.452 130.372 179.411 129.483C181.89 128.358 184.374 127.701 187.042 127.413C192.311 126.843 196.596 127.445 201.452 129.374C203.285 130.102 205.04 130.898 206.847 131.688C209.7 132.938 209.538 132.343 212.22 131.763C217.567 130.609 220.64 131.463 225.377 133.937C226.639 134.596 228.637 135.085 229.722 136.008C231.259 137.317 231.885 141.292 233.596 142.034C234.545 142.446 237.479 140.929 238.702 140.713C240.861 140.331 242.975 140.668 245.123 140.642C248.927 140.598 252.947 140.751 256.419 142.701C259.035 144.168 262.183 146.999 264.435 148.885C267.551 151.494 269.498 156.426 273.39 157.792C274.914 158.327 276.563 157.785 278.118 158.242C280.147 158.835 282.095 160.428 283.737 161.835C286.563 164.254 288.952 169.877 291.831 170.86C293.752 171.517 296.738 170.832 298.937 171.511C301.695 172.365 303.982 173.601 306.027 175.864C309.928 180.181 311.03 186.562 311.197 192.415C311.241 193.993 310.344 198.442 311.216 199.842C311.99 201.084 314.908 201.801 316.095 203.076C319.808 207.061 321.485 213.703 321.861 219.163C322.29 225.393 320.806 229.784 319.785 235.745C319.149 239.461 318.326 237.081 321.218 239.27C323.204 240.773 324.576 241.824 325.864 244.183C328.557 249.115 329.234 254.929 328.79 260.551C328.234 267.564 324.954 272.791 323.478 279.426C330.276 279.426 337.599 281.374 344.24 282.733C346.691 283.235 348.589 284.695 350.764 285.866C352.641 286.877 354.041 286.994 355.812 287.664C360.097 289.284 359.269 289.014 362.251 285.698C374.128 272.49 391.034 264.516 408.082 264.775C417.591 264.919 426.79 266.28 435.68 269.991C439.365 271.528 443.46 273.186 446.73 275.598C450.516 278.393 451.079 278.36 456.085 278.474C474.213 278.881 491.804 289.436 504.996 302.23C506.175 293.649 519.031 288.503 525.256 284.946C527.384 283.731 529.338 283.098 530.385 280.821C531.364 278.69 531.307 274.306 531.961 271.796C533.163 267.186 534.552 261.546 534.443 256.685C534.132 242.61 531.128 228.6 530.739 214.493C530.641 210.951 530.27 206.974 530.704 203.466C531.054 200.64 532.244 198.877 530.533 196.261C527.286 191.294 521.297 190.054 519.284 183.516C516.039 172.98 521.613 162.206 529.223 155.939C533.606 152.332 537.887 151.568 541.399 146.51C544.562 141.953 547.235 136.564 550.841 132.421C553.865 128.948 556.618 124.295 560.084 121.405C563.636 118.442 568.852 116.438 573.094 115.031C583.279 111.65 595.784 112.457 602.95 121.899ZM284.621 386.575C282.252 386.685 279.868 386.974 277.495 386.97C276.051 386.968 272.696 386.123 271.395 386.719C268.795 387.912 266.691 394.438 265.476 397.042C261.54 405.486 258.441 414.338 254.601 422.814C252.604 427.223 249.621 430.122 244.908 430.193C239.628 430.272 237.143 426.604 233.791 422.84C227.109 415.332 218.114 408.878 209.819 403.656C200.859 398.018 190.175 392.553 179.974 390.562C173.181 389.236 157.617 383.518 153.484 392.756C155.596 392.45 163.658 391.113 163.999 394.986C164.256 397.892 154.339 398.389 153.114 402.946C155.707 402.727 164.658 400.019 165.287 404.197C165.622 406.418 161.882 407.537 160.566 408.286C157.959 409.772 156.389 411.315 154.336 413.55C157.503 413.55 160.625 410.634 163.632 410.939C164.872 411.064 166.363 413.075 167.491 413.688C169.092 414.556 170.819 414.989 172.584 415.226C176.427 415.742 178.753 414.566 181.817 417.28C184.568 419.716 187.428 422.933 189.962 425.644C195.371 431.434 199.823 438.782 204.463 445.287C210.192 453.319 216.141 459.695 223.762 465.712C229.966 470.607 236.253 473.778 243.282 477.383C250.177 480.919 258.849 485.02 266.672 485.215C272.911 485.371 280.711 483.2 286.389 480.313C289.692 478.634 290.893 478.636 294.198 477.971C299.327 476.94 305.264 473.954 310.013 471.613C324.924 464.258 334.373 448.228 341.096 432.538C344.923 423.609 347.314 414.884 348.909 405.222C349.777 399.959 350.534 398.723 345.805 396.547C341.027 394.349 335.864 392.99 330.892 391.437C316.306 386.884 299.682 385.88 284.621 386.575ZM320.251 291.334C318.763 292.061 317.972 299.817 317.304 301.545C314.324 309.256 309.038 314.067 301.285 314.87C298.879 315.119 294.954 312.744 293.229 313.867C290.92 315.37 290.503 322.558 288.018 324.916C285.73 327.088 280.964 329.383 278.03 330.218C275.764 330.863 273.517 330.685 271.26 330.118C269.973 329.795 267.517 328.07 266.256 328.72C264.109 329.829 263.098 335.732 260.648 337.734C257.065 340.662 251.375 342.83 246.989 342.776C242.466 342.719 237.013 338.845 232.986 339.772C228.204 340.873 228.833 345.694 226.746 349.463C222.313 357.466 217.276 364.36 209.307 368.182C200.687 372.314 188.331 372.84 179.29 370.737C174.375 369.594 169.443 367.978 165.295 364.924C161.99 362.49 159.509 359.249 156.449 356.499L155.948 356.059L155.974 356.157C156.041 356.413 156.11 356.663 156.181 356.906C157.638 361.945 158.286 370.884 161.181 374.994C163.773 378.671 172.77 378.877 177.102 379.371C188.71 380.698 198.692 383.644 208.932 389.957C218.734 396 227.686 403.312 236.172 411.193C237.915 412.811 239.308 415.406 241.417 416.448C244.861 418.149 244.582 416.163 245.493 412.839C247.361 406.02 249.343 399.284 252.19 392.856C253.409 390.101 256.183 386.688 256.778 383.762C257.348 380.955 256.178 377.893 256.575 374.879C257.579 367.266 260.749 360.774 264.723 354.617C267.481 350.344 275.734 343.068 274.68 353.823C273.901 361.766 268.552 368.803 267.237 376.607C271.292 375.787 273.838 376.026 277.489 376.276C282.471 376.618 288.136 374.504 293.272 374.486C303.118 374.452 312.817 375.149 322.495 377.051C326.977 377.932 331.245 378.928 335.566 380.591C338.962 381.898 343.477 386.058 347.094 386.376C349.716 386.606 348.802 386.979 349.515 384.553C350.178 382.302 349.466 378.253 349.333 375.891C349.033 370.548 347.851 365.347 347.239 360.039C346.976 357.761 344.469 348.266 347.115 346.426C351.164 343.61 352.856 354.659 353.371 356.639C356.012 366.784 357.711 376.78 357.632 387.388C357.563 396.562 357.001 405.38 355.418 414.5C354.482 419.887 352.766 425.062 350.841 430.113C349.826 432.774 343.877 442.861 344.704 444.638C345.367 446.062 355.477 443.583 357.032 443.439C362.565 442.925 368.113 443.283 373.654 442.926C381.842 442.398 390.091 442.507 397.933 440.942C402.608 440.008 407.569 440.901 412.24 440.933C417.392 440.97 422.371 440.454 427.557 440.987C431.495 441.39 437.404 443.644 441.202 442.707C445.092 441.749 443.943 438.927 443.97 434.634C444.034 424.262 443.182 412.327 441.046 402.242C439.918 396.925 438.403 391.778 437.594 386.373C436.785 380.965 436.828 375.121 435.323 369.885C432.654 360.595 425.318 352.53 419.241 345.665C412.987 338.6 406.031 333.47 398.359 328.403C391.838 324.097 384.948 320.054 377.883 316.686C369.404 312.642 359.775 310.15 351.917 304.826C345.378 300.397 335.919 296.029 328.375 293.978C327.181 293.654 321.095 290.923 320.251 291.334ZM553.171 205.472C547.73 206.301 537.56 203.42 537.565 211.552C537.567 216.013 538.932 220.691 539.32 225.154C539.776 230.42 539.461 235.72 540.2 240.966C541.398 249.458 543.156 257.301 542.567 266.026C541.926 275.51 540.103 284.623 540.273 294.243C540.434 303.398 539.979 312.225 543.991 320.626C545.684 324.172 547.058 328.339 548.921 331.658C551.104 335.547 552.995 336.686 556.898 338.253C559.341 339.234 565.359 340.511 566.942 343.155C569.228 346.971 566.175 348.514 563.169 348.385C553.885 347.984 544.353 343.493 535.649 340.213C531.553 338.669 527.611 336.724 523.587 335.039C520.371 333.692 517.749 333.227 514.824 330.93C507.696 325.331 502.194 317.593 495.165 311.85C481.867 300.986 465.924 294.499 449.222 292.575C444.925 292.079 441.597 292.302 437.293 292.697C434.912 292.916 432.554 292.986 430.197 293.46C428.835 293.735 423.714 296.373 422.65 295.825C415.741 292.264 435.305 281.424 437.505 280.831C434.726 278.708 428.953 279.074 425.618 278.602C421.361 277.998 417.222 277.409 412.923 277.663C406.913 278.02 400.52 277.827 394.621 279.234C387.231 280.995 380.232 283.7 373.554 287.495C371.324 288.762 368.187 290.302 368.208 293.832C368.228 297.15 369.447 296.607 372.426 297.342C380.454 299.323 387.884 305.091 395.036 309.486C402.641 314.157 410.215 319.407 417.272 325.004C430.8 335.737 438.521 351.178 444.529 367.962C447.636 376.642 449.89 386.78 450.824 396.032C451.866 406.326 450.997 416.678 451.74 426.961C451.915 429.391 452.215 439.088 453.906 440.599C455.189 441.745 461.557 439.696 463.351 439.562C470.855 439.002 478.403 439.057 485.764 438.597C501.32 437.625 517.268 438.981 532.966 437.981C540.863 437.477 548.507 436.274 556.251 434.546C563.449 432.941 572.418 432.749 578.984 429.04C591.623 421.901 599.328 404.69 599.883 390.117C600.484 374.32 599.489 357.129 596.428 341.391C594.824 333.14 593.433 325.286 591.545 317.132C589.431 308.002 587.059 298.912 584.739 289.895C580.743 274.375 574.524 259.915 571.547 244.007C569.909 235.257 567.589 226.108 565.166 217.568C564.274 214.42 562.513 208.44 560.436 206.049C558.253 203.538 556.419 204.978 553.171 205.472ZM109.696 394.502C106.419 396.775 104.056 401.885 104.206 406.099C104.206 411.66 108.464 409.291 112.477 409.492C114.919 409.615 123.953 412.332 125.542 409.709C127.438 406.577 121.734 407.975 121.013 406.295C119.553 402.897 126.246 401.463 125.428 398.518C124.61 395.574 117.81 402.369 116.352 398.949C115.003 395.785 121.872 393.048 120.817 390.868C119.923 389.021 110.854 393.697 109.696 394.502ZM123.925 365.526C123.908 367.896 123.154 371.049 120.436 370.565C117.042 369.961 116.012 362.896 115.702 360.223C117.876 351.421 123.961 360.127 123.925 365.526ZM222.487 289.875C218.562 290.542 218.119 292.447 216.284 295.371C215.447 294.647 214.928 293.687 214.728 292.492C205.448 297.023 195.794 300.564 185.729 302.239C174.515 304.107 162.817 301.281 151.423 300.129C149.948 299.98 145.422 298.004 144.22 298.789C143.226 299.438 143.243 304.89 143.162 305.944C142.608 313.127 143.871 319.472 144.844 326.502C145.104 328.374 144.849 332.427 146.209 334.024C147.167 335.147 148.87 334.739 150.082 336.434C153.349 341.008 154.368 349.869 155.873 355.768L155.91 355.911L155.917 355.806C156.383 349.791 160.719 352.881 163.946 354.458C168.797 356.829 173.881 358.097 179.129 358.894C183.349 359.536 188.137 361.069 192.466 360.824C197.012 360.567 202.605 358.616 207.031 357.211C211.225 355.882 213.539 353.004 216.434 349.298C219.199 345.758 222.208 343.334 225.192 340.175C232.709 332.219 230.651 315.732 224.121 307.944C229.404 305.005 238.567 298.542 230.531 291.988C228.455 290.293 224.991 289.45 222.487 289.875ZM155.91 355.911L155.902 356.019L155.948 356.059L155.91 355.911ZM181.651 342.252C183.735 342.423 185.232 344.121 184.684 346.462C183.991 349.419 179.249 351.271 176.878 351.436C170.594 352.25 176.538 341.833 181.651 342.252ZM161.807 330.874C162.033 332.591 161.809 333.661 163.182 334.218C164.232 334.645 166.215 333.767 167.506 334.36C168.793 334.953 168.834 335.311 169.625 336.704C168.73 339.742 164.62 343.178 161.323 341.351C157.222 339.079 156.841 330.118 157.965 326.293C159.87 319.812 161.471 328.313 161.807 330.874ZM526.4 296.65C524.69 297.323 523.181 299.234 521.651 300.273C517.581 303.039 513.13 304.507 509.232 307.535C512.016 310.791 513.474 315.206 516.192 318.34C517.893 320.3 519.962 320.518 522.008 321.582C527.986 324.692 535.022 329.067 541.626 330.554C537.759 325.649 535.306 321.211 533.01 315.252C532.189 313.121 531.159 310.867 530.545 308.654C529.663 305.484 530.137 302.13 529.39 299.002C528.585 295.625 529.696 295.352 526.4 296.65ZM150.528 315.218C152.267 317.443 153.603 322.459 153.751 325.3C151.917 334.825 145.776 321.683 145.963 317.418C146.136 313.484 148.041 312.038 150.528 315.218ZM167.165 310.006C170.144 312.762 171.117 317.363 171.427 321.165C171.763 325.287 170.894 327.039 167.108 324.39C163.793 322.07 162.134 315.895 161.962 312.276C161.962 308.152 164.277 307.336 167.165 310.006ZM227.111 298.21C227.855 302.511 219.07 306.931 220.504 300.196C220.217 295.898 226.321 293.654 227.111 298.21ZM641.911 220.379C635.276 229.162 627.24 234.738 618.937 241.375C611.581 247.254 604.578 253.606 596.614 258.486C594.276 259.92 590.446 260.754 590.023 263.417C589.627 265.921 593.913 272.646 594.904 275.361C598.248 284.517 600.717 293.912 603.332 303.36C611.126 290.19 618.986 276.802 628.539 264.894C636.97 254.385 645.618 243.389 652.987 232.066C648.527 229.12 644.831 225.058 641.911 220.379ZM690.552 200.125C683.162 202.629 674.648 204.038 666.946 203.185C663.454 202.798 660.015 202.476 656.49 202.24C653.851 202.063 649.388 200.668 647.117 202.873C644.97 204.957 645.229 209.106 646.323 211.697C647.03 213.372 648.011 213.643 648.652 215.03C648.858 215.477 648.246 216.249 648.778 217.3C650.238 220.192 655.208 225.025 657.885 226.498C661.32 228.387 661.833 226.189 664.511 224.285C670.148 220.278 679.619 220.205 686.223 219.483C686.356 221.023 705.495 213.619 707.385 212.26C710.917 209.719 715.057 198.026 711.298 194.56C706.762 190.377 694.941 198.636 690.552 200.125ZM561.843 144.387C559.517 148.406 556.423 152.721 552.987 155.727C549.106 159.123 544.069 160.442 539.632 162.765C535.613 164.869 532.041 166.977 529.533 171.036C527.797 173.844 524.617 177.784 526.067 181.403C527.551 185.105 533.395 187.701 535.934 190.918C539.431 195.348 539.435 194.478 544.672 193.254C547.288 192.642 549.773 192.452 552.446 192.553C553.527 192.593 557.179 193.743 558.138 192.971C559.365 191.983 558.158 187.881 558.313 186.285C558.55 183.857 559.346 181.352 560.101 179.063C563.092 169.975 568.781 163.982 574.312 157.091C580.246 149.698 588.375 144.508 594.223 137.08C597.451 132.979 595.981 130.08 591.551 128.16C589.3 127.185 586.662 127.189 584.352 126.412C581.963 125.608 579.835 124.025 577.275 123.994C566.398 123.521 566.052 137.114 561.843 144.387Z" fill="black"/>
</svg>
