<svg width="261" height="265" viewBox="0 0 261 265" fill="none" xmlns="http://www.w3.org/2000/svg">
<path d="M10.7475 223.216C9.5955 223.216 8.5075 223.08 7.4835 222.808C6.4755 222.52 5.6035 222.104 4.8675 221.56C4.6115 221.384 4.4595 221.176 4.4115 220.936C4.3635 220.696 4.3875 220.472 4.4835 220.264C4.5955 220.056 4.7555 219.92 4.9635 219.856C5.1715 219.776 5.4115 219.824 5.6835 220C6.4035 220.528 7.1715 220.904 7.9875 221.128C8.8035 221.352 9.7235 221.464 10.7475 221.464C12.1875 221.464 13.2515 221.2 13.9395 220.672C14.6435 220.128 14.9955 219.416 14.9955 218.536C14.9955 217.832 14.7395 217.272 14.2275 216.856C13.7315 216.44 12.8915 216.112 11.7075 215.872L9.2115 215.368C7.7075 215.048 6.5795 214.528 5.8275 213.808C5.0915 213.072 4.7235 212.096 4.7235 210.88C4.7235 209.872 4.9795 208.992 5.4915 208.24C6.0195 207.488 6.7475 206.904 7.6755 206.488C8.6035 206.072 9.6755 205.864 10.8915 205.864C11.8995 205.864 12.8355 206.008 13.6995 206.296C14.5795 206.568 15.3715 206.984 16.0755 207.544C16.2995 207.72 16.4275 207.928 16.4595 208.168C16.5075 208.392 16.4755 208.6 16.3635 208.792C16.2515 208.984 16.0915 209.112 15.8835 209.176C15.6755 209.224 15.4275 209.16 15.1395 208.984C14.4995 208.488 13.8275 208.136 13.1235 207.928C12.4355 207.72 11.6835 207.616 10.8675 207.616C9.6035 207.616 8.5955 207.912 7.8435 208.504C7.0915 209.08 6.7155 209.848 6.7155 210.808C6.7155 211.576 6.9475 212.184 7.4115 212.632C7.8915 213.08 8.6675 213.408 9.7395 213.616L12.2355 214.144C13.8515 214.48 15.0435 214.992 15.8115 215.68C16.5955 216.352 16.9875 217.272 16.9875 218.44C16.9875 219.384 16.7315 220.216 16.2195 220.936C15.7235 221.656 15.0035 222.216 14.0595 222.616C13.1315 223.016 12.0275 223.216 10.7475 223.216ZM23.9051 223.216C21.1051 223.216 19.7051 221.672 19.7051 218.584V212.152C19.7051 211.496 20.0251 211.168 20.6651 211.168C21.3211 211.168 21.6491 211.496 21.6491 212.152V218.56C21.6491 219.6 21.8571 220.368 22.2731 220.864C22.7051 221.36 23.3771 221.608 24.2891 221.608C25.2811 221.608 26.0891 221.28 26.7131 220.624C27.3371 219.952 27.6491 219.064 27.6491 217.96V212.152C27.6491 211.496 27.9771 211.168 28.6331 211.168C29.2731 211.168 29.5931 211.496 29.5931 212.152V222.16C29.5931 222.832 29.2811 223.168 28.6571 223.168C28.0171 223.168 27.6971 222.832 27.6971 222.16V221.032C27.3291 221.736 26.8091 222.28 26.1371 222.664C25.4811 223.032 24.7371 223.216 23.9051 223.216ZM37.6703 223.216C36.6303 223.216 35.7183 222.968 34.9342 222.472C34.1663 221.976 33.5663 221.28 33.1343 220.384C32.7183 219.472 32.5103 218.4 32.5103 217.168C32.5103 215.92 32.7183 214.848 33.1343 213.952C33.5663 213.04 34.1663 212.344 34.9342 211.864C35.7183 211.368 36.6303 211.12 37.6703 211.12C38.5823 211.12 39.3823 211.32 40.0703 211.72C40.7743 212.12 41.2943 212.672 41.6303 213.376V206.896C41.6303 206.24 41.9583 205.912 42.6143 205.912C43.2543 205.912 43.5743 206.24 43.5743 206.896V222.16C43.5743 222.832 43.2543 223.168 42.6143 223.168C41.9743 223.168 41.6543 222.832 41.6543 222.16V220.912C41.3023 221.632 40.7743 222.2 40.0703 222.616C39.3823 223.016 38.5823 223.216 37.6703 223.216ZM38.0783 221.656C39.1663 221.656 40.0383 221.272 40.6943 220.504C41.3503 219.72 41.6783 218.608 41.6783 217.168C41.6783 215.712 41.3503 214.6 40.6943 213.832C40.0383 213.064 39.1663 212.68 38.0783 212.68C36.9743 212.68 36.0943 213.064 35.4383 213.832C34.7983 214.6 34.4783 215.712 34.4783 217.168C34.4783 218.608 34.7983 219.72 35.4383 220.504C36.0943 221.272 36.9743 221.656 38.0783 221.656ZM50.8944 223.216C50.0944 223.216 49.3744 223.064 48.7344 222.76C48.1104 222.44 47.6144 222.008 47.2464 221.464C46.8784 220.92 46.6944 220.312 46.6944 219.64C46.6944 218.792 46.9104 218.12 47.3424 217.624C47.7904 217.128 48.5184 216.776 49.5264 216.568C50.5504 216.344 51.9424 216.232 53.7024 216.232H54.4704V215.488C54.4704 214.496 54.2624 213.784 53.8464 213.352C53.4464 212.904 52.7984 212.68 51.9024 212.68C51.3424 212.68 50.7744 212.752 50.1984 212.896C49.6384 213.04 49.0544 213.272 48.4464 213.592C48.1744 213.736 47.9424 213.768 47.7504 213.688C47.5744 213.592 47.4464 213.448 47.3664 213.256C47.3024 213.048 47.3024 212.84 47.3664 212.632C47.4464 212.408 47.6064 212.24 47.8464 212.128C48.5344 211.776 49.2224 211.52 49.9104 211.36C50.6144 211.2 51.2784 211.12 51.9024 211.12C53.4064 211.12 54.5184 211.488 55.2384 212.224C55.9744 212.96 56.3424 214.104 56.3424 215.656V222.16C56.3424 222.832 56.0464 223.168 55.4544 223.168C54.8304 223.168 54.5184 222.832 54.5184 222.16V220.984C54.2144 221.672 53.7424 222.216 53.1024 222.616C52.4784 223.016 51.7424 223.216 50.8944 223.216ZM51.2064 221.752C52.1664 221.752 52.9504 221.424 53.5584 220.768C54.1664 220.096 54.4704 219.248 54.4704 218.224V217.504H53.7264C52.4304 217.504 51.4064 217.568 50.6544 217.696C49.9184 217.808 49.3984 218.016 49.0944 218.32C48.8064 218.608 48.6624 219.008 48.6624 219.52C48.6624 220.176 48.8864 220.712 49.3344 221.128C49.7984 221.544 50.4224 221.752 51.2064 221.752ZM60.909 223.168C60.269 223.168 59.949 222.832 59.949 222.16V206.896C59.949 206.24 60.269 205.912 60.909 205.912C61.565 205.912 61.893 206.24 61.893 206.896V213.256C62.277 212.552 62.813 212.024 63.501 211.672C64.205 211.304 64.989 211.12 65.853 211.12C68.621 211.12 70.005 212.656 70.005 215.728V222.16C70.005 222.832 69.685 223.168 69.045 223.168C68.389 223.168 68.061 222.832 68.061 222.16V215.848C68.061 214.76 67.845 213.968 67.413 213.472C66.997 212.96 66.325 212.704 65.397 212.704C64.325 212.704 63.469 213.04 62.829 213.712C62.205 214.368 61.893 215.248 61.893 216.352V222.16C61.893 222.832 61.565 223.168 60.909 223.168ZM81.0011 223.168C80.3931 223.168 80.0891 222.848 80.0891 222.208V206.872C80.0891 206.232 80.3931 205.912 81.0011 205.912C81.2571 205.912 81.4571 205.968 81.6011 206.08C81.7611 206.176 81.9051 206.344 82.0331 206.584L88.2491 218.296L94.4411 206.584C94.5691 206.344 94.7051 206.176 94.8491 206.08C94.9931 205.968 95.2011 205.912 95.4731 205.912C96.0651 205.912 96.3611 206.232 96.3611 206.872V222.208C96.3611 222.848 96.0571 223.168 95.4491 223.168C94.8411 223.168 94.5371 222.848 94.5371 222.208V209.776L89.1131 219.976C89.0011 220.184 88.8811 220.336 88.7531 220.432C88.6411 220.512 88.4731 220.552 88.2491 220.552C88.0251 220.552 87.8491 220.504 87.7211 220.408C87.5931 220.312 87.4811 220.168 87.3851 219.976L81.8891 209.8V222.208C81.8891 222.848 81.5931 223.168 81.0011 223.168ZM105.564 223.216C103.724 223.216 102.268 222.68 101.196 221.608C100.124 220.52 99.5884 219.048 99.5884 217.192C99.5884 215.992 99.8284 214.936 100.308 214.024C100.788 213.096 101.444 212.384 102.276 211.888C103.124 211.376 104.1 211.12 105.204 211.12C106.788 211.12 108.028 211.632 108.924 212.656C109.82 213.664 110.268 215.056 110.268 216.832C110.268 217.328 109.988 217.576 109.428 217.576H101.484C101.548 218.904 101.932 219.92 102.636 220.624C103.34 221.312 104.316 221.656 105.564 221.656C106.092 221.656 106.628 221.592 107.172 221.464C107.716 221.32 108.244 221.072 108.756 220.72C109.124 220.48 109.428 220.432 109.668 220.576C109.924 220.72 110.052 220.944 110.052 221.248C110.068 221.536 109.908 221.792 109.572 222.016C109.044 222.4 108.412 222.696 107.676 222.904C106.956 223.112 106.252 223.216 105.564 223.216ZM105.252 212.56C104.148 212.56 103.276 212.904 102.636 213.592C101.996 214.28 101.62 215.184 101.508 216.304H108.588C108.54 215.12 108.228 214.2 107.652 213.544C107.092 212.888 106.292 212.56 105.252 212.56ZM114.042 223.168C113.402 223.168 113.082 222.832 113.082 222.16V212.152C113.082 211.496 113.394 211.168 114.018 211.168C114.658 211.168 114.978 211.496 114.978 212.152V213.328C115.362 212.592 115.906 212.04 116.61 211.672C117.314 211.304 118.106 211.12 118.986 211.12C121.754 211.12 123.138 212.656 123.138 215.728V222.16C123.138 222.832 122.818 223.168 122.178 223.168C121.522 223.168 121.194 222.832 121.194 222.16V215.848C121.194 214.76 120.978 213.968 120.546 213.472C120.13 212.96 119.458 212.704 118.53 212.704C117.458 212.704 116.602 213.04 115.962 213.712C115.338 214.368 115.026 215.248 115.026 216.352V222.16C115.026 222.832 114.698 223.168 114.042 223.168ZM131.882 227.536C131.034 227.536 130.202 227.432 129.386 227.224C128.586 227.032 127.858 226.72 127.202 226.288C126.962 226.144 126.818 225.968 126.77 225.76C126.738 225.568 126.77 225.376 126.866 225.184C126.962 225.008 127.098 224.88 127.274 224.8C127.466 224.72 127.666 224.736 127.874 224.848C128.578 225.28 129.25 225.576 129.89 225.736C130.53 225.896 131.162 225.976 131.786 225.976C134.09 225.976 135.242 224.792 135.242 222.424V220.36C134.906 221.096 134.378 221.68 133.658 222.112C132.954 222.528 132.146 222.736 131.234 222.736C130.162 222.736 129.234 222.488 128.45 221.992C127.666 221.496 127.058 220.816 126.626 219.952C126.21 219.072 126.002 218.056 126.002 216.904C126.002 215.752 126.21 214.744 126.626 213.88C127.058 213 127.666 212.32 128.45 211.84C129.234 211.36 130.162 211.12 131.234 211.12C132.146 211.12 132.954 211.32 133.658 211.72C134.362 212.12 134.882 212.68 135.218 213.4V212.152C135.218 211.496 135.538 211.168 136.178 211.168C136.818 211.168 137.138 211.496 137.138 212.152V222.16C137.138 223.952 136.69 225.296 135.794 226.192C134.914 227.088 133.61 227.536 131.882 227.536ZM131.594 221.152C132.714 221.152 133.602 220.768 134.258 220C134.914 219.232 135.242 218.2 135.242 216.904C135.242 215.608 134.914 214.584 134.258 213.832C133.602 213.064 132.714 212.68 131.594 212.68C130.49 212.68 129.61 213.064 128.954 213.832C128.298 214.584 127.97 215.608 127.97 216.904C127.97 218.2 128.298 219.232 128.954 220C129.61 220.768 130.49 221.152 131.594 221.152ZM144.457 223.216C143.657 223.216 142.937 223.064 142.297 222.76C141.673 222.44 141.177 222.008 140.809 221.464C140.441 220.92 140.257 220.312 140.257 219.64C140.257 218.792 140.473 218.12 140.905 217.624C141.353 217.128 142.081 216.776 143.089 216.568C144.113 216.344 145.505 216.232 147.265 216.232H148.033V215.488C148.033 214.496 147.825 213.784 147.409 213.352C147.009 212.904 146.361 212.68 145.465 212.68C144.905 212.68 144.337 212.752 143.761 212.896C143.201 213.04 142.617 213.272 142.009 213.592C141.737 213.736 141.505 213.768 141.313 213.688C141.137 213.592 141.009 213.448 140.929 213.256C140.865 213.048 140.865 212.84 140.929 212.632C141.009 212.408 141.169 212.24 141.409 212.128C142.097 211.776 142.785 211.52 143.473 211.36C144.177 211.2 144.841 211.12 145.465 211.12C146.969 211.12 148.081 211.488 148.801 212.224C149.537 212.96 149.905 214.104 149.905 215.656V222.16C149.905 222.832 149.609 223.168 149.017 223.168C148.393 223.168 148.081 222.832 148.081 222.16V220.984C147.777 221.672 147.305 222.216 146.665 222.616C146.041 223.016 145.305 223.216 144.457 223.216ZM144.769 221.752C145.729 221.752 146.513 221.424 147.121 220.768C147.729 220.096 148.033 219.248 148.033 218.224V217.504H147.289C145.993 217.504 144.969 217.568 144.217 217.696C143.481 217.808 142.961 218.016 142.657 218.32C142.369 218.608 142.225 219.008 142.225 219.52C142.225 220.176 142.449 220.712 142.897 221.128C143.361 221.544 143.985 221.752 144.769 221.752ZM157.952 223.216C156.912 223.216 156 222.968 155.215 222.472C154.448 221.976 153.848 221.28 153.416 220.384C153 219.472 152.792 218.4 152.792 217.168C152.792 215.92 153 214.848 153.416 213.952C153.848 213.04 154.448 212.344 155.215 211.864C156 211.368 156.912 211.12 157.952 211.12C158.864 211.12 159.664 211.32 160.352 211.72C161.056 212.12 161.576 212.672 161.912 213.376V206.896C161.912 206.24 162.24 205.912 162.896 205.912C163.536 205.912 163.856 206.24 163.856 206.896V222.16C163.856 222.832 163.536 223.168 162.896 223.168C162.256 223.168 161.936 222.832 161.936 222.16V220.912C161.584 221.632 161.056 222.2 160.352 222.616C159.664 223.016 158.864 223.216 157.952 223.216ZM158.36 221.656C159.448 221.656 160.32 221.272 160.976 220.504C161.632 219.72 161.96 218.608 161.96 217.168C161.96 215.712 161.632 214.6 160.976 213.832C160.32 213.064 159.448 212.68 158.36 212.68C157.256 212.68 156.376 213.064 155.72 213.832C155.08 214.6 154.76 215.712 154.76 217.168C154.76 218.608 155.08 219.72 155.72 220.504C156.376 221.272 157.256 221.656 158.36 221.656ZM171.176 223.216C170.376 223.216 169.656 223.064 169.016 222.76C168.392 222.44 167.896 222.008 167.528 221.464C167.16 220.92 166.976 220.312 166.976 219.64C166.976 218.792 167.192 218.12 167.624 217.624C168.072 217.128 168.8 216.776 169.808 216.568C170.832 216.344 172.224 216.232 173.984 216.232H174.752V215.488C174.752 214.496 174.544 213.784 174.128 213.352C173.728 212.904 173.08 212.68 172.184 212.68C171.624 212.68 171.056 212.752 170.48 212.896C169.92 213.04 169.336 213.272 168.728 213.592C168.456 213.736 168.224 213.768 168.032 213.688C167.856 213.592 167.728 213.448 167.648 213.256C167.584 213.048 167.584 212.84 167.648 212.632C167.728 212.408 167.888 212.24 168.128 212.128C168.816 211.776 169.504 211.52 170.192 211.36C170.896 211.2 171.56 211.12 172.184 211.12C173.688 211.12 174.8 211.488 175.52 212.224C176.256 212.96 176.624 214.104 176.624 215.656V222.16C176.624 222.832 176.328 223.168 175.736 223.168C175.112 223.168 174.8 222.832 174.8 222.16V220.984C174.496 221.672 174.024 222.216 173.384 222.616C172.76 223.016 172.024 223.216 171.176 223.216ZM171.488 221.752C172.448 221.752 173.232 221.424 173.84 220.768C174.448 220.096 174.752 219.248 174.752 218.224V217.504H174.008C172.712 217.504 171.688 217.568 170.936 217.696C170.2 217.808 169.68 218.016 169.376 218.32C169.088 218.608 168.944 219.008 168.944 219.52C168.944 220.176 169.168 220.712 169.616 221.128C170.08 221.544 170.704 221.752 171.488 221.752ZM181.19 223.168C180.55 223.168 180.23 222.832 180.23 222.16V206.896C180.23 206.24 180.55 205.912 181.19 205.912C181.846 205.912 182.174 206.24 182.174 206.896V216.52H182.222L187.142 211.816C187.35 211.608 187.542 211.448 187.718 211.336C187.894 211.224 188.126 211.168 188.414 211.168C188.798 211.168 189.046 211.32 189.158 211.624C189.286 211.912 189.206 212.208 188.918 212.512L184.238 216.952L189.374 221.776C189.71 222.096 189.798 222.408 189.638 222.712C189.494 223.016 189.246 223.168 188.894 223.168C188.606 223.168 188.366 223.112 188.174 223C187.998 222.872 187.79 222.688 187.55 222.448L182.222 217.528H182.174V222.16C182.174 222.832 181.846 223.168 181.19 223.168ZM195.785 223.216C194.985 223.216 194.265 223.064 193.625 222.76C193.001 222.44 192.505 222.008 192.137 221.464C191.769 220.92 191.585 220.312 191.585 219.64C191.585 218.792 191.801 218.12 192.233 217.624C192.681 217.128 193.409 216.776 194.417 216.568C195.441 216.344 196.833 216.232 198.593 216.232H199.361V215.488C199.361 214.496 199.153 213.784 198.737 213.352C198.337 212.904 197.689 212.68 196.793 212.68C196.233 212.68 195.665 212.752 195.089 212.896C194.529 213.04 193.945 213.272 193.337 213.592C193.065 213.736 192.833 213.768 192.641 213.688C192.465 213.592 192.337 213.448 192.257 213.256C192.193 213.048 192.193 212.84 192.257 212.632C192.337 212.408 192.497 212.24 192.737 212.128C193.425 211.776 194.113 211.52 194.801 211.36C195.505 211.2 196.169 211.12 196.793 211.12C198.297 211.12 199.409 211.488 200.129 212.224C200.865 212.96 201.233 214.104 201.233 215.656V222.16C201.233 222.832 200.937 223.168 200.345 223.168C199.721 223.168 199.409 222.832 199.409 222.16V220.984C199.105 221.672 198.633 222.216 197.993 222.616C197.369 223.016 196.633 223.216 195.785 223.216ZM196.097 221.752C197.057 221.752 197.841 221.424 198.449 220.768C199.057 220.096 199.361 219.248 199.361 218.224V217.504H198.617C197.321 217.504 196.297 217.568 195.545 217.696C194.809 217.808 194.289 218.016 193.985 218.32C193.697 218.608 193.553 219.008 193.553 219.52C193.553 220.176 193.777 220.712 194.225 221.128C194.689 221.544 195.313 221.752 196.097 221.752ZM205.8 223.168C205.16 223.168 204.84 222.832 204.84 222.16V212.152C204.84 211.496 205.152 211.168 205.776 211.168C206.416 211.168 206.736 211.496 206.736 212.152V213.328C207.12 212.592 207.664 212.04 208.368 211.672C209.072 211.304 209.864 211.12 210.744 211.12C213.512 211.12 214.896 212.656 214.896 215.728V222.16C214.896 222.832 214.576 223.168 213.936 223.168C213.28 223.168 212.952 222.832 212.952 222.16V215.848C212.952 214.76 212.736 213.968 212.304 213.472C211.888 212.96 211.216 212.704 210.288 212.704C209.216 212.704 208.36 213.04 207.72 213.712C207.096 214.368 206.784 215.248 206.784 216.352V222.16C206.784 222.832 206.456 223.168 205.8 223.168ZM230.404 223.216C229.476 223.216 228.556 223.08 227.644 222.808C226.748 222.536 225.94 222.112 225.22 221.536C224.98 221.376 224.836 221.184 224.788 220.96C224.756 220.72 224.796 220.504 224.908 220.312C225.02 220.12 225.18 219.992 225.388 219.928C225.612 219.864 225.86 219.92 226.132 220.096C227.396 221.008 228.812 221.464 230.38 221.464C231.548 221.464 232.468 221.136 233.14 220.48C233.812 219.824 234.148 218.96 234.148 217.888C234.148 216.784 233.828 215.88 233.188 215.176C232.548 214.472 231.668 214.12 230.548 214.12C229.86 214.12 229.22 214.248 228.628 214.504C228.052 214.76 227.532 215.168 227.068 215.728C226.956 215.856 226.82 215.968 226.66 216.064C226.516 216.144 226.348 216.184 226.156 216.184C225.58 216.184 225.292 215.904 225.292 215.344V206.992C225.292 206.384 225.596 206.08 226.204 206.08H234.364C234.972 206.08 235.276 206.36 235.276 206.92C235.276 207.48 234.972 207.76 234.364 207.76H227.236V213.808C228.164 212.88 229.388 212.416 230.908 212.416C231.964 212.416 232.884 212.64 233.668 213.088C234.452 213.536 235.052 214.168 235.468 214.984C235.9 215.784 236.116 216.72 236.116 217.792C236.116 218.848 235.884 219.784 235.42 220.6C234.956 221.416 234.292 222.056 233.428 222.52C232.58 222.984 231.572 223.216 230.404 223.216ZM244.434 223.216C242.498 223.216 241.026 222.472 240.018 220.984C239.01 219.496 238.506 217.344 238.506 214.528C238.506 211.696 239.01 209.544 240.018 208.072C241.026 206.6 242.498 205.864 244.434 205.864C246.386 205.864 247.858 206.6 248.85 208.072C249.858 209.528 250.362 211.672 250.362 214.504C250.362 217.336 249.85 219.496 248.826 220.984C247.818 222.472 246.354 223.216 244.434 223.216ZM244.434 221.512C245.778 221.512 246.77 220.944 247.41 219.808C248.066 218.656 248.394 216.888 248.394 214.504C248.394 212.104 248.074 210.352 247.434 209.248C246.794 208.128 245.794 207.568 244.434 207.568C243.09 207.568 242.09 208.128 241.434 209.248C240.794 210.368 240.474 212.12 240.474 214.504C240.474 216.888 240.794 218.656 241.434 219.808C242.09 220.944 243.09 221.512 244.434 221.512ZM7.94559 256.168C7.41759 256.168 7.04159 255.864 6.81759 255.256L1.51359 240.112C1.40159 239.76 1.42559 239.472 1.58559 239.248C1.74559 239.024 2.01759 238.912 2.40159 238.912C2.91359 238.912 3.26559 239.192 3.45759 239.752L7.99359 253.12L12.6496 239.824C12.8576 239.216 13.2096 238.912 13.7056 238.912C13.9616 238.912 14.1616 238.992 14.3056 239.152C14.4656 239.296 14.6016 239.52 14.7136 239.824L19.3216 253.24L23.9776 239.752C24.1536 239.192 24.4976 238.912 25.0096 238.912C25.3456 238.912 25.5856 239.024 25.7296 239.248C25.8896 239.472 25.9136 239.76 25.8016 240.112L20.4736 255.256C20.3616 255.56 20.2176 255.792 20.0416 255.952C19.8816 256.096 19.6496 256.168 19.3456 256.168C19.0576 256.168 18.8256 256.096 18.6496 255.952C18.4736 255.792 18.3296 255.56 18.2176 255.256L13.6576 242.08L9.04959 255.256C8.93759 255.56 8.80159 255.792 8.64159 255.952C8.48159 256.096 8.24959 256.168 7.94559 256.168ZM32.1134 256.216C30.9774 256.216 29.9934 255.968 29.1614 255.472C28.3294 254.976 27.6814 254.28 27.2174 253.384C26.7694 252.472 26.5454 251.4 26.5454 250.168C26.5454 248.936 26.7694 247.872 27.2174 246.976C27.6814 246.064 28.3294 245.36 29.1614 244.864C29.9934 244.368 30.9774 244.12 32.1134 244.12C33.2334 244.12 34.2094 244.368 35.0414 244.864C35.8894 245.36 36.5374 246.064 36.9854 246.976C37.4494 247.872 37.6814 248.936 37.6814 250.168C37.6814 251.4 37.4494 252.472 36.9854 253.384C36.5374 254.28 35.8894 254.976 35.0414 255.472C34.2094 255.968 33.2334 256.216 32.1134 256.216ZM32.1134 254.656C33.2014 254.656 34.0734 254.272 34.7294 253.504C35.3854 252.72 35.7134 251.608 35.7134 250.168C35.7134 248.712 35.3854 247.6 34.7294 246.832C34.0734 246.064 33.2014 245.68 32.1134 245.68C31.0094 245.68 30.1294 246.064 29.4734 246.832C28.8334 247.6 28.5134 248.712 28.5134 250.168C28.5134 251.608 28.8334 252.72 29.4734 253.504C30.1294 254.272 31.0094 254.656 32.1134 254.656ZM41.5853 256.168C40.9293 256.168 40.6013 255.832 40.6013 255.16V245.152C40.6013 244.496 40.9133 244.168 41.5373 244.168C42.1773 244.168 42.4973 244.496 42.4973 245.152V246.424C42.8173 245.688 43.3133 245.128 43.9853 244.744C44.6573 244.344 45.4573 244.128 46.3853 244.096C46.8973 244.048 47.1693 244.304 47.2013 244.864C47.2493 245.424 46.9613 245.736 46.3373 245.8L45.9533 245.848C44.8493 245.944 44.0093 246.296 43.4333 246.904C42.8573 247.496 42.5693 248.312 42.5693 249.352V255.16C42.5693 255.832 42.2413 256.168 41.5853 256.168ZM50.1629 256.168C49.5229 256.168 49.2029 255.832 49.2029 255.16V239.896C49.2029 239.24 49.5229 238.912 50.1629 238.912C50.8189 238.912 51.1469 239.24 51.1469 239.896V249.52H51.1949L56.1149 244.816C56.3229 244.608 56.5149 244.448 56.6909 244.336C56.8669 244.224 57.0989 244.168 57.3869 244.168C57.7709 244.168 58.0189 244.32 58.1309 244.624C58.2589 244.912 58.1789 245.208 57.8909 245.512L53.2109 249.952L58.3469 254.776C58.6829 255.096 58.7709 255.408 58.6109 255.712C58.4669 256.016 58.2189 256.168 57.8669 256.168C57.5789 256.168 57.3389 256.112 57.1469 256C56.9709 255.872 56.7629 255.688 56.5229 255.448L51.1949 250.528H51.1469V255.16C51.1469 255.832 50.8189 256.168 50.1629 256.168ZM64.928 256.216C64.208 256.216 63.48 256.128 62.744 255.952C62.024 255.76 61.352 255.456 60.728 255.04C60.44 254.864 60.296 254.64 60.296 254.368C60.312 254.08 60.424 253.856 60.632 253.696C60.84 253.536 61.104 253.536 61.424 253.696C62.048 254.08 62.648 254.352 63.224 254.512C63.816 254.656 64.4 254.728 64.976 254.728C65.888 254.728 66.576 254.56 67.04 254.224C67.504 253.888 67.736 253.432 67.736 252.856C67.736 252.408 67.584 252.056 67.28 251.8C66.976 251.528 66.496 251.32 65.84 251.176L63.656 250.696C61.672 250.264 60.68 249.24 60.68 247.624C60.68 246.568 61.096 245.72 61.928 245.08C62.776 244.44 63.88 244.12 65.24 244.12C65.928 244.12 66.592 244.216 67.232 244.408C67.872 244.584 68.448 244.872 68.96 245.272C69.232 245.464 69.352 245.696 69.32 245.968C69.288 246.24 69.16 246.456 68.936 246.616C68.728 246.76 68.472 246.736 68.168 246.544C67.688 246.224 67.2 245.992 66.704 245.848C66.208 245.688 65.72 245.608 65.24 245.608C64.344 245.608 63.664 245.784 63.2 246.136C62.736 246.488 62.504 246.952 62.504 247.528C62.504 248.424 63.096 249 64.28 249.256L66.464 249.712C67.488 249.936 68.264 250.296 68.792 250.792C69.32 251.272 69.584 251.928 69.584 252.76C69.584 253.832 69.16 254.68 68.312 255.304C67.464 255.912 66.336 256.216 64.928 256.216ZM73.5067 256.168C72.8667 256.168 72.5467 255.832 72.5467 255.16V239.896C72.5467 239.24 72.8667 238.912 73.5067 238.912C74.1627 238.912 74.4907 239.24 74.4907 239.896V246.256C74.8747 245.552 75.4107 245.024 76.0987 244.672C76.8027 244.304 77.5867 244.12 78.4507 244.12C81.2187 244.12 82.6027 245.656 82.6027 248.728V255.16C82.6027 255.832 82.2827 256.168 81.6427 256.168C80.9867 256.168 80.6587 255.832 80.6587 255.16V248.848C80.6587 247.76 80.4427 246.968 80.0107 246.472C79.5947 245.96 78.9227 245.704 77.9947 245.704C76.9227 245.704 76.0667 246.04 75.4267 246.712C74.8027 247.368 74.4907 248.248 74.4907 249.352V255.16C74.4907 255.832 74.1627 256.168 73.5067 256.168ZM91.0353 256.216C89.8993 256.216 88.9153 255.968 88.0833 255.472C87.2513 254.976 86.6033 254.28 86.1393 253.384C85.6913 252.472 85.4673 251.4 85.4673 250.168C85.4673 248.936 85.6913 247.872 86.1393 246.976C86.6033 246.064 87.2513 245.36 88.0833 244.864C88.9153 244.368 89.8993 244.12 91.0353 244.12C92.1553 244.12 93.1313 244.368 93.9633 244.864C94.8113 245.36 95.4593 246.064 95.9073 246.976C96.3713 247.872 96.6033 248.936 96.6033 250.168C96.6033 251.4 96.3713 252.472 95.9073 253.384C95.4593 254.28 94.8113 254.976 93.9633 255.472C93.1313 255.968 92.1553 256.216 91.0353 256.216ZM91.0353 254.656C92.1233 254.656 92.9953 254.272 93.6513 253.504C94.3073 252.72 94.6353 251.608 94.6353 250.168C94.6353 248.712 94.3073 247.6 93.6513 246.832C92.9953 246.064 92.1233 245.68 91.0353 245.68C89.9313 245.68 89.0513 246.064 88.3953 246.832C87.7553 247.6 87.4353 248.712 87.4353 250.168C87.4353 251.608 87.7553 252.72 88.3953 253.504C89.0513 254.272 89.9313 254.656 91.0353 254.656ZM100.483 260.488C99.8432 260.488 99.5232 260.16 99.5232 259.504V245.152C99.5232 244.496 99.8352 244.168 100.459 244.168C101.115 244.168 101.443 244.496 101.443 245.152V246.4C101.779 245.696 102.299 245.144 103.003 244.744C103.707 244.328 104.515 244.12 105.427 244.12C106.467 244.12 107.371 244.368 108.139 244.864C108.923 245.344 109.523 246.04 109.939 246.952C110.371 247.848 110.587 248.92 110.587 250.168C110.587 251.4 110.371 252.472 109.939 253.384C109.523 254.28 108.923 254.976 108.139 255.472C107.371 255.968 106.467 256.216 105.427 256.216C104.531 256.216 103.731 256.016 103.027 255.616C102.323 255.216 101.803 254.664 101.467 253.96V259.504C101.467 260.16 101.139 260.488 100.483 260.488ZM105.019 254.656C106.107 254.656 106.979 254.272 107.635 253.504C108.291 252.72 108.619 251.608 108.619 250.168C108.619 248.712 108.291 247.6 107.635 246.832C106.979 246.064 106.107 245.68 105.019 245.68C103.931 245.68 103.059 246.064 102.403 246.832C101.747 247.6 101.419 248.712 101.419 250.168C101.419 251.608 101.747 252.72 102.403 253.504C103.059 254.272 103.931 254.656 105.019 254.656ZM121.047 256C120.327 256 119.967 255.64 119.967 254.92V240.16C119.967 239.44 120.327 239.08 121.047 239.08H125.679C128.415 239.08 130.527 239.808 132.015 241.264C133.503 242.704 134.247 244.792 134.247 247.528C134.247 250.264 133.503 252.36 132.015 253.816C130.527 255.272 128.415 256 125.679 256H121.047ZM121.935 254.32H125.535C129.951 254.32 132.159 252.056 132.159 247.528C132.159 243.016 129.951 240.76 125.535 240.76H121.935V254.32ZM141.187 256.216C140.387 256.216 139.667 256.064 139.027 255.76C138.403 255.44 137.907 255.008 137.539 254.464C137.171 253.92 136.987 253.312 136.987 252.64C136.987 251.792 137.203 251.12 137.635 250.624C138.083 250.128 138.811 249.776 139.819 249.568C140.843 249.344 142.235 249.232 143.995 249.232H144.763V248.488C144.763 247.496 144.555 246.784 144.139 246.352C143.739 245.904 143.091 245.68 142.195 245.68C141.635 245.68 141.067 245.752 140.491 245.896C139.931 246.04 139.347 246.272 138.739 246.592C138.467 246.736 138.235 246.768 138.043 246.688C137.867 246.592 137.739 246.448 137.659 246.256C137.595 246.048 137.595 245.84 137.659 245.632C137.739 245.408 137.899 245.24 138.139 245.128C138.827 244.776 139.515 244.52 140.203 244.36C140.907 244.2 141.571 244.12 142.195 244.12C143.699 244.12 144.811 244.488 145.531 245.224C146.267 245.96 146.635 247.104 146.635 248.656V255.16C146.635 255.832 146.339 256.168 145.747 256.168C145.123 256.168 144.811 255.832 144.811 255.16V253.984C144.507 254.672 144.035 255.216 143.395 255.616C142.771 256.016 142.035 256.216 141.187 256.216ZM141.499 254.752C142.459 254.752 143.243 254.424 143.851 253.768C144.459 253.096 144.763 252.248 144.763 251.224V250.504H144.019C142.723 250.504 141.699 250.568 140.947 250.696C140.211 250.808 139.691 251.016 139.387 251.32C139.099 251.608 138.955 252.008 138.955 252.52C138.955 253.176 139.179 253.712 139.627 254.128C140.091 254.544 140.715 254.752 141.499 254.752ZM151.202 256.168C150.562 256.168 150.242 255.832 150.242 255.16V245.152C150.242 244.496 150.554 244.168 151.178 244.168C151.818 244.168 152.138 244.496 152.138 245.152V246.328C152.522 245.592 153.066 245.04 153.77 244.672C154.474 244.304 155.266 244.12 156.146 244.12C158.914 244.12 160.298 245.656 160.298 248.728V255.16C160.298 255.832 159.978 256.168 159.338 256.168C158.682 256.168 158.354 255.832 158.354 255.16V248.848C158.354 247.76 158.138 246.968 157.706 246.472C157.29 245.96 156.618 245.704 155.69 245.704C154.618 245.704 153.762 246.04 153.122 246.712C152.498 247.368 152.186 248.248 152.186 249.352V255.16C152.186 255.832 151.858 256.168 151.202 256.168ZM175.758 256.168C175.23 256.168 174.854 255.864 174.63 255.256L169.326 240.112C169.214 239.76 169.238 239.472 169.398 239.248C169.558 239.024 169.83 238.912 170.214 238.912C170.726 238.912 171.078 239.192 171.27 239.752L175.806 253.12L180.462 239.824C180.67 239.216 181.022 238.912 181.518 238.912C181.774 238.912 181.974 238.992 182.118 239.152C182.278 239.296 182.414 239.52 182.526 239.824L187.134 253.24L191.79 239.752C191.966 239.192 192.31 238.912 192.822 238.912C193.158 238.912 193.398 239.024 193.542 239.248C193.702 239.472 193.726 239.76 193.614 240.112L188.286 255.256C188.174 255.56 188.03 255.792 187.854 255.952C187.694 256.096 187.462 256.168 187.158 256.168C186.87 256.168 186.638 256.096 186.462 255.952C186.286 255.792 186.142 255.56 186.03 255.256L181.47 242.08L176.862 255.256C176.75 255.56 176.614 255.792 176.454 255.952C176.294 256.096 176.062 256.168 175.758 256.168ZM200.334 256.216C198.494 256.216 197.038 255.68 195.966 254.608C194.894 253.52 194.358 252.048 194.358 250.192C194.358 248.992 194.598 247.936 195.078 247.024C195.558 246.096 196.214 245.384 197.046 244.888C197.894 244.376 198.87 244.12 199.974 244.12C201.558 244.12 202.798 244.632 203.694 245.656C204.59 246.664 205.038 248.056 205.038 249.832C205.038 250.328 204.758 250.576 204.198 250.576H196.254C196.318 251.904 196.702 252.92 197.406 253.624C198.11 254.312 199.086 254.656 200.334 254.656C200.862 254.656 201.398 254.592 201.942 254.464C202.486 254.32 203.014 254.072 203.526 253.72C203.894 253.48 204.198 253.432 204.438 253.576C204.694 253.72 204.822 253.944 204.822 254.248C204.838 254.536 204.678 254.792 204.342 255.016C203.814 255.4 203.182 255.696 202.446 255.904C201.726 256.112 201.022 256.216 200.334 256.216ZM200.022 245.56C198.918 245.56 198.046 245.904 197.406 246.592C196.766 247.28 196.39 248.184 196.278 249.304H203.358C203.31 248.12 202.998 247.2 202.422 246.544C201.862 245.888 201.062 245.56 200.022 245.56ZM213.755 256.216C212.843 256.216 212.035 256.016 211.331 255.616C210.627 255.2 210.107 254.632 209.771 253.912V255.16C209.771 255.832 209.451 256.168 208.811 256.168C208.171 256.168 207.851 255.832 207.851 255.16V239.896C207.851 239.24 208.171 238.912 208.811 238.912C209.467 238.912 209.795 239.24 209.795 239.896V246.352C210.131 245.664 210.651 245.12 211.355 244.72C212.059 244.32 212.859 244.12 213.755 244.12C214.795 244.12 215.699 244.368 216.467 244.864C217.251 245.344 217.851 246.04 218.267 246.952C218.699 247.848 218.915 248.92 218.915 250.168C218.915 251.4 218.699 252.472 218.267 253.384C217.851 254.28 217.251 254.976 216.467 255.472C215.699 255.968 214.795 256.216 213.755 256.216ZM213.347 254.656C214.435 254.656 215.307 254.272 215.963 253.504C216.619 252.72 216.947 251.608 216.947 250.168C216.947 248.712 216.619 247.6 215.963 246.832C215.307 246.064 214.435 245.68 213.347 245.68C212.259 245.68 211.387 246.064 210.731 246.832C210.075 247.6 209.747 248.712 209.747 250.168C209.747 251.608 210.075 252.72 210.731 253.504C211.387 254.272 212.259 254.656 213.347 254.656ZM222.804 241.528C221.956 241.528 221.532 241.128 221.532 240.328C221.532 239.544 221.956 239.152 222.804 239.152C223.652 239.152 224.076 239.544 224.076 240.328C224.076 241.128 223.652 241.528 222.804 241.528ZM222.804 256.12C222.164 256.12 221.844 255.768 221.844 255.064V245.248C221.844 244.56 222.164 244.216 222.804 244.216C223.46 244.216 223.788 244.56 223.788 245.248V255.064C223.788 255.768 223.46 256.12 222.804 256.12ZM228.382 256.168C227.742 256.168 227.422 255.832 227.422 255.16V245.152C227.422 244.496 227.734 244.168 228.358 244.168C228.998 244.168 229.318 244.496 229.318 245.152V246.328C229.702 245.592 230.246 245.04 230.95 244.672C231.654 244.304 232.446 244.12 233.326 244.12C236.094 244.12 237.478 245.656 237.478 248.728V255.16C237.478 255.832 237.158 256.168 236.518 256.168C235.862 256.168 235.534 255.832 235.534 255.16V248.848C235.534 247.76 235.318 246.968 234.886 246.472C234.47 245.96 233.798 245.704 232.87 245.704C231.798 245.704 230.942 246.04 230.302 246.712C229.678 247.368 229.366 248.248 229.366 249.352V255.16C229.366 255.832 229.038 256.168 228.382 256.168ZM244.734 256.216C243.934 256.216 243.214 256.064 242.574 255.76C241.95 255.44 241.454 255.008 241.086 254.464C240.718 253.92 240.534 253.312 240.534 252.64C240.534 251.792 240.75 251.12 241.182 250.624C241.63 250.128 242.358 249.776 243.366 249.568C244.39 249.344 245.782 249.232 247.542 249.232H248.31V248.488C248.31 247.496 248.102 246.784 247.686 246.352C247.286 245.904 246.638 245.68 245.742 245.68C245.182 245.68 244.614 245.752 244.038 245.896C243.478 246.04 242.894 246.272 242.286 246.592C242.014 246.736 241.782 246.768 241.59 246.688C241.414 246.592 241.286 246.448 241.206 246.256C241.142 246.048 241.142 245.84 241.206 245.632C241.286 245.408 241.446 245.24 241.686 245.128C242.374 244.776 243.062 244.52 243.75 244.36C244.454 244.2 245.118 244.12 245.742 244.12C247.246 244.12 248.358 244.488 249.078 245.224C249.814 245.96 250.182 247.104 250.182 248.656V255.16C250.182 255.832 249.886 256.168 249.294 256.168C248.67 256.168 248.358 255.832 248.358 255.16V253.984C248.054 254.672 247.582 255.216 246.942 255.616C246.318 256.016 245.582 256.216 244.734 256.216ZM245.046 254.752C246.006 254.752 246.79 254.424 247.398 253.768C248.006 253.096 248.31 252.248 248.31 251.224V250.504H247.566C246.27 250.504 245.246 250.568 244.494 250.696C243.758 250.808 243.238 251.016 242.934 251.32C242.646 251.608 242.502 252.008 242.502 252.52C242.502 253.176 242.726 253.712 243.174 254.128C243.638 254.544 244.262 254.752 245.046 254.752ZM254.773 256.168C254.117 256.168 253.789 255.832 253.789 255.16V245.152C253.789 244.496 254.101 244.168 254.725 244.168C255.365 244.168 255.685 244.496 255.685 245.152V246.424C256.005 245.688 256.501 245.128 257.173 244.744C257.845 244.344 258.645 244.128 259.573 244.096C260.085 244.048 260.357 244.304 260.389 244.864C260.437 245.424 260.149 245.736 259.525 245.8L259.141 245.848C258.037 245.944 257.197 246.296 256.621 246.904C256.045 247.496 255.757 248.312 255.757 249.352V255.16C255.757 255.832 255.429 256.168 254.773 256.168Z" fill="black"/>
<path d="M48.9735 0H206.009C216.777 0 219.469 5.9823 219.469 8.97345V125.628C219.469 135.2 210.496 137.593 206.009 137.593H147.681V152.549C165.628 152.549 168.121 163.516 167.124 169H86.3628C85.2441 155.693 99.3245 153.047 108.796 152.549V137.593H48.9735C41.7947 137.593 40 130.614 40 127.124V8.97345C40 1.79469 45.9823 0 48.9735 0Z" fill="#8EE7E8"/>
<rect x="57.2998" y="18.6299" width="146.378" height="95.811" rx="10" fill="white" stroke="black"/>
<path d="M168.325 54.3706L123.458 31.937L78.5908 54.3706L90.5554 59.8091M168.325 54.3706L159.352 59.3559M168.325 54.3706H174.308V82.7866M168.325 54.3706H126.449M90.5554 59.8091L127.945 76.8043L159.352 59.3559M90.5554 59.8091V82.7866L127.945 102.229L160.847 84.2821L159.352 59.3559M174.308 82.7866L178.794 90.2644M174.308 82.7866L169.821 90.2644M126.449 54.3706V49.8839M126.449 54.3706V59.8091" stroke="#81CAD8" stroke-width="3" stroke-linejoin="round"/>
</svg>
